<svg xmlns="http://www.w3.org/2000/svg" width="60" height="70.068" viewBox="0 0 60 70.068">
  <g id="Group_386" data-name="Group 386" transform="translate(-936.941 -666.495)">
    <g id="Group_383" data-name="Group 383">
      <g id="Group_382" data-name="Group 382">
        <path id="Path_4110" data-name="Path 4110" d="M995.742,673.252a5.069,5.069,0,0,0-3.869-1.789h-4.895v-1.531a3.442,3.442,0,0,0-3.437-3.437h-33.2a3.439,3.439,0,0,0-3.436,3.436v1.532h-4.9a5.069,5.069,0,0,0-3.869,1.789,5.008,5.008,0,0,0-1.134,4.054,26.242,26.242,0,0,0,13.329,18.732,34.759,34.759,0,0,0,2.191,4.391c2.6,4.376,5.833,7.4,9.392,8.863a7.408,7.408,0,0,1-5.72,7.924l-.021.006a1.622,1.622,0,0,0-1.244,1.576v7.439h-3.009a4.872,4.872,0,0,0-4.865,4.865v3.84a1.621,1.621,0,0,0,1.622,1.621h36.675a1.62,1.62,0,0,0,1.622-1.621h0V731.1a4.871,4.871,0,0,0-4.865-4.865H979.1V718.8a1.621,1.621,0,0,0-1.248-1.576l-.02-.006a7.4,7.4,0,0,1-5.714-7.991c3.5-1.486,6.673-4.484,9.235-8.795a34.648,34.648,0,0,0,2.19-4.393,26.236,26.236,0,0,0,13.329-18.73A5.008,5.008,0,0,0,995.742,673.252Zm-55.535,3.533a1.742,1.742,0,0,1,.4-1.432,1.83,1.83,0,0,1,1.4-.647h4.9v2.983a50.981,50.981,0,0,0,1.728,13.355A22.971,22.971,0,0,1,940.207,676.785Zm41.906,52.7a1.624,1.624,0,0,1,1.621,1.622v2.218H950.3V731.1a1.624,1.624,0,0,1,1.621-1.622Zm-6.253-9.061v5.818H958.177v-5.818Zm-13.43-3.243a10.8,10.8,0,0,0,1.1-1.432,10.552,10.552,0,0,0,1.674-5.566,12.712,12.712,0,0,0,3.639-.021,10.671,10.671,0,0,0,2.785,7.019Zm21.3-39.487c0,7.99-1.834,15.477-5.166,21.082-3.174,5.342-7.3,8.283-11.626,8.283s-8.454-2.941-11.628-8.282c-3.331-5.606-5.166-13.093-5.166-21.083v-7.758a.194.194,0,0,1,.193-.193h33.2a.194.194,0,0,1,.194.194Zm9.941-.9a22.964,22.964,0,0,1-8.426,14.258,50.972,50.972,0,0,0,1.729-13.354v-2.983h4.895a1.834,1.834,0,0,1,1.4.647,1.745,1.745,0,0,1,.4,1.432Z" fill="#fff"/>
      </g>
    </g>
    <g id="Group_385" data-name="Group 385">
      <g id="Group_384" data-name="Group 384">
        <path id="Path_4111" data-name="Path 4111" d="M976.786,683.144a1.623,1.623,0,0,0-1.309-1.1l-4.893-.711L968.4,676.9a1.621,1.621,0,0,0-2.908,0L963.3,681.33l-4.893.711a1.621,1.621,0,0,0-.9,2.766l3.541,3.452-.836,4.874a1.622,1.622,0,0,0,2.353,1.709l4.377-2.3,4.377,2.3a1.622,1.622,0,0,0,2.353-1.71l-.836-4.874,3.541-3.451A1.622,1.622,0,0,0,976.786,683.144Zm-6.825,3.386a1.621,1.621,0,0,0-.467,1.436l.424,2.475-2.223-1.169a1.623,1.623,0,0,0-1.509,0l-2.223,1.169.424-2.475a1.624,1.624,0,0,0-.466-1.436l-1.8-1.752,2.485-.361a1.619,1.619,0,0,0,1.221-.887l1.112-2.253,1.112,2.252a1.617,1.617,0,0,0,1.221.887l2.485.362Z" fill="#fff"/>
      </g>
    </g>
  </g>
</svg>
