<svg xmlns="http://www.w3.org/2000/svg" width="1930.814" height="683.081" viewBox="0 0 1930.814 683.081">
  <path id="background-black" d="M434,724.081V113.39h-4.422c-.994-11.617.847-20.849-.372-30.17a2.962,2.962,0,0,1,.3-2.75c-.072-10.178.324-19.875.543-27.93.309.01.469-.13.458-.43,1.534.126,1.18-.363,1.587-.419,2.306-.43,3.319-.32,2.5-1.71.371-5.545,1.75.063,3.194.419-.574,1.582-1.558.976-1.246,1.63.884-.31,1.757-.609,2.631-.91-2.211-1.137-1.086-1.609-1.843-1.57.022-.65,1.12-.75.884-1.52-3.261-.724-1.112-1.713-2.7-2.33,1.135-2.275,1.568-2.908,1.363-3.42,1.223.989.546,1.535.916,1.71-.77,1.339,1.4,1.355,1.363,1.13-.215-4.046.612-3.416,1.139-1.561h2.96c-1.564,1.657-.712,2.093-.916,3-.284,0-.485,0-.63-.005-.487-.015-.348-.032-.658.285.128.049.257.09.383.139v1.7c.543-.19.82-.44.9-.84h.916c.171.42-.426,1.08.458,1.28.033,1.193.412.809.772.425.193-.206.38-.412.506-.374.053.38.107.76.181,1.26.628-.471,1.171-.89,1.725-1.31,1.091-.994.167-1.766.458-2.14h.734c.373.6-.064,1.191.383,1.72.245-.45.469-.869.7-1.29-.074-.68.746-.229.895-.63-.266-.39-.81-.56-.895-1.08.239-.581.635-.512,1.088-.445a1.923,1.923,0,0,0,.786,0c-.275.77.257.96.98,1.45-.359-1.028.119-1.02.6-1.012.062,0,.124,0,.185,0v2.81c.617.44.841-.159,1.235-.159.363.319-.127.85.32,1.159.383-.349.341-1.08,1.055-1.159.288.4-.117.91.352,1.2h.68c-.064.45-.68.74-.458,1.28-2.308,2.3-2.244,1.563-2.086,3,.4-1.536.909-.524,1.447-.46,1.474-1.986.976-2.8,2-3.389,1.831.276,1.835-1.076,1.821-1.71.394-.651.394-.651,0-1.291.1-.689.949-.339,1.214-.779l.16.36c-.16.71.5,1.09.82,1.64.053-.38.117-.77.16-1.1a1.031,1.031,0,0,1,.618-.105c.252.01.49.02.66-.205-1.082-1.383-.134-2.011-.437-2.479-.277-.471-.873-.1-.809-.68a1.545,1.545,0,0,1,.724-.076,1.449,1.449,0,0,0,1.065-.243c-.49-.381.5-1.15-.533-1.461.031-.464.314-.445.6-.426a1.265,1.265,0,0,0,.315,0c.98.86.98.86,1.821.86.3.74-.458,1.31-.468,2.08.553-.09.883-.53,1.373-.37-.473,3.148.155,2.9.457,3.42.022.64-.158,1.37.916,1.66V46.98c1.757.167,1.334.49,1.822.43,2.91,3.924,4.224-.43,1.821-.43.148-.28.3-.57.458-.85h.9c.91.432,1.261.1,1.461-.241.147-.248.213-.5.361-.436-.367-.208-.46-.633-.905-.6v-.43c1.791-.11,1.223-.781,1.821-.43,1.018.714,1.217.229,1.354-.257.1-.344.163-.687.468-.6,1.171,1.814-.189,1.671.9,2.14,1.084.844,1.364.379,1.363.86-.31-.01-.458.13-.447.43-1.027,1.205.121,1.04.447,1.28.32.81-.447.82-1.171,1.22.884.011,1.49.23,2.087-.139V47.41h.9c.48,2.244,1.553.909,1.374.43,1.123-1.6.19-2.545.446-3.42.9-.866.2-1.036.32-1.291h-1.683c.734-.949,1.3-.769,1.3-1.13-.362-.3-.627-.6-.148-1,2.144-.035,2.182,1.484,2.106,3-.082,1.617-.3,3.235,1.759,2.977-.021.3.139.44.447.43-.227,1.4-.247,1.113,0,1.28-.006,1.6-.11,1.881.458,2.14.16.46-.277.77-.362,1.13,1.269-.013,1.755-.912,1.724-1.13,2.579-.645.563-2.22.458-2.14v-.419c2.7-.034,3.928-.7,4.559-.43.911.555,1.48-.2,1.822-.962.424-.94.5-1.879.446-.318.479.319.139,1.139.915,1.28a2.639,2.639,0,0,0,.735,2.07c.662-.445.689-.031.7.382.013.346.018.691.382.537a11.394,11.394,0,0,1,.617,4.24h.585c.639-.95-.372-1.679-.286-2.53.831-.34,1.085.71,1.746.81v-2.38a1.113,1.113,0,0,0-.8-.114c-.4.04-.775.079-.949-.456a1.038,1.038,0,0,0,.831-.71c-.15-.139-.257-.239-.362-.339,1.011-.685,1.23-.246,1.34.194.094.372.109.743.459.437,2.157,1.228-.57,2.605.691,3.44.491-.62,1.278-.98,1.588-1.73h.458c.053.4-.129.82.224,1.329a1.834,1.834,0,0,0,1.138-1.759c.831.319,1.086-.69,1.779-.82-.671,2.452-.854,2.327.041,3.379.688,1.679.44,1.22.448,2.191h1.757c-.141-2.879-.03-2.291-.064-3.47.309.01.458-.13.447-.43,1.33.144,1.107-.254,1.6-.419,2.3-.428,3.319-.319,2.5-1.71.37-5.545,1.75.066,3.2.419-.574,1.582-1.559.976-1.247,1.63.885-.31,1.758-.609,2.631-.91-2.208-1.139-1.1-1.609-1.841-1.57.021-.65,1.118-.75.883-1.52-3.262-.724-1.112-1.712-2.7-2.33.727-1.675,1.726-3.016,1.364-3.42,1.223.991.544,1.533.916,1.71-.771,1.339,1.4,1.355,1.363,1.13-.216-4.046.612-3.416,1.139-1.561h2.961c-1.568,1.661-.713,2.093-.916,3-.284,0-.486,0-.631-.005-.487-.015-.348-.032-.658.285.128.049.256.09.383.139v1.7c.543-.19.809-.44.905-.84h.916c.169.42-.427,1.08.446,1.28.047,1.193.425.809.782.425.192-.206.379-.412.506-.374.054.38.107.76.181,1.26.629-.471,1.173-.89,1.726-1.31,1.071-1,.16-1.766.447-2.14h.745c.373.6-.064,1.191.383,1.72.246-.45.468-.869.692-1.29-.075-.68.756-.229.905-.63-.266-.39-.82-.56-.905-1.08.247-.581.644-.512,1.1-.445a1.885,1.885,0,0,0,.778,0c-.266.77.257.96.99,1.45-.357-1.028.12-1.02.6-1.012.062,0,.124,0,.185,0v2.81c.618.44.841-.159,1.236-.159.363.319-.139.85.31,1.159.393-.349.351-1.08,1.065-1.159.287.4-.118.91.351,1.2h.682c-.076.45-.682.74-.458,1.28-1.646,1.659-2.613,1.927-2.088,3,.4-1.536.909-.524,1.449-.46,1.463-1.989.977-2.8,2-3.389,1.831.276,1.834-1.076,1.822-1.71.393-.651.393-.651,0-1.291.1-.689.947-.339,1.214-.779.052.12.105.239.148.36-.148.71.511,1.09.83,1.64.054-.38.118-.77.16-1.1a1.026,1.026,0,0,1,.617-.105.7.7,0,0,0,.661-.205c-.818-1.673-.437-2.672-1.246-3.16a1.543,1.543,0,0,1,.724-.076,1.447,1.447,0,0,0,1.065-.243c-.49-.381.5-1.15-.532-1.461.031-.464.313-.445.6-.426a1.265,1.265,0,0,0,.315,0c.98.86.98.86,1.822.86.3.74-.458,1.31-.469,2.08.554-.09.885-.53,1.374-.37-.473,3.148.154,2.9.458,3.42.01.64-.16,1.37.915,1.66V46.98c1.757.167,1.335.49,1.821.43,1.906,2.569,3.127,1.587,3.067.6a1.12,1.12,0,0,0-1.247-1.034c.15-.28.3-.57.448-.85h.915c.911.426,1.262.092,1.461-.243.148-.247.213-.495.36-.433-.368-.208-.47-.633-.916-.6v-.43c1.785-.1,1.236-.785,1.822-.43,1.03.715,1.228.229,1.362-.256.094-.342.157-.685.459-.6,1.2,1.815-.2,1.673.916,2.14,1.081.841,1.351.379,1.363.86-.309-.01-.469.13-.448.43-1.035,1.206.124,1.04.448,1.28.308.81-.448.82-1.172,1.22.884.011,1.491.23,2.087-.139V47.41h.906c1.319,3.564,2.263-2.048,1.821-2.99.89-.863.2-1.037.308-1.291h-1.671c.733-.949,1.3-.769,1.3-1.13-.362-.3-.629-.6-.149-1,2.135-.036,2.173,1.483,2.1,3-.08,1.615-.289,3.229,1.759,2.977-.012.3.148.44.457.43-.237,1.41-.243,1.112,0,1.28-.006,1.6-.111,1.881.457,2.14.16.46-.275.77-.372,1.13,1.277-.014,1.764-.916,1.736-1.13,2.577-.645.562-2.22.457-2.14v-.419c2.7-.034,3.928-.7,4.558-.43.911.555,1.48-.2,1.823-.962.424-.94.5-1.879.446-.318.468.319.138,1.139.915,1.28a2.642,2.642,0,0,0,.734,2.07c.663-.445.689-.031.7.382.013.346.018.691.382.537a11.4,11.4,0,0,1,.618,4.24h.575c.65-.95-.373-1.679-.287-2.53.841-.34,1.1.71,1.757.81v-2.38a1.116,1.116,0,0,0-.8-.114c-.4.04-.779.079-.959-.456a1.037,1.037,0,0,0,.841-.71c-.148-.139-.266-.239-.373-.339,1.02-.688,1.237-.248,1.347.193.093.372.108.743.463.437,2.158,1.228-.569,2.605.693,3.44.49-.62,1.278-.98,1.586-1.73h.458c.053.4-.127.82.224,1.329a1.831,1.831,0,0,0,1.138-1.759c.832.319,1.087-.69,1.779-.82-.674,2.452-.851,2.329.042,3.379.688,1.679.44,1.22.448,2.191h1.757c-.167-2.879-.035-2.291-.076-3.47.32.01.47-.13.458-.43,1.33.144,1.108-.254,1.6-.419,2.3-.428,3.317-.32,2.5-1.71.372-5.542,1.741.057,3.184.419-.559,1.571-1.545.975-1.236,1.63.885-.31,1.758-.609,2.621-.91-2.184-1.139-1.094-1.609-1.832-1.57.021-.65,1.107-.75.884-1.52-3.267-.726-1.117-1.708-2.7-2.33.724-1.671,1.728-3.016,1.363-3.42,1.216.986.544,1.535.905,1.71-.738,1.346,1.408,1.353,1.373,1.13-.221-4.047.611-3.411,1.139-1.561h2.95c-1.542,1.666-.707,2.092-.905,3-.284,0-.485,0-.631-.005-.486-.015-.347-.032-.658.285.118.049.245.09.373.139v1.7c.554-.19.82-.44.916-.84h.905c.181.42-.415,1.08.458,1.28.047,1.193.424.808.782.425.192-.206.379-.412.507-.374.053.38.106.76.181,1.26.628-.471,1.171-.89,1.725-1.31,1.067-1,.163-1.768.446-2.14h.735c.383.6-.053,1.191.394,1.72.245-.45.468-.869.692-1.29-.076-.68.756-.229.9-.63-.266-.39-.82-.56-.9-1.08.247-.581.64-.512,1.091-.445a1.91,1.91,0,0,0,.783,0c-.266.77.256.96.98,1.45-.349-1.028.129-1.02.6-1.012.061,0,.122,0,.183,0v2.81c.628.44.852-.159,1.247-.159.362.319-.139.85.309,1.159.383-.349.351-1.08,1.065-1.159.287.4-.117.91.351,1.2h.671c-.064.45-.671.74-.447,1.28-2.316,2.288-2.252,1.56-2.1,3,.4-1.538.919-.523,1.448-.46,1.476-1.99.977-2.8,2.013-3.389,1.83.276,1.833-1.076,1.821-1.71.394-.651.394-.651,0-1.291.1-.689.948-.339,1.214-.779.053.12.107.239.149.36-.149.71.511,1.09.832,1.64.053-.38.105-.77.158-1.1a1.026,1.026,0,0,1,.616-.105.7.7,0,0,0,.661-.205c-.817-1.673-.436-2.672-1.246-3.16a1.545,1.545,0,0,1,.724-.076,1.45,1.45,0,0,0,1.066-.243c-.491-.381.5-1.15-.533-1.461.031-.464.312-.445.6-.426a1.272,1.272,0,0,0,.316,0c.98.86.98.86,1.822.86.3.74-.458,1.31-.469,2.08.554-.09.884-.53,1.373-.37-.472,3.147.154,2.9.458,3.42.011.64-.171,1.37.905,1.66V46.98c1.751.158,1.346.491,1.821.43,1.922,2.569,3.14,1.586,3.077.6a1.127,1.127,0,0,0-1.256-1.033c.16-.28.31-.57.458-.85h.916c.91.426,1.261.092,1.461-.243.148-.247.213-.5.362-.433-.369-.208-.471-.633-.917-.6v-.43c1.784-.1,1.235-.785,1.821-.43,1.023.715,1.225.23,1.362-.256.1-.342.16-.684.459-.6,1.2,1.815-.2,1.673.916,2.14,1.08.841,1.352.379,1.364.86-.31-.01-.47.13-.458.43-1.021,1.208.137,1.04.458,1.28.309.81-.458.82-1.172,1.22.873.011,1.49.23,2.087-.139V47.41h.905c.481,2.246,1.542.9,1.363.43,1.137-1.595.2-2.545.458-3.42.895-.864.185-1.036.31-1.291h-1.672c.734-.949,1.3-.769,1.3-1.13-.362-.3-.628-.6-.148-1,2.135-.035,2.173,1.483,2.1,3-.08,1.615-.289,3.229,1.758,2.977-.011.3.138.44.458.43-.238,1.41-.242,1.112,0,1.28-.006,1.6-.11,1.881.458,2.14.148.46-.277.77-.373,1.13,1.278-.014,1.765-.916,1.736-1.13,2.574-.643.556-2.218.458-2.14v-.419c2.691-.032,3.92-.7,4.547-.43.916.56,1.489-.2,1.832-.96.425-.94.5-1.881.447-.319.468.319.139,1.139.916,1.28a2.636,2.636,0,0,0,.735,2.07c.662-.445.689-.031.7.382.013.346.019.691.383.537a11.7,11.7,0,0,1,.617,4.24h.575c.65-.95-.372-1.679-.287-2.53.841-.34,1.1.71,1.757.81v-2.38a1.113,1.113,0,0,0-.8-.114c-.4.04-.779.079-.96-.456a1.037,1.037,0,0,0,.841-.71c-.16-.139-.266-.239-.374-.339,1.02-.688,1.238-.248,1.347.193.093.372.108.743.464.437,1.809.784-.317,2.789.692,3.44.49-.62,1.267-.98,1.588-1.73h.457c.053.4-.128.82.223,1.329a1.834,1.834,0,0,0,1.14-1.759c.83.319,1.086-.69,1.778-.82-.67,2.455-.859,2.326.043,3.379.685,1.679.446,1.22.436,2.191h1.768c-.165-2.879-.035-2.291-.074-3.47.319.01.468-.13.457-.43,1.327.144,1.106-.251,1.587-.419,2.328-.428,3.312-.32,2.513-1.71.359-5.541,1.75.056,3.185.419-.574,1.578-1.543.976-1.236,1.63.884-.31,1.757-.609,2.62-.91-2.194-1.148-1.094-1.607-1.842-1.57.031-.65,1.118-.75.884-1.52-3.263-.724-1.11-1.713-2.7-2.33.739-1.668,1.737-3.015,1.372-3.42,1.218.986.545,1.535.906,1.71-.759,1.346,1.4,1.353,1.364,1.13-.211-4.046.622-3.411,1.149-1.561H684.6c-1.547,1.669-.7,2.089-.905,3-.277,0-.474,0-.618-.005-.5-.015-.355-.031-.68.285.128.049.257.09.384.139v1.7c.553-.19.819-.44.914-.84h.905c.182.42-.415,1.08.458,1.28.047,1.193.423.809.779.425.19-.205.374-.41.5-.374.064.38.117.76.192,1.26.618-.471,1.171-.89,1.715-1.31,1.092-.994.167-1.766.459-2.14h.734c.384.6-.053,1.191.394,1.72.245-.45.469-.869.692-1.29-.074-.68.757-.229.906-.63-.267-.39-.821-.56-.906-1.08.247-.581.641-.512,1.091-.445a1.914,1.914,0,0,0,.784,0c-.266.77.256.96.979,1.45-.349-1.028.13-1.02.606-1.012.061,0,.123,0,.183,0v2.81c.628.44.851-.159,1.236-.159.372.319-.128.85.319,1.159.384-.349.352-1.08,1.066-1.159.276.4-.117.91.352,1.2h.67c-.063.45-.67.74-.446,1.28-2.317,2.289-2.253,1.56-2.1,3,.405-1.538.92-.523,1.449-.46,1.476-1.992.976-2.795,2.012-3.389,1.831.276,1.835-1.076,1.821-1.71.394-.651.394-.651,0-1.291.1-.689.937-.339,1.214-.779.054.12.1.239.149.36-.149.71.512,1.09.831,1.64.053-.38.106-.77.16-1.1a1.02,1.02,0,0,1,.615-.105.7.7,0,0,0,.663-.205c-.812-1.674-.449-2.674-1.246-3.16a1.519,1.519,0,0,1,.72-.076,1.457,1.457,0,0,0,1.069-.243c-.49-.381.5-1.15-.533-1.461.031-.464.314-.445.6-.426a1.214,1.214,0,0,0,.309,0c.991.86.991.86,1.821.86.309.74-.447,1.31-.468,2.08.564-.09.894-.53,1.384-.37-.472,3.148.155,2.9.457,3.42.012.64-.169,1.37.905,1.66V46.98c1.751.158,1.346.491,1.821.43,2.918,3.922,4.242-.427,1.822-.43.16-.28.309-.57.458-.85h.915c.908.427,1.26.092,1.461-.243.148-.247.213-.494.36-.434-.367-.208-.47-.632-.915-.6v-.43c1.784-.1,1.235-.785,1.821-.43,1.023.715,1.225.23,1.362-.256.1-.342.161-.684.46-.6,1.2,1.815-.2,1.673.915,2.14,1.066.845,1.359.379,1.363.86-.319-.01-.468.13-.458.43-1.019,1.208.137,1.04.458,1.28.309.81-.458.82-1.171,1.22.873.011,1.48.23,2.087-.139V47.41h.9c.482,2.246,1.543.9,1.363.43,1.126-1.6.2-2.547.458-3.42.894-.864.184-1.036.309-1.291h-1.672c.738-.948,1.289-.769,1.3-1.13-.372-.3-.627-.6-.158-1,2.147-.039,2.184,1.481,2.108,3-.082,1.614-.292,3.227,1.757,2.977-.01.3.139.44.458.43-.238,1.417-.241,1.111,0,1.28-.006,1.6-.11,1.881.458,2.14.149.46-.277.77-.373,1.13a1.633,1.633,0,0,0,1.735-1.13c2.574-.643.557-2.218.458-2.14v-.419c2.691-.032,3.921-.7,4.548-.43.916.56,1.487-.2,1.83-.961.424-.94.5-1.881.449-.319.469.319.139,1.139.915,1.28a2.639,2.639,0,0,0,.735,2.07c.662-.445.688-.031.7.382.013.346.019.691.383.537a12.025,12.025,0,0,1,.618,4.24h.574c.639-.95-.373-1.679-.288-2.53.832-.34,1.1.71,1.758.81v-2.38a1.115,1.115,0,0,0-.8-.114c-.4.04-.779.079-.96-.456a1.023,1.023,0,0,0,.832-.71c-.149-.139-.256-.239-.362-.339,1.019-.688,1.237-.248,1.346.193.092.372.108.743.464.437,2.152,1.225-.566,2.606.692,3.44.49-.62,1.266-.98,1.587-1.73h.447c.052.4-.117.82.235,1.329A1.834,1.834,0,0,0,747.9,51.26c.832.319,1.086-.69,1.778-.82-.679,2.459-.855,2.33.043,3.379.679,1.679.445,1.221.437,2.191h1.767c-.165-2.879-.034-2.291-.074-3.47.32.01.468-.13.458-.43,1.534.126,1.18-.363,1.586-.419,2.32-.431,3.3-.311,2.515-1.71.354-5.541,1.747.058,3.183.419-.574,1.579-1.545.976-1.246,1.63.894-.31,1.768-.609,2.63-.91-2.191-1.146-1.093-1.607-1.841-1.57.031-.65,1.118-.75.884-1.52-3.263-.724-1.11-1.713-2.705-2.33,1.134-2.275,1.582-2.907,1.374-3.42,1.2,1,.55,1.532.9,1.71-.759,1.346,1.4,1.353,1.363,1.13-.214-4.038.624-3.421,1.138-1.561h2.961c-1.553,1.675-.7,2.089-.9,3-.277,0-.474,0-.618-.005-.5-.015-.357-.031-.682.285.129.049.256.09.384.139v1.7c.554-.19.82-.44.916-.84h.9c.17.42-.416,1.08.458,1.28.047,1.192.422.808.777.425.19-.205.375-.41.5-.374.064.38.117.76.191,1.26.618-.471,1.173-.89,1.715-1.31,1.091-.994.168-1.766.458-2.14h.734c.383.6-.053,1.191.394,1.72.234-.45.468-.869.692-1.29-.075-.68.756-.229.895-.63-.256-.39-.809-.56-.895-1.08.239-.581.635-.512,1.089-.445a1.923,1.923,0,0,0,.786,0c-.266.77.256.96.979,1.45-.359-1.028.127-1.02.606-1.012.061,0,.122,0,.183,0v2.81c.628.44.852-.159,1.235-.159.374.319-.128.85.32,1.159.383-.349.34-1.08,1.065-1.159.277.4-.127.91.352,1.2h.671c-.064.45-.682.74-.458,1.28-2.294,2.288-2.247,1.563-2.087,3,.409-1.538.91-.523,1.448-.46,1.476-1.992.975-2.795,2.012-3.389,1.831.276,1.834-1.076,1.822-1.71.383-.651.383-.651,0-1.291.085-.689.937-.339,1.214-.779.053.12.094.239.148.36-.148.71.5,1.09.83,1.64.053-.38.107-.77.16-1.1a1.021,1.021,0,0,1,.615-.105.676.676,0,0,0,.653-.205c-.785-1.687-.448-2.673-1.235-3.16a1.515,1.515,0,0,1,.719-.076,1.46,1.46,0,0,0,1.07-.243c-.49-.381.49-1.15-.534-1.461.023-.464.31-.445.595-.426a1.234,1.234,0,0,0,.311,0c.99.86.99.86,1.821.86.31.74-.446,1.31-.469,2.08.554-.09.884-.53,1.385-.37-.472,3.148.154,2.9.458,3.42.01.64-.171,1.37.905,1.66V46.98c1.75.158,1.345.491,1.821.43,1.913,2.571,3.128,1.588,3.065.6a1.121,1.121,0,0,0-1.245-1.034c.149-.28.31-.57.458-.85h.905c.913.43,1.267.094,1.469-.242.15-.247.215-.5.362-.435-.367-.208-.47-.632-.915-.6v-.43c1.785-.1,1.236-.785,1.822-.43,1.026.715,1.224.23,1.359-.256.1-.342.159-.685.462-.6,1.2,1.815-.2,1.673.915,2.14,1.065.845,1.36.379,1.364.86-.32-.01-.469.13-.458.43-1.02,1.208.136,1.04.458,1.28.308.81-.458.82-1.172,1.22.873.011,1.48.23,2.077-.139V47.41h.915c.472,2.254,1.545.9,1.364.43,1.126-1.6.2-2.547.458-3.42.89-.868.186-1.035.308-1.291h-1.672c.737-.96,1.293-.767,1.3-1.13-.373-.3-.639-.6-.16-1,2.152-.036,2.186,1.483,2.107,3-.085,1.614-.3,3.227,1.76,2.977-.012.3.138.44.456.43-.238,1.417-.24,1.111,0,1.28,0,1.6-.11,1.876.448,2.14.16.46-.266.77-.362,1.13a1.635,1.635,0,0,0,1.735-1.13c2.558-.646.558-2.22.458-2.14v-.419c2.684-.033,3.93-.7,4.548-.43.914.554,1.485-.2,1.828-.962.425-.94.5-1.879.45-.318.469.319.139,1.139.906,1.28a2.606,2.606,0,0,0,.745,2.07c.665-.445.687-.031.7.382.01.345.013.69.377.537a11.653,11.653,0,0,1,.628,4.24h.575c.639-.95-.374-1.679-.288-2.53.831-.34,1.087.71,1.758.81v-2.38a1.131,1.131,0,0,0-.8-.114c-.4.04-.775.079-.956-.456a1.037,1.037,0,0,0,.831-.71l-.362-.339c1.017-.682,1.236-.244,1.346.194.093.371.108.742.464.436,2.132,1.232-.559,2.608.693,3.44.489-.62,1.267-.98,1.586-1.73h.448c.053.4-.128.82.223,1.329a1.827,1.827,0,0,0,1.15-1.759c.831.319,1.086-.69,1.768-.82-.643,2.449-.868,2.339.053,3.379.684,1.679.437,1.222.437,2.191h1.758c-.142-2.879-.031-2.291-.064-3.47.32.01.469-.13.457-.43,1.534.126,1.181-.363,1.588-.419,2.315-.429,3.3-.314,2.513-1.71.355-5.548,1.744.066,3.184.419-.576,1.579-1.546.976-1.247,1.63.885-.31,1.768-.609,2.63-.91-2.191-1.146-1.093-1.607-1.841-1.57.032-.65,1.118-.75.884-1.52-3.262-.724-1.109-1.713-2.7-2.33,1.135-2.275,1.568-2.908,1.363-3.42,1.22.98.556,1.536.916,1.71-.761,1.343,1.4,1.354,1.363,1.13-.211-4.044.622-3.417,1.14-1.561h2.96c-1.564,1.657-.712,2.1-.916,3-.272,0-.466,0-.608-.005-.507-.014-.358-.03-.68.285.127.049.255.09.383.139v1.7c.544-.19.82-.44.905-.84h.916c.171.42-.427,1.08.458,1.28.047,1.192.421.808.777.425.19-.205.374-.41.5-.374.053.38.117.76.181,1.26.628-.471,1.182-.89,1.724-1.31,1.092-.994.168-1.766.458-2.14h.735c.383.6-.064,1.191.394,1.72.234-.45.468-.869.692-1.29-.075-.68.756-.229.895-.63-.256-.39-.81-.56-.895-1.08.239-.581.635-.512,1.088-.445a1.923,1.923,0,0,0,.786,0c-.266.77.256.96.98,1.45-.359-1.028.126-1.02.6-1.012.061,0,.122,0,.183,0v2.81c.618.44.841-.159,1.236-.159.373.319-.128.85.32,1.159.383-.349.341-1.08,1.065-1.159.277.4-.128.91.351,1.2h.671c-.064.45-.681.74-.458,1.28-2.3,2.289-2.249,1.564-2.087,3,.4-1.538.91-.524,1.448-.46,1.475-1.989.978-2.8,2.013-3.389,1.827.276,1.835-1.077,1.821-1.71.383-.651.383-.651,0-1.291.085-.689.937-.339,1.214-.779.042.12.1.239.149.36-.16.71.5,1.09.831,1.64.053-.38.106-.77.148-1.1a1.053,1.053,0,0,1,.624-.105c.25.01.484.02.654-.205-.786-1.687-.447-2.673-1.236-3.16a1.516,1.516,0,0,1,.719-.076,1.431,1.431,0,0,0,1.06-.243c-.49-.381.5-1.15-.522-1.461.023-.464.309-.445.594-.426a1.228,1.228,0,0,0,.31,0c.98.86.98.86,1.822.86.3.74-.458,1.31-.469,2.08.553-.09.884-.53,1.384-.37-.475,3.146.151,2.9.447,3.42.021.64-.16,1.37.916,1.66V46.98c1.75.158,1.346.491,1.821.43,1.914,2.571,3.128,1.588,3.066.6a1.121,1.121,0,0,0-1.245-1.034c.148-.28.309-.57.457-.85h.905c.906.433,1.262.1,1.463-.241.148-.246.214-.492.355-.437-.365-.209-.458-.631-.9-.6v-.43c1.791-.1,1.22-.784,1.821-.43,1.024.712,1.225.228,1.36-.257.1-.344.159-.687.461-.6,1.2,1.811-.2,1.671.905,2.14,1.086.845,1.366.379,1.374.86-.32-.01-.47.13-.458.43-1.013,1.207.124,1.04.458,1.28.309.81-.458.82-1.183,1.22.885.011,1.491.23,2.087-.139V47.41h.916c.472,2.254,1.546.9,1.363.43,1.127-1.6.2-2.547.458-3.42.89-.868.186-1.035.31-1.291h-1.683c.749-.955,1.3-.768,1.3-1.13-.362-.3-.628-.6-.149-1,2.146-.035,2.183,1.484,2.106,3-.083,1.615-.3,3.229,1.76,2.977-.011.3.138.44.458.43-.234,1.419-.252,1.111,0,1.28-.007,1.6-.109,1.878.447,2.14.159.46-.277.77-.363,1.13a1.638,1.638,0,0,0,1.736-1.13c2.558-.648.554-2.221.447-2.14v-.419c2.692-.034,3.941-.7,4.558-.43.916.557,1.483-.2,1.823-.961.422-.94.5-1.881.456-.319.468.319.138,1.139.9,1.28a2.639,2.639,0,0,0,.735,2.07c.675-.446.7-.032.709.382.009.345.011.689.376.538a11.2,11.2,0,0,1,.618,4.24h.585c.639-.95-.372-1.679-.287-2.53.83-.34,1.086.71,1.746.81v-2.38a1.1,1.1,0,0,0-.792-.114c-.4.04-.772.079-.954-.456a1.034,1.034,0,0,0,.83-.71l-.362-.339c1.018-.682,1.237-.244,1.347.194.093.371.108.742.464.436,2.131,1.232-.56,2.608.692,3.44.48-.62,1.267-.98,1.576-1.73h.458c.053.4-.128.82.224,1.329A1.8,1.8,0,0,0,908.8,51.26c.831.319,1.1-.69,1.778-.82-.648,2.451-.856,2.333.043,3.379.7,1.679.448,1.221.447,2.191h1.757c-.142-2.879-.03-2.291-.064-3.47.309.01.469-.13.458-.43,1.534.126,1.18-.363,1.587-.419,2.31-.426,3.318-.324,2.5-1.71.375-5.547,1.744.06,3.194.419-.576,1.579-1.546.976-1.246,1.63.884-.31,1.758-.609,2.631-.91-2.2-1.153-1.088-1.6-1.842-1.57.022-.65,1.119-.75.883-1.52-3.261-.724-1.112-1.713-2.7-2.33,1.134-2.275,1.567-2.908,1.363-3.42,1.217.983.558,1.536.915,1.71-.769,1.339,1.4,1.355,1.364,1.13-.211-4.044.622-3.417,1.139-1.561h2.96c-1.563,1.657-.712,2.093-.915,3-.268,0-.461,0-.6-.005-.514-.014-.368-.03-.685.285.128.049.257.09.383.139v1.7c.543-.19.82-.44.905-.84h.915c.171.42-.426,1.08.458,1.28.04,1.193.415.808.772.424.192-.206.379-.413.506-.374.054.38.107.76.181,1.26.629-.471,1.172-.89,1.725-1.31,1.091-.994.167-1.766.458-2.14h.734c.373.6-.064,1.191.383,1.72.245-.45.469-.869.7-1.29-.074-.68.746-.229.895-.63-.256-.39-.808-.56-.895-1.08.239-.581.635-.512,1.089-.445a1.923,1.923,0,0,0,.786,0c-.277.77.256.96.979,1.45-.358-1.028.12-1.02.6-1.012.062,0,.124,0,.185,0v2.81c.617.44.841-.159,1.236-.159.372.319-.128.85.319,1.159.383-.349.341-1.08,1.055-1.159.288.4-.118.91.352,1.2h.68c-.064.45-.68.74-.458,1.28-2.295,2.289-2.249,1.564-2.087,3,.4-1.536.91-.524,1.448-.46,1.474-1.986.976-2.8,2-3.389,1.83.276,1.834-1.076,1.82-1.71.4-.651.4-.651,0-1.291.1-.689.949-.339,1.225-.779.043.12.1.239.149.36-.16.71.5,1.09.82,1.64.064-.38.117-.77.16-1.1a1.03,1.03,0,0,1,.618-.105c.252.01.49.02.66-.205-1.082-1.383-.134-2.011-.437-2.479-.277-.471-.873-.1-.8-.68a1.513,1.513,0,0,1,.718-.076,1.429,1.429,0,0,0,1.059-.243c-.49-.381.5-1.15-.533-1.461.031-.464.32-.445.606-.426a1.228,1.228,0,0,0,.311,0c.98.86.98.86,1.821.86.3.74-.458,1.31-.468,2.08.553-.09.884-.53,1.384-.37-.492,3.148.156,2.9.446,3.42.022.64-.158,1.37.916,1.66V46.98c1.757.16,1.332.491,1.821.43,1.912,2.571,3.129,1.588,3.068.6A1.124,1.124,0,0,0,954.2,46.98c.148-.28.3-.57.458-.85h.9c.909.432,1.261.1,1.461-.241.147-.248.213-.5.361-.436-.367-.208-.46-.633-.905-.6v-.43c1.791-.11,1.223-.781,1.821-.43,1.021.713,1.221.229,1.358-.257.1-.342.162-.685.464-.6,1.2,1.811-.2,1.671.9,2.14,1.087.845,1.366.379,1.374.86-.319-.01-.468.13-.458.43-1.03,1.209.128,1.041.458,1.28.309.81-.458.82-1.182,1.22.884.011,1.49.23,2.086-.139V47.41h.916c.454,2.243,1.549.91,1.363.43,1.126-1.6.205-2.547.458-3.42.87-.874.193-1.034.309-1.291h-1.683c.734-.949,1.3-.769,1.3-1.13-.363-.3-.628-.6-.148-1,2.143-.037,2.182,1.483,2.105,3-.081,1.616-.293,3.234,1.759,2.977-.01.3.14.44.447.43-.227,1.4-.247,1.113,0,1.28-.01,1.6-.1,1.88.458,2.14.16.46-.277.77-.362,1.13,1.269-.013,1.755-.912,1.724-1.13,2.579-.645.563-2.22.458-2.14v-.419c2.7-.034,3.928-.7,4.558-.43.914.558,1.481-.2,1.823-.961.421-.94.5-1.881.456-.319.469.319.138,1.139.9,1.28a2.639,2.639,0,0,0,.735,2.07c.667-.445.691-.031.706.382.012.345.016.69.381.537a11.208,11.208,0,0,1,.617,4.24h.587c.638-.95-.373-1.679-.289-2.53.832-.34,1.086.71,1.747.81v-2.38a1.105,1.105,0,0,0-.793-.114c-.4.04-.772.079-.954-.456a1.038,1.038,0,0,0,.832-.71l-.362-.339c1.011-.685,1.23-.246,1.34.194.094.372.109.743.459.437,2.156,1.228-.569,2.606.7,3.44.479-.62,1.266-.98,1.576-1.73h.458c.053.4-.129.82.223,1.329a1.833,1.833,0,0,0,1.139-1.759c.831.319,1.086-.69,1.779-.82-.643,2.448-.864,2.329.041,3.379.688,1.679.44,1.22.448,2.191h1.757c-.141-2.879-.03-2.291-.064-3.47.31.01.468-.13.447-.43,1.549.127,1.187-.361,1.6-.419,2.3-.429,3.323-.32,2.5-1.71.37-5.545,1.75.066,3.2.419-.574,1.582-1.559.976-1.246,1.63.884-.31,1.757-.609,2.63-.91-2.208-1.139-1.1-1.609-1.841-1.57.021-.65,1.118-.75.884-1.52-3.263-.724-1.113-1.713-2.705-2.33,1.135-2.276,1.567-2.907,1.363-3.42,1.223.991.544,1.533.916,1.71-.771,1.339,1.4,1.355,1.363,1.13-.215-4.046.612-3.416,1.139-1.561h2.961c-1.564,1.657-.714,2.093-.916,3-.284,0-.486,0-.631-.005-.487-.015-.348-.032-.658.285.128.049.256.09.383.139v1.7c.544-.19.82-.44.905-.84h.916c.169.42-.427,1.08.446,1.28.047,1.193.425.809.782.425.193-.206.379-.412.507-.374.053.38.106.76.182,1.26.627-.471,1.171-.89,1.724-1.31,1.148-1.652.13-1.779.458-2.14h.734c.373.6-.063,1.191.383,1.72.246-.45.468-.869.7-1.29-.075-.68.745-.229.895-.63-.266-.39-.809-.56-.895-1.08.239-.581.635-.512,1.089-.445a1.923,1.923,0,0,0,.786,0c-.277.77.255.96.98,1.45-.359-1.028.118-1.02.6-1.012.063,0,.125,0,.186,0v2.81c.617.44.841-.159,1.235-.159.363.319-.128.85.32,1.159.383-.349.341-1.08,1.055-1.159.287.4-.118.91.351,1.2h.682c-.064.45-.682.74-.458,1.28-2.309,2.3-2.245,1.563-2.088,3,.4-1.536.91-.524,1.449-.46,1.462-1.989.978-2.8,2-3.389,1.831.276,1.834-1.076,1.822-1.71.393-.651.393-.651,0-1.291.1-.689.948-.339,1.214-.779l.158.36c-.158.71.5,1.09.821,1.64.053-.38.117-.77.159-1.1a1.034,1.034,0,0,1,.619-.105c.252.01.489.02.659-.205-1.081-1.383-.134-2.011-.436-2.479-.277-.471-.874-.1-.81-.68a1.545,1.545,0,0,1,.724-.076,1.446,1.446,0,0,0,1.064-.243c-.49-.381.5-1.15-.532-1.461.031-.464.313-.445.6-.426a1.272,1.272,0,0,0,.316,0c.979.86.979.86,1.822.86.3.74-.458,1.31-.47,2.08.554-.09.884-.53,1.374-.37-.473,3.148.154,2.9.458,3.42.021.64-.16,1.37.916,1.66V46.98c1.756.167,1.334.49,1.82.43,1.908,2.569,3.128,1.587,3.068.6a1.121,1.121,0,0,0-1.246-1.034c.149-.28.3-.57.447-.85h.916c.91.426,1.261.092,1.461-.243.148-.247.213-.5.362-.433-.368-.208-.462-.633-.906-.6v-.43c1.79-.11,1.222-.781,1.82-.43,1.018.714,1.217.229,1.354-.257.1-.344.163-.687.468-.6,1.172,1.814-.2,1.673.905,2.14,1.083.844,1.363.379,1.363.86-.309-.01-.458.13-.448.43-1.028,1.207.124,1.04.448,1.28.31.81-.448.82-1.172,1.22.884.011,1.491.23,2.088-.139V47.41h.905c1.321,3.564,2.263-2.049,1.821-2.99.89-.863.2-1.037.309-1.291h-1.672c.734-.949,1.3-.769,1.3-1.13-.362-.3-.628-.6-.149-1,2.133-.035,2.173,1.484,2.1,3-.079,1.617-.287,3.235,1.768,2.977-.022.3.139.44.447.43-.237,1.409-.243,1.112,0,1.28-.006,1.6-.111,1.881.458,2.14.159.46-.276.77-.373,1.13,1.282-.012,1.764-.909,1.736-1.13,2.577-.645.562-2.22.458-2.14v-.419c2.7-.034,3.927-.7,4.557-.43.911.555,1.481-.2,1.823-.962.423-.94.5-1.879.446-.318.479.319.139,1.139.916,1.28a2.637,2.637,0,0,0,.734,2.07c.663-.445.689-.031.706.382.013.346.018.691.382.537a11.416,11.416,0,0,1,.617,4.24h.575c.65-.95-.363-1.679-.277-2.53.831-.34,1.087.71,1.747.81v-2.38a1.114,1.114,0,0,0-.8-.114c-.4.04-.775.079-.95-.456a1.038,1.038,0,0,0,.831-.71c-.148-.139-.256-.239-.373-.339,1.016-.688,1.238-.248,1.35.193.094.372.111.743.461.437,2.157,1.228-.57,2.605.692,3.44.49-.62,1.278-.98,1.587-1.73h.457c.054.4-.127.82.224,1.329a1.832,1.832,0,0,0,1.139-1.759c.831.319,1.086-.69,1.778-.82-.673,2.452-.852,2.329.043,3.379.687,1.679.439,1.22.446,2.191h1.758c-.142-2.879-.031-2.291-.064-3.47.309.01.458-.13.446-.43,1.33.144,1.108-.254,1.6-.419,2.3-.428,3.319-.319,2.5-1.71.371-5.539,1.748.056,3.184.419-.552,1.581-1.552.976-1.236,1.63.885-.31,1.758-.609,2.631-.91-2.208-1.139-1.1-1.609-1.842-1.57.021-.65,1.118-.75.884-1.52-3.267-.726-1.117-1.708-2.7-2.33.726-1.675,1.727-3.016,1.363-3.42,1.216.986.544,1.535.905,1.71-.738,1.346,1.409,1.353,1.373,1.13-.221-4.047.611-3.411,1.139-1.561h2.961c-1.566,1.661-.711,2.093-.916,3-.284,0-.485,0-.63-.005-.487-.015-.348-.032-.658.285.127.049.255.09.383.139v1.7c.543-.19.808-.44.9-.84h.916c.17.42-.426,1.08.446,1.28.049,1.193.425.809.783.425.192-.206.379-.412.507-.374.053.38.105.76.181,1.26.628-.471,1.171-.89,1.725-1.31,1.066-1,.163-1.767.446-2.14h.746c.372.6-.064,1.191.383,1.72.245-.45.469-.869.692-1.29-.075-.68.755-.229.9-.63-.266-.39-.82-.56-.9-1.08.247-.581.644-.512,1.1-.445a1.893,1.893,0,0,0,.779,0c-.267.77.255.96.979,1.45-.349-1.028.129-1.02.6-1.012.061,0,.122,0,.183,0v2.81c.629.44.852-.159,1.247-.159.362.319-.139.85.309,1.159.382-.349.351-1.08,1.065-1.159.287.4-.117.91.351,1.2h.682c-.075.45-.682.74-.458,1.28-2.308,2.3-2.255,1.563-2.087,3,.4-1.536.909-.524,1.448-.46,1.463-1.989.979-2.8,2-3.389,1.831.276,1.833-1.076,1.821-1.71.394-.651.394-.651,0-1.291.1-.689.948-.339,1.214-.779.053.12.107.239.149.36-.149.71.51,1.09.831,1.64.053-.38.106-.77.16-1.1a1.02,1.02,0,0,1,.615-.105.7.7,0,0,0,.661-.205c-.817-1.673-.437-2.672-1.245-3.16a1.543,1.543,0,0,1,.724-.076,1.45,1.45,0,0,0,1.066-.243c-.49-.381.5-1.15-.533-1.461.031-.464.314-.445.6-.426a1.265,1.265,0,0,0,.315,0c.98.86.98.86,1.822.86.3.74-.458,1.31-.469,2.08.553-.09.884-.53,1.373-.37-.472,3.148.154,2.9.458,3.42.011.64-.159,1.37.916,1.66V46.98c1.756.167,1.334.49,1.821.43,1.907,2.569,3.128,1.587,3.068.6a1.121,1.121,0,0,0-1.246-1.034c.148-.28.3-.57.446-.85h.916c.91.426,1.261.092,1.461-.243.149-.247.213-.5.362-.433-.369-.208-.472-.633-.917-.6v-.43c1.785-.1,1.235-.784,1.821-.43,1.03.715,1.229.229,1.363-.256.094-.342.157-.685.458-.6,1.2,1.815-.2,1.673.916,2.14,1.082.841,1.352.379,1.364.86-.31-.01-.468.13-.458.43-1.02,1.208.137,1.04.458,1.28.309.81-.447.82-1.172,1.22.884.011,1.491.23,2.087-.139V47.41h.905c1.382,3.629,2.225-2.119,1.821-2.99.891-.863.2-1.037.31-1.291h-1.672c.734-.949,1.3-.769,1.3-1.13-.362-.3-.628-.6-.149-1,2.135-.035,2.173,1.483,2.1,3-.08,1.615-.289,3.229,1.758,2.977-.011.3.148.44.458.43-.238,1.41-.242,1.112,0,1.28-.006,1.6-.111,1.881.458,2.14.159.46-.277.77-.373,1.13,1.278-.014,1.765-.916,1.736-1.13,2.571-.646.566-2.22.458-2.14v-.419c2.7-.034,3.927-.7,4.558-.43.908.557,1.478-.2,1.821-.961.425-.94.5-1.88.447-.319.468.319.139,1.139.916,1.28a2.633,2.633,0,0,0,.735,2.07c.662-.445.688-.031.7.382.013.346.019.691.382.537a11.667,11.667,0,0,1,.616,4.24h.576c.649-.95-.373-1.679-.288-2.53.841-.34,1.1.71,1.757.81v-2.38a1.113,1.113,0,0,0-.8-.114c-.4.04-.779.079-.96-.456a1.035,1.035,0,0,0,.841-.71c-.159-.139-.266-.239-.372-.339,1.02-.688,1.238-.248,1.346.193.093.372.108.743.464.437,2.157,1.228-.57,2.605.692,3.44.49-.62,1.267-.98,1.587-1.73h.458c.053.4-.128.82.223,1.329a1.834,1.834,0,0,0,1.14-1.759c.831.319,1.085-.69,1.777-.82-.67,2.455-.859,2.326.043,3.379.688,1.679.439,1.22.447,2.191h1.757c-.165-2.879-.035-2.291-.074-3.47.319.01.468-.13.458-.43,1.326.144,1.1-.251,1.586-.419,2.328-.428,3.312-.32,2.514-1.71.372-5.542,1.741.057,3.184.419-.559,1.571-1.546.975-1.236,1.63.884-.31,1.757-.609,2.62-.91-2.183-1.139-1.092-1.609-1.832-1.57.022-.65,1.108-.75.884-1.52-3.265-.726-1.117-1.709-2.7-2.33.724-1.671,1.728-3.016,1.363-3.42,1.217.986.544,1.535.906,1.71-.755,1.348,1.415,1.352,1.373,1.13-.222-4.047.611-3.411,1.139-1.561h2.95c-1.542,1.666-.708,2.092-.906,3-.277,0-.474,0-.618-.005-.5-.015-.356-.031-.68.285.128.049.256.09.384.139v1.7c.553-.19.82-.44.914-.84h.906c.181.42-.416,1.08.458,1.28.047,1.193.424.809.782.425.192-.206.378-.412.506-.374.053.38.107.76.181,1.26.628-.471,1.171-.89,1.715-1.31,1.091-.994.167-1.766.458-2.14h.734c.384.6-.053,1.191.394,1.72.245-.45.469-.869.693-1.29-.075-.68.756-.229.9-.63-.266-.39-.819-.56-.9-1.08.247-.581.64-.512,1.091-.445a1.91,1.91,0,0,0,.783,0c-.266.77.256.96.98,1.45-.349-1.028.129-1.02.6-1.012.061,0,.123,0,.183,0v2.81c.628.44.852-.159,1.236-.159.373.319-.128.85.319,1.159.384-.349.352-1.08,1.066-1.159.288.4-.117.91.352,1.2h.671c-.064.45-.671.74-.447,1.28-2.316,2.288-2.253,1.56-2.1,3,.405-1.538.92-.523,1.449-.46,1.475-1.991.976-2.8,2.012-3.389,1.831.276,1.835-1.076,1.821-1.71.394-.651.394-.651,0-1.291.1-.689.938-.339,1.214-.779.054.12.107.239.149.36-.149.71.512,1.09.831,1.64.053-.38.107-.77.16-1.1a1.02,1.02,0,0,1,.615-.105.7.7,0,0,0,.663-.205c-.818-1.673-.437-2.672-1.246-3.16a1.517,1.517,0,0,1,.72-.076,1.458,1.458,0,0,0,1.069-.243c-.49-.381.5-1.15-.533-1.461.031-.464.314-.445.6-.426a1.266,1.266,0,0,0,.315,0c.98.86.98.86,1.821.86.3.74-.458,1.31-.479,2.08.565-.09.895-.53,1.384-.37-.473,3.147.155,2.9.458,3.42.011.64-.17,1.37.9,1.66V46.98c1.751.158,1.346.491,1.822.43,2.929,3.92,4.234-.428,1.821-.43.159-.28.309-.57.458-.85h.915c.911.426,1.262.092,1.462-.243.148-.247.212-.5.361-.433-.368-.208-.471-.633-.917-.6v-.43c1.785-.1,1.235-.785,1.821-.43,1.023.715,1.225.23,1.362-.256.1-.342.161-.684.46-.6,1.2,1.815-.2,1.673.915,2.14,1.084.851,1.356.379,1.364.86-.319-.01-.468.13-.458.43-1.019,1.208.137,1.04.458,1.28.309.81-.458.82-1.171,1.22.873.011,1.49.23,2.087-.139V47.41h.9c.481,2.246,1.542.9,1.364.43,1.127-1.6.205-2.547.458-3.42.894-.865.184-1.036.309-1.291h-1.672c.734-.949,1.3-.769,1.3-1.13-.372-.3-.627-.6-.148-1,2.135-.035,2.173,1.483,2.1,3-.081,1.615-.29,3.229,1.757,2.977-.01.3.139.44.458.43-.237,1.41-.242,1.112,0,1.28-.006,1.6-.11,1.881.458,2.14.149.46-.277.77-.372,1.13,1.269-.014,1.766-.914,1.734-1.13,2.574-.643.557-2.218.458-2.14v-.419c2.691-.032,3.921-.7,4.548-.43.917.559,1.489-.2,1.832-.961.425-.94.5-1.881.447-.319.469.319.139,1.139.916,1.28a2.634,2.634,0,0,0,.734,2.07c.662-.445.688-.031.7.382.014.346.019.691.383.537a11.886,11.886,0,0,1,.618,4.24h.574c.649-.95-.373-1.679-.288-2.53.842-.34,1.1.71,1.758.81v-2.38a1.115,1.115,0,0,0-.8-.114c-.4.04-.778.079-.96-.456a1.037,1.037,0,0,0,.842-.71c-.16-.139-.267-.239-.373-.339,1.02-.688,1.237-.248,1.347.193.093.372.108.743.464.437,1.81.784-.317,2.789.691,3.44.49-.62,1.268-.98,1.588-1.73h.458c.053.4-.129.82.224,1.329a1.834,1.834,0,0,0,1.139-1.759c.831.319,1.086-.69,1.779-.82-.679,2.457-.857,2.326.041,3.379.686,1.679.446,1.22.437,2.191h1.767c-.165-2.879-.034-2.291-.074-3.47.32.01.469-.13.458-.43,1.326.144,1.105-.251,1.587-.419,2.319-.431,3.3-.311,2.514-1.71.357-5.541,1.748.056,3.183.419-.572,1.576-1.544.976-1.246,1.63.894-.31,1.768-.609,2.63-.91-2.193-1.148-1.093-1.607-1.842-1.57.032-.65,1.119-.75.885-1.52-3.262-.724-1.109-1.713-2.705-2.33.739-1.668,1.737-3.015,1.374-3.42,1.216.986.544,1.535.9,1.71-.759,1.346,1.4,1.353,1.364,1.13-.214-4.038.632-3.42,1.139-1.561h2.962c-1.549,1.669-.7,2.089-.906,3-.276,0-.473,0-.617-.005-.5-.015-.357-.03-.683.285.129.049.256.09.384.139v1.7c.554-.19.82-.44.916-.84h.906c.181.42-.416,1.08.457,1.28.048,1.192.422.808.778.425.19-.205.374-.41.5-.374.064.38.117.76.192,1.26.617-.471,1.172-.89,1.714-1.31,1.091-.994.168-1.766.458-2.14h.735c.383.6-.054,1.191.394,1.72.233-.45.468-.869.691-1.29-.075-.68.756-.229.905-.63-.266-.39-.82-.56-.905-1.08.247-.581.64-.512,1.091-.445a1.914,1.914,0,0,0,.784,0c-.266.77.256.96.979,1.45-.349-1.028.13-1.02.606-1.012.061,0,.122,0,.183,0v2.81c.628.44.852-.159,1.235-.159.374.319-.128.85.32,1.159.382-.349.34-1.08,1.065-1.159.276.4-.128.91.351,1.2h.671c-.065.45-.671.74-.458,1.28-2.294,2.288-2.247,1.563-2.087,3,.4-1.538.919-.523,1.448-.46,1.476-1.992.976-2.795,2.012-3.389,1.831.276,1.834-1.076,1.822-1.71.382-.651.382-.651,0-1.291.1-.689.937-.339,1.214-.779.053.12.1.239.148.36-.148.71.511,1.09.831,1.64.053-.38.106-.77.159-1.1a1.026,1.026,0,0,1,.617-.105.7.7,0,0,0,.661-.205c-.812-1.674-.447-2.674-1.246-3.16a1.515,1.515,0,0,1,.719-.076,1.46,1.46,0,0,0,1.07-.243c-.49-.381.49-1.15-.532-1.461.03-.464.312-.445.595-.426a1.221,1.221,0,0,0,.31,0c.99.86.99.86,1.821.86.31.74-.446,1.31-.469,2.08.565-.09.9-.53,1.385-.37-.473,3.148.154,2.9.458,3.42.01.64-.171,1.37.9,1.66V46.98c1.751.158,1.346.491,1.822.43,2.917,3.922,4.24-.427,1.821-.43.159-.28.309-.57.458-.85h.916c.9.429,1.255.094,1.458-.242.149-.246.217-.493.361-.436-.366-.208-.469-.632-.913-.6v-.43c1.784-.1,1.235-.785,1.821-.43,1.022.715,1.224.23,1.361-.256.1-.342.161-.684.46-.6,1.2,1.815-.2,1.673.916,2.14,1.064.845,1.359.379,1.363.86-.32-.01-.469.13-.458.43-1.02,1.208.137,1.04.458,1.28.309.81-.458.82-1.172,1.22.873.011,1.481.23,2.077-.139V47.41h.916c.481,2.246,1.542.9,1.363.43,1.126-1.6.2-2.547.458-3.42.894-.865.184-1.036.308-1.291h-1.67c.735-.96,1.292-.767,1.3-1.13-.373-.3-.629-.6-.16-1,2.15-.037,2.185,1.483,2.107,3-.084,1.614-.3,3.227,1.76,2.977-.012.3.138.44.457.43-.239,1.417-.241,1.111,0,1.28-.006,1.6-.111,1.881.457,2.14.15.46-.275.77-.372,1.13a1.636,1.636,0,0,0,1.736-1.13c2.574-.643.556-2.218.458-2.14v-.419c2.69-.032,3.92-.7,4.547-.43.916.554,1.487-.2,1.829-.962.425-.94.5-1.879.45-.318.468.319.139,1.139.915,1.28a2.639,2.639,0,0,0,.735,2.07c.662-.445.688-.031.7.382.013.346.018.691.381.537a11.982,11.982,0,0,1,.618,4.24h.575c.639-.95-.374-1.679-.287-2.53.83-.34,1.1.71,1.757.81v-2.38a1.116,1.116,0,0,0-.8-.114c-.4.04-.778.079-.959-.456a1.023,1.023,0,0,0,.83-.71l-.362-.339c1.019-.688,1.237-.248,1.346.193.093.372.109.743.464.437,2.152,1.225-.566,2.606.692,3.44.489-.62,1.267-.98,1.586-1.73h.448c.053.4-.118.82.234,1.329a1.831,1.831,0,0,0,1.139-1.759c.832.319,1.087-.69,1.779-.82-.675,2.452-.867,2.34.042,3.379.679,1.679.445,1.221.437,2.191h1.758c-.142-2.879-.031-2.291-.064-3.47.319.01.469-.13.457-.43,1.535.126,1.181-.363,1.588-.419,2.32-.431,3.3-.311,2.513-1.71.356-5.544,1.742.061,3.184.419-.574,1.579-1.545.976-1.246,1.63.885-.31,1.769-.609,2.632-.91-2.192-1.146-1.094-1.607-1.843-1.57.031-.65,1.118-.75.884-1.52-3.262-.724-1.109-1.713-2.7-2.33,1.135-2.275,1.568-2.908,1.363-3.42,1.22.981.557,1.536.916,1.71-.758,1.346,1.4,1.353,1.363,1.13-.214-4.038.625-3.421,1.14-1.561h2.96c-1.554,1.655-.7,2.1-.905,3-.277,0-.474,0-.618-.005-.5-.015-.356-.031-.68.285.128.049.255.09.383.139v1.7c.544-.19.821-.44.916-.84h.905c.171.42-.427,1.08.458,1.28.047,1.192.421.808.777.425.19-.205.374-.41.5-.374.053.38.117.76.192,1.26.617-.471,1.171-.89,1.714-1.31,1.092-.994.168-1.766.458-2.14h.735c.382.6-.053,1.191.394,1.72.234-.45.468-.869.692-1.29-.074-.68.756-.229.895-.63-.255-.39-.81-.56-.895-1.08.239-.581.635-.512,1.088-.445a1.923,1.923,0,0,0,.786,0c-.266.77.256.96.98,1.45-.359-1.028.126-1.02.6-1.012.061,0,.122,0,.183,0v2.81c.629.44.852-.159,1.237-.159.372.319-.128.85.319,1.159.383-.349.341-1.08,1.065-1.159.277.4-.128.91.351,1.2h.671c-.064.45-.681.74-.458,1.28-2.294,2.288-2.246,1.563-2.087,3,.41-1.539.911-.522,1.448-.46,1.477-1.992.976-2.795,2.013-3.389,1.83.276,1.835-1.076,1.821-1.71.383-.651.383-.651,0-1.291.085-.689.937-.339,1.214-.779.053.12.1.239.148.36-.148.71.5,1.09.832,1.64.053-.38.106-.77.149-1.1a1.052,1.052,0,0,1,.623-.105c.25.01.484.02.654-.205-.786-1.687-.447-2.673-1.236-3.16a1.519,1.519,0,0,1,.72-.076,1.457,1.457,0,0,0,1.069-.243c-.49-.381.49-1.15-.532-1.461.023-.464.309-.445.594-.426a1.228,1.228,0,0,0,.311,0c.99.86.99.86,1.822.86.309.74-.447,1.31-.469,2.08.554-.09.885-.53,1.384-.37-.473,3.148.155,2.9.458,3.42.012.64-.171,1.37.906,1.66V46.98c1.75.158,1.345.491,1.821.43,1.914,2.571,3.128,1.588,3.066.6a1.122,1.122,0,0,0-1.246-1.034c.149-.28.31-.57.458-.85h.905c.913.43,1.268.094,1.47-.242.149-.247.215-.5.362-.435-.367-.208-.47-.632-.915-.6v-.43c1.791-.1,1.22-.784,1.821-.43,1.024.712,1.225.228,1.36-.257.1-.344.159-.687.461-.6,1.2,1.815-.2,1.673.916,2.14,1.066.845,1.359.379,1.364.86-.32-.01-.469.13-.458.43-1.014,1.208.127,1.04.458,1.28.309.81-.458.82-1.173,1.22.875.011,1.481.23,2.077-.139V47.41h.916c.473,2.254,1.546.9,1.363.43,1.126-1.6.2-2.547.458-3.42.89-.868.186-1.035.31-1.291h-1.672c.732-.958,1.292-.767,1.3-1.13-.373-.3-.639-.6-.16-1,2.149-.036,2.185,1.483,2.107,3-.084,1.614-.3,3.227,1.76,2.977-.011.3.138.44.458.43-.234,1.419-.252,1.111,0,1.28-.006,1.6-.112,1.876.447,2.14.159.46-.277.77-.363,1.13a1.636,1.636,0,0,0,1.736-1.13c2.558-.648.554-2.221.447-2.14v-.419c2.691-.031,3.938-.7,4.558-.43.914.555,1.482-.2,1.824-.962.423-.94.5-1.881.455-.318.468.319.138,1.139.9,1.28a2.609,2.609,0,0,0,.745,2.07c.666-.445.688-.031.7.382.01.345.013.69.377.537a11.661,11.661,0,0,1,.628,4.24h.574c.639-.95-.372-1.679-.287-2.53.83-.34,1.086.71,1.746.81v-2.38a1.1,1.1,0,0,0-.793-.114c-.394.04-.772.079-.953-.456a1.035,1.035,0,0,0,.83-.71l-.362-.339c1.018-.682,1.237-.244,1.347.194.093.371.108.742.464.436,2.131,1.232-.559,2.608.692,3.44.49-.62,1.267-.98,1.576-1.73h.458c.053.4-.128.82.224,1.329a1.829,1.829,0,0,0,1.15-1.759c.83.319,1.086-.69,1.769-.82-.644,2.449-.87,2.339.052,3.379.683,1.679.438,1.222.437,2.191h1.757c-.142-2.879-.03-2.291-.064-3.47.32.01.469-.13.458-.43,1.535.126,1.18-.363,1.587-.419,2.315-.429,3.3-.315,2.513-1.71.355-5.549,1.743.066,3.184.419-.576,1.579-1.546.976-1.245,1.63.883-.31,1.757-.609,2.63-.91-2.2-1.153-1.088-1.6-1.842-1.57.032-.65,1.119-.75.883-1.52-3.261-.724-1.111-1.713-2.7-2.33,1.134-2.275,1.567-2.908,1.363-3.42,1.216.983.558,1.536.915,1.71-.76,1.343,1.4,1.354,1.364,1.13-.212-4.044.621-3.417,1.139-1.561h2.961c-1.564,1.657-.713,2.1-.916,3-.268,0-.462,0-.6-.005-.514-.014-.364-.03-.685.285.128.049.256.09.383.139v1.7c.543-.19.821-.44.905-.84h.916c.17.42-.426,1.08.457,1.28.04,1.193.415.808.772.424.192-.206.379-.413.506-.374.054.38.117.76.181,1.26.629-.471,1.182-.89,1.725-1.31,1.092-.994.168-1.766.458-2.14h.734c.384.6-.064,1.191.384,1.72.244-.45.468-.869.7-1.29-.074-.68.757-.229.895-.63-.256-.39-.809-.56-.895-1.08.239-.581.635-.512,1.089-.445a1.923,1.923,0,0,0,.786,0c-.266.77.256.96.979,1.45-.358-1.028.12-1.02.6-1.012.062,0,.124,0,.185,0v2.81c.617.44.842-.159,1.236-.159.372.319-.128.85.319,1.159.384-.349.341-1.08,1.066-1.159.277.4-.128.91.351,1.2h.671c-.063.45-.68.74-.458,1.28-2.3,2.289-2.248,1.564-2.087,3,.4-1.538.912-.524,1.449-.46,1.469-1.988.984-2.8,2-3.389,1.839.275,1.845-1.071,1.831-1.71.384-.651.384-.651,0-1.291.086-.689.937-.339,1.214-.779.043.12.1.239.149.36-.159.71.5,1.09.831,1.64.053-.38.106-.77.149-1.1a1.051,1.051,0,0,1,.623-.105c.25.01.485.02.655-.205-1.082-1.383-.134-2.011-.437-2.479-.277-.471-.873-.1-.8-.68a1.516,1.516,0,0,1,.719-.076,1.429,1.429,0,0,0,1.059-.243c-.49-.381.5-1.15-.522-1.461.023-.464.31-.445.595-.426a1.234,1.234,0,0,0,.311,0c.979.86.979.86,1.82.86.3.74-.457,1.31-.468,2.08.554-.09.884-.53,1.384-.37-.489,3.148.155,2.9.447,3.42.022.64-.159,1.37.915,1.66V46.98c1.759.16,1.333.491,1.821.43,1.914,2.571,3.128,1.588,3.067.6a1.121,1.121,0,0,0-1.246-1.034c.148-.28.3-.57.458-.85h.905c.909.432,1.26.1,1.46-.241.148-.249.213-.5.361-.435-.366-.208-.46-.633-.906-.6v-.43c1.792-.1,1.222-.784,1.822-.43,1.021.713,1.22.229,1.357-.257.1-.342.162-.685.464-.6,1.2,1.811-.2,1.671.9,2.14,1.087.845,1.366.379,1.374.86-.319-.01-.468.13-.458.43-1.013,1.207.125,1.04.458,1.28.309.81-.458.82-1.182,1.22.884.011,1.49.23,2.087-.139V47.41h.915c.473,2.254,1.546.9,1.364.43,1.127-1.6.2-2.547.458-3.42.891-.871.185-1.034.309-1.291h-1.682c.748-.953,1.3-.768,1.3-1.13-.362-.3-.629-.6-.148-1,2.143-.037,2.182,1.483,2.105,3-.081,1.616-.293,3.234,1.76,2.977-.01.3.139.44.458.43-.233,1.419-.252,1.111,0,1.28-.005,1.6-.108,1.878.447,2.14.16.46-.276.77-.362,1.13a1.635,1.635,0,0,0,1.735-1.13c2.559-.649.554-2.221.447-2.14v-.419c2.694-.034,3.941-.7,4.558-.43.916.557,1.483-.2,1.823-.961.421-.94.495-1.881.455-.319.469.319.139,1.139.9,1.28a2.639,2.639,0,0,0,.735,2.07c.667-.445.691-.031.706.382.012.345.016.69.381.537a11.188,11.188,0,0,1,.617,4.24h.587c.638-.95-.374-1.679-.289-2.53.832-.34,1.086.71,1.748.81v-2.38a1.107,1.107,0,0,0-.794-.114c-.4.04-.772.079-.954-.456a1.038,1.038,0,0,0,.832-.71c-.149-.139-.256-.239-.362-.339,1.017-.682,1.236-.244,1.345.194.094.371.109.742.464.436,2.132,1.232-.559,2.608.692,3.44.479-.62,1.266-.98,1.576-1.73h.458c.054.4-.129.82.224,1.329a1.819,1.819,0,0,0,1.138-1.759c.831.319,1.1-.69,1.779-.82-.648,2.451-.857,2.333.041,3.379.7,1.679.448,1.22.448,2.191H1476c-.141-2.879-.03-2.291-.064-3.47.31.01.469-.13.458-.43,1.535.126,1.18-.363,1.586-.419,2.311-.426,3.318-.323,2.5-1.71.373-5.545,1.75.063,3.2.419-.576,1.579-1.546.976-1.247,1.63.884-.31,1.757-.609,2.63-.91-2.21-1.137-1.085-1.609-1.841-1.57.021-.65,1.118-.75.884-1.52-3.263-.724-1.113-1.713-2.705-2.33,1.134-2.275,1.569-2.908,1.364-3.42,1.216.983.559,1.536.916,1.71-.771,1.339,1.4,1.355,1.363,1.13-.211-4.044.621-3.417,1.139-1.561h2.961c-1.563,1.657-.713,2.093-.915,3-.267,0-.461,0-.6-.005-.515-.014-.369-.03-.686.285.128.049.256.09.383.139v1.7c.544-.19.82-.44.905-.84h.915c.17.42-.426,1.08.458,1.28.033,1.193.411.809.771.425.193-.206.381-.412.507-.374.053.38.106.76.181,1.26.628-.471,1.172-.89,1.725-1.31,1.091-.994.168-1.766.458-2.14h.735c.372.6-.064,1.191.383,1.72.246-.45.468-.869.7-1.29-.075-.68.745-.229.895-.63-.266-.39-.809-.56-.895-1.08.239-.581.635-.512,1.089-.445a1.923,1.923,0,0,0,.786,0c-.277.77.256.96.98,1.45-.359-1.028.118-1.02.6-1.012.063,0,.125,0,.186,0v2.81c.617.44.841-.159,1.235-.159.363.319-.128.85.32,1.159.383-.349.34-1.08,1.054-1.159.287.4-.117.91.351,1.2h.682c-.064.45-.682.74-.458,1.28-2.3,2.289-2.25,1.564-2.087,3,.4-1.536.909-.524,1.448-.46,1.474-1.986.974-2.8,2-3.389,1.831.276,1.835-1.076,1.822-1.71.394-.651.394-.651,0-1.291.1-.689.948-.339,1.225-.779.041.12.094.239.148.36-.16.71.5,1.09.82,1.64.065-.38.117-.77.159-1.1a1.035,1.035,0,0,1,.62-.105c.251.01.489.02.658-.205-1.081-1.383-.134-2.011-.436-2.479-.277-.471-.874-.1-.81-.68a1.556,1.556,0,0,1,.727-.076,1.433,1.433,0,0,0,1.062-.243c-.49-.381.5-1.15-.533-1.461.031-.464.319-.445.6-.426a1.234,1.234,0,0,0,.311,0c.98.86.98.86,1.821.86.3.74-.458,1.31-.469,2.08.554-.09.885-.53,1.374-.37-.472,3.148.154,2.9.458,3.42.021.64-.16,1.37.916,1.66V46.98c1.757.16,1.332.491,1.821.43,2.909,3.924,4.223-.43,1.821-.43.149-.28.3-.57.458-.85h.905c.909.432,1.26.1,1.46-.241.148-.248.214-.5.361-.436-.367-.208-.46-.633-.906-.6v-.43c1.79-.11,1.223-.781,1.821-.43,1.021.713,1.221.229,1.358-.257.1-.342.162-.685.464-.6,1.177,1.812-.193,1.671.905,2.14,1.083.844,1.363.379,1.363.86-.309-.01-.458.13-.446.43-1.029,1.205.121,1.04.446,1.28.32.81-.446.82-1.172,1.22.884.011,1.491.23,2.088-.139V47.41h.915c.454,2.243,1.549.91,1.364.43,1.126-1.6.2-2.547.458-3.42.87-.874.194-1.034.308-1.291h-1.681c.734-.949,1.3-.769,1.3-1.13-.362-.3-.628-.6-.149-1,2.144-.035,2.182,1.484,2.106,3-.082,1.617-.3,3.235,1.76,2.977-.01.3.139.44.447.43-.227,1.4-.248,1.113,0,1.28-.011,1.6-.1,1.88.458,2.14.159.46-.277.77-.362,1.13,1.268-.013,1.755-.912,1.725-1.13,2.577-.645.563-2.22.458-2.14v-.419c2.7-.034,3.928-.7,4.557-.43.915.558,1.482-.2,1.823-.961.421-.94.495-1.881.455-.319.469.319.128,1.139.905,1.28a2.641,2.641,0,0,0,.734,2.07c.663-.445.689-.031.7.382.013.346.019.691.382.537a11.306,11.306,0,0,1,.617,4.24h.586c.639-.95-.373-1.679-.287-2.53.83-.34,1.086.71,1.746.81v-2.38a1.114,1.114,0,0,0-.8-.114c-.4.04-.775.079-.949-.456a1.036,1.036,0,0,0,.83-.71l-.362-.339c1.012-.685,1.23-.246,1.341.194.093.372.108.743.459.437,2.156,1.228-.57,2.605.692,3.44.49-.62,1.278-.98,1.587-1.73h.458c.053.4-.128.82.223,1.329a1.832,1.832,0,0,0,1.139-1.759c.831.319,1.086-.69,1.778-.82-.655,2.447-.865,2.324.043,3.379.687,1.679.439,1.22.447,2.191h1.757c-.142-2.879-.031-2.291-.064-3.47.309.01.469-.13.446-.43,1.549.127,1.187-.361,1.6-.419,2.3-.429,3.321-.319,2.5-1.71.37-5.545,1.75.066,3.195.419-.574,1.582-1.558.976-1.246,1.63.885-.31,1.757-.609,2.631-.91-2.208-1.139-1.1-1.609-1.842-1.57.021-.65,1.118-.75.884-1.52-3.261-.724-1.112-1.712-2.7-2.33,1.135-2.276,1.568-2.907,1.363-3.42,1.223.991.546,1.533.916,1.71-.77,1.339,1.4,1.355,1.363,1.13-.215-4.046.612-3.416,1.14-1.561h2.96c-1.564,1.657-.714,2.093-.916,3-.284,0-.485,0-.63-.005-.487-.015-.348-.032-.658.285.128.049.255.09.383.139v1.7c.544-.19.811-.44.905-.84h.916c.17.42-.427,1.08.447,1.28.048,1.193.425.809.782.425.193-.206.379-.412.507-.374.053.38.106.76.181,1.26.628-.471,1.171-.89,1.724-1.31,1.146-1.651.116-1.779.447-2.14h.746c.372.6-.064,1.191.383,1.72.245-.45.469-.869.7-1.29-.076-.68.745-.229.894-.63-.266-.39-.819-.56-.894-1.08.239-.581.635-.512,1.085-.445a1.889,1.889,0,0,0,.779,0c-.267.77.266.96.99,1.45-.359-1.028.118-1.02.6-1.012.063,0,.125,0,.186,0v2.81c.618.44.842-.159,1.235-.159.363.319-.138.85.31,1.159.394-.349.351-1.08,1.065-1.159.287.4-.117.91.351,1.2h.682c-.075.45-.682.74-.458,1.28-2.308,2.3-2.244,1.563-2.087,3,.4-1.536.909-.524,1.448-.46,1.464-1.989.979-2.8,2-3.389,1.831.276,1.836-1.076,1.822-1.71.394-.651.394-.651,0-1.291.1-.689.948-.339,1.214-.779.053.12.107.239.149.36-.149.71.511,1.09.832,1.64.053-.38.117-.77.159-1.1A1.032,1.032,0,0,1,1588.5,47c.251.01.489.02.658-.205-1.085-1.382-.13-2.011-.436-2.479-.277-.471-.873-.1-.809-.68a1.543,1.543,0,0,1,.724-.076,1.45,1.45,0,0,0,1.066-.243c-.491-.381.5-1.15-.533-1.461.031-.464.313-.445.6-.426a1.265,1.265,0,0,0,.315,0c.98.86.98.86,1.822.86.3.74-.458,1.31-.468,2.08.553-.09.883-.53,1.372-.37-.472,3.148.155,2.9.458,3.42.011.64-.16,1.37.916,1.66V46.98c1.757.167,1.334.49,1.821.43,1.907,2.57,3.127,1.587,3.068.6a1.121,1.121,0,0,0-1.246-1.034c.149-.28.3-.57.446-.85h.916c.91.426,1.261.092,1.461-.243.148-.247.213-.5.361-.433-.369-.208-.471-.633-.917-.6v-.43c1.8-.1,1.234-.783,1.831-.43,1.018.714,1.217.229,1.354-.257.1-.344.162-.688.467-.6,1.173,1.814-.2,1.673.905,2.14,1.082.841,1.352.379,1.363.86-.309-.01-.468.13-.446.43-1.03,1.207.122,1.04.446,1.28.31.81-.446.82-1.171,1.22.885.011,1.491.23,2.087-.139V47.41h.905c1.322,3.564,2.263-2.049,1.821-2.99.891-.863.2-1.037.309-1.291h-1.671c.734-.949,1.3-.769,1.3-1.13-.362-.3-.628-.6-.149-1,2.136-.036,2.174,1.483,2.1,3-.08,1.615-.289,3.229,1.758,2.977-.01.3.149.44.458.43-.236,1.409-.242,1.112,0,1.28-.006,1.6-.11,1.881.457,2.14.16.46-.276.77-.373,1.13,1.278-.014,1.765-.916,1.736-1.13,2.578-.645.563-2.22.458-2.14v-.419c2.7-.034,3.928-.7,4.558-.43.911.555,1.48-.2,1.822-.962.424-.94.5-1.879.446-.318.469.319.139,1.139.916,1.28a2.633,2.633,0,0,0,.735,2.07c.662-.445.689-.031.7.382.013.346.018.691.382.537a11.383,11.383,0,0,1,.618,4.24h.575c.649-.95-.373-1.679-.288-2.53.842-.34,1.1.71,1.757.81v-2.38a1.113,1.113,0,0,0-.8-.114c-.4.04-.779.079-.96-.456a1.036,1.036,0,0,0,.842-.71c-.149-.139-.256-.239-.373-.339,1.016-.688,1.238-.248,1.35.193.095.372.111.743.46.437,2.158,1.228-.569,2.605.692,3.44.49-.62,1.278-.98,1.588-1.73h.457c.053.4-.128.82.223,1.329a1.834,1.834,0,0,0,1.14-1.759c.831.319,1.086-.69,1.778-.82-.672,2.452-.851,2.329.043,3.379.687,1.679.44,1.22.447,2.191h1.757c-.141-2.879-.03-2.291-.064-3.47.309.01.458-.13.448-.43,1.329.144,1.107-.254,1.6-.419,2.3-.428,3.319-.32,2.5-1.71.37-5.539,1.747.056,3.184.419-.553,1.581-1.551.976-1.236,1.63.884-.31,1.757-.609,2.62-.91-2.183-1.138-1.093-1.609-1.832-1.57.023-.65,1.108-.75.884-1.52-3.266-.726-1.117-1.708-2.7-2.33.728-1.674,1.727-3.016,1.364-3.42,1.217.986.544,1.535.905,1.71-.739,1.346,1.408,1.353,1.373,1.13-.222-4.047.61-3.411,1.139-1.561h2.96c-1.566,1.661-.711,2.093-.914,3-.285,0-.486,0-.631-.005-.488-.015-.349-.032-.659.285.128.049.256.09.374.139v1.7c.553-.19.82-.44.916-.84h.914c.171.42-.426,1.08.448,1.28.047,1.193.424.809.781.425.193-.206.379-.412.507-.374.053.38.107.76.181,1.26.628-.471,1.172-.89,1.725-1.31,1.066-1,.164-1.767.448-2.14h.734c.384.6-.053,1.191.394,1.72.245-.45.469-.869.693-1.29-.075-.68.756-.229.905-.63-.266-.39-.821-.56-.905-1.08.247-.581.644-.512,1.1-.445a1.889,1.889,0,0,0,.779,0c-.266.77.255.96.98,1.45-.349-1.028.129-1.02.6-1.012.061,0,.122,0,.183,0v2.81c.628.44.852-.159,1.246-.159.362.319-.139.85.309,1.159.383-.349.351-1.08,1.065-1.159.288.4-.117.91.352,1.2h.671c-.064.45-.671.74-.448,1.28-2.317,2.289-2.253,1.561-2.086,3,.388-1.54.913-.519,1.437-.46,1.473-1.989.98-2.8,2.012-3.389,1.831.276,1.835-1.076,1.821-1.71.4-.651.4-.651,0-1.291.1-.689.949-.339,1.215-.779.053.12.106.239.149.36-.149.71.511,1.09.83,1.64.053-.38.107-.77.16-1.1a1.022,1.022,0,0,1,.615-.105.7.7,0,0,0,.663-.205c-.818-1.673-.437-2.672-1.246-3.16a1.545,1.545,0,0,1,.724-.076,1.449,1.449,0,0,0,1.065-.243c-.49-.381.5-1.15-.532-1.461.031-.464.313-.445.6-.426a1.265,1.265,0,0,0,.315,0c.979.86.979.86,1.821.86.3.74-.458,1.31-.468,2.08.554-.09.884-.53,1.373-.37-.472,3.148.155,2.9.457,3.42.012.64-.169,1.37.906,1.66V46.98c1.75.158,1.345.491,1.82.43,1.92,2.569,3.141,1.587,3.08.6a1.124,1.124,0,0,0-1.247-1.033c.148-.28.3-.57.448-.85h.914c.911.426,1.262.092,1.462-.243.148-.247.212-.5.361-.433-.369-.208-.471-.633-.916-.6v-.43c1.784-.1,1.234-.784,1.82-.43,1.023.715,1.225.23,1.363-.256.1-.342.161-.684.46-.6,1.2,1.815-.2,1.673.914,2.14,1.08.841,1.353.379,1.364.86-.308-.01-.468.13-.458.43-1.019,1.208.137,1.04.458,1.28.309.81-.447.82-1.171,1.22.884.011,1.49.23,2.087-.139V47.41h.905c.481,2.246,1.543.9,1.363.43,1.136-1.595.2-2.545.457-3.42.89-.863.2-1.037.309-1.291h-1.672c.734-.949,1.3-.769,1.3-1.13-.362-.3-.628-.6-.149-1,2.135-.035,2.174,1.483,2.1,3-.081,1.615-.29,3.229,1.757,2.977-.01.3.139.44.458.43-.237,1.41-.242,1.112,0,1.28-.006,1.6-.11,1.881.458,2.14.148.46-.277.77-.372,1.13,1.277-.014,1.764-.916,1.734-1.13,2.571-.646.566-2.22.458-2.14v-.419c2.7-.032,3.927-.7,4.547-.43.917.559,1.489-.2,1.832-.961.425-.94.5-1.881.447-.319.469.319.139,1.139.915,1.28a2.642,2.642,0,0,0,.735,2.07c.662-.445.688-.031.7.382.013.346.019.691.382.537a11.688,11.688,0,0,1,.617,4.24h.575c.651-.95-.373-1.679-.286-2.53.841-.34,1.1.71,1.757.81v-2.38a1.116,1.116,0,0,0-.8-.114c-.4.04-.779.079-.959-.456a1.037,1.037,0,0,0,.841-.71c-.16-.139-.267-.239-.373-.339,1.019-.688,1.237-.248,1.346.193.093.372.108.743.464.437,1.811.784-.317,2.789.692,3.44.491-.62,1.268-.98,1.588-1.73h.458c.052.4-.129.82.224,1.329a1.834,1.834,0,0,0,1.138-1.759c.832.319,1.087-.69,1.779-.82-.671,2.455-.86,2.326.041,3.379.687,1.679.446,1.22.438,2.191h1.768c-.167-2.879-.035-2.291-.076-3.47.32.01.469-.13.458-.43,1.326.144,1.105-.251,1.587-.419,2.327-.428,3.312-.32,2.514-1.71.357-5.541,1.748.056,3.183.419-.572,1.578-1.544.976-1.235,1.63.883-.31,1.757-.609,2.619-.91-2.182-1.139-1.092-1.609-1.831-1.57.021-.65,1.107-.75.884-1.52-3.269-.725-1.116-1.714-2.716-2.33.739-1.668,1.737-3.015,1.374-3.42,1.216.986.544,1.535.9,1.71-.752,1.348,1.4,1.352,1.374,1.13-.222-4.047.61-3.411,1.139-1.561h2.949c-1.548,1.669-.7,2.089-.9,3-.277,0-.474,0-.618-.005-.5-.015-.356-.031-.681.285.129.049.255.09.383.139v1.7c.554-.19.82-.44.916-.84h.9c.181.42-.415,1.08.458,1.28.047,1.193.424.808.782.425.193-.206.379-.412.508-.374.052.38.105.76.181,1.26.617-.471,1.171-.89,1.714-1.31,1.091-.994.168-1.766.458-2.14h.735c.382.6-.054,1.191.393,1.72.246-.45.468-.869.692-1.29-.075-.68.756-.229.905-.63-.266-.39-.82-.56-.905-1.08.247-.581.641-.512,1.091-.445a1.91,1.91,0,0,0,.783,0c-.266.77.257.96.98,1.45-.349-1.028.13-1.02.606-1.012.061,0,.122,0,.183,0v2.81c.628.44.852-.159,1.235-.159.373.319-.127.85.32,1.159.383-.349.351-1.08,1.065-1.159.287.4-.117.91.351,1.2h.672c-.064.45-.672.74-.447,1.28-2.317,2.289-2.252,1.56-2.1,3,.405-1.538.919-.523,1.448-.46,1.476-1.99.975-2.794,2.012-3.389,1.831.276,1.834-1.076,1.822-1.71.393-.651.393-.651,0-1.291.1-.689.937-.339,1.214-.779.052.12.1.239.149.36-.149.71.511,1.09.83,1.64.054-.38.107-.77.16-1.1A1.026,1.026,0,0,1,1749.4,47a.7.7,0,0,0,.661-.205c-.818-1.672-.437-2.672-1.246-3.16a1.519,1.519,0,0,1,.72-.076,1.456,1.456,0,0,0,1.068-.243c-.49-.381.5-1.15-.532-1.461.031-.464.313-.445.6-.426a1.221,1.221,0,0,0,.31,0c.99.86.99.86,1.831.86.3.74-.457,1.31-.48,2.08.565-.09.9-.53,1.385-.37-.473,3.148.154,2.9.458,3.42.01.64-.171,1.37.905,1.66V46.98c1.75.158,1.345.491,1.821.43,2.929,3.92,4.234-.428,1.821-.43.16-.28.309-.57.458-.85h.916c.907.427,1.259.092,1.46-.243.148-.247.214-.494.36-.434-.367-.208-.47-.632-.916-.6v-.43c1.784-.1,1.236-.784,1.822-.43,1.022.715,1.224.23,1.361-.256.1-.342.161-.684.46-.6,1.2,1.815-.2,1.673.916,2.14,1.083.851,1.356.379,1.363.86-.319-.01-.469.13-.458.43-1.02,1.208.138,1.04.458,1.28.31.81-.458.82-1.172,1.22.873.011,1.491.23,2.088-.139V47.41h.905c.48,2.246,1.542.9,1.363.43,1.126-1.6.2-2.547.458-3.42.894-.864.184-1.036.309-1.291H1769.2c.734-.948,1.3-.769,1.3-1.13-.373-.3-.628-.6-.16-1,2.147-.039,2.185,1.481,2.109,3-.081,1.614-.291,3.227,1.758,2.977-.012.3.138.44.458.43-.239,1.417-.241,1.111,0,1.28-.006,1.6-.112,1.881.457,2.14.149.46-.276.77-.373,1.13,1.269-.014,1.766-.914,1.736-1.13,2.574-.643.556-2.218.458-2.14v-.419c2.69-.032,3.92-.7,4.547-.43.916.559,1.489-.2,1.831-.961.425-.94.5-1.881.447-.319.468.319.138,1.139.916,1.28a2.638,2.638,0,0,0,.734,2.07c.663-.445.689-.031.706.382.013.346.018.691.382.537a11.989,11.989,0,0,1,.617,4.24h.575c.639-.95-.374-1.679-.287-2.53.841-.34,1.1.71,1.757.81v-2.38a1.116,1.116,0,0,0-.8-.114c-.4.04-.779.079-.959-.456a1.037,1.037,0,0,0,.841-.71c-.159-.139-.266-.239-.373-.339,1.019-.688,1.238-.248,1.347.193.093.372.108.743.464.437,1.809.784-.318,2.789.692,3.44.49-.62,1.267-.98,1.586-1.73h.448c.064.4-.117.82.234,1.329a1.834,1.834,0,0,0,1.14-1.759c.83.319,1.085-.69,1.777-.82-.677,2.457-.857,2.326.043,3.379.678,1.679.444,1.221.436,2.191h1.769c-.166-2.879-.035-2.291-.076-3.47.32.01.47-.13.458-.43,1.536.126,1.18-.363,1.588-.419,2.318-.431,3.3-.311,2.513-1.71.354-5.541,1.748.058,3.184.419-.572,1.576-1.545.976-1.247,1.63.9-.31,1.769-.609,2.632-.91-2.192-1.146-1.094-1.607-1.843-1.57.031-.65,1.119-.75.884-1.52-3.262-.724-1.109-1.713-2.705-2.33.734-1.663,1.741-3.015,1.374-3.42,1.2,1,.551,1.532.905,1.71-.76,1.346,1.4,1.353,1.363,1.13-.211-4.038.628-3.42,1.14-1.561h2.96c-1.548,1.669-.7,2.089-.905,3-.277,0-.474,0-.618-.005-.5-.015-.356-.031-.68.285.128.049.255.09.382.139v1.7c.554-.19.82-.44.916-.84h.905c.171.42-.415,1.08.458,1.28.047,1.192.421.808.777.425.19-.205.374-.41.5-.374.065.38.117.76.193,1.26.617-.471,1.171-.89,1.714-1.31,1.092-.994.168-1.766.458-2.14h.735c.383.6-.053,1.191.394,1.72.234-.45.469-.869.692-1.29-.075-.68.756-.229.9-.63-.266-.39-.82-.56-.9-1.08.247-.581.64-.512,1.091-.445a1.91,1.91,0,0,0,.783,0c-.266.77.256.96.98,1.45-.349-1.028.129-1.02.6-1.012.061,0,.123,0,.183,0v2.81c.628.44.852-.159,1.236-.159.373.319-.128.85.32,1.159.383-.349.341-1.08,1.065-1.159.277.4-.128.91.351,1.2h.671c-.064.45-.671.74-.458,1.28-2.294,2.288-2.246,1.563-2.087,3,.41-1.538.91-.523,1.448-.46,1.477-1.992.976-2.795,2.013-3.389,1.831.276,1.834-1.076,1.821-1.71.383-.651.383-.651,0-1.291.1-.689.937-.339,1.214-.779.054.12.1.239.148.36-.148.71.5,1.09.832,1.64.053-.38.106-.77.158-1.1a1.026,1.026,0,0,1,.616-.105.7.7,0,0,0,.663-.205c-.813-1.674-.449-2.674-1.247-3.16a1.515,1.515,0,0,1,.719-.076,1.457,1.457,0,0,0,1.069-.243c-.489-.381.49-1.15-.532-1.461.022-.464.309-.445.594-.426a1.227,1.227,0,0,0,.31,0c.991.86.991.86,1.821.86.31.74-.446,1.31-.468,2.08.564-.09.885-.53,1.384-.37-.472,3.148.154,2.9.458,3.42.011.64-.17,1.37.905,1.66V46.98c1.75.158,1.345.491,1.821.43,1.914,2.572,3.128,1.589,3.066.6a1.121,1.121,0,0,0-1.245-1.034c.148-.28.309-.57.457-.85h.905c.913.43,1.268.094,1.47-.242.149-.247.215-.5.362-.435-.367-.208-.47-.632-.915-.6v-.43c1.784-.1,1.235-.784,1.821-.43,1.028.715,1.226.23,1.36-.256.1-.342.158-.685.461-.6,1.2,1.815-.2,1.673.916,2.14,1.065.845,1.359.379,1.364.86-.319-.01-.47.13-.458.43-1.021,1.208.137,1.04.458,1.28.309.81-.458.82-1.171,1.22.872.011,1.48.23,2.075-.139V47.41h.916c.481,2.246,1.542.9,1.363.43,1.127-1.6.2-2.547.458-3.42.89-.868.186-1.035.309-1.291h-1.671c.735-.96,1.292-.767,1.3-1.13-.372-.3-.639-.6-.16-1,2.15-.036,2.186,1.483,2.108,3-.084,1.614-.3,3.227,1.759,2.977-.011.3.139.44.458.43-.239,1.417-.241,1.111,0,1.28-.006,1.6-.11,1.881.458,2.14.148.46-.277.77-.374,1.13a1.635,1.635,0,0,0,1.736-1.13c2.574-.643.556-2.218.458-2.14v-.419c2.691-.032,3.921-.7,4.547-.43.915.554,1.485-.2,1.828-.962.425-.94.5-1.879.451-.318.469.319.14,1.139.905,1.28a2.684,2.684,0,0,0,.746,2.07c.662-.445.688-.031.7.382.012.345.015.689.373.537a11.6,11.6,0,0,1,.628,4.24h.576c.638-.95-.373-1.679-.288-2.53.832-.34,1.086.71,1.757.81v-2.38a1.129,1.129,0,0,0-.8-.114c-.4.04-.774.079-.956-.456a1.04,1.04,0,0,0,.832-.71l-.363-.339c1.019-.688,1.238-.248,1.346.193.093.372.108.743.464.437,2.131,1.232-.559,2.608.692,3.44.49-.62,1.267-.98,1.587-1.73h.447c.053.4-.117.82.224,1.329a1.829,1.829,0,0,0,1.15-1.759c.83.319,1.086-.69,1.778-.82-.674,2.452-.867,2.34.043,3.379.679,1.679.445,1.221.436,2.191h1.758c-.142-2.879-.03-2.291-.064-3.47.319.01.468-.13.458-.43,1.534.126,1.179-.363,1.586-.419,2.32-.431,3.3-.31,2.514-1.71.355-5.548,1.745.068,3.184.419-.575,1.579-1.546.976-1.246,1.63.883-.31,1.767-.609,2.63-.91-2.192-1.146-1.093-1.607-1.842-1.57.032-.65,1.118-.75.885-1.52-3.263-.724-1.111-1.713-2.705-2.33,1.134-2.275,1.567-2.908,1.363-3.42,1.22.98.556,1.536.916,1.71-.759,1.346,1.4,1.353,1.364,1.13-.212-4.044.62-3.417,1.138-1.561h2.961c-1.554,1.656-.7,2.1-.906,3-.277,0-.474,0-.618-.005-.5-.015-.355-.031-.68.285.128.049.257.09.384.139v1.7c.543-.19.82-.44.914-.84h.906c.17.42-.426,1.08.458,1.28.047,1.192.421.808.777.425.19-.205.374-.41.5-.374.054.38.118.76.182,1.26.628-.471,1.181-.89,1.725-1.31,1.09-.994.167-1.766.457-2.14h.734c.384.6-.064,1.191.394,1.72.235-.45.469-.869.693-1.29-.075-.68.756-.229.894-.63-.256-.39-.809-.56-.894-1.08.24-.581.635-.512,1.088-.445a1.923,1.923,0,0,0,.786,0c-.266.77.255.96.98,1.45-.359-1.028.127-1.02.606-1.012.061,0,.122,0,.183,0v2.81c.616.44.85-.159,1.235-.159.373.319-.128.85.319,1.159.384-.349.341-1.08,1.066-1.159.276.4-.129.91.352,1.2h.67c-.064.45-.682.74-.458,1.28-2.3,2.289-2.25,1.564-2.087,3,.4-1.538.911-.524,1.449-.46,1.473-1.989.977-2.8,2.012-3.389,1.831.276,1.835-1.076,1.822-1.71.383-.651.383-.651,0-1.291.084-.689.937-.339,1.212-.779.043.12.1.239.15.36-.15.71.5,1.09.83,1.64.053-.38.107-.77.149-1.1a1.055,1.055,0,0,1,.624-.105c.25.01.484.02.654-.205-.786-1.687-.448-2.673-1.235-3.16a1.513,1.513,0,0,1,.718-.076,1.429,1.429,0,0,0,1.059-.243c-.49-.381.5-1.15-.522-1.461.023-.464.31-.445.595-.426a1.234,1.234,0,0,0,.311,0c.99.86.99.86,1.821.86.308.74-.458,1.31-.469,2.08.553-.09.884-.53,1.384-.37-.475,3.146.151,2.9.447,3.42.022.64-.159,1.37.915,1.66V46.98c1.751.158,1.346.491,1.823.43,1.913,2.571,3.127,1.588,3.065.6a1.121,1.121,0,0,0-1.245-1.034c.149-.28.308-.57.457-.85h.905c.906.433,1.262.1,1.464-.241.147-.246.214-.492.354-.437-.365-.209-.459-.631-.9-.6v-.43c1.792-.1,1.222-.784,1.821-.43,1.025.712,1.226.228,1.361-.257.1-.344.159-.687.461-.6,1.2,1.811-.2,1.671.905,2.14,1.086.845,1.365.379,1.373.86-.319-.01-.468.13-.457.43-1.015,1.208.127,1.04.457,1.28.309.81-.457.82-1.171,1.22.873.011,1.48.23,2.077-.139V47.41h.914c.473,2.254,1.546.9,1.364.43,1.127-1.6.2-2.547.458-3.42.89-.868.186-1.035.309-1.291h-1.672c.726-.956,1.291-.768,1.289-1.13-.362-.3-.628-.6-.149-1,2.146-.035,2.182,1.484,2.105,3-.083,1.615-.3,3.229,1.76,2.977-.01.3.14.44.458.43-.233,1.419-.252,1.111,0,1.28-.005,1.6-.11,1.876.447,2.14.16.46-.276.77-.362,1.13a1.637,1.637,0,0,0,1.736-1.13c2.558-.648.554-2.221.447-2.14v-.419c2.692-.034,3.941-.7,4.557-.43.916.557,1.483-.2,1.823-.961.421-.94.495-1.881.455-.319.469.319.139,1.139.9,1.28a2.613,2.613,0,0,0,.746,2.07c.665-.445.688-.031.7.382.01.345.013.69.377.537a11.2,11.2,0,0,1,.616,4.24h.586c.639-.95-.373-1.679-.288-2.53.832-.34,1.086.71,1.747.81v-2.38a1.1,1.1,0,0,0-.793-.114c-.4.04-.772.079-.954-.456a1.038,1.038,0,0,0,.832-.71c-.149-.139-.256-.239-.362-.339,1.017-.682,1.236-.244,1.346.194.094.371.109.742.464.436,2.13,1.232-.559,2.608.692,3.44.49-.62,1.267-.98,1.576-1.73h.458c.054.4-.129.82.223,1.329a1.8,1.8,0,0,0,1.139-1.759c.842.319,1.1-.69,1.779-.82-.644,2.45-.869,2.339.053,3.379.682,1.679.437,1.222.436,2.191h1.757c-.141-2.879-.03-2.291-.064-3.47.319.01.468-.13.458-.43,1.534.126,1.18-.363,1.587-.419,2.31-.426,3.317-.323,2.5-1.71.375-5.547,1.744.06,3.194.419-.576,1.579-1.545.976-1.246,1.63.884-.31,1.757-.609,2.63-.91-2.2-1.154-1.088-1.6-1.842-1.57.032-.65,1.119-.75.885-1.52-3.262-.724-1.113-1.713-2.705-2.33,1.134-2.275,1.568-2.908,1.363-3.42,1.217.983.559,1.536.915,1.71-.76,1.343,1.4,1.354,1.363,1.13-.211-4.044.621-3.417,1.14-1.561h2.959c-1.563,1.657-.712,2.094-.915,3-.267,0-.461,0-.6-.005-.515-.014-.37-.03-.686.285.128.049.256.09.383.139v1.7c.543-.19.82-.44.905-.84h.915c.17.42-.426,1.08.458,1.28.04,1.193.415.808.772.424.192-.206.379-.413.506-.374.053.38.117.76.181,1.26.628-.471,1.182-.89,1.725-1.31,1.091-.994.168-1.766.458-2.14h.735c.372.6-.064,1.191.383,1.72.245-.45.468-.869.7-1.29-.075-.68.745-.229.895-.63-.256-.39-.809-.56-.895-1.08.24-.581.635-.512,1.089-.445a1.923,1.923,0,0,0,.786,0c-.266.77.256.96.979,1.45-.359-1.028.119-1.02.6-1.012.063,0,.125,0,.186,0v2.81c.617.44.841-.159,1.235-.159.374.319-.128.85.32,1.159.382-.349.34-1.08,1.054-1.159.287.4-.117.91.351,1.2h.682c-.065.45-.682.74-.458,1.28-2.3,2.289-2.25,1.564-2.087,3,.4-1.538.91-.523,1.448-.46,1.474-1.986.974-2.8,2-3.389,1.841.276,1.832-1.076,1.821-1.71.394-.651.394-.651,0-1.291.1-.689.949-.339,1.226-.779.041.12.094.239.149.36-.159.71.5,1.09.82,1.64.064-.38.117-.77.159-1.1a1.056,1.056,0,0,1,.624-.105c.251.01.485.02.654-.205-1.081-1.383-.134-2.011-.436-2.479-.277-.471-.873-.1-.8-.68a1.517,1.517,0,0,1,.719-.076,1.427,1.427,0,0,0,1.058-.243c-.489-.381.5-1.15-.521-1.461.023-.464.309-.445.595-.426a1.228,1.228,0,0,0,.311,0c.979.86.979.86,1.821.86.3.74-.457,1.31-.469,2.08.554-.09.884-.53,1.385-.37-.493,3.148.157,2.9.447,3.42.021.64-.16,1.37.915,1.66V46.98c1.758.16,1.332.491,1.822.43,1.914,2.572,3.128,1.589,3.066.6a1.122,1.122,0,0,0-1.246-1.034c.149-.28.3-.57.458-.85h.905c.909.432,1.26.1,1.461-.241.147-.248.213-.5.361-.436-.367-.208-.461-.633-.906-.6v-.43c1.792-.11,1.223-.781,1.822-.43,1.02.713,1.22.229,1.357-.257.1-.342.162-.685.464-.6,1.2,1.811-.2,1.671.905,2.14,1.085.845,1.364.379,1.373.86-.319-.01-.469.13-.458.43-1.031,1.209.129,1.041.458,1.28.309.81-.458.82-1.182,1.22.884.011,1.49.23,2.087-.139V47.41h.916c.472,2.254,1.545.9,1.363.43,1.126-1.6.2-2.547.457-3.42.871-.874.194-1.034.31-1.291h-1.683c.749-.953,1.3-.768,1.3-1.13-.363-.3-.628-.6-.149-1,2.143-.037,2.182,1.483,2.106,3-.081,1.616-.293,3.234,1.76,2.977-.012.3.138.44.446.43-.211,1.412-.248,1.112,0,1.28-.011,1.6-.1,1.88.458,2.14.16.46-.276.77-.362,1.13,1.268-.013,1.755-.912,1.725-1.13,2.577-.645.563-2.22.458-2.14v-.419c2.7-.034,3.928-.7,4.558-.43.914.558,1.481-.2,1.822-.961.421-.94.5-1.881.457-.319.468.319.139,1.139.905,1.28a2.638,2.638,0,0,0,.734,2.07c.668-.445.692-.031.707.382.012.345.016.69.381.537a11.187,11.187,0,0,1,.617,4.24h.586c.639-.95-.374-1.679-.287-2.53.83-.34,1.085.71,1.746.81v-2.38a1.1,1.1,0,0,0-.793-.114c-.4.04-.772.079-.953-.456a1.036,1.036,0,0,0,.83-.71l-.362-.339c1.017-.682,1.236-.244,1.346.194.093.371.109.742.464.436,2.132,1.233-.569,2.607.693,3.44.479-.62,1.267-.98,1.576-1.73h.458c.053.4-.128.82.223,1.329a1.832,1.832,0,0,0,1.139-1.759c.831.319,1.086-.69,1.778-.82-.643,2.448-.864,2.329.043,3.379.687,1.679.438,1.22.446,2.191h1.758c-.142-2.879-.031-2.291-.064-3.47.309.01.469-.13.458-.43,1.534.126,1.18-.363,1.587-.419,2.3-.429,3.321-.319,2.5-1.71.371-5.545,1.749.063,3.194.419-.574,1.582-1.558.976-1.247,1.63.884-.31,1.758-.609,2.632-.91-2.211-1.137-1.086-1.609-1.843-1.57.021-.65,1.119-.75.884-1.52-3.261-.724-1.111-1.713-2.705-2.33,1.136-2.275,1.569-2.908,1.364-3.42,1.223.989.546,1.535.916,1.71-.77,1.339,1.4,1.355,1.363,1.13-.215-4.046.612-3.416,1.14-1.561h2.96c-1.564,1.657-.712,2.093-.916,3-.284,0-.485,0-.631-.005-.487-.015-.348-.032-.657.285.128.049.255.09.384.139v1.7c.543-.19.819-.44.9-.84h.916c.171.42-.426,1.08.458,1.28.033,1.193.412.809.771.425.193-.206.381-.412.507-.374.053.38.106.76.181,1.26.628-.471,1.171-.89,1.724-1.31,1.092-.994.168-1.766.458-2.14h.735c.373.6-.064,1.191.382,1.72.246-.45.47-.869.7-1.29-.074-.68.745-.229.895-.63-.267-.39-.81-.56-.895-1.08.24-.581.635-.512,1.088-.445a1.923,1.923,0,0,0,.786,0c-.277.77.256.96.98,1.45-.359-1.028.119-1.02.6-1.012.062,0,.124,0,.185,0v2.81c.618.44.842-.159,1.236-.159.362.319-.128.85.319,1.159.384-.349.341-1.08,1.054-1.159.288.4-.117.91.352,1.2h.681c-.064.45-.681.74-.458,1.28-1.645,1.657-2.6,1.927-2.087,3,.4-1.536.909-.524,1.448-.46,1.474-1.986.974-2.8,2-3.389,1.831.276,1.834-1.076,1.821-1.71.394-.651.394-.651,0-1.291.1-.689.948-.339,1.225-.779.043.12.1.239.149.36-.16.71.5,1.09.82,1.64.053-.38.117-.77.159-1.1a1.033,1.033,0,0,1,.619-.105c.252.01.489.02.659-.205-1.082-1.383-.133-2.011-.437-2.479-.277-.471-.873-.1-.809-.68a1.542,1.542,0,0,1,.724-.076,1.45,1.45,0,0,0,1.065-.243c-.49-.381.5-1.15-.534-1.461.031-.464.314-.445.6-.426a1.265,1.265,0,0,0,.315,0c.98.86.98.86,1.822.86.3.74-.458,1.31-.468,2.08.552-.09.883-.53,1.372-.37-.471,3.148.155,2.9.458,3.42.022.64-.16,1.37.916,1.66V46.98c1.757.167,1.334.49,1.821.43,2.911,3.924,4.224-.43,1.822-.43.149-.28.3-.57.458-.85h.9c.91.432,1.261.1,1.461-.241.147-.248.213-.5.361-.436-.367-.208-.46-.633-.905-.6v-.43c1.791-.11,1.223-.781,1.821-.43,1.017.714,1.216.229,1.353-.257.1-.344.163-.687.468-.6,1.17,1.814-.187,1.671.906,2.14,1.083.844,1.365.379,1.364.86-.31-.01-.458.13-.447.43-1.028,1.205.121,1.04.447,1.28.319.81-.447.82-1.172,1.22.884.011,1.491.23,2.087-.139V47.41h.905c.48,2.244,1.552.909,1.374.43,1.122-1.6.191-2.545.447-3.42.9-.866.2-1.036.32-1.291h-1.683c.733-.949,1.3-.769,1.3-1.13-.362-.3-.628-.6-.149-1,2.144-.035,2.183,1.484,2.106,3-.082,1.617-.3,3.235,1.76,2.977-.021.3.138.44.447.43-.228,1.4-.248,1.113,0,1.28-.006,1.6-.111,1.881.458,2.14.159.46-.277.77-.363,1.13,1.269-.013,1.755-.912,1.725-1.13,2.578-.645.563-2.22.458-2.14v-.419c2.7-.034,3.928-.7,4.558-.43.911.555,1.48-.2,1.822-.962.424-.94.5-1.879.447-.318.48.319.139,1.139.916,1.28a2.638,2.638,0,0,0,.735,2.07c.663-.445.688-.031.7.382.013.346.018.691.382.537a11.384,11.384,0,0,1,.618,4.24h.575c.65-.95-.362-1.679-.277-2.53.832-.34,1.086.71,1.746.81v-2.38a1.114,1.114,0,0,0-.8-.114c-.4.04-.775.079-.949-.456a1.039,1.039,0,0,0,.832-.71l-.364-.339c1.011-.685,1.231-.246,1.341.194.094.372.109.743.459.437,2.158,1.228-.569,2.605.692,3.44.49-.62,1.278-.98,1.587-1.73h.458c.053.4-.128.82.224,1.329a1.835,1.835,0,0,0,1.139-1.759c.831.319,1.085-.69,1.778-.82-.67,2.452-.852,2.329.043,3.379.687,1.679.44,1.22.447,2.191h1.757c-.141-2.879-.03-2.291-.063-3.47.308.01.457-.13.448-.43,1.329.144,1.107-.254,1.6-.419,2.3-.428,3.319-.319,2.5-1.71.37-5.545,1.75.066,3.2.419-.573,1.582-1.559.976-1.247,1.63.884-.31,1.758-.609,2.631-.91-2.208-1.139-1.1-1.609-1.843-1.57.022-.65,1.119-.75.885-1.52-3.262-.724-1.113-1.712-2.705-2.33.727-1.675,1.727-3.016,1.364-3.42,1.222.991.544,1.533.915,1.71-.771,1.339,1.4,1.355,1.364,1.13-.216-4.046.612-3.416,1.138-1.561h2.96c-1.566,1.661-.711,2.093-.915,3-.284,0-.485,0-.63-.005-.487-.015-.348-.032-.659.285.129.049.256.09.384.139v1.7c.543-.19.809-.44.9-.84h.915c.171.42-.425,1.08.448,1.28.047,1.193.424.808.781.425.193-.206.379-.412.507-.374.053.38.107.76.181,1.26.629-.471,1.172-.89,1.726-1.31,1.071-1,.16-1.766.447-2.14h.744c.374.6-.064,1.191.384,1.72.245-.45.468-.869.692-1.29-.076-.68.756-.229.9-.63-.266-.39-.82-.56-.9-1.08.247-.581.644-.512,1.094-.445a1.893,1.893,0,0,0,.779,0c-.265.77.255.96.99,1.45-.358-1.028.12-1.02.6-1.012.062,0,.124,0,.185,0v2.81c.617.44.842-.159,1.236-.159.362.319-.14.85.309,1.159.394-.349.351-1.08,1.066-1.159.287.4-.119.91.351,1.2h.68c-.074.45-.68.74-.457,1.28-1.645,1.659-2.613,1.927-2.088,3,.4-1.536.91-.524,1.449-.46,1.464-1.989.979-2.8,2-3.389,1.83.276,1.834-1.076,1.821-1.71.394-.651.394-.651,0-1.291.1-.689.947-.339,1.214-.779.053.12.106.239.149.36-.149.71.51,1.09.83,1.64.054-.38.118-.77.16-1.1a1.024,1.024,0,0,1,.616-.105.7.7,0,0,0,.662-.205c-.818-1.673-.437-2.672-1.247-3.16a1.546,1.546,0,0,1,.725-.076,1.449,1.449,0,0,0,1.065-.243c-.49-.381.5-1.15-.532-1.461.031-.464.313-.445.6-.426a1.265,1.265,0,0,0,.315,0c.98.86.98.86,1.821.86.3.74-.458,1.31-.468,2.08.554-.09.884-.53,1.374-.37-.473,3.148.154,2.9.458,3.42.01.64-.16,1.37.915,1.66V46.98c1.757.167,1.335.49,1.821.43,1.907,2.569,3.128,1.587,3.068.6a1.12,1.12,0,0,0-1.246-1.034c.15-.28.3-.57.448-.85h.915c.911.426,1.262.092,1.462-.243.147-.247.212-.5.361-.433-.369-.208-.471-.633-.916-.6v-.43c1.784-.1,1.234-.784,1.821-.43,1.03.715,1.229.229,1.363-.256.094-.342.157-.685.459-.6,1.2,1.815-.2,1.673.916,2.14,1.08.841,1.35.379,1.363.86-.309-.01-.469.13-.448.43-1.035,1.206.124,1.04.448,1.28.308.81-.448.82-1.172,1.22.884.011,1.49.23,2.086-.139V47.41H2171c1.32,3.564,2.264-2.048,1.822-2.99.89-.863.2-1.037.309-1.291h-1.673c.734-.949,1.3-.769,1.3-1.13-.362-.3-.628-.6-.148-1,2.136-.036,2.174,1.483,2.1,3-.081,1.615-.29,3.229,1.757,2.977-.011.3.149.44.458.43-.237,1.41-.243,1.112,0,1.28-.007,1.6-.111,1.881.458,2.14.159.46-.277.77-.373,1.13,1.276-.014,1.764-.916,1.735-1.13,2.578-.645.563-2.22.457-2.14v-.419c2.7-.034,3.928-.7,4.558-.43.91.555,1.48-.2,1.822-.962.424-.94.5-1.879.448-.318.468.319.138,1.139.916,1.28a2.635,2.635,0,0,0,.734,2.07c.662-.445.689-.031.7.382.013.346.018.691.382.537a11.4,11.4,0,0,1,.618,4.24h.574c.65-.95-.373-1.679-.287-2.53.842-.34,1.1.71,1.758.81v-2.38a1.115,1.115,0,0,0-.8-.114c-.4.04-.779.079-.96-.456a1.038,1.038,0,0,0,.842-.71c-.149-.139-.267-.239-.374-.339,1.02-.688,1.237-.248,1.347.193.093.372.109.743.464.437,2.157,1.228-.57,2.605.693,3.44.49-.62,1.277-.98,1.586-1.73h.458c.053.4-.127.82.223,1.329a1.83,1.83,0,0,0,1.139-1.759c.831.319,1.087-.69,1.779-.82-.674,2.452-.851,2.329.042,3.379.688,1.679.44,1.22.448,2.191h1.757c-.166-2.879-.034-2.291-.075-3.47.32.01.469-.13.458-.43,1.33.144,1.108-.254,1.6-.419,2.3-.428,3.316-.319,2.5-1.71.372-5.542,1.741.057,3.183.419-.559,1.571-1.544.975-1.235,1.63.884-.31,1.757-.609,2.62-.91-2.184-1.138-1.092-1.609-1.831-1.57.021-.65,1.107-.75.884-1.52-3.267-.726-1.117-1.708-2.706-2.33.726-1.671,1.728-3.016,1.364-3.42,1.216.986.544,1.535.9,1.71-.739,1.346,1.409,1.353,1.374,1.13-.222-4.047.611-3.411,1.138-1.561h2.95c-1.541,1.665-.706,2.092-.9,3-.277,0-.475,0-.619-.005-.5-.015-.355-.031-.68.285.129.049.257.09.384.139v1.7c.554-.19.82-.44.916-.84h.9c.181.42-.415,1.08.458,1.28.047,1.193.424.808.782.425.193-.206.379-.412.507-.374.053.38.106.76.182,1.26.627-.471,1.171-.89,1.725-1.31,1.067-1,.163-1.768.447-2.14h.735c.383.6-.053,1.191.393,1.72.246-.45.47-.869.692-1.29-.075-.68.756-.229.906-.63-.266-.39-.82-.56-.906-1.08.247-.581.64-.512,1.091-.445a1.91,1.91,0,0,0,.783,0c-.265.77.257.96.98,1.45-.349-1.028.129-1.02.606-1.012.061,0,.122,0,.183,0v2.81c.628.44.851-.159,1.246-.159.363.319-.138.85.31,1.159.383-.349.351-1.08,1.065-1.159.287.4-.117.91.351,1.2h.67c-.064.45-.67.74-.446,1.28-2.316,2.288-2.252,1.56-2.1,3,.405-1.538.919-.523,1.448-.46,1.472-1.989.981-2.8,2.012-3.389,1.831.276,1.834-1.076,1.822-1.71.393-.651.393-.651,0-1.291.1-.689.948-.339,1.214-.779.053.12.105.239.149.36-.149.71.511,1.09.832,1.64.052-.38.105-.77.158-1.1a1.026,1.026,0,0,1,.616-.105.7.7,0,0,0,.661-.205c-.818-1.673-.437-2.672-1.246-3.16a1.546,1.546,0,0,1,.725-.076,1.446,1.446,0,0,0,1.064-.243c-.49-.381.5-1.15-.532-1.461.031-.464.313-.445.6-.426a1.272,1.272,0,0,0,.316,0c.98.86.98.86,1.821.86.3.74-.458,1.31-.469,2.08.554-.09.884-.53,1.374-.37-.471,3.147.154,2.9.458,3.42.011.64-.171,1.37.9,1.66V46.98c1.75.158,1.346.491,1.822.43,1.921,2.569,3.14,1.586,3.077.6a1.127,1.127,0,0,0-1.257-1.033c.16-.28.309-.57.458-.85h.916c.91.426,1.261.092,1.461-.243.147-.247.213-.5.361-.433-.369-.208-.472-.633-.918-.6v-.43c1.785-.1,1.236-.784,1.822-.43,1.022.715,1.224.23,1.361-.256.1-.342.161-.684.46-.6,1.2,1.815-.2,1.673.916,2.14,1.083.851,1.354.379,1.363.86-.309-.01-.469.13-.458.43-1.019,1.208.137,1.04.458,1.28.31.81-.458.82-1.171,1.22.873.011,1.49.23,2.087-.139V47.41h.906c.48,2.246,1.542.9,1.363.43,1.136-1.595.2-2.545.458-3.42.894-.865.184-1.036.309-1.291h-1.672c.734-.949,1.3-.769,1.3-1.13-.362-.3-.628-.6-.149-1,2.136-.035,2.174,1.483,2.1,3-.081,1.615-.29,3.229,1.757,2.977-.011.3.139.44.458.43-.237,1.41-.241,1.112,0,1.28-.005,1.6-.11,1.881.458,2.14.149.46-.276.77-.373,1.13,1.278-.014,1.765-.916,1.736-1.13,2.574-.643.555-2.218.458-2.14v-.419c2.691-.032,3.92-.7,4.547-.43.916.56,1.489-.2,1.832-.96.425-.94.5-1.881.447-.319.468.319.139,1.139.916,1.28a2.634,2.634,0,0,0,.734,2.07c.663-.445.689-.031.7.382.013.346.018.691.382.537a11.727,11.727,0,0,1,.617,4.24h.575c.65-.95-.373-1.679-.287-2.53.841-.34,1.1.71,1.757.81v-2.38a1.113,1.113,0,0,0-.8-.114c-.4.04-.779.079-.96-.456a1.038,1.038,0,0,0,.841-.71c-.16-.139-.266-.239-.373-.339,1.02-.688,1.238-.248,1.347.193.093.372.108.743.464.437,1.809.784-.318,2.789.692,3.44.49-.62,1.267-.98,1.587-1.73h.458c.053.4-.128.82.223,1.329a1.832,1.832,0,0,0,1.139-1.759c.831.319,1.086-.69,1.779-.82-.671,2.455-.861,2.326.043,3.379.685,1.679.445,1.22.436,2.191h1.769c-.166-2.879-.035-2.291-.074-3.47.319.01.468-.13.456-.43,1.328.144,1.106-.251,1.588-.419,2.334-.433,3.3-.311,2.513-1.71.359-5.541,1.749.056,3.184.419-.573,1.576-1.545.976-1.247,1.63.9-.31,1.769-.609,2.632-.91-2.193-1.148-1.094-1.607-1.843-1.57.031-.65,1.119-.75.884-1.52-3.262-.724-1.109-1.713-2.7-2.33.739-1.668,1.737-3.015,1.373-3.42,1.217.986.544,1.535.905,1.71-.759,1.346,1.4,1.353,1.364,1.13-.21-4.046.622-3.411,1.15-1.561h2.949c-1.547,1.669-.7,2.089-.905,3-.277,0-.474,0-.618-.005-.5-.015-.356-.031-.68.285.128.049.256.09.385.139v1.7c.552-.19.818-.44.914-.84h.905c.182.42-.416,1.08.457,1.28.049,1.193.425.809.78.425.191-.205.374-.411.5-.374.064.38.117.76.192,1.26.618-.471,1.171-.89,1.714-1.31,1.093-.994.168-1.766.458-2.14h.735c.383.6-.053,1.191.394,1.72.245-.45.469-.869.692-1.29-.075-.68.755-.229.906-.63-.266-.39-.821-.56-.906-1.08.247-.581.64-.512,1.091-.445a1.914,1.914,0,0,0,.784,0c-.267.77.255.96.979,1.45-.349-1.028.129-1.02.6-1.012.061,0,.123,0,.183,0v2.81c.629.44.853-.159,1.237-.159.373.319-.129.85.319,1.159.384-.349.352-1.08,1.065-1.159.277.4-.117.91.353,1.2h.669c-.064.45-.669.74-.447,1.28-2.316,2.288-2.252,1.56-2.1,3,.405-1.538.919-.523,1.449-.46,1.476-1.992.975-2.795,2.012-3.389,1.831.276,1.835-1.076,1.821-1.71.394-.651.394-.651,0-1.291.1-.689.937-.339,1.214-.779.053.12.1.239.149.36-.149.71.511,1.09.831,1.64.053-.38.107-.77.16-1.1a1.021,1.021,0,0,1,.615-.105.7.7,0,0,0,.662-.205c-.812-1.674-.448-2.674-1.246-3.16a1.516,1.516,0,0,1,.719-.076,1.46,1.46,0,0,0,1.07-.243c-.49-.381.5-1.15-.533-1.461.031-.464.313-.445.6-.426a1.212,1.212,0,0,0,.309,0c.991.86.991.86,1.822.86.309.74-.447,1.31-.468,2.08.563-.09.894-.53,1.383-.37-.472,3.148.156,2.9.458,3.42.011.64-.17,1.37.906,1.66V46.98c1.75.158,1.345.491,1.821.43,2.917,3.922,4.241-.427,1.821-.43.16-.28.31-.57.458-.85h.916c.908.427,1.26.092,1.46-.243.149-.247.214-.494.361-.434-.367-.208-.47-.632-.915-.6v-.43c1.785-.1,1.235-.785,1.821-.43,1.022.715,1.224.23,1.361-.256.1-.342.161-.684.46-.6,1.2,1.815-.2,1.673.916,2.14,1.065.845,1.359.379,1.364.86-.319-.01-.468.13-.458.43-1.02,1.208.137,1.04.458,1.28.309.81-.458.82-1.172,1.22.873.011,1.48.23,2.076-.139V47.41h.916c.48,2.246,1.542.9,1.363.43,1.126-1.6.2-2.547.458-3.42.895-.864.185-1.036.31-1.291h-1.672c.738-.948,1.289-.769,1.3-1.13-.372-.3-.628-.6-.16-1,2.147-.039,2.185,1.481,2.109,3-.081,1.614-.291,3.227,1.758,2.977-.011.3.139.44.458.43-.24,1.417-.241,1.111,0,1.28-.006,1.6-.111,1.881.458,2.14.148.46-.277.77-.374,1.13a1.635,1.635,0,0,0,1.736-1.13c2.574-.643.556-2.218.458-2.14v-.419c2.691-.032,3.921-.7,4.547-.43.916.56,1.488-.2,1.83-.961.424-.94.5-1.881.449-.319.47.319.14,1.139.916,1.28a2.64,2.64,0,0,0,.735,2.07c.662-.445.688-.031.7.382.013.346.019.691.382.537a12.012,12.012,0,0,1,.617,4.24h.575c.639-.95-.373-1.679-.288-2.53.831-.34,1.1.71,1.757.81v-2.38a1.112,1.112,0,0,0-.8-.114c-.4.04-.78.079-.96-.456a1.022,1.022,0,0,0,.831-.71l-.362-.339c1.02-.688,1.238-.248,1.346.193.093.372.108.743.463.437,2.152,1.225-.566,2.606.692,3.44.49-.62,1.268-.98,1.588-1.73h.446c.053.4-.117.82.235,1.329a1.834,1.834,0,0,0,1.139-1.759c.831.319,1.085-.69,1.779-.82-.68,2.459-.855,2.329.042,3.379,1.6,5.639.071,5.571.032,8,2.2,16.82-.045,35.224.857,51.57H2354V724.081ZM2325.117,45.471Zm-80.454,0Zm-80.456,0Zm-80.454,0Zm-80.454,0Zm-80.455,0Zm-80.444,0Zm-80.455,0Zm-80.455,0Zm-80.454,0Zm-80.454,0Zm-80.455,0Zm-80.443,0Zm-80.455,0Zm-80.455,0Zm-80.454,0Zm-80.454,0Zm-80.456,0Zm-80.454,0Zm-80.444,0Zm-80.455,0Zm-80.454,0Zm-80.456,0Zm-80.454,0Z" transform="translate(-429 -41)" fill="#292929"/>
</svg>
