<svg xmlns="http://www.w3.org/2000/svg" width="1930.814" height="72.391" viewBox="0 0 1930.814 72.391">
  <path id="Path_4087" data-name="Path 4087" d="M-931.217-1437.732c-1.218-9.32.622-18.553-.371-30.17h-1930.09c.9,16.346-1.346,34.75.857,51.57-.039,2.429-1.567,2.361.032,8,.9,1.051.722.921.042,3.38.693-.13.948-1.14,1.779-.82a1.835,1.835,0,0,1,1.139-1.76c.352.51.182.93.235,1.33h.447c.319-.75,1.1-1.11,1.587-1.73,1.258.833-1.46,2.215.692,3.44.776-.669-.07,1.9,1.81.63l-.362-.34a1.023,1.023,0,0,1,.831-.71c-.309-.91-1.193-.16-1.757-.57v-2.38c.66.1.926,1.15,1.757.81.085-.85-.927-1.58-.288-2.53h.575a12.023,12.023,0,0,0,.618,4.24c.8-.338-.131,1.734,1.086.92a2.637,2.637,0,0,1,.735,2.07c.777.14.447.96.916,1.28-.09,2.824.227-2.533,2.279-1.28.626.266,1.856-.4,4.547-.43v-.42c-.1.079-2.116-1.5.458-2.14a1.635,1.635,0,0,1,1.736-1.13c-.1.36-.522.67-.373,1.13.568.259.464.537.458,2.14.241.169.239-.137,0,1.28.319-.01.469.13.458.43,3.978-.486-.562,6.059,3.866,5.98.468-.4.212-.7-.16-1,.01-.361.561-.182,1.3-1.13h-1.672c.125-.254-.585-.426.309-1.29.254-.873-.668-1.823.458-3.42-.179-.473.882-1.816,1.363.43h.916v-1.51c.6-.37,1.2-.15,2.076-.14-.713.4-1.48.41-1.171,1.22.321.239,1.477.072.458,1.28.01.3-.139.44-.458.43,0,.481.3.015,1.363.86,1.112.467-.28.325.916,2.14.721.192.076-2.081,1.821-.86.586.355.036-.33,1.821-.43v-.43c-.458.03-.554-.42-.948-.62.385.253.226-1.424,1.853-.66h.916c.149-.28.3-.57.458-.85-2.42,0-1.1-4.352,1.821-.43.475-.061.071.272,1.821.43v-2.09c1.075.29.894,1.02.905,1.66.3.517.93.272.458,3.42.49.16.82-.28,1.384-.37-.021.77-.777,1.34-.468,2.08.83,0,.83,0,1.821.86.34-.07.862.21.905-.43-1.033-.31-.043-1.08-.533-1.46.618-.48,1.257-.08,1.789-.32-.8-.486-.434-1.486-1.246-3.16.32-.41.842-.04,1.278-.31.053-.33.107-.72.16-1.1.319.55.98.93.831,1.64.053.12.1.24.149.36.277-.44,1.118-.09,1.214-.78-.394-.64-.394-.64,0-1.29-.014-.634-.01-1.987,1.821-1.71,1.037-.6.536-1.4,2.012-3.39.53.063,1.044,1.078,1.449-.46.154,1.44.218.712-2.1,3,.223.54-.383.83-.447,1.28h.67c.469.29.075.8.352,1.2.713-.08.681-.81,1.065-1.16.447.31-.054.84.319,1.16.384,0,.607-.6,1.236-.16v2.81c.521-.01,1.182.15.788-1.01.724.49,1.246.68.979,1.45.757-.2,1.491.46,1.875-.44-.085-.52-.639-.69-.906-1.08.15-.4.98.05.906-.63.223-.42.447-.84.692-1.29.447.53.01,1.12.394,1.72h.735c.29-.374-.634-1.146.458-2.14.543-.42,1.1-.84,1.714-1.31.075.5.128.88.192,1.26.357.1,1.2-1.782,1.278.05.873.2.276.86.458,1.28h.905c.1-.4.362-.65.915-.84v1.7c.128.05.256.09.384.14-.418.406-.056.264-1.3.28-.2.911.642,1.331-.905,3h2.949c.528,1.851,1.36,2.486,1.15-1.56-.037-.223,2.122-.215,1.364,1.13.361.175-.312.725.905,1.71-.364-.405.634-1.752,1.373-3.42-1.595-.617.558-1.606-2.7-2.33-.235-.77.852-.87.884-1.52-.75.037.35-.422-1.843-1.57.863-.3,1.736-.6,2.631-.91.3.655-.674.054-1.246,1.63,1.435.364,2.825,5.961,3.184.42-.784-1.4.179-1.277,2.513-1.71.481-.169.26-.564,1.587-.42-.011-.3.138-.44.457-.43-.039-1.18.091-.591-.074-3.47h1.768c-.01.97-.249.512.436,2.19.9,1.053.714.925.043,3.38.692-.13.948-1.14,1.778-.82a1.834,1.834,0,0,1,1.14-1.76c.351.51.17.93.223,1.33h.458c.32-.75,1.1-1.11,1.587-1.73,1.01.651-1.117,2.656.692,3.44.776-.669-.069,1.9,1.811.63-.107-.1-.213-.2-.373-.34a1.039,1.039,0,0,1,.841-.71c-.309-.91-1.193-.16-1.757-.57v-2.38c.66.1.916,1.15,1.757.81.085-.85-.937-1.58-.287-2.53h.575a11.706,11.706,0,0,0,.617,4.24c.8-.338-.131,1.734,1.087.92a2.637,2.637,0,0,1,.734,2.07c.778.14.448.96.916,1.28-.095,2.823.227-2.533,2.279-1.28.627.266,1.856-.4,4.547-.43v-.42c-.1.079-2.116-1.5.458-2.14-.029-.214.458-1.116,1.736-1.13-.1.36-.522.67-.373,1.13.568.259.464.537.458,2.14.242.168.237-.13,0,1.28.32-.01.469.13.458.43,3.972-.489-.551,6.052,3.855,5.98.479-.4.213-.7-.149-1,0-.361.565-.181,1.3-1.13h-1.672c.125-.254-.585-.425.309-1.29.258-.875-.678-1.825.458-3.42-.179-.473.882-1.816,1.363.43h.905v-1.51c.6-.37,1.214-.15,2.087-.14-.713.4-1.48.41-1.171,1.22.321.239,1.477.072.458,1.28.011.3-.149.44-.458.43.008.481.28.01,1.363.86,1.113.467-.28.325.916,2.14.721.192.076-2.081,1.821-.86.586.354.037-.33,1.821-.43v-.43c-.458.03-.554-.42-.948-.62.387.252.223-1.423,1.853-.66h.916c.149-.28.3-.57.458-.85-2.41.013-1.117-4.357,1.821-.43.475-.061.071.272,1.821.43v-2.09c1.076.29.894,1.02.905,1.66.3.517.93.273.458,3.42.49.16.82-.28,1.374-.37-.011.77-.767,1.34-.469,2.08.841,0,.841,0,1.821.86.352-.07.874.21.916-.43-1.033-.31-.042-1.08-.532-1.46.617-.48,1.246-.08,1.789-.32-.809-.488-.428-1.487-1.246-3.16.319-.41.841-.04,1.278-.31.053-.33.106-.72.159-1.1.32.55.98.93.831,1.64.043.12.1.24.149.36.266-.44,1.118-.09,1.214-.78-.394-.64-.394-.64,0-1.29-.013-.634-.009-1.987,1.821-1.71,1.032-.593.54-1.4,2.013-3.39.529.063,1.043,1.078,1.448-.46.154,1.44.218.712-2.1,3,.224.54-.383.83-.447,1.28h.671c.468.29.064.8.351,1.2.714-.08.682-.81,1.065-1.16.447.31-.053.84.309,1.16.394,0,.618-.6,1.246-.16v2.81c.522-.01,1.182.15.788-1.01.724.49,1.246.68.98,1.45.756-.2,1.491.46,1.874-.44-.085-.52-.639-.69-.905-1.08.149-.4.98.05.905-.63.223-.42.447-.84.692-1.29.447.53.011,1.12.394,1.72h.735c.284-.372-.62-1.14.447-2.14.554-.42,1.1-.84,1.725-1.31.075.5.128.88.181,1.26.365.108,1.216-1.783,1.289.05.873.2.277.86.458,1.28h.905c.1-.4.362-.65.916-.84v1.7c.127.05.255.09.383.14-.418.406-.055.264-1.3.28-.2.909.636,1.335-.905,3h2.95c.528,1.851,1.361,2.487,1.139-1.56-.035-.223,2.113-.215,1.374,1.13.361.175-.311.724.905,1.71-.365-.4.638-1.749,1.363-3.42-1.588-.622.562-1.6-2.705-2.33-.223-.77.863-.87.884-1.52-.74.039.352-.432-1.832-1.57.863-.3,1.736-.6,2.62-.91.31.656-.676.059-1.235,1.63,1.443.363,2.812,5.962,3.184.42-.813-1.391.2-1.282,2.5-1.71.489-.166.267-.564,1.6-.42-.011-.3.138-.44.458-.43-.04-1.18.091-.591-.075-3.47h1.757c.008.97-.24.512.448,2.19.893,1.051.716.927.042,3.38.692-.13.948-1.14,1.779-.82a1.832,1.832,0,0,1,1.139-1.76c.351.51.171.93.224,1.33h.458c.308-.75,1.1-1.11,1.586-1.73,1.262.834-1.465,2.212.693,3.44.775-.669-.07,1.9,1.81.63-.107-.1-.224-.2-.373-.34a1.039,1.039,0,0,1,.841-.71c-.308-.91-1.192-.16-1.757-.57v-2.38c.661.1.916,1.15,1.757.81.086-.85-.937-1.58-.287-2.53h.575a11.393,11.393,0,0,0,.618,4.24c.8-.338-.131,1.734,1.086.92a2.635,2.635,0,0,1,.734,2.07c.778.14.448.96.916,1.28-.1,2.821.229-2.525,2.269-1.28.63.265,1.857-.4,4.558-.43v-.42c-.1.08-2.12-1.495.457-2.14-.028-.214.459-1.116,1.736-1.13-.1.36-.532.67-.373,1.13.569.259.465.537.458,2.14.243.168.237-.13,0,1.28.309-.01.469.13.458.43,3.972-.489-.551,6.053,3.855,5.98.48-.4.213-.7-.149-1,0-.361.566-.181,1.3-1.13h-1.673c.113-.253-.581-.427.309-1.29-.442-.942.5-6.554,1.821-2.99h.906v-1.51c.6-.37,1.2-.15,2.087-.14-.724.4-1.48.41-1.172,1.22.324.24,1.483.074.448,1.28.021.3-.139.44-.448.43.012.481.282.019,1.363.86,1.113.467-.28.325.916,2.14.727.193.064-2.08,1.821-.86.587.354.037-.33,1.821-.43v-.43c-.457.03-.553-.42-.947-.62.386.252.222-1.423,1.853-.66h.915c.15-.28.3-.57.448-.85-2.4,0-1.091-4.354,1.821-.43.486-.059.064.264,1.821.43v-2.09c1.075.29.905,1.02.915,1.66.3.517.931.272.458,3.42.49.16.82-.28,1.374-.37-.01.77-.767,1.34-.468,2.08.841,0,.841,0,1.821.86.351-.07.873.21.915-.43-1.033-.31-.042-1.08-.532-1.46.618-.48,1.246-.08,1.789-.32-.809-.488-.428-1.487-1.246-3.16.319-.41.841-.04,1.278-.31.042-.33.106-.72.16-1.1.319.55.979.93.83,1.64.043.12.1.24.149.36.267-.44,1.118-.09,1.214-.78-.394-.64-.394-.64,0-1.29-.013-.634-.009-1.987,1.821-1.71,1.024-.594.539-1.4,2-3.39.54.064,1.047,1.077,1.449-.46.525,1.073-.442,1.341-2.087,3,.223.54-.384.83-.458,1.28h.681c.469.29.064.8.351,1.2.714-.08.671-.81,1.065-1.16.448.31-.053.84.309,1.16.394,0,.618-.6,1.236-.16v2.81c.532-.01,1.192.15.788-1.01.735.49,1.256.68.99,1.45.746-.2,1.491.46,1.874-.44-.085-.52-.639-.69-.905-1.08.149-.4.98.05.905-.63.224-.42.447-.84.692-1.29.448.53.011,1.12.384,1.72h.745c.287-.374-.624-1.142.447-2.14.554-.42,1.1-.84,1.726-1.31.074.5.128.88.181,1.26.365.108,1.215-1.783,1.288.05.873.2.277.86.448,1.28h.915c.1-.4.362-.65.905-.84v1.7c.128.05.256.09.384.14-.4.41-.05.262-1.289.28-.2.907.651,1.339-.915,3h2.96c.527,1.855,1.355,2.485,1.139-1.56-.041-.225,2.134-.209,1.363,1.13.371.177-.307.719.916,1.71-.364-.4.636-1.745,1.363-3.42-1.592-.618.557-1.606-2.705-2.33-.234-.77.863-.87.884-1.52-.745.039.366-.431-1.842-1.57.873-.3,1.747-.6,2.631-.91.312.655-.673.048-1.247,1.63,1.445.354,2.825,5.965,3.2.42-.816-1.391.206-1.282,2.5-1.71.49-.166.267-.564,1.6-.42-.01-.3.139-.44.447-.43-.033-1.18.078-.591-.063-3.47h1.757c.007.97-.24.512.447,2.19.9,1.051.713.927.043,3.38.692-.13.947-1.14,1.778-.82a1.835,1.835,0,0,1,1.139-1.76c.352.51.171.93.224,1.33h.458c.309-.75,1.1-1.11,1.587-1.73,1.261.834-1.466,2.212.692,3.44.764-.669-.067,1.892,1.8.63l-.363-.34a1.039,1.039,0,0,1,.831-.71c-.3-.91-1.182-.16-1.746-.57v-2.38c.66.1.915,1.15,1.746.81.085-.85-.927-1.58-.277-2.53h.575a11.391,11.391,0,0,0,.618,4.24c.8-.338-.131,1.735,1.086.92a2.637,2.637,0,0,1,.735,2.07c.777.14.437.96.916,1.28-.095,2.821.227-2.525,2.268-1.28.63.265,1.857-.4,4.558-.43v-.42c-.1.08-2.12-1.495.458-2.14-.03-.219.456-1.118,1.725-1.13-.085.36-.522.67-.362,1.13.568.259.464.537.458,2.14.247.167.227-.121,0,1.28.309-.01.468.13.447.43,3.985-.5-.56,6.052,3.866,5.98.479-.4.213-.7-.149-1,0-.361.565-.181,1.3-1.13h-1.683c.122-.254-.576-.424.32-1.29.257-.875-.675-1.823.447-3.42-.179-.479.894-1.814,1.374.43h.905v-1.51c.6-.37,1.2-.15,2.087-.14-.724.4-1.491.41-1.171,1.22.326.24,1.475.075.447,1.28.011.3-.138.44-.447.43,0,.481.28.016,1.363.86,1.093.469-.265.326.905,2.14.735.2.082-2.08,1.821-.86.6.351.03-.32,1.821-.43v-.43c-.458.03-.543-.42-.937-.62.386.254.225-1.434,1.853-.66h.9c.16-.28.309-.57.458-.85-2.4,0-1.089-4.354,1.821-.43.487-.059.064.264,1.821.43v-2.09c1.076.29.894,1.02.916,1.66.3.517.93.272.458,3.42.49.16.82-.28,1.373-.37-.01.77-.766,1.34-.468,2.08.841,0,.841,0,1.821.86.351-.07.873.21.916-.43-1.033-.31-.043-1.08-.533-1.46.618-.48,1.246-.08,1.789-.32.064-.58-.532-.21-.809-.68-.3-.468.645-1.1-.437-2.48.309-.41.841-.04,1.278-.31.043-.33.107-.72.16-1.1.32.55.98.93.82,1.64.053.12.106.24.149.36.277-.44,1.129-.09,1.225-.78-.394-.64-.394-.64,0-1.29-.014-.634-.01-1.987,1.821-1.71,1.028-.594.528-1.4,2-3.39.539.064,1.046,1.077,1.448-.46.515,1.073-.442,1.343-2.087,3,.223.54-.394.83-.458,1.28h.681c.469.29.064.8.352,1.2.713-.08.671-.81,1.054-1.16.447.31-.042.84.32,1.16.394,0,.617-.6,1.235-.16v2.81c.532-.01,1.193.15.788-1.01.724.49,1.257.68.98,1.45.756-.2,1.5.46,1.874-.44-.085-.52-.628-.69-.9-1.08.149-.4.969.05.9-.63.234-.42.458-.84.7-1.29.447.53.01,1.12.383,1.72h.735c.29-.374-.633-1.146.458-2.14.554-.42,1.1-.84,1.725-1.31.074.5.128.88.181,1.26.36.107,1.226-1.783,1.278.05.884.2.287.86.458,1.28h.916c.085-.4.362-.65.9-.84v1.7c.128.05.255.09.383.14-.4.41-.049.262-1.288.28-.2.907.648,1.343-.916,3h2.96c.528,1.855,1.355,2.485,1.14-1.56-.041-.225,2.133-.209,1.363,1.13.37.176-.307.721.916,1.71-.205-.512.228-1.145,1.363-3.42-1.593-.617.556-1.606-2.705-2.33-.235-.77.863-.87.884-1.52-.757.039.368-.433-1.843-1.57.874-.3,1.747-.6,2.631-.91.312.655-.672.048-1.246,1.63,1.445.357,2.823,5.965,3.194.42-.818-1.391.2-1.281,2.5-1.71.407-.057.052-.546,1.587-.42-.011-.3.149-.44.458-.43-.034-1.18.078-.591-.064-3.47h1.757c.008.97-.24.512.447,2.19.907,1.051.686.932.043,3.38.692-.13.948-1.14,1.778-.82a1.834,1.834,0,0,1,1.14-1.76c.351.51.17.93.223,1.33h.458c.309-.75,1.1-1.11,1.576-1.73,1.262.832-1.439,2.207.693,3.44.774-.669-.068,1.888,1.81.63l-.362-.34a1.037,1.037,0,0,1,.83-.71c-.308-.91-1.182-.16-1.746-.57v-2.38c.66.1.916,1.15,1.746.81.086-.85-.926-1.58-.287-2.53h.586a11.176,11.176,0,0,0,.617,4.24c.8-.337-.138,1.735,1.087.92a2.637,2.637,0,0,1,.734,2.07c.767.14.437.96.9,1.28-.072,2.823.231-2.53,2.279-1.28.63.265,1.858-.4,4.558-.43v-.42c-.1.08-2.119-1.495.458-2.14-.03-.219.457-1.118,1.725-1.13-.085.36-.522.67-.362,1.13.562.26.469.538.458,2.14.249.168.211-.132,0,1.28.309-.01.458.13.447.43,3.983-.5-.558,6.055,3.866,5.98.479-.4.213-.7-.149-1,0-.362.551-.176,1.3-1.13h-1.683c.115-.256-.561-.416.31-1.29.253-.873-.669-1.823.457-3.42-.183-.472.891-1.824,1.363.43h.916v-1.51c.6-.37,1.2-.15,2.087-.14-.724.4-1.49.41-1.182,1.22.33.238,1.489.071.458,1.28.011.3-.138.44-.458.43.009.481.288.015,1.374.86,1.1.469-.292.33.905,2.14.727.195.079-2.078,1.821-.86.6.351.03-.32,1.821-.43v-.43c-.457.03-.543-.42-.937-.62.387.254.225-1.433,1.853-.66h.905c.16-.28.309-.57.458-.85-2.393.007-1.1-4.358,1.821-.43.489-.061.064.27,1.821.43v-2.09c1.076.29.9,1.02.916,1.66.291.517.94.272.447,3.42.5.16.831-.28,1.385-.37-.011.77-.767,1.34-.469,2.08.842,0,.842,0,1.821.86.341-.07.873.21.905-.43-1.022-.31-.032-1.08-.521-1.46.606-.48,1.245-.08,1.778-.32.074-.58-.522-.21-.8-.68-.3-.468.645-1.1-.436-2.48.308-.41.83-.04,1.278-.31.042-.33.095-.72.159-1.1.32.55.98.93.82,1.64.054.12.107.24.149.36.277-.44,1.129-.09,1.225-.78-.394-.64-.394-.64,0-1.29-.011-.635-.02-1.987,1.821-1.71,1.028-.594.528-1.4,2-3.39.538.063,1.046,1.078,1.448-.46.163,1.436.208.711-2.087,3,.224.54-.394.83-.458,1.28h.682c.468.29.064.8.351,1.2.714-.08.671-.81,1.054-1.16.448.31-.053.84.32,1.16.394,0,.618-.6,1.235-.16v2.81c.533-.01,1.193.15.788-1.01.724.49,1.246.68.98,1.45.756-.2,1.5.46,1.874-.44-.085-.52-.639-.69-.894-1.08.149-.4.969.05.894-.63.235-.42.458-.84.7-1.29.447.53.011,1.12.383,1.72h.735c.29-.374-.633-1.146.458-2.14.543-.42,1.1-.84,1.725-1.31.064.5.128.88.181,1.26.363.111,1.216-1.785,1.278.05.884.2.288.86.458,1.28h.916c.085-.4.362-.65.905-.84v1.7c.128.05.256.09.383.14-.4.4-.055.266-1.288.28-.2.906.648,1.343-.916,3h2.96c.519,1.857,1.351,2.483,1.14-1.56-.038-.224,2.124-.213,1.363,1.13.357.174-.3.727.916,1.71-.205-.512.229-1.145,1.363-3.42-1.592-.617.556-1.606-2.7-2.33-.234-.77.852-.87.884-1.52-.754.035.362-.416-1.842-1.57.873-.3,1.746-.6,2.63-.91.3.655-.67.051-1.246,1.63,1.45.359,2.819,5.966,3.195.42-.815-1.387.192-1.285,2.5-1.71.407-.057.053-.546,1.587-.42-.01-.3.139-.44.458-.43-.034-1.18.078-.591-.064-3.47h1.757c0,.968-.246.512.437,2.19.921,1.041.7.93.053,3.38.682-.13.937-1.14,1.779-.82a1.8,1.8,0,0,1,1.139-1.76c.352.51.17.93.224,1.33h.458c.308-.75,1.086-1.11,1.576-1.73,1.251.831-1.439,2.208.692,3.44.775-.669-.068,1.888,1.81.63l-.362-.34a1.039,1.039,0,0,1,.831-.71c-.309-.91-1.182-.16-1.747-.57v-2.38c.661.1.916,1.15,1.747.81.085-.85-.927-1.58-.288-2.53h.586a11.2,11.2,0,0,0,.617,4.24c.8-.337-.145,1.735,1.076.92a2.611,2.611,0,0,1,.746,2.07c.766.14.436.96.905,1.28-.072,2.823.227-2.528,2.279-1.28.616.265,1.865-.4,4.557-.43v-.42c-.106.081-2.11-1.492.448-2.14a1.635,1.635,0,0,1,1.736-1.13c-.086.36-.522.67-.362,1.13.557.265.452.542.447,2.14.252.169.233-.139,0,1.28.319-.01.468.13.458.43,3.988-.49-.563,6.051,3.865,5.98.48-.4.213-.7-.149-1,0-.362.563-.174,1.289-1.13h-1.672c.122-.255-.581-.423.309-1.29.253-.873-.669-1.823.458-3.42-.183-.472.89-1.824,1.363.43h.915v-1.51c.6-.37,1.2-.15,2.077-.14-.714.4-1.48.41-1.171,1.22.33.239,1.472.072.457,1.28.011.3-.138.44-.457.43.008.481.287.015,1.373.86,1.1.469-.291.33.906,2.14.725.2.07-2.077,1.821-.86.6.354.029-.328,1.821-.43v-.43c-.458.03-.544-.42-.938-.62.374.254.231-1.435,1.853-.66h.906c.149-.28.308-.57.457-.85-2.392.007-1.1-4.357,1.821-.43.476-.061.071.272,1.822.43v-2.09c1.075.29.894,1.02.915,1.66.3.516.923.275.448,3.42.5.16.83-.28,1.384-.37-.011.77-.777,1.34-.469,2.08.831,0,.831,0,1.821.86.341-.07.874.21.906-.43-1.023-.31-.032-1.08-.522-1.46.607-.48,1.246-.08,1.778-.32-.787-.487-.45-1.473-1.235-3.16.309-.41.83-.04,1.278-.31.042-.33.1-.72.149-1.1.33.55.98.93.83,1.64.054.12.107.24.15.36.276-.44,1.129-.09,1.213-.78-.383-.64-.383-.64,0-1.29-.013-.634-.009-1.987,1.822-1.71,1.034-.586.538-1.4,2.012-3.39.538.064,1.047,1.078,1.449-.46.162,1.436.208.711-2.088,3,.224.54-.394.83-.458,1.28h.671c.48.29.075.8.352,1.2.724-.08.681-.81,1.065-1.16.447.31-.054.84.319,1.16.384,0,.618-.6,1.235-.16v2.81c.522-.01,1.193.15.788-1.01.725.49,1.247.68.98,1.45.756-.2,1.5.46,1.874-.44-.085-.52-.638-.69-.894-1.08.138-.4.969.05.894-.63.224-.42.458-.84.693-1.29.458.53.01,1.12.394,1.72h.735c.29-.374-.633-1.146.457-2.14.544-.42,1.1-.84,1.725-1.31.064.5.128.88.182,1.26.362.1,1.205-1.78,1.277.05.884.2.288.86.458,1.28h.906c.095-.4.372-.65.915-.84v1.7c.128.05.256.09.384.14-.418.406-.056.264-1.3.28-.205.9.648,1.344-.906,3h2.961c.518,1.857,1.35,2.483,1.139-1.56-.038-.223,2.122-.215,1.363,1.13.36.174-.3.73.916,1.71-.2-.512.229-1.145,1.363-3.42-1.595-.617.557-1.606-2.705-2.33-.234-.77.852-.87.884-1.52-.749.037.35-.424-1.842-1.57.863-.3,1.747-.6,2.63-.91.3.655-.671.052-1.246,1.63,1.439.351,2.829,5.967,3.184.42-.788-1.4.194-1.279,2.514-1.71.407-.057.052-.546,1.586-.42-.01-.3.139-.44.458-.43-.034-1.18.078-.591-.064-3.47h1.758c-.009.969-.243.512.436,2.19.91,1.04.717.927.043,3.38.692-.13.948-1.14,1.778-.82a1.829,1.829,0,0,1,1.15-1.76c.341.51.171.93.224,1.33h.447c.32-.75,1.1-1.11,1.587-1.73,1.251.831-1.439,2.208.692,3.44.776-.669-.07,1.9,1.81.63l-.362-.34a1.039,1.039,0,0,1,.831-.71c-.309-.91-1.182-.16-1.757-.57v-2.38c.671.1.926,1.15,1.757.81.085-.85-.926-1.58-.288-2.53h.576a11.607,11.607,0,0,0,.628,4.24c.788-.336-.14,1.736,1.075.92a2.682,2.682,0,0,1,.746,2.07c.766.14.436.96.905,1.28-.09,2.82.229-2.523,2.279-1.28.626.266,1.856-.4,4.547-.43v-.42c-.1.079-2.116-1.5.458-2.14a1.634,1.634,0,0,1,1.736-1.13c-.1.36-.522.67-.373,1.13.568.259.464.537.458,2.14.241.169.238-.137,0,1.28.319-.01.469.13.458.43,3.99-.487-.569,6.054,3.866,5.98.479-.4.212-.7-.16-1,.006-.363.563-.169,1.3-1.13h-1.672c.123-.255-.581-.423.309-1.29.254-.873-.668-1.823.458-3.42-.179-.473.882-1.816,1.363.43h.916v-1.51c.6-.37,1.2-.15,2.076-.14-.713.4-1.48.41-1.171,1.22.321.239,1.478.072.458,1.28.011.3-.139.44-.458.43,0,.481.3.015,1.363.86,1.112.467-.28.325.916,2.14.729.193.068-2.081,1.821-.86.586.354.037-.33,1.821-.43v-.43c-.458.03-.554-.42-.948-.62.385.253.229-1.431,1.864-.66h.905c.149-.28.309-.57.458-.85-2.393.007-1.1-4.358,1.821-.43.475-.061.071.272,1.821.43v-2.09c1.075.29.894,1.02.905,1.66.3.517.93.272.458,3.42.5.16.82-.28,1.384-.37-.021.77-.777,1.34-.468,2.08.83,0,.83,0,1.821.86.341-.07.873.21.905-.43-1.022-.31-.043-1.08-.532-1.46.617-.48,1.256-.08,1.788-.32-.8-.486-.434-1.486-1.246-3.16.32-.41.842-.04,1.279-.31.053-.33.106-.72.159-1.1.33.55.98.93.831,1.64.053.12.095.24.149.36.277-.44,1.118-.09,1.214-.78-.383-.64-.383-.64,0-1.29-.014-.634-.01-1.987,1.821-1.71,1.037-.6.536-1.4,2.013-3.39.538.063,1.038,1.078,1.448-.46.159,1.437.207.712-2.087,3,.213.54-.394.83-.458,1.28h.671c.479.29.074.8.351,1.2.724-.08.682-.81,1.065-1.16.447.31-.053.84.319,1.16.384,0,.608-.6,1.236-.16v2.81c.521-.01,1.182.15.788-1.01.724.49,1.246.68.98,1.45.756-.2,1.49.46,1.874-.44-.085-.52-.639-.69-.905-1.08.149-.4.979.05.905-.63.223-.42.458-.84.692-1.29.447.53.011,1.12.394,1.72h.735c.29-.374-.633-1.146.458-2.14.543-.42,1.1-.84,1.714-1.31.075.5.128.88.192,1.26.362.1,1.2-1.78,1.278.05.873.2.287.86.458,1.28h.905c.1-.4.362-.65.916-.84v1.7c.127.05.255.09.383.14-.418.406-.056.264-1.3.28-.2.911.643,1.331-.905,3h2.96c.512,1.86,1.352,2.478,1.14-1.56-.038-.223,2.122-.215,1.363,1.13.354.178-.3.714.905,1.71-.366-.405.64-1.757,1.374-3.42-1.6-.617.557-1.606-2.705-2.33-.235-.77.852-.87.884-1.52-.749.037.349-.424-1.843-1.57.863-.3,1.736-.6,2.631-.91.3.655-.674.054-1.246,1.63,1.436.362,2.83,5.961,3.184.42-.789-1.4.194-1.279,2.513-1.71.407-.057.051-.546,1.587-.42-.011-.3.138-.44.458-.43-.04-1.18.09-.591-.075-3.47h1.768c-.008.969-.242.512.436,2.19.9,1.053.72.923.043,3.38.692-.13.948-1.14,1.778-.82a1.834,1.834,0,0,1,1.14-1.76c.351.51.17.93.234,1.33h.448c.319-.75,1.1-1.11,1.586-1.73,1.01.651-1.117,2.656.692,3.44.776-.669-.069,1.9,1.811.63-.107-.1-.213-.2-.373-.34a1.039,1.039,0,0,1,.841-.71c-.308-.91-1.192-.16-1.757-.57v-2.38c.66.1.916,1.15,1.757.81.086-.85-.926-1.58-.287-2.53h.575a11.978,11.978,0,0,0,.617,4.24c.8-.338-.13,1.734,1.087.92a2.635,2.635,0,0,1,.734,2.07c.778.14.448.96.916,1.28-.095,2.823.227-2.532,2.279-1.28.627.266,1.857-.4,4.547-.43v-.42c-.1.079-2.116-1.5.458-2.14-.03-.217.467-1.117,1.736-1.13-.1.36-.522.67-.373,1.13.569.259.464.537.458,2.14.241.169.239-.137,0,1.28.32-.01.469.13.458.43,3.978-.486-.562,6.059,3.866,5.98.468-.4.213-.7-.16-1,0-.361.566-.182,1.3-1.13h-1.672c.125-.254-.585-.426.309-1.29.254-.873-.668-1.823.458-3.42-.179-.473.883-1.816,1.363.43h.905v-1.51c.6-.37,1.215-.15,2.088-.14-.714.4-1.481.41-1.172,1.22.321.239,1.478.072.458,1.28.011.3-.138.44-.458.43.007.481.28.01,1.363.86,1.113.467-.28.325.916,2.14.721.192.076-2.081,1.821-.86.586.354.037-.33,1.821-.43v-.43c-.458.03-.554-.42-.947-.62.384.253.226-1.424,1.852-.66h.916c.149-.28.3-.57.458-.85-2.413,0-1.108-4.35,1.821-.43.476-.061.071.272,1.821.43v-2.09c1.076.29.9,1.02.905,1.66.3.517.931.272.458,3.42.49.16.82-.28,1.385-.37-.022.77-.778,1.34-.48,2.08.842,0,.842,0,1.832.86.341-.07.863.21.905-.43-1.033-.31-.042-1.08-.532-1.46.618-.48,1.256-.08,1.789-.32-.809-.488-.428-1.488-1.246-3.16.319-.41.841-.04,1.278-.31.053-.33.106-.72.16-1.1.319.55.979.93.83,1.64.053.12.1.24.149.36.277-.44,1.118-.09,1.214-.78-.394-.64-.394-.64,0-1.29-.013-.634-.009-1.987,1.821-1.71,1.038-.6.537-1.4,2.013-3.39.529.063,1.043,1.078,1.448-.46.154,1.44.218.711-2.1,3,.224.54-.383.83-.447,1.28h.671c.468.29.064.8.351,1.2.714-.08.682-.81,1.065-1.16.447.31-.053.84.32,1.16.383,0,.607-.6,1.235-.16v2.81c.522-.01,1.182.15.788-1.01.724.49,1.246.68.98,1.45.756-.2,1.491.46,1.874-.44-.085-.52-.639-.69-.905-1.08.149-.4.98.05.905-.63.224-.42.447-.84.692-1.29.448.53.011,1.12.394,1.72h.735c.29-.374-.633-1.146.458-2.14.543-.42,1.1-.84,1.714-1.31.075.5.128.88.181,1.26.366.108,1.216-1.783,1.289.05.873.2.277.86.458,1.28h.905c.1-.4.362-.65.916-.84v1.7c.128.05.255.09.383.14-.418.406-.055.264-1.3.28-.2.911.643,1.331-.905,3h2.95c.529,1.851,1.361,2.487,1.139-1.56-.03-.222,2.126-.218,1.374,1.13.361.175-.311.725.905,1.71-.363-.405.635-1.752,1.374-3.42-1.6-.616.553-1.6-2.716-2.33-.223-.77.863-.87.884-1.52-.739.039.352-.431-1.831-1.57.862-.3,1.736-.6,2.619-.91.309.655-.662.053-1.235,1.63,1.436.364,2.826,5.961,3.184.42-.8-1.39.186-1.283,2.513-1.71.482-.169.261-.564,1.587-.42-.011-.3.138-.44.458-.43-.04-1.18.091-.591-.075-3.47h1.768c-.009.97-.249.512.437,2.19.9,1.053.713.925.042,3.38.692-.13.948-1.14,1.779-.82a1.835,1.835,0,0,1,1.139-1.76c.352.51.171.93.224,1.33h.458c.319-.75,1.1-1.11,1.587-1.73,1.009.651-1.118,2.656.692,3.44.776-.669-.07,1.9,1.81.63-.106-.1-.213-.2-.373-.34a1.038,1.038,0,0,1,.841-.71c-.308-.91-1.192-.16-1.757-.57v-2.38c.661.1.916,1.15,1.757.81.086-.85-.937-1.58-.287-2.53h.575a11.7,11.7,0,0,0,.618,4.24c.8-.338-.131,1.734,1.086.92a2.641,2.641,0,0,1,.735,2.07c.777.14.447.96.916,1.28-.1,2.823.226-2.531,2.279-1.28.621.266,1.852-.4,4.547-.43v-.42c-.108.08-2.113-1.494.458-2.14-.029-.214.458-1.116,1.735-1.13-.095.36-.521.67-.372,1.13.568.259.464.537.458,2.14.242.168.237-.13,0,1.28.319-.01.468.13.458.43,3.971-.489-.551,6.052,3.855,5.98.479-.4.212-.7-.15-1,0-.361.566-.181,1.3-1.13h-1.672c.113-.253-.582-.427.308-1.29.258-.875-.678-1.825.458-3.42-.179-.473.883-1.816,1.363.43h.906v-1.51c.6-.37,1.2-.15,2.087-.14-.724.4-1.48.41-1.171,1.22.321.239,1.477.072.458,1.28.01.3-.15.44-.458.43.011.481.283.02,1.363.86,1.112.467-.28.325.915,2.14.722.192.076-2.081,1.822-.86.586.354.036-.33,1.82-.43v-.43c-.457.03-.553-.42-.947-.62.386.252.222-1.423,1.853-.66h.915c.15-.28.3-.57.448-.85-2.4,0-1.1-4.352,1.832-.43.475-.061.07.272,1.82.43v-2.09c1.076.29.9,1.02.906,1.66.3.517.93.272.458,3.42.489.16.819-.28,1.373-.37-.01.77-.766,1.34-.468,2.08.841,0,.841,0,1.821.86.351-.07.873.21.915-.43-1.033-.31-.042-1.08-.532-1.46.618-.48,1.246-.08,1.789-.32-.809-.488-.428-1.487-1.246-3.16.32-.41.841-.04,1.278-.31.053-.33.107-.72.16-1.1.319.55.979.93.83,1.64.043.12.1.24.149.36.267-.44,1.119-.09,1.215-.78-.4-.64-.4-.64,0-1.29-.014-.634-.01-1.987,1.821-1.71,1.032-.594.539-1.4,2.012-3.39.524.06,1.05,1.08,1.438-.46.166,1.439.23.711-2.087,3,.223.54-.384.83-.448,1.28h.671c.469.29.064.8.352,1.2.713-.08.681-.81,1.064-1.16.448.31-.053.84.309,1.16.394,0,.618-.6,1.246-.16v2.81c.522-.01,1.182.15.788-1.01.724.49,1.246.68.98,1.45.745-.2,1.491.46,1.874-.44-.085-.52-.639-.69-.905-1.08.149-.4.98.05.905-.63.224-.42.448-.84.693-1.29.447.53.01,1.12.394,1.72h.734c.284-.373-.619-1.142.448-2.14.553-.42,1.1-.84,1.725-1.31.074.5.128.88.181,1.26.365.107,1.215-1.783,1.288.05.874.2.277.86.448,1.28h.915c.1-.4.363-.65.916-.84v1.7c.117.05.245.09.373.14-.4.41-.049.262-1.289.28-.2.907.651,1.339-.915,3h2.96c.529,1.851,1.362,2.487,1.14-1.56-.035-.223,2.112-.215,1.373,1.13.362.175-.311.724.905,1.71-.363-.4.636-1.746,1.364-3.42-1.588-.622.561-1.6-2.705-2.33-.224-.77.862-.87.884-1.52-.74.039.351-.432-1.832-1.57.863-.3,1.736-.6,2.62-.91.315.655-.683.049-1.236,1.63,1.437.364,2.814,5.958,3.184.42-.816-1.39.2-1.282,2.5-1.71.49-.166.267-.564,1.6-.42-.01-.3.139-.44.448-.43-.034-1.18.077-.591-.064-3.47h1.757c.007.97-.24.512.447,2.19.894,1.051.716.928.043,3.38.692-.13.947-1.14,1.778-.82a1.834,1.834,0,0,1,1.14-1.76c.351.51.17.93.223,1.33h.458c.309-.75,1.1-1.11,1.587-1.73,1.261.834-1.466,2.212.692,3.44.763-.669-.064,1.9,1.81.63-.117-.1-.223-.2-.372-.34a1.036,1.036,0,0,1,.841-.71c-.309-.91-1.193-.16-1.757-.57v-2.38c.66.1.916,1.15,1.757.81.085-.85-.937-1.58-.288-2.53h.575a11.4,11.4,0,0,0,.618,4.24c.8-.338-.131,1.735,1.086.92a2.634,2.634,0,0,1,.735,2.07c.778.14.447.96.916,1.28-.1,2.821.227-2.525,2.268-1.28.63.265,1.858-.4,4.558-.43v-.42c-.1.08-2.12-1.495.458-2.14-.029-.214.458-1.116,1.736-1.13-.1.36-.533.67-.373,1.13.568.259.464.537.458,2.14.242.168.236-.129,0,1.28.309-.01.468.13.458.43,3.971-.489-.551,6.053,3.855,5.98.479-.4.213-.7-.149-1,0-.361.565-.181,1.3-1.13h-1.672c.113-.253-.582-.427.309-1.29-.442-.941.5-6.554,1.821-2.99h.905v-1.51c.6-.37,1.2-.15,2.087-.14-.724.4-1.48.41-1.171,1.22.324.239,1.476.073.447,1.28.021.3-.138.44-.447.43.011.481.281.019,1.363.86,1.1.467-.267.326.905,2.14.734.2.081-2.08,1.821-.86.6.353.032-.326,1.832-.43v-.43c-.458.03-.554-.42-.948-.62.386.252.223-1.423,1.853-.66h.916c.149-.28.3-.57.447-.85-2.4,0-1.091-4.355,1.821-.43.487-.059.064.264,1.821.43v-2.09c1.076.29.905,1.02.916,1.66.3.517.93.272.458,3.42.49.16.82-.28,1.373-.37-.01.77-.766,1.34-.468,2.08.841,0,.841,0,1.821.86.351-.07.873.21.916-.43-1.033-.31-.043-1.08-.533-1.46.618-.48,1.246-.08,1.789-.32.064-.58-.532-.21-.809-.68-.3-.469.65-1.1-.436-2.48.308-.41.841-.04,1.277-.31.043-.33.107-.72.16-1.1.32.55.98.93.831,1.64.042.12.1.24.149.36.266-.44,1.118-.09,1.214-.78-.394-.64-.394-.64,0-1.29-.014-.634-.01-1.987,1.821-1.71,1.023-.594.539-1.4,2-3.39.539.064,1.046,1.077,1.448-.46.157,1.437.221.705-2.087,3,.224.54-.383.83-.458,1.28h.682c.468.29.064.8.351,1.2.714-.08.671-.81,1.065-1.16.447.31-.053.84.309,1.16.394,0,.617-.6,1.235-.16v2.81c.533-.01,1.193.15.788-1.01.724.49,1.257.68.99,1.45.746-.2,1.491.46,1.864-.44-.075-.52-.628-.69-.894-1.08.149-.4.969.05.894-.63.234-.42.458-.84.7-1.29.447.53.011,1.12.383,1.72h.746c.331-.361-.7-.489.447-2.14.554-.42,1.1-.84,1.725-1.31.075.5.128.88.181,1.26.365.107,1.215-1.783,1.289.05.873.2.277.86.447,1.28h.916c.095-.4.362-.65.905-.84v1.7c.128.05.255.09.383.14-.4.41-.049.262-1.288.28-.2.907.648,1.343-.916,3h2.96c.528,1.855,1.355,2.485,1.14-1.56-.041-.225,2.133-.209,1.363,1.13.37.177-.307.719.916,1.71-.205-.513.228-1.144,1.363-3.42-1.593-.618.556-1.606-2.7-2.33-.234-.77.862-.87.884-1.52-.746.039.365-.431-1.842-1.57.873-.3,1.746-.6,2.63-.91.312.655-.672.048-1.246,1.63,1.444.354,2.825,5.965,3.195.42-.819-1.391.2-1.281,2.5-1.71.411-.059.049-.547,1.6-.42-.022-.3.138-.44.447-.43-.034-1.18.078-.591-.064-3.47h1.757c.008.97-.24.512.447,2.19.908,1.056.7.933.043,3.38.692-.13.948-1.14,1.778-.82a1.834,1.834,0,0,1,1.14-1.76c.351.51.17.93.223,1.33h.458c.309-.75,1.1-1.11,1.587-1.73,1.262.834-1.465,2.212.692,3.44.765-.669-.067,1.892,1.8.63l-.362-.34a1.037,1.037,0,0,1,.83-.71c-.3-.91-1.181-.16-1.746-.57v-2.38c.66.1.916,1.15,1.746.81.086-.85-.926-1.58-.287-2.53h.586a11.29,11.29,0,0,0,.617,4.24c.8-.338-.13,1.735,1.087.92a2.641,2.641,0,0,1,.735,2.07c.777.14.436.96.9,1.28-.073,2.823.229-2.53,2.279-1.28.629.265,1.857-.4,4.557-.43v-.42c-.1.08-2.119-1.495.458-2.14-.03-.219.457-1.118,1.725-1.13-.085.36-.521.67-.362,1.13.562.26.469.538.458,2.14.248.167.227-.121,0,1.28.309-.01.458.13.448.43,3.984-.5-.561,6.052,3.865,5.98.479-.4.213-.7-.149-1,0-.361.565-.181,1.3-1.13h-1.682c.114-.256-.562-.416.308-1.29.254-.873-.668-1.823.458-3.42-.185-.48.909-1.813,1.364.43h.915v-1.51c.6-.37,1.2-.15,2.088-.14-.725.4-1.491.41-1.172,1.22.326.24,1.475.075.447,1.28.011.3-.138.44-.447.43,0,.481.28.016,1.363.86,1.1.469-.272.329.9,2.14.727.195.079-2.078,1.822-.86.6.351.03-.32,1.82-.43v-.43c-.458.03-.543-.42-.937-.62.387.254.226-1.434,1.853-.66h.9c.16-.28.309-.57.458-.85-2.4,0-1.088-4.354,1.821-.43.489-.061.064.27,1.821.43v-2.09c1.076.29.9,1.02.916,1.66.3.517.93.272.458,3.42.49.16.82-.28,1.374-.37-.011.77-.767,1.34-.469,2.08.841,0,.841,0,1.821.86.341-.07.873.21.916-.43-1.033-.31-.043-1.08-.532-1.46.607-.48,1.246-.08,1.789-.32.064-.58-.533-.21-.81-.68-.3-.468.645-1.1-.436-2.48.308-.41.841-.04,1.278-.31.042-.33.095-.72.159-1.1.32.55.98.93.82,1.64.054.12.107.24.149.36.277-.44,1.129-.09,1.225-.78-.394-.64-.394-.64,0-1.29-.014-.634-.009-1.987,1.821-1.71,1.028-.594.528-1.4,2-3.39.539.064,1.047,1.077,1.448-.46.163,1.436.209.711-2.087,3,.224.54-.394.83-.458,1.28h.682c.468.29.064.8.351,1.2.714-.08.671-.81,1.054-1.16.448.31-.042.84.32,1.16.394,0,.618-.6,1.235-.16v2.81c.533-.01,1.193.15.788-1.01.724.49,1.257.68.98,1.45.756-.2,1.5.46,1.874-.44-.085-.52-.628-.69-.894-1.08.149-.4.969.05.894-.63.235-.42.458-.84.7-1.29.447.53.011,1.12.383,1.72h.735c.29-.374-.633-1.146.458-2.14.554-.42,1.1-.84,1.725-1.31.075.5.128.88.181,1.26.361.107,1.227-1.783,1.278.05.884.2.288.86.458,1.28h.916c.085-.4.362-.65.905-.84v1.7c.128.05.256.09.384.14-.405.4-.056.266-1.289.28-.2.907.648,1.343-.916,3h2.961c.518,1.857,1.35,2.483,1.139-1.56-.041-.225,2.134-.209,1.363,1.13.357.174-.3.727.916,1.71-.2-.512.229-1.145,1.363-3.42-1.592-.617.557-1.606-2.7-2.33-.234-.77.863-.87.884-1.52-.757.039.368-.433-1.842-1.57.873-.3,1.746-.6,2.63-.91.3.655-.67.051-1.246,1.63,1.446.357,2.823,5.965,3.2.42-.815-1.387.192-1.285,2.5-1.71.406-.057.052-.546,1.586-.42-.011-.3.149-.44.458-.43-.034-1.18.078-.591-.064-3.47h1.757c0,.97-.25.512.448,2.19.9,1.047.69.929.042,3.38.682-.13.948-1.14,1.779-.82a1.819,1.819,0,0,1,1.139-1.76c.352.51.17.93.224,1.33h.458c.309-.75,1.1-1.11,1.576-1.73,1.251.831-1.44,2.208.692,3.44.775-.669-.068,1.888,1.81.63l-.362-.34a1.039,1.039,0,0,1,.831-.71c-.309-.91-1.182-.16-1.747-.57v-2.38c.661.1.916,1.15,1.747.81.085-.85-.927-1.58-.288-2.53h.586a11.183,11.183,0,0,0,.618,4.24c.8-.337-.138,1.735,1.086.92a2.637,2.637,0,0,1,.735,2.07c.766.14.436.96.905,1.28-.072,2.823.227-2.528,2.279-1.28.617.265,1.865-.4,4.558-.43v-.42c-.107.081-2.111-1.491.447-2.14a1.635,1.635,0,0,1,1.736-1.13c-.086.36-.522.67-.362,1.13.555.262.453.54.447,2.14.252.169.233-.139,0,1.28.319-.01.468.13.458.43,3.982-.5-.559,6.055,3.865,5.98.48-.4.213-.7-.149-1,0-.362.551-.176,1.3-1.13h-1.682c.123-.256-.582-.419.309-1.29.253-.873-.669-1.823.458-3.42-.183-.472.89-1.824,1.363.43h.916v-1.51c.6-.37,1.2-.15,2.087-.14-.724.4-1.491.41-1.182,1.22.333.239,1.471.073.458,1.28.01.3-.139.44-.458.43.008.481.287.015,1.374.86,1.1.469-.292.33.905,2.14.727.195.078-2.078,1.821-.86.6.354.029-.328,1.821-.43v-.43c-.458.03-.544-.42-.937-.62.386.254.225-1.433,1.852-.66h.906c.159-.28.309-.57.458-.85-2.393.008-1.1-4.358,1.821-.43.488-.061.063.27,1.821.43v-2.09c1.075.29.894,1.02.915,1.66.293.517.937.272.448,3.42.5.16.83-.28,1.384-.37-.011.77-.767,1.34-.468,2.08.841,0,.841,0,1.82.86.341-.07.874.21.906-.43-1.022-.31-.032-1.08-.522-1.46.607-.48,1.246-.08,1.778-.32.075-.58-.521-.21-.8-.68-.3-.468.645-1.1-.437-2.48.309-.41.831-.04,1.278-.31.043-.33.1-.72.149-1.1.33.55.99.93.831,1.64.053.12.106.24.149.36.277-.44,1.129-.09,1.214-.78-.384-.64-.384-.64,0-1.29-.014-.639-.008-1.986,1.831-1.71,1.018-.59.534-1.4,2-3.39.538.064,1.047,1.078,1.449-.46.162,1.436.208.711-2.087,3,.223.54-.4.83-.458,1.28h.671c.479.29.074.8.351,1.2.724-.08.681-.81,1.065-1.16.447.31-.053.84.319,1.16.394,0,.618-.6,1.236-.16v2.81c.532-.01,1.192.15.788-1.01.724.49,1.245.68.979,1.45.756-.2,1.5.46,1.875-.44-.086-.52-.639-.69-.9-1.08.138-.4.969.05.9-.63.234-.42.458-.84.7-1.29.448.53,0,1.12.384,1.72h.735c.29-.374-.634-1.146.458-2.14.543-.42,1.1-.84,1.725-1.31.064.5.127.88.181,1.26.362.111,1.216-1.785,1.278.05.883.2.287.86.457,1.28h.916c.085-.4.363-.65.906-.84v1.7c.127.05.255.09.383.14-.411.4-.052.266-1.289.28-.2.905.648,1.343-.916,3h2.961c.518,1.857,1.351,2.483,1.139-1.56-.037-.224,2.124-.213,1.364,1.13.357.174-.3.727.915,1.71-.2-.512.229-1.145,1.363-3.42-1.592-.617.557-1.606-2.7-2.33-.235-.77.851-.87.883-1.52-.754.035.362-.417-1.842-1.57.873-.3,1.747-.6,2.63-.91.3.655-.669.051-1.245,1.63,1.441.354,2.829,5.968,3.184.42-.789-1.4.2-1.281,2.513-1.71.407-.057.052-.546,1.587-.42-.011-.3.138-.44.458-.43-.034-1.18.078-.591-.064-3.47h1.757c0,.968-.247.512.436,2.19.922,1.041.7.931.053,3.38.682-.13.938-1.14,1.768-.82a1.829,1.829,0,0,1,1.15-1.76c.352.51.171.93.224,1.33h.458c.309-.75,1.086-1.11,1.576-1.73,1.251.831-1.439,2.208.692,3.44.775-.669-.068,1.888,1.811.63l-.362-.34a1.036,1.036,0,0,1,.83-.71c-.309-.91-1.182-.16-1.746-.57v-2.38c.66.1.916,1.15,1.746.81.085-.85-.926-1.58-.287-2.53h.574a11.659,11.659,0,0,0,.629,4.24c.8-.337-.146,1.735,1.076.92a2.61,2.61,0,0,1,.745,2.07c.767.14.437.96.905,1.28-.078,2.824.23-2.525,2.279-1.28.62.266,1.867-.4,4.558-.43v-.42c-.107.081-2.111-1.492.447-2.14a1.635,1.635,0,0,1,1.736-1.13c-.085.36-.522.67-.362,1.13.558.265.453.542.447,2.14.252.169.234-.139,0,1.28.32-.01.469.13.458.43,3.992-.487-.568,6.054,3.866,5.98.479-.4.213-.7-.16-1,.006-.363.567-.171,1.3-1.13h-1.672c.123-.255-.581-.423.309-1.29.254-.873-.668-1.823.458-3.42-.183-.472.89-1.824,1.363.43h.916v-1.51c.6-.37,1.2-.15,2.077-.14-.714.4-1.481.41-1.172,1.22.331.239,1.472.072.458,1.28.011.3-.139.44-.458.43,0,.481.3.015,1.363.86,1.112.467-.28.325.916,2.14.726.2.071-2.077,1.821-.86.6.354.03-.328,1.821-.43v-.43c-.458.03-.554-.42-.948-.62.385.253.229-1.431,1.864-.66h.905c.149-.28.309-.57.458-.85-2.393.007-1.1-4.357,1.821-.43.475-.061.071.272,1.821.43v-2.09c1.076.29.894,1.02.905,1.66.3.517.931.272.458,3.42.5.16.831-.28,1.385-.37-.022.77-.778,1.34-.469,2.08.831,0,.831,0,1.821.86.341-.07.873.21.905-.43-1.022-.31-.043-1.08-.532-1.46.617-.48,1.256-.08,1.789-.32-.788-.487-.45-1.473-1.236-3.16.309-.41.831-.04,1.278-.31.043-.33.1-.72.149-1.1.33.55.98.93.831,1.64.053.12.1.24.149.36.277-.44,1.129-.09,1.214-.78-.383-.64-.383-.64,0-1.29-.014-.634-.009-1.987,1.821-1.71,1.037-.6.536-1.4,2.013-3.39.537.062,1.038,1.079,1.448-.46.159,1.437.207.712-2.087,3,.223.54-.394.83-.458,1.28h.671c.479.29.074.8.351,1.2.724-.08.682-.81,1.065-1.16.447.31-.053.84.319,1.16.384,0,.607-.6,1.236-.16v2.81c.522-.01,1.193.15.788-1.01.724.49,1.246.68.98,1.45.756-.2,1.5.46,1.874-.44-.085-.52-.639-.69-.9-1.08.139-.4.969.05.9-.63.224-.42.458-.84.692-1.29.447.53.011,1.12.394,1.72h.735c.29-.374-.633-1.146.458-2.14.543-.42,1.1-.84,1.714-1.31.075.5.139.88.192,1.26.362.1,1.2-1.78,1.278.05.884.2.287.86.458,1.28h.905c.1-.4.373-.65.916-.84v1.7c.128.05.255.09.383.14-.418.406-.055.264-1.3.28-.2.9.649,1.345-.905,3h2.96c.515,1.861,1.354,2.478,1.14-1.56-.038-.223,2.121-.215,1.363,1.13.359.174-.3.729.916,1.71-.2-.512.228-1.145,1.363-3.42-1.6-.617.557-1.606-2.705-2.33-.234-.77.852-.87.884-1.52-.749.037.349-.424-1.843-1.57.863-.3,1.747-.6,2.631-.91.3.655-.672.052-1.246,1.63,1.442.358,2.828,5.964,3.184.42-.789-1.4.193-1.279,2.513-1.71.407-.057.053-.546,1.587-.42-.011-.3.138-.44.458-.43-.034-1.18.078-.591-.064-3.47h1.757c-.008.969-.242.512.437,2.19.909,1.04.717.927.042,3.38.692-.13.948-1.14,1.779-.82a1.833,1.833,0,0,1,1.139-1.76c.352.51.181.93.234,1.33h.448c.319-.75,1.1-1.11,1.586-1.73,1.258.833-1.46,2.215.692,3.44.777-.669-.069,1.9,1.811.63l-.362-.34a1.024,1.024,0,0,1,.83-.71c-.308-.91-1.192-.16-1.757-.57v-2.38c.661.1.927,1.15,1.757.81.086-.85-.926-1.58-.287-2.53h.575a11.968,11.968,0,0,0,.618,4.24c.8-.338-.131,1.734,1.086.92a2.64,2.64,0,0,1,.735,2.07c.777.14.447.96.915,1.28-.089,2.82.226-2.521,2.279-1.28.626.266,1.857-.4,4.547-.43v-.42c-.1.079-2.116-1.5.458-2.14a1.635,1.635,0,0,1,1.736-1.13c-.1.36-.522.67-.372,1.13.568.259.464.537.457,2.14.242.169.239-.137,0,1.28.32-.01.469.13.458.43,3.99-.487-.568,6.055,3.866,5.98.469-.4.213-.7-.16-1,.007-.363.563-.169,1.3-1.13h-1.671c.124-.254-.586-.425.308-1.29.254-.873-.668-1.823.458-3.42-.179-.473.882-1.816,1.363.43h.916v-1.51c.6-.37,1.2-.15,2.077-.14-.714.4-1.48.41-1.172,1.22.322.239,1.478.072.458,1.28.011.3-.138.44-.458.43,0,.481.3.015,1.363.86,1.113.467-.28.325.916,2.14.721.192.076-2.081,1.821-.86.586.355.037-.33,1.821-.43v-.43c-.458.03-.554-.42-.947-.62.378.253.241-1.43,1.852-.66h.916c.149-.28.3-.57.458-.85-2.419,0-1.1-4.352,1.821-.43.476-.061.071.272,1.821.43v-2.09c1.076.29.9,1.02.905,1.66.3.517.931.272.458,3.42.49.16.82-.28,1.385-.37-.022.77-.778,1.34-.469,2.08.831,0,.831,0,1.821.86.341-.07.863.21.905-.43-1.022-.31-.042-1.08-.532-1.46.618-.48,1.257-.08,1.789-.32-.8-.486-.434-1.486-1.246-3.16.319-.41.841-.04,1.278-.31.053-.33.106-.72.16-1.1.319.55.979.93.83,1.64.053.12.1.24.149.36.277-.44,1.118-.09,1.214-.78-.383-.64-.383-.64,0-1.29-.013-.634-.009-1.987,1.821-1.71,1.037-.6.537-1.4,2.013-3.39.529.063,1.044,1.078,1.448-.46.16,1.437.207.712-2.087,3,.213.54-.394.83-.458,1.28h.671c.479.29.075.8.351,1.2.725-.08.682-.81,1.065-1.16.448.31-.053.84.32,1.16.383,0,.607-.6,1.235-.16v2.81c.522-.01,1.182.15.788-1.01.724.49,1.246.68.98,1.45.756-.2,1.491.46,1.874-.44-.085-.52-.639-.69-.9-1.08.149-.4.98.05.9-.63.224-.42.458-.84.692-1.29.448.53.011,1.12.394,1.72h.735c.29-.374-.633-1.146.458-2.14.543-.42,1.1-.84,1.715-1.31.074.5.127.88.191,1.26.362.1,1.2-1.78,1.278.05.873.2.277.86.458,1.28h.905c.1-.4.362-.65.916-.84v1.7c.128.05.256.09.384.14-.419.405-.056.264-1.3.28-.2.911.643,1.331-.905,3h2.961c.507,1.86,1.353,2.478,1.139-1.56-.038-.223,2.122-.215,1.363,1.13.361.175-.311.724.905,1.71-.363-.405.635-1.752,1.374-3.42-1.6-.617.557-1.606-2.705-2.33-.234-.77.852-.87.884-1.52-.749.037.351-.422-1.842-1.57.862-.3,1.736-.6,2.63-.91.3.655-.673.054-1.246,1.63,1.436.364,2.826,5.961,3.184.42-.789-1.4.194-1.279,2.513-1.71.482-.169.261-.564,1.587-.42-.011-.3.139-.44.458-.43-.039-1.18.091-.591-.074-3.47h1.767c-.009.97-.248.512.437,2.19.9,1.053.72.923.042,3.38.693-.13.948-1.14,1.779-.82a1.835,1.835,0,0,1,1.139-1.76c.352.51.171.93.224,1.33h.458c.319-.75,1.1-1.11,1.587-1.73,1.009.651-1.118,2.656.692,3.44.776-.669-.07,1.9,1.81.63-.106-.1-.213-.2-.373-.34a1.039,1.039,0,0,1,.842-.71c-.309-.91-1.193-.16-1.757-.57v-2.38c.66.1.915,1.15,1.757.81.085-.85-.937-1.58-.288-2.53h.575a11.86,11.86,0,0,0,.618,4.24c.8-.338-.131,1.734,1.086.92a2.637,2.637,0,0,1,.735,2.07c.777.14.447.96.916,1.28-.1,2.823.226-2.532,2.279-1.28.626.266,1.856-.4,4.547-.43v-.42c-.1.079-2.116-1.5.458-2.14-.031-.217.466-1.117,1.735-1.13-.095.36-.521.67-.372,1.13.568.259.464.537.458,2.14.242.168.237-.13,0,1.28.319-.01.468.13.458.43,3.971-.489-.551,6.052,3.855,5.98.479-.4.223-.7-.149-1,0-.361.565-.181,1.3-1.13h-1.672c.125-.254-.585-.425.309-1.29.253-.873-.669-1.823.458-3.42-.179-.473.882-1.816,1.363.43h.905v-1.51c.6-.37,1.214-.15,2.087-.14-.713.4-1.48.41-1.171,1.22.321.239,1.477.072.458,1.28.01.3-.139.44-.458.43.007.481.28.01,1.363.86,1.112.467-.281.325.916,2.14.721.192.075-2.081,1.821-.86.586.355.036-.33,1.821-.43v-.43c-.458.03-.554-.42-.948-.62.386.252.222-1.423,1.853-.66h.916c.149-.28.3-.57.458-.85-2.414,0-1.108-4.35,1.82-.43.476-.061.071.272,1.822.43v-2.09c1.075.29.894,1.02.9,1.66.3.517.93.273.458,3.42.489.16.819-.28,1.384-.37-.021.77-.777,1.34-.479,2.08.841,0,.841,0,1.821.86.351-.07.873.21.916-.43-1.033-.31-.043-1.08-.533-1.46.618-.48,1.257-.08,1.789-.32-.809-.488-.428-1.487-1.246-3.16.32-.41.842-.04,1.278-.31.053-.33.107-.72.16-1.1.319.55.98.93.831,1.64.042.12.095.24.149.36.276-.44,1.118-.09,1.214-.78-.394-.64-.394-.64,0-1.29-.014-.634-.01-1.987,1.821-1.71,1.036-.594.537-1.4,2.012-3.39.53.063,1.044,1.078,1.449-.46.154,1.44.217.712-2.1,3,.223.54-.384.83-.448,1.28h.671c.469.29.064.8.352,1.2.713-.08.681-.81,1.065-1.16.447.31-.054.84.319,1.16.383,0,.607-.6,1.236-.16v2.81c.521-.01,1.181.15.787-1.01.725.49,1.246.68.98,1.45.756-.2,1.491.46,1.874-.44-.085-.52-.639-.69-.905-1.08.149-.4.98.05.905-.63.224-.42.448-.84.693-1.29.447.53.01,1.12.394,1.72h.734c.291-.374-.633-1.146.458-2.14.544-.42,1.087-.84,1.715-1.31.074.5.128.88.181,1.26.365.107,1.215-1.783,1.288.05.874.2.277.86.458,1.28h.906c.1-.4.362-.65.915-.84v1.7c.128.05.256.09.384.14-.418.406-.056.264-1.3.28-.2.909.636,1.334-.906,3h2.95c.529,1.851,1.362,2.487,1.14-1.56-.042-.222,2.128-.218,1.373,1.13.362.175-.311.725.906,1.71-.365-.4.638-1.749,1.363-3.42-1.588-.621.561-1.6-2.7-2.33-.224-.77.862-.87.884-1.52-.74.039.351-.431-1.832-1.57.863-.3,1.736-.6,2.62-.91.31.656-.677.059-1.236,1.63,1.443.363,2.813,5.962,3.184.42-.8-1.39.186-1.283,2.514-1.71.481-.169.26-.564,1.586-.42-.01-.3.139-.44.458-.43-.039-1.18.091-.591-.074-3.47h1.757c.008.97-.24.512.447,2.19.9,1.053.713.925.043,3.38.692-.13.947-1.14,1.778-.82a1.834,1.834,0,0,1,1.14-1.76c.351.51.17.93.223,1.33h.458c.32-.75,1.1-1.11,1.587-1.73,1.262.834-1.465,2.212.692,3.44.776-.669-.07,1.9,1.81.63-.106-.1-.212-.2-.372-.34a1.037,1.037,0,0,1,.841-.71c-.309-.91-1.193-.16-1.757-.57v-2.38c.66.1.916,1.15,1.757.81.085-.85-.937-1.58-.288-2.53h.576a11.657,11.657,0,0,0,.617,4.24c.8-.338-.13,1.735,1.086.92a2.633,2.633,0,0,1,.735,2.07c.778.14.448.96.916,1.28-.1,2.821.235-2.528,2.268-1.28.631.265,1.858-.4,4.558-.43v-.42c-.108.08-2.113-1.494.458-2.14-.029-.214.458-1.116,1.736-1.13-.1.36-.533.67-.373,1.13.568.259.464.537.458,2.14.242.168.237-.13,0,1.28.309-.01.469.13.458.43,3.972-.489-.551,6.052,3.855,5.98.479-.4.213-.7-.149-1,0-.361.565-.181,1.3-1.13h-1.672c.113-.253-.582-.427.309-1.29-.4-.871.438-6.619,1.821-2.99h.905v-1.51c.6-.37,1.2-.15,2.087-.14-.724.4-1.48.41-1.171,1.22.321.239,1.477.072.458,1.28.01.3-.149.44-.458.43.011.481.281.019,1.363.86,1.112.467-.28.325.916,2.14.726.193.064-2.08,1.821-.86.586.354.036-.33,1.821-.43v-.43c-.458.03-.554-.42-.948-.62.386.252.223-1.423,1.853-.66h.916c.149-.28.3-.57.447-.85-2.4,0-1.091-4.354,1.821-.43.487-.059.065.264,1.821.43v-2.09c1.076.29.9,1.02.916,1.66.3.517.93.272.458,3.42.49.16.82-.28,1.374-.37-.011.77-.767,1.34-.469,2.08.841,0,.841,0,1.821.86.351-.07.873.21.916-.43-1.033-.31-.043-1.08-.533-1.46.618-.48,1.246-.08,1.789-.32-.808-.488-.427-1.487-1.245-3.16.319-.41.841-.04,1.277-.31.054-.33.107-.72.16-1.1.32.55.98.93.831,1.64.042.12.1.24.149.36.266-.44,1.118-.09,1.214-.78-.394-.64-.394-.64,0-1.29-.013-.634-.01-1.987,1.821-1.71,1.023-.594.539-1.4,2-3.39.539.064,1.046,1.077,1.448-.46.168,1.437.221.7-2.087,3,.224.54-.383.83-.458,1.28h.682c.468.29.064.8.351,1.2.714-.08.682-.81,1.065-1.16.447.31-.053.84.309,1.16.394,0,.617-.6,1.246-.16v2.81c.522-.01,1.182.15.788-1.01.724.49,1.246.68.979,1.45.746-.2,1.491.46,1.875-.44-.085-.52-.639-.69-.905-1.08.149-.4.979.05.905-.63.223-.42.447-.84.692-1.29.447.53.011,1.12.383,1.72h.746c.284-.373-.619-1.142.447-2.14.554-.42,1.1-.84,1.725-1.31.075.5.128.88.181,1.26.365.107,1.215-1.783,1.289.05.873.2.277.86.447,1.28h.916c.1-.4.362-.65.9-.84v1.7c.128.05.256.09.383.14-.4.41-.049.262-1.288.28-.205.907.65,1.339-.916,3h2.961c.528,1.851,1.361,2.487,1.139-1.56-.035-.223,2.112-.215,1.374,1.13.361.175-.311.724.9,1.71-.364-.4.636-1.745,1.363-3.42-1.588-.622.562-1.6-2.7-2.33-.234-.77.863-.87.884-1.52-.746.039.365-.431-1.842-1.57.873-.3,1.746-.6,2.63-.91.316.655-.683.049-1.235,1.63,1.436.364,2.813,5.958,3.184.42-.817-1.391.2-1.282,2.5-1.71.49-.166.268-.564,1.6-.42-.011-.3.138-.44.447-.43-.034-1.18.078-.591-.064-3.47h1.757c.008.97-.24.512.447,2.19.9,1.051.716.928.043,3.38.692-.13.948-1.14,1.778-.82a1.834,1.834,0,0,1,1.14-1.76c.351.51.17.93.224,1.33h.457c.309-.75,1.1-1.11,1.587-1.73,1.262.834-1.465,2.212.692,3.44.764-.669-.064,1.9,1.811.63-.117-.1-.224-.2-.373-.34a1.039,1.039,0,0,1,.831-.71c-.3-.91-1.182-.16-1.747-.57v-2.38c.66.1.916,1.15,1.747.81.085-.85-.927-1.58-.277-2.53h.575a11.408,11.408,0,0,0,.617,4.24c.8-.338-.13,1.735,1.087.92a2.636,2.636,0,0,1,.734,2.07c.778.14.437.96.916,1.28-.1,2.821.228-2.525,2.269-1.28.63.265,1.857-.4,4.557-.43v-.42c-.1.08-2.119-1.495.458-2.14-.028-.221.454-1.119,1.736-1.13-.1.36-.532.67-.373,1.13.569.259.465.537.458,2.14.243.168.237-.129,0,1.28.309-.01.469.13.448.43,3.983-.5-.54,6.051,3.865,5.98.479-.4.213-.7-.149-1,0-.361.565-.181,1.3-1.13h-1.672c.113-.253-.581-.427.309-1.29-.442-.941.5-6.554,1.821-2.99h.9v-1.51c.6-.37,1.2-.15,2.088-.14-.724.4-1.481.41-1.172,1.22.324.239,1.476.073.448,1.28.01.3-.139.44-.448.43,0,.481.28.016,1.363.86,1.1.467-.267.326.905,2.14.735.2.082-2.08,1.822-.86.6.351.03-.32,1.82-.43v-.43c-.457.03-.543-.42-.937-.62.387.252.223-1.423,1.853-.66h.916c.149-.28.3-.57.447-.85-2.4,0-1.091-4.354,1.822-.43.486-.059.064.264,1.82.43v-2.09c1.076.29.9,1.02.916,1.66.3.517.931.272.458,3.42.49.16.82-.28,1.374-.37-.011.77-.767,1.34-.469,2.08.842,0,.842,0,1.821.86.352-.07.874.21.916-.43-1.033-.31-.042-1.08-.532-1.46.617-.48,1.246-.08,1.789-.32.064-.58-.533-.21-.81-.68-.3-.468.645-1.1-.436-2.48.309-.41.841-.04,1.278-.31.042-.33.106-.72.159-1.1.32.55.98.93.821,1.64l.159.36c.266-.44,1.118-.09,1.214-.78-.394-.64-.394-.64,0-1.29-.013-.634-.009-1.987,1.821-1.71,1.024-.594.539-1.4,2-3.39.539.064,1.047,1.077,1.449-.46.157,1.437.221.705-2.088,3,.224.54-.394.83-.458,1.28h.682c.469.29.064.8.351,1.2.714-.08.671-.81,1.055-1.16.447.31-.043.84.319,1.16.394,0,.618-.6,1.235-.16v2.81c.533-.01,1.193.15.788-1.01.725.49,1.257.68.98,1.45.756-.2,1.5.46,1.874-.44-.085-.52-.628-.69-.894-1.08.149-.4.969.05.894-.63.235-.42.458-.84.7-1.29.447.53.011,1.12.384,1.72h.734c.328-.361-.69-.488.458-2.14.554-.42,1.1-.84,1.725-1.31.075.5.128.88.181,1.26.365.107,1.216-1.783,1.289.05.873.2.277.86.447,1.28h.916c.085-.4.362-.65.9-.84v1.7c.128.05.256.09.384.14-.4.41-.05.262-1.289.28-.2.907.648,1.343-.916,3h2.961c.527,1.855,1.354,2.485,1.139-1.56-.041-.225,2.134-.209,1.363,1.13.371.177-.307.719.916,1.71-.2-.513.228-1.144,1.363-3.42-1.592-.617.557-1.606-2.7-2.33-.234-.77.863-.87.884-1.52-.745.039.366-.431-1.842-1.57.873-.3,1.746-.6,2.63-.91.312.655-.672.048-1.246,1.63,1.445.354,2.825,5.965,3.195.42-.819-1.39.2-1.281,2.5-1.71.41-.059.048-.547,1.6-.42-.021-.3.138-.44.447-.43-.034-1.18.078-.591-.064-3.47h1.757c.008.97-.239.512.448,2.19.906,1.051.685.932.042,3.38.693-.13.948-1.14,1.779-.82a1.835,1.835,0,0,1,1.139-1.76c.352.51.171.93.224,1.33h.458c.309-.75,1.1-1.11,1.576-1.73,1.271.833-1.454,2.212.7,3.44.764-.669-.067,1.892,1.8.63l-.362-.34a1.039,1.039,0,0,1,.831-.71c-.309-.91-1.182-.16-1.746-.57v-2.38c.66.1.915,1.15,1.746.81.085-.85-.927-1.58-.288-2.53h.586a11.209,11.209,0,0,0,.618,4.24c.8-.337-.138,1.735,1.086.92a2.637,2.637,0,0,1,.735,2.07c.767.14.436.96.905,1.28-.073,2.823.23-2.53,2.279-1.28.63.265,1.857-.4,4.558-.43v-.42c-.105.08-2.12-1.495.458-2.14-.03-.219.456-1.118,1.725-1.13-.085.36-.522.67-.362,1.13.561.26.468.538.458,2.14.247.167.227-.121,0,1.28.308-.01.457.13.447.43,3.982-.5-.559,6.055,3.865,5.98.48-.4.214-.7-.149-1,0-.361.566-.181,1.3-1.13h-1.683c.115-.256-.562-.416.309-1.29.253-.873-.668-1.823.458-3.42-.186-.48.909-1.813,1.363.43h.916v-1.51c.6-.37,1.2-.15,2.087-.14-.724.4-1.491.41-1.182,1.22.33.238,1.488.071.458,1.28.01.3-.139.44-.458.43.008.481.287.015,1.374.86,1.1.469-.292.33.905,2.14.727.195.079-2.078,1.821-.86.6.351.03-.32,1.821-.43v-.43c-.458.03-.543-.42-.937-.62.386.254.225-1.433,1.853-.66h.905c.16-.28.309-.57.458-.85-2.4,0-1.1-4.355,1.821-.43.489-.061.064.27,1.821.43v-2.09c1.075.29.894,1.02.916,1.66.291.517.939.272.447,3.42.5.16.831-.28,1.384-.37-.01.77-.767,1.34-.468,2.08.841,0,.841,0,1.821.86.34-.07.873.21.916-.43-1.033-.31-.043-1.08-.533-1.46.607-.48,1.246-.08,1.778-.32.075-.58-.521-.21-.8-.68-.3-.468.645-1.1-.437-2.48.309-.41.841-.04,1.278-.31.043-.33.1-.72.16-1.1.319.55.98.93.82,1.64.053.12.106.24.149.36.277-.44,1.129-.09,1.225-.78-.395-.64-.395-.64,0-1.29-.014-.634-.01-1.987,1.82-1.71,1.028-.594.529-1.4,2-3.39.539.064,1.046,1.077,1.448-.46.162,1.436.208.711-2.087,3,.223.54-.394.83-.458,1.28h.681c.469.29.064.8.352,1.2.713-.08.671-.81,1.054-1.16.447.31-.053.84.319,1.16.394,0,.618-.6,1.236-.16v2.81c.532-.01,1.192.15.788-1.01.724.49,1.256.68.979,1.45.756-.2,1.5.46,1.875-.44-.086-.52-.639-.69-.895-1.08.149-.4.969.05.895-.63.234-.42.458-.84.7-1.29.447.53.01,1.12.383,1.72h.735c.29-.374-.633-1.146.458-2.14.553-.42,1.1-.84,1.725-1.31.074.5.127.88.181,1.26.362.111,1.216-1.785,1.278.05.884.2.287.86.458,1.28h.915c.086-.4.363-.65.906-.84v1.7c.127.05.255.09.383.14-.4.4-.055.266-1.289.28-.2.907.648,1.343-.915,3h2.96c.518,1.857,1.351,2.483,1.14-1.56-.041-.225,2.133-.209,1.363,1.13.357.174-.3.727.915,1.71-.2-.512.229-1.145,1.363-3.42-1.592-.617.557-1.606-2.7-2.33-.235-.77.862-.87.883-1.52-.754.035.362-.417-1.842-1.57.873-.3,1.747-.6,2.631-.91.3.655-.67.051-1.246,1.63,1.45.359,2.819,5.966,3.194.42-.815-1.386.193-1.285,2.5-1.71.407-.057.052-.546,1.587-.42-.011-.3.149-.44.458-.43-.034-1.18.078-.591-.064-3.47h1.757c0,.969-.251.512.447,2.19.9,1.047.691.929.043,3.38.681-.13.947-1.14,1.778-.82a1.8,1.8,0,0,1,1.139-1.76c.352.51.171.93.224,1.33h.458c.309-.75,1.1-1.11,1.576-1.73,1.252.831-1.439,2.208.692,3.44.775-.669-.068,1.888,1.811.63l-.362-.34a1.036,1.036,0,0,1,.83-.71c-.309-.91-1.182-.16-1.746-.57v-2.38c.66.1.916,1.15,1.746.81.085-.85-.926-1.58-.287-2.53h.585a11.207,11.207,0,0,0,.618,4.24c.8-.334-.153,1.737,1.086.92a2.637,2.637,0,0,1,.735,2.07c.767.14.437.96.905,1.28-.072,2.823.227-2.528,2.279-1.28.617.265,1.866-.4,4.558-.43v-.42c-.107.081-2.111-1.492.447-2.14a1.636,1.636,0,0,1,1.736-1.13c-.085.36-.522.67-.362,1.13.556.262.454.54.447,2.14.252.169.234-.139,0,1.28.32-.01.469.13.458.43,3.989-.489-.563,6.051,3.866,5.98.479-.4.213-.7-.149-1,0-.362.55-.175,1.3-1.13h-1.683c.123-.255-.581-.423.309-1.29.254-.873-.668-1.823.458-3.42-.183-.472.891-1.824,1.363.43h.916v-1.51c.6-.37,1.2-.15,2.087-.14-.724.4-1.491.41-1.182,1.22.334.239,1.471.073.458,1.28.011.3-.138.44-.458.43.008.481.288.015,1.374.86,1.1.469-.292.33.905,2.14.726.2.071-2.077,1.821-.86.6.354.03-.328,1.821-.43v-.43c-.458.03-.543-.42-.937-.62.374.254.231-1.435,1.853-.66h.905c.149-.28.309-.57.458-.85-2.393.007-1.1-4.357,1.821-.43.475-.061.071.272,1.821.43v-2.09c1.076.29.9,1.02.916,1.66.3.516.923.275.447,3.42.5.16.831-.28,1.385-.37-.011.77-.767,1.34-.469,2.08.841,0,.841,0,1.821.86.341-.07.873.21.9-.43-1.022-.31-.032-1.08-.522-1.46.607-.48,1.246-.08,1.779-.32-.788-.487-.45-1.473-1.236-3.16.309-.41.831-.04,1.278-.31.043-.33.1-.72.149-1.1.33.55.991.93.831,1.64.053.12.107.24.149.36.277-.44,1.129-.09,1.214-.78-.383-.64-.383-.64,0-1.29-.014-.633-.006-1.987,1.821-1.71,1.035-.586.538-1.4,2.013-3.39.538.064,1.046,1.078,1.448-.46.162,1.436.208.711-2.087,3,.223.54-.394.83-.458,1.28h.671c.479.29.074.8.351,1.2.724-.08.682-.81,1.065-1.16.447.31-.053.84.32,1.16.394,0,.617-.6,1.235-.16v2.81c.522-.01,1.193.15.788-1.01.724.49,1.246.68.98,1.45.756-.2,1.5.46,1.874-.44-.085-.52-.639-.69-.9-1.08.139-.4.969.05.9-.63.224-.42.458-.84.692-1.29.458.53.011,1.12.394,1.72h.735c.29-.374-.633-1.146.458-2.14.543-.42,1.1-.84,1.725-1.31.064.5.128.88.181,1.26.362.1,1.2-1.78,1.278.05.884.2.287.86.458,1.28h.916c.085-.4.362-.65.905-.84v1.7c.128.05.256.09.383.14-.412.4-.052.265-1.288.28-.2.905.648,1.343-.916,3h2.96c.518,1.857,1.351,2.483,1.14-1.56-.038-.224,2.124-.213,1.363,1.13.36.174-.3.73.916,1.71-.2-.512.228-1.145,1.363-3.42-1.6-.617.557-1.606-2.705-2.33-.234-.77.852-.87.884-1.52-.749.037.349-.424-1.842-1.57.862-.3,1.746-.6,2.63-.91.3.655-.67.051-1.246,1.63,1.44.354,2.829,5.967,3.184.42-.788-1.4.2-1.281,2.513-1.71.407-.057.053-.546,1.587-.42-.011-.3.138-.44.458-.43-.034-1.18.078-.591-.064-3.47h1.757c0,.968-.247.512.437,2.19.921,1.041.7.931.053,3.38.681-.13.937-1.14,1.768-.82a1.828,1.828,0,0,1,1.15-1.76c.351.51.17.93.223,1.33h.448c.319-.75,1.1-1.11,1.586-1.73,1.252.831-1.439,2.208.693,3.44.775-.669-.068,1.888,1.81.63l-.362-.34a1.038,1.038,0,0,1,.831-.71c-.309-.91-1.183-.16-1.758-.57v-2.38c.671.1.927,1.15,1.758.81.085-.85-.927-1.58-.288-2.53h.575a11.648,11.648,0,0,0,.628,4.24c.8-.337-.145,1.735,1.076.92a2.606,2.606,0,0,1,.745,2.07c.767.14.437.96.906,1.28-.091,2.82.229-2.523,2.278-1.28.617.265,1.864-.4,4.548-.43v-.42c-.1.08-2.1-1.494.458-2.14a1.634,1.634,0,0,1,1.735-1.13c-.1.36-.522.67-.362,1.13.558.265.453.542.448,2.14.241.169.238-.137,0,1.28.319-.01.468.13.457.43,4-.487-.573,6.053,3.866,5.98.479-.4.213-.7-.16-1,.007-.363.563-.169,1.3-1.13h-1.672c.122-.255-.582-.423.308-1.29.254-.873-.668-1.823.458-3.42-.182-.472.891-1.824,1.364.43h.915v-1.51c.6-.37,1.2-.15,2.077-.14-.714.4-1.48.41-1.172,1.22.322.239,1.478.072.458,1.28.011.3-.138.44-.458.43,0,.481.3.015,1.364.86,1.112.467-.281.325.915,2.14.73.193.069-2.081,1.821-.86.586.355.037-.33,1.821-.43v-.43c-.458.03-.553-.42-.947-.62.384.253.228-1.431,1.863-.66h.9c.149-.28.309-.57.458-.85-2.392.007-1.1-4.357,1.821-.43.476-.061.071.272,1.821.43v-2.09c1.076.29.9,1.02.905,1.66.3.517.931.272.458,3.42.5.16.831-.28,1.385-.37-.022.77-.778,1.34-.469,2.08.831,0,.831,0,1.821.86.341-.07.874.21.906-.43-1.023-.31-.043-1.08-.533-1.46.618-.48,1.257-.08,1.789-.32-.787-.487-.45-1.473-1.235-3.16.309-.41.83-.04,1.267-.31.053-.33.107-.72.16-1.1.33.55.979.93.83,1.64.054.12.1.24.149.36.277-.44,1.129-.09,1.214-.78-.383-.64-.383-.64,0-1.29-.013-.634-.009-1.987,1.821-1.71,1.038-.6.537-1.4,2.013-3.39.538.063,1.038,1.078,1.448-.46.16,1.437.207.712-2.087,3,.224.54-.394.83-.458,1.28h.671c.479.29.075.8.352,1.2.724-.08.681-.81,1.065-1.16.447.31-.054.84.319,1.16.383,0,.607-.6,1.235-.16v2.81c.522-.01,1.193.15.788-1.01.724.49,1.246.68.98,1.45.756-.2,1.5.46,1.874-.44-.085-.52-.639-.69-.894-1.08.138-.4.969.05.894-.63.224-.42.458-.84.692-1.29.448.53.011,1.12.395,1.72h.734c.29-.374-.633-1.146.458-2.14.543-.42,1.1-.84,1.715-1.31.074.5.127.88.191,1.26.362.1,1.205-1.78,1.278.05.874.2.288.86.458,1.28h.9c.1-.4.362-.65.916-.84v1.7c.128.05.256.09.384.14-.418.406-.056.264-1.3.28-.2.911.649,1.325-.9,3h2.961c.515,1.861,1.353,2.478,1.139-1.56-.038-.223,2.122-.215,1.363,1.13.355.178-.295.714.905,1.71-.208-.513.24-1.145,1.374-3.42-1.6-.617.557-1.606-2.7-2.33-.234-.77.852-.87.884-1.52-.749.037.35-.424-1.842-1.57.862-.3,1.736-.6,2.63-.91.3.655-.671.052-1.246,1.63,1.437.362,2.83,5.961,3.184.42-.789-1.4.194-1.279,2.514-1.71.406-.057.052-.546,1.586-.42-.01-.3.139-.44.458-.43-.039-1.18.091-.591-.074-3.47h1.767c-.008.969-.242.512.437,2.19.9,1.05.721.921.043,3.38.692-.13.947-1.14,1.778-.82a1.835,1.835,0,0,1,1.139-1.76c.352.51.182.93.235,1.33h.447c.32-.75,1.1-1.11,1.587-1.73,1.258.833-1.46,2.215.692,3.44.776-.669-.07,1.9,1.81.63l-.362-.34a1.023,1.023,0,0,1,.831-.71c-.309-.91-1.193-.16-1.757-.57v-2.38c.66.1.926,1.15,1.757.81.085-.85-.927-1.58-.288-2.53h.575a12.021,12.021,0,0,0,.618,4.24c.8-.338-.131,1.734,1.086.92a2.637,2.637,0,0,1,.735,2.07c.777.14.447.96.916,1.28-.09,2.824.227-2.533,2.279-1.28.626.266,1.856-.4,4.547-.43v-.42c-.1.079-2.116-1.5.458-2.14a1.634,1.634,0,0,1,1.736-1.13c-.1.36-.522.67-.373,1.13.568.259.464.537.458,2.14.241.169.238-.137,0,1.28.319-.01.468.13.458.43,3.978-.486-.562,6.059,3.865,5.98.469-.4.213-.7-.159-1,.01-.361.561-.182,1.3-1.13H-1227c.125-.254-.585-.426.309-1.29.253-.873-.668-1.823.458-3.42-.179-.473.882-1.816,1.363.43h.9v-1.51c.607-.37,1.214-.15,2.087-.14-.713.4-1.48.41-1.171,1.22.321.239,1.477.072.458,1.28.01.3-.139.44-.458.43,0,.481.3.015,1.363.86,1.112.467-.28.325.916,2.14.721.192.075-2.081,1.821-.86.586.355.037-.33,1.821-.43v-.43c-.458.03-.554-.42-.948-.62.385.253.226-1.424,1.853-.66h.916c.149-.28.3-.57.458-.85-2.42,0-1.1-4.352,1.821-.43.475-.061.07.272,1.821.43v-2.09c1.075.29.894,1.02.905,1.66.3.517.93.272.458,3.42.49.16.82-.28,1.384-.37-.021.77-.777,1.34-.468,2.08.83,0,.83,0,1.821.86.34-.07.862.21.905-.43-1.033-.31-.043-1.08-.533-1.46.618-.48,1.257-.08,1.789-.32-.8-.486-.434-1.486-1.246-3.16.32-.41.842-.04,1.278-.31.054-.33.107-.72.16-1.1.319.55.98.93.831,1.64.053.12.1.24.149.36.277-.44,1.118-.09,1.214-.78-.394-.64-.394-.64,0-1.29-.014-.634-.01-1.987,1.821-1.71,1.037-.6.536-1.4,2.012-3.39.53.063,1.044,1.078,1.449-.46.154,1.44.218.711-2.1,3,.223.54-.384.83-.447,1.28h.67c.469.29.075.8.352,1.2.713-.08.681-.81,1.065-1.16.447.31-.053.84.319,1.16.384,0,.607-.6,1.236-.16v2.81c.521-.01,1.182.15.788-1.01.724.49,1.246.68.979,1.45.757-.2,1.491.46,1.875-.44-.086-.52-.639-.69-.906-1.08.149-.4.98.05.906-.63.223-.42.447-.84.692-1.29.447.53.01,1.12.394,1.72h.734c.291-.374-.633-1.146.459-2.14.543-.42,1.1-.84,1.714-1.31.075.5.128.88.192,1.26.358.1,1.2-1.781,1.278.05.873.2.276.86.458,1.28h.905c.1-.4.362-.65.915-.84v1.7c.128.05.256.09.384.14-.418.406-.056.264-1.3.28-.2.911.642,1.331-.905,3h2.949c.528,1.851,1.36,2.486,1.15-1.56-.037-.223,2.122-.215,1.363,1.13.362.175-.311.724.906,1.71-.364-.405.634-1.752,1.373-3.42-1.595-.617.558-1.606-2.7-2.33-.234-.77.853-.87.884-1.52-.749.037.352-.422-1.842-1.57.863-.3,1.736-.6,2.62-.91.308.655-.662.053-1.236,1.63,1.436.364,2.826,5.961,3.185.42-.8-1.39.185-1.282,2.513-1.71.481-.169.26-.564,1.587-.42-.011-.3.138-.44.457-.43-.039-1.18.091-.591-.074-3.47h1.768c-.01.97-.249.512.436,2.19.9,1.053.713.925.043,3.38.692-.13.948-1.14,1.778-.82a1.834,1.834,0,0,1,1.14-1.76c.351.51.17.93.223,1.33h.458c.32-.75,1.1-1.11,1.587-1.73,1.009.651-1.117,2.656.692,3.44.776-.669-.07,1.9,1.811.63-.107-.1-.213-.2-.373-.34a1.037,1.037,0,0,1,.841-.71c-.309-.91-1.193-.16-1.757-.57v-2.38c.66.1.916,1.15,1.757.81.085-.85-.937-1.58-.287-2.53h.575a11.709,11.709,0,0,0,.617,4.24c.8-.338-.13,1.734,1.086.92a2.634,2.634,0,0,1,.735,2.07c.778.14.448.96.916,1.28-.1,2.823.227-2.533,2.279-1.28.627.266,1.856-.4,4.547-.43v-.42c-.1.079-2.116-1.5.458-2.14-.029-.214.458-1.116,1.736-1.13-.1.36-.522.67-.373,1.13.568.259.464.537.458,2.14.242.168.237-.13,0,1.28.32-.01.469.13.458.43,3.972-.489-.551,6.052,3.855,5.98.479-.4.213-.7-.149-1,0-.361.565-.181,1.3-1.13h-1.672c.125-.254-.585-.426.309-1.29.258-.875-.678-1.825.458-3.42-.179-.473.882-1.816,1.363.43h.9v-1.51c.6-.37,1.214-.15,2.087-.14-.713.4-1.48.41-1.171,1.22.321.239,1.478.072.458,1.28.011.3-.149.44-.458.43.011.481.283.02,1.363.86,1.112.467-.28.325.916,2.14.721.192.075-2.081,1.821-.86.586.355.037-.33,1.821-.43v-.43c-.458.03-.554-.42-.948-.62.387.252.223-1.423,1.853-.66h.916c.149-.28.3-.57.458-.85-2.41.013-1.117-4.357,1.821-.43.475-.061.07.272,1.821.43v-2.09c1.076.29.894,1.02.905,1.66.3.517.93.273.458,3.42.49.16.82-.28,1.374-.37-.011.77-.767,1.34-.469,2.08.841,0,.841,0,1.821.86.352-.07.873.21.916-.43-1.033-.31-.043-1.08-.533-1.46.618-.48,1.246-.08,1.79-.32-.809-.488-.428-1.487-1.246-3.16.319-.41.841-.04,1.278-.31.053-.33.106-.72.159-1.1.32.55.98.93.831,1.64.042.12.1.24.149.36.266-.44,1.118-.09,1.214-.78-.394-.64-.394-.64,0-1.29-.013-.634-.009-1.987,1.821-1.71,1.036-.594.537-1.4,2.013-3.39.529.063,1.043,1.078,1.448-.46.154,1.44.218.712-2.1,3,.224.54-.383.83-.447,1.28h.671c.468.29.064.8.351,1.2.714-.08.682-.81,1.065-1.16.447.31-.053.84.309,1.16.394,0,.618-.6,1.246-.16v2.81c.522-.01,1.182.15.788-1.01.724.49,1.246.68.98,1.45.756-.2,1.49.46,1.874-.44-.085-.52-.639-.69-.905-1.08.149-.4.98.05.905-.63.224-.42.447-.84.692-1.29.447.53.011,1.12.394,1.72h.735c.284-.372-.62-1.14.447-2.14.554-.42,1.1-.84,1.725-1.31.075.5.128.88.181,1.26.365.108,1.216-1.783,1.289.05.873.2.277.86.458,1.28h.905c.1-.4.362-.65.916-.84v1.7c.128.05.255.09.373.14-.4.41-.05.262-1.289.28-.2.909.636,1.334-.905,3h2.95c.528,1.851,1.361,2.487,1.139-1.56-.034-.223,2.112-.215,1.374,1.13.361.175-.311.724.905,1.71-.365-.4.638-1.749,1.363-3.42-1.588-.622.562-1.6-2.7-2.33-.223-.77.863-.87.884-1.52-.739.039.352-.431-1.832-1.57.863-.3,1.736-.6,2.62-.91.31.656-.676.059-1.235,1.63,1.443.363,2.812,5.962,3.184.42-.816-1.39.2-1.282,2.5-1.71.49-.166.268-.564,1.6-.42-.011-.3.138-.44.458-.43-.04-1.18.091-.591-.075-3.47h1.757c.008.97-.24.512.448,2.19.893,1.051.716.927.042,3.38.692-.13.948-1.14,1.779-.82a1.833,1.833,0,0,1,1.139-1.76c.351.51.171.93.224,1.33h.458c.308-.75,1.1-1.11,1.586-1.73,1.262.834-1.465,2.212.693,3.44.775-.669-.07,1.9,1.81.63-.107-.1-.224-.2-.373-.34a1.039,1.039,0,0,1,.841-.71c-.308-.91-1.192-.16-1.757-.57v-2.38c.661.1.916,1.15,1.757.81.086-.85-.937-1.58-.287-2.53h.575a11.392,11.392,0,0,0,.618,4.24c.8-.338-.131,1.735,1.086.92a2.64,2.64,0,0,1,.735,2.07c.777.14.447.96.915,1.28-.1,2.821.229-2.525,2.269-1.28.63.265,1.857-.4,4.558-.43v-.42c-.1.08-2.12-1.495.457-2.14-.028-.214.459-1.116,1.736-1.13-.1.36-.532.67-.372,1.13.568.259.464.537.457,2.14.243.168.237-.13,0,1.28.309-.01.469.13.458.43,3.972-.489-.55,6.053,3.855,5.98.48-.4.213-.7-.149-1,0-.361.566-.181,1.3-1.13h-1.671c.112-.253-.582-.427.308-1.29-.442-.942.5-6.554,1.821-2.99h.906v-1.51c.6-.37,1.2-.15,2.087-.14-.724.4-1.48.41-1.172,1.22.324.24,1.483.074.448,1.28.021.3-.139.44-.448.43.012.481.282.019,1.363.86,1.113.467-.28.325.916,2.14.727.193.064-2.08,1.821-.86.586.355.037-.33,1.821-.43v-.43c-.458.03-.553-.42-.947-.62.386.252.222-1.423,1.853-.66h.915c.149-.28.3-.57.448-.85-2.4,0-1.091-4.354,1.821-.43.486-.059.064.264,1.821.43v-2.09c1.075.29.905,1.02.915,1.66.3.517.931.272.458,3.42.49.16.82-.28,1.374-.37-.011.77-.767,1.34-.469,2.08.842,0,.842,0,1.822.86.351-.07.873.21.915-.43-1.033-.31-.042-1.08-.532-1.46.618-.48,1.246-.08,1.789-.32-.809-.488-.428-1.487-1.246-3.16.319-.41.841-.04,1.278-.31.042-.33.106-.72.16-1.1.319.55.979.93.83,1.64.043.12.1.24.149.36.267-.44,1.118-.09,1.214-.78-.394-.64-.394-.64,0-1.29-.013-.634-.009-1.987,1.821-1.71,1.024-.594.539-1.4,2-3.39.54.064,1.047,1.077,1.449-.46.525,1.073-.442,1.341-2.088,3,.224.54-.383.83-.458,1.28h.682c.469.29.064.8.351,1.2.714-.08.671-.81,1.065-1.16.448.31-.053.84.309,1.16.394,0,.618-.6,1.236-.16v2.81c.532-.01,1.192.15.788-1.01.734.49,1.256.68.99,1.45.745-.2,1.491.46,1.874-.44-.085-.52-.639-.69-.9-1.08.149-.4.98.05.9-.63.224-.42.447-.84.692-1.29.448.53.011,1.12.384,1.72h.745c.287-.374-.624-1.142.447-2.14.554-.42,1.1-.84,1.726-1.31.074.5.127.88.181,1.26.364.107,1.215-1.783,1.288.05.873.2.277.86.447,1.28h.916c.1-.4.362-.65.905-.84v1.7c.128.05.256.09.384.14-.4.41-.05.262-1.289.28-.2.907.651,1.339-.916,3h2.961c.527,1.855,1.355,2.485,1.139-1.56-.041-.225,2.134-.209,1.363,1.13.371.177-.307.719.916,1.71-.363-.4.636-1.745,1.363-3.42-1.592-.618.557-1.606-2.7-2.33-.235-.77.862-.87.883-1.52-.745.039.366-.431-1.842-1.57.873-.3,1.746-.6,2.631-.91.311.655-.673.048-1.247,1.63,1.445.354,2.825,5.965,3.2.42-.816-1.391.206-1.282,2.5-1.71.49-.166.267-.564,1.6-.42-.011-.3.139-.44.447-.43-.034-1.18.078-.591-.064-3.47h1.757c.008.97-.239.512.448,2.19.9,1.052.713.927.042,3.38.693-.13.948-1.14,1.779-.82a1.835,1.835,0,0,1,1.139-1.76c.352.51.171.93.224,1.33h.458c.309-.75,1.1-1.11,1.587-1.73,1.261.834-1.466,2.212.692,3.44.764-.669-.067,1.892,1.8.63l-.362-.34a1.039,1.039,0,0,1,.831-.71c-.3-.91-1.182-.16-1.746-.57v-2.38c.66.1.915,1.15,1.746.81.085-.85-.926-1.58-.287-2.53h.585a11.416,11.416,0,0,0,.618,4.24c.8-.338-.131,1.735,1.086.92a2.637,2.637,0,0,1,.735,2.07c.777.14.437.96.916,1.28-.1,2.821.227-2.525,2.268-1.28.63.265,1.857-.4,4.558-.43v-.42c-.105.08-2.12-1.495.458-2.14-.03-.219.456-1.118,1.725-1.13-.085.36-.522.67-.362,1.13.568.259.464.537.458,2.14.247.167.227-.121,0,1.28.309-.01.468.13.447.43,3.984-.5-.56,6.052,3.866,5.98.479-.4.213-.7-.149-1,0-.361.565-.181,1.3-1.13h-1.683c.121-.254-.576-.424.32-1.29.257-.875-.676-1.823.447-3.42-.179-.479.894-1.814,1.374.43h.905v-1.51c.6-.37,1.2-.15,2.087-.14-.724.4-1.491.41-1.171,1.22.326.24,1.474.075.447,1.28.011.3-.138.44-.447.43,0,.481.28.016,1.363.86,1.094.469-.266.326.905,2.14.735.2.082-2.08,1.821-.86.6.351.03-.32,1.821-.43v-.43c-.458.03-.543-.42-.937-.62.386.254.225-1.434,1.853-.66h.9c.16-.28.309-.57.458-.85-2.4,0-1.089-4.354,1.821-.43.487-.059.064.264,1.821.43v-2.09c1.075.29.894,1.02.916,1.66.3.517.93.272.458,3.42.49.16.82-.28,1.373-.37-.01.77-.766,1.34-.468,2.08.841,0,.841,0,1.821.86.351-.07.873.21.916-.43-1.033-.31-.043-1.08-.533-1.46.618-.48,1.246-.08,1.789-.32.064-.58-.532-.21-.809-.68-.3-.468.645-1.1-.437-2.48.309-.41.842-.04,1.278-.31.043-.33.107-.72.16-1.1.319.55.98.93.82,1.64l.16.36c.266-.44,1.118-.09,1.214-.78-.394-.64-.394-.64,0-1.29-.014-.634-.01-1.987,1.821-1.71,1.027-.594.528-1.4,2-3.39.539.064,1.046,1.077,1.448-.46.157,1.437.221.705-2.087,3,.223.54-.394.83-.458,1.28h.681c.469.29.064.8.352,1.2.713-.08.671-.81,1.054-1.16.447.31-.043.84.32,1.16.394,0,.617-.6,1.235-.16v2.81c.532-.01,1.193.15.788-1.01.724.49,1.256.68.98,1.45.756-.2,1.5.46,1.874-.44-.085-.52-.628-.69-.895-1.08.149-.4.969.05.895-.63.234-.42.458-.84.7-1.29.447.53.01,1.12.383,1.72h.735c.29-.374-.633-1.146.458-2.14.554-.42,1.1-.84,1.725-1.31.074.5.128.88.181,1.26.36.107,1.226-1.783,1.278.05.884.2.287.86.458,1.28h.916c.085-.4.362-.65.9-.84v1.7c.127.05.255.09.383.14-.4.41-.049.262-1.288.28-.2.907.648,1.343-.916,3h2.96c.528,1.855,1.355,2.485,1.14-1.56-.041-.225,2.133-.209,1.363,1.13.37.176-.307.721.916,1.71-.205-.512.228-1.145,1.363-3.42-1.593-.617.556-1.606-2.705-2.33-.235-.77.862-.87.884-1.52-.757.039.368-.433-1.843-1.57.874-.3,1.747-.6,2.631-.91.312.655-.672.048-1.246,1.63,1.445.357,2.823,5.965,3.194.42-.816-1.39.2-1.28,2.5-1.71.407-.057.053-.546,1.587-.42-.011-.3.149-.44.458-.43.219-8.055.615-17.752.543-27.93A2.962,2.962,0,0,0-931.217-1437.732Z" transform="translate(-931.01 -1395.512) rotate(180)" fill="#292929"/>
</svg>
