<svg xmlns="http://www.w3.org/2000/svg" width="1925" height="1237.08" viewBox="0 0 1925 1237.08">
  <g id="Group_376" data-name="Group 376" transform="translate(5 -11796.92)">
    <rect id="Rectangle_198" data-name="Rectangle 198" width="1920" height="1190" transform="translate(0 11844)" fill="#f5f5f5"/>
    <path id="Path_4091" data-name="Path 4091" d="M1924.794,30.17c-1.214-9.32.62-18.553-.37-30.17H.146C1.045,16.346-1.2,34.75,1,51.57c-.039,2.429-1.562,2.361.032,8,.894,1.051.72.921.042,3.38.691-.13.945-1.14,1.774-.82a1.835,1.835,0,0,1,1.136-1.76c.351.51.181.93.234,1.33h.446c.318-.75,1.094-1.11,1.582-1.73,1.254.833-1.456,2.215.69,3.44.774-.669-.07,1.9,1.8.63l-.361-.34a1.021,1.021,0,0,1,.828-.71c-.308-.91-1.189-.16-1.752-.57V60.04c.658.1.923,1.15,1.752.81.085-.85-.924-1.58-.287-2.53h.573a12.057,12.057,0,0,0,.616,4.24c.8-.338-.13,1.734,1.083.92a2.642,2.642,0,0,1,.733,2.07c.775.14.446.96.913,1.28-.09,2.824.226-2.533,2.272-1.28.624.266,1.85-.4,4.533-.43V64.7c-.1.079-2.109-1.5.457-2.14a1.631,1.631,0,0,1,1.731-1.13c-.1.36-.52.67-.372,1.13.566.259.463.537.457,2.14.24.169.238-.137,0,1.28.318-.01.468.13.457.43,3.966-.486-.56,6.059,3.854,5.98.467-.4.212-.7-.159-1,.01-.361.559-.182,1.3-1.13H25.7c.125-.254-.583-.426.308-1.29.253-.873-.666-1.823.457-3.42-.178-.473.879-1.816,1.359.43h.913V64.47c.594-.37,1.2-.15,2.07-.14-.711.4-1.475.41-1.168,1.22.32.239,1.473.072.457,1.28.01.3-.139.44-.457.43,0,.481.3.015,1.359.86,1.109.467-.279.325.913,2.14.719.192.076-2.081,1.816-.86.584.355.036-.33,1.815-.43v-.43c-.457.03-.552-.42-.945-.62.384.253.225-1.424,1.848-.66h.913c.148-.28.3-.57.457-.85-2.413,0-1.093-4.352,1.815-.43.474-.061.071.272,1.816.43V64.32c1.072.29.891,1.02.9,1.66.3.517.927.272.457,3.42.489.16.818-.28,1.38-.37-.021.77-.775,1.34-.467,2.08.827,0,.827,0,1.815.86.339-.07.859.21.9-.43-1.03-.31-.043-1.08-.531-1.46.616-.48,1.253-.08,1.783-.32-.795-.486-.433-1.486-1.242-3.16.319-.41.839-.04,1.274-.31.053-.33.107-.72.16-1.1.318.55.977.93.828,1.64.053.12.1.24.149.36.276-.44,1.114-.09,1.21-.78-.393-.64-.393-.64,0-1.29-.014-.634-.01-1.987,1.816-1.71,1.034-.6.534-1.4,2.006-3.39.528.063,1.041,1.078,1.445-.46.153,1.44.217.712-2.092,3,.222.54-.382.83-.446,1.28h.668c.468.29.075.8.351,1.2.711-.08.679-.81,1.062-1.16.446.31-.054.84.318,1.16.383,0,.605-.6,1.232-.16v2.81c.519-.01,1.178.15.786-1.01.722.49,1.242.68.976,1.45.755-.2,1.486.46,1.869-.44-.085-.52-.637-.69-.9-1.08.15-.4.977.05.9-.63.223-.42.446-.84.69-1.29.446.53.01,1.12.393,1.72h.733c.289-.374-.632-1.146.457-2.14.542-.42,1.093-.84,1.709-1.31.075.5.128.88.191,1.26.356.1,1.2-1.782,1.274.05.871.2.275.86.457,1.28h.9c.1-.4.361-.65.912-.84v1.7c.128.05.255.09.383.14-.417.406-.056.264-1.295.28-.2.911.64,1.331-.9,3H68.9c.527,1.851,1.356,2.486,1.147-1.56-.037-.223,2.116-.215,1.36,1.13.36.175-.311.725.9,1.71-.363-.405.632-1.752,1.369-3.42-1.59-.617.556-1.606-2.7-2.33-.234-.77.849-.87.881-1.52-.748.037.349-.422-1.837-1.57.86-.3,1.731-.6,2.623-.91.3.655-.672.054-1.242,1.63,1.431.364,2.816,5.961,3.174.42-.781-1.4.178-1.277,2.506-1.71.48-.169.259-.564,1.582-.42-.011-.3.138-.44.456-.43-.039-1.18.091-.591-.074-3.47h1.763c-.01.97-.248.512.435,2.19.9,1.053.712.925.043,3.38.69-.13.945-1.14,1.773-.82A1.834,1.834,0,0,1,84.2,60.37c.35.51.169.93.223,1.33h.456c.319-.75,1.094-1.11,1.582-1.73,1.007.651-1.114,2.656.69,3.44.774-.669-.069,1.9,1.806.63-.107-.1-.212-.2-.372-.34a1.036,1.036,0,0,1,.838-.71c-.308-.91-1.189-.16-1.752-.57V60.04c.658.1.913,1.15,1.752.81.085-.85-.934-1.58-.286-2.53h.573a11.745,11.745,0,0,0,.615,4.24c.8-.338-.131,1.734,1.084.92a2.642,2.642,0,0,1,.732,2.07c.776.14.447.96.913,1.28-.095,2.823.226-2.533,2.272-1.28.625.266,1.851-.4,4.533-.43V64.7c-.1.079-2.11-1.5.457-2.14-.029-.214.457-1.116,1.731-1.13-.1.36-.521.67-.372,1.13.566.259.462.537.457,2.14.241.168.236-.13,0,1.28.319-.01.468.13.457.43,3.96-.489-.549,6.052,3.843,5.98.478-.4.212-.7-.149-1,0-.361.564-.181,1.3-1.13h-1.667c.125-.254-.583-.425.308-1.29.257-.875-.676-1.825.457-3.42-.178-.473.88-1.816,1.359.43h.9V64.47c.6-.37,1.211-.15,2.081-.14-.711.4-1.476.41-1.167,1.22.32.239,1.472.072.457,1.28.011.3-.148.44-.457.43.008.481.279.01,1.359.86,1.11.467-.279.325.913,2.14.719.192.076-2.081,1.815-.86.584.354.037-.33,1.815-.43v-.43c-.457.03-.552-.42-.945-.62.386.252.223-1.423,1.848-.66h.913c.149-.28.3-.57.457-.85-2.4.013-1.114-4.357,1.815-.43.474-.061.071.272,1.816.43V64.32c1.072.29.891,1.02.9,1.66.3.517.927.273.457,3.42.488.16.817-.28,1.37-.37-.011.77-.765,1.34-.468,2.08.838,0,.838,0,1.815.86.351-.07.871.21.913-.43-1.03-.31-.042-1.08-.53-1.46.615-.48,1.242-.08,1.784-.32-.807-.488-.427-1.487-1.242-3.16.318-.41.838-.04,1.274-.31.053-.33.105-.72.158-1.1.319.55.977.93.829,1.64.043.12.1.24.148.36.265-.44,1.115-.09,1.211-.78-.393-.64-.393-.64,0-1.29-.013-.634-.009-1.987,1.815-1.71,1.029-.593.539-1.4,2.007-3.39.528.063,1.04,1.078,1.444-.46.153,1.44.217.712-2.092,3,.223.54-.382.83-.446,1.28h.669c.467.29.064.8.35,1.2.712-.08.68-.81,1.062-1.16.446.31-.053.84.308,1.16.393,0,.616-.6,1.242-.16v2.81c.52-.01,1.178.15.786-1.01.722.49,1.242.68.977,1.45.754-.2,1.486.46,1.868-.44-.085-.52-.637-.69-.9-1.08.149-.4.977.05.9-.63.222-.42.446-.84.69-1.29.446.53.011,1.12.393,1.72h.733c.283-.372-.618-1.14.446-2.14.552-.42,1.094-.84,1.72-1.31.075.5.128.88.181,1.26.364.108,1.212-1.783,1.285.05.87.2.276.86.457,1.28h.9c.1-.4.361-.65.913-.84v1.7c.127.05.254.09.382.14-.417.406-.055.264-1.295.28-.2.909.634,1.335-.9,3h2.941c.526,1.851,1.357,2.487,1.135-1.56-.035-.223,2.107-.215,1.37,1.13.36.175-.31.724.9,1.71-.364-.4.636-1.749,1.359-3.42-1.583-.622.56-1.6-2.7-2.33-.222-.77.86-.87.882-1.52-.738.039.351-.432-1.826-1.57.86-.3,1.731-.6,2.612-.91.309.656-.674.059-1.231,1.63,1.439.363,2.8,5.962,3.174.42-.811-1.391.2-1.282,2.5-1.71.487-.166.266-.564,1.592-.42-.011-.3.138-.44.457-.43-.04-1.18.091-.591-.075-3.47h1.752c.008.97-.239.512.447,2.19.89,1.051.714.927.042,3.38.69-.13.945-1.14,1.773-.82a1.832,1.832,0,0,1,1.136-1.76c.35.51.17.93.223,1.33h.457c.307-.75,1.093-1.11,1.581-1.73,1.258.834-1.46,2.212.691,3.44.773-.669-.07,1.9,1.8.63-.107-.1-.223-.2-.372-.34a1.036,1.036,0,0,1,.839-.71c-.307-.91-1.189-.16-1.752-.57V60.04c.659.1.913,1.15,1.752.81.086-.85-.934-1.58-.286-2.53h.573a11.422,11.422,0,0,0,.616,4.24c.795-.338-.13,1.734,1.083.92a2.64,2.64,0,0,1,.732,2.07c.776.14.447.96.913,1.28-.1,2.821.228-2.525,2.262-1.28.628.265,1.851-.4,4.544-.43V64.7c-.1.08-2.114-1.495.456-2.14-.028-.214.458-1.116,1.73-1.13-.1.36-.53.67-.372,1.13.567.259.464.537.457,2.14.242.168.236-.13,0,1.28.308-.01.468.13.457.43,3.96-.489-.549,6.053,3.843,5.98.479-.4.213-.7-.148-1,0-.361.564-.181,1.3-1.13h-1.668c.113-.253-.579-.427.308-1.29-.44-.942.5-6.554,1.816-2.99h.9V64.47c.594-.37,1.2-.15,2.081-.14-.722.4-1.475.41-1.168,1.22.323.24,1.479.074.447,1.28.021.3-.139.44-.447.43.012.481.281.019,1.359.86,1.11.467-.279.325.913,2.14.725.193.064-2.08,1.816-.86.585.354.037-.33,1.815-.43v-.43c-.456.03-.551-.42-.944-.62.385.252.221-1.423,1.848-.66h.912c.149-.28.3-.57.447-.85-2.4,0-1.088-4.354,1.816-.43.484-.059.064.264,1.815.43V64.32c1.072.29.9,1.02.912,1.66.3.517.928.272.457,3.42.489.16.818-.28,1.37-.37-.01.77-.765,1.34-.467,2.08.839,0,.839,0,1.816.86.35-.07.87.21.912-.43-1.03-.31-.042-1.08-.53-1.46.616-.48,1.242-.08,1.784-.32-.807-.488-.427-1.487-1.242-3.16.318-.41.838-.04,1.274-.31.042-.33.106-.72.16-1.1.318.55.976.93.827,1.64.043.12.1.24.149.36.266-.44,1.115-.09,1.21-.78-.393-.64-.393-.64,0-1.29-.013-.634-.009-1.987,1.815-1.71,1.021-.594.537-1.4,2-3.39.538.064,1.044,1.077,1.445-.46.523,1.073-.441,1.341-2.081,3,.223.54-.383.83-.457,1.28h.679c.468.29.064.8.35,1.2.712-.08.669-.81,1.062-1.16.447.31-.053.84.308,1.16.393,0,.616-.6,1.232-.16v2.81c.53-.01,1.188.15.786-1.01.733.49,1.252.68.987,1.45.744-.2,1.486.46,1.868-.44-.085-.52-.637-.69-.9-1.08.148-.4.977.05.9-.63.223-.42.446-.84.69-1.29.447.53.011,1.12.383,1.72h.743c.286-.374-.622-1.142.446-2.14.552-.42,1.094-.84,1.721-1.31.074.5.128.88.18,1.26.364.108,1.212-1.783,1.284.05.87.2.276.86.447,1.28h.912c.1-.4.361-.65.9-.84v1.7c.128.05.255.09.383.14-.4.41-.05.262-1.285.28-.2.907.649,1.339-.912,3h2.951c.526,1.855,1.351,2.485,1.136-1.56-.041-.225,2.128-.209,1.359,1.13.37.177-.306.719.913,1.71-.363-.4.634-1.745,1.359-3.42-1.587-.618.555-1.606-2.7-2.33-.233-.77.86-.87.881-1.52-.742.039.365-.431-1.836-1.57.871-.3,1.742-.6,2.623-.91.311.655-.671.048-1.243,1.63,1.441.354,2.817,5.965,3.186.42-.813-1.391.205-1.282,2.5-1.71.489-.166.266-.564,1.592-.42-.01-.3.139-.44.446-.43-.033-1.18.078-.591-.063-3.47h1.752c.007.97-.239.512.446,2.19.894,1.051.711.927.043,3.38.69-.13.944-1.14,1.773-.82a1.835,1.835,0,0,1,1.135-1.76c.351.51.171.93.223,1.33h.457c.308-.75,1.094-1.11,1.582-1.73,1.257.834-1.461,2.212.69,3.44.762-.669-.067,1.892,1.794.63L249,63.7a1.037,1.037,0,0,1,.828-.71c-.3-.91-1.178-.16-1.741-.57V60.04c.658.1.912,1.15,1.741.81.085-.85-.924-1.58-.276-2.53h.573a11.427,11.427,0,0,0,.616,4.24c.8-.338-.13,1.735,1.083.92a2.643,2.643,0,0,1,.733,2.07c.775.14.436.96.913,1.28-.095,2.821.226-2.525,2.261-1.28.628.265,1.851-.4,4.544-.43V64.7c-.1.08-2.114-1.495.457-2.14-.03-.219.455-1.118,1.72-1.13-.085.36-.52.67-.361,1.13.566.259.463.537.457,2.14.246.167.226-.121,0,1.28.308-.01.467.13.446.43,3.973-.5-.558,6.052,3.854,5.98.478-.4.212-.7-.148-1,0-.361.563-.181,1.295-1.13h-1.678c.122-.254-.574-.424.319-1.29.256-.875-.673-1.823.446-3.42-.179-.479.891-1.814,1.37.43h.9V64.47c.594-.37,1.2-.15,2.081-.14-.722.4-1.487.41-1.168,1.22.325.24,1.471.075.446,1.28.011.3-.138.44-.446.43,0,.481.279.016,1.359.86,1.09.469-.264.326.9,2.14.733.2.082-2.08,1.816-.86.6.351.03-.32,1.815-.43v-.43c-.457.03-.542-.42-.934-.62.385.254.224-1.434,1.848-.66h.9c.16-.28.308-.57.457-.85-2.4,0-1.086-4.354,1.815-.43.486-.059.064.264,1.816.43V64.32c1.073.29.891,1.02.913,1.66.3.517.927.272.457,3.42.488.16.818-.28,1.369-.37-.01.77-.764,1.34-.467,2.08.838,0,.838,0,1.815.86.35-.07.87.21.913-.43-1.03-.31-.043-1.08-.532-1.46.616-.48,1.242-.08,1.784-.32.064-.58-.53-.21-.807-.68-.3-.468.643-1.1-.435-2.48.308-.41.838-.04,1.274-.31.043-.33.107-.72.16-1.1.319.55.977.93.817,1.64.053.12.106.24.149.36.276-.44,1.126-.09,1.221-.78-.393-.64-.393-.64,0-1.29-.014-.634-.01-1.987,1.815-1.71,1.025-.594.527-1.4,2-3.39.537.064,1.043,1.077,1.444-.46.514,1.073-.441,1.343-2.081,3,.222.54-.393.83-.457,1.28h.679c.468.29.064.8.351,1.2.711-.08.669-.81,1.051-1.16.446.31-.042.84.319,1.16.393,0,.615-.6,1.231-.16v2.81c.53-.01,1.189.15.786-1.01.722.49,1.253.68.977,1.45.754-.2,1.5.46,1.868-.44-.085-.52-.626-.69-.892-1.08.149-.4.966.05.892-.63.234-.42.457-.84.7-1.29.446.53.01,1.12.382,1.72h.733c.289-.374-.631-1.146.457-2.14.552-.42,1.094-.84,1.72-1.31.074.5.128.88.18,1.26.359.107,1.222-1.783,1.274.05.881.2.286.86.457,1.28h.913c.085-.4.361-.65.9-.84v1.7c.128.05.254.09.382.14-.4.41-.049.262-1.284.28-.2.907.646,1.343-.913,3h2.951c.526,1.855,1.351,2.485,1.136-1.56-.041-.225,2.127-.209,1.359,1.13.369.176-.306.721.913,1.71-.2-.512.227-1.145,1.359-3.42-1.588-.617.554-1.606-2.7-2.33-.234-.77.86-.87.881-1.52-.755.039.367-.433-1.837-1.57.871-.3,1.742-.6,2.623-.91.311.655-.67.048-1.242,1.63,1.441.357,2.814,5.965,3.184.42-.816-1.391.2-1.281,2.5-1.71.406-.057.052-.546,1.582-.42-.011-.3.149-.44.457-.43-.034-1.18.078-.591-.064-3.47h1.752c.008.97-.239.512.446,2.19.9,1.051.684.932.043,3.38.69-.13.945-1.14,1.773-.82a1.834,1.834,0,0,1,1.136-1.76c.35.51.169.93.222,1.33h.457c.308-.75,1.094-1.11,1.571-1.73,1.258.832-1.435,2.207.691,3.44.772-.669-.068,1.888,1.8.63l-.361-.34a1.035,1.035,0,0,1,.828-.71c-.307-.91-1.178-.16-1.741-.57V60.04c.658.1.913,1.15,1.741.81.086-.85-.923-1.58-.286-2.53h.584a11.21,11.21,0,0,0,.615,4.24c.8-.337-.138,1.735,1.083.92a2.641,2.641,0,0,1,.732,2.07c.764.14.436.96.9,1.28-.072,2.823.231-2.53,2.272-1.28.628.265,1.852-.4,4.544-.43V64.7c-.1.08-2.113-1.495.457-2.14-.03-.219.456-1.118,1.719-1.13-.085.36-.52.67-.361,1.13.56.26.468.538.457,2.14.248.168.21-.132,0,1.28.308-.01.457.13.446.43,3.971-.5-.556,6.055,3.854,5.98.477-.4.212-.7-.149-1,0-.362.549-.176,1.3-1.13h-1.678c.115-.256-.559-.416.309-1.29.252-.873-.667-1.823.456-3.42-.182-.472.888-1.824,1.359.43h.913V64.47c.6-.37,1.2-.15,2.081-.14-.722.4-1.485.41-1.178,1.22.329.238,1.484.071.457,1.28.011.3-.138.44-.457.43.009.481.287.015,1.37.86,1.1.469-.291.33.9,2.14.725.195.079-2.078,1.815-.86.6.351.03-.32,1.816-.43v-.43c-.456.03-.541-.42-.934-.62.386.254.224-1.433,1.847-.66h.9c.159-.28.308-.57.457-.85-2.386.007-1.1-4.358,1.816-.43.488-.061.064.27,1.815.43V64.32c1.073.29.893,1.02.913,1.66.29.517.937.272.446,3.42.5.16.828-.28,1.381-.37-.011.77-.765,1.34-.468,2.08.84,0,.84,0,1.816.86.34-.07.87.21.9-.43-1.019-.31-.032-1.08-.519-1.46.6-.48,1.241-.08,1.773-.32.074-.58-.52-.21-.8-.68-.3-.468.643-1.1-.435-2.48.307-.41.828-.04,1.274-.31.042-.33.095-.72.159-1.1.319.55.977.93.818,1.64.054.12.106.24.148.36.276-.44,1.126-.09,1.221-.78-.393-.64-.393-.64,0-1.29-.011-.635-.02-1.987,1.816-1.71,1.025-.594.526-1.4,2-3.39.536.063,1.043,1.078,1.444-.46.163,1.436.208.711-2.081,3,.223.54-.393.83-.457,1.28h.68c.467.29.064.8.35,1.2.712-.08.669-.81,1.051-1.16.447.31-.053.84.319,1.16.392,0,.616-.6,1.231-.16v2.81c.531-.01,1.189.15.786-1.01.722.49,1.242.68.977,1.45.754-.2,1.5.46,1.868-.44-.085-.52-.637-.69-.891-1.08.148-.4.966.05.891-.63.234-.42.457-.84.7-1.29.446.53.011,1.12.382,1.72h.733c.289-.374-.631-1.146.457-2.14.541-.42,1.094-.84,1.719-1.31.064.5.128.88.18,1.26.362.111,1.212-1.785,1.274.05.882.2.287.86.457,1.28h.913c.085-.4.361-.65.9-.84v1.7c.128.05.255.09.382.14-.4.4-.055.266-1.284.28-.2.906.646,1.343-.913,3h2.951c.518,1.857,1.347,2.483,1.137-1.56-.038-.224,2.117-.213,1.359,1.13.356.174-.3.727.913,1.71-.2-.512.228-1.145,1.359-3.42-1.587-.617.554-1.606-2.7-2.33-.233-.77.849-.87.882-1.52-.752.035.361-.416-1.836-1.57.87-.3,1.741-.6,2.622-.91.3.655-.668.051-1.242,1.63,1.446.359,2.81,5.966,3.185.42-.813-1.387.191-1.285,2.495-1.71.406-.057.053-.546,1.582-.42-.01-.3.139-.44.457-.43-.034-1.18.078-.591-.064-3.47h1.752c0,.968-.245.512.436,2.19.918,1.041.695.93.053,3.38.68-.13.934-1.14,1.774-.82a1.8,1.8,0,0,1,1.136-1.76c.351.51.169.93.223,1.33h.457c.307-.75,1.082-1.11,1.571-1.73,1.247.831-1.435,2.208.69,3.44.773-.669-.068,1.888,1.8.63l-.361-.34a1.036,1.036,0,0,1,.829-.71c-.308-.91-1.179-.16-1.742-.57V60.04c.659.1.913,1.15,1.742.81.085-.85-.924-1.58-.287-2.53h.584a11.229,11.229,0,0,0,.615,4.24c.8-.337-.144,1.735,1.073.92a2.615,2.615,0,0,1,.744,2.07c.764.14.435.96.9,1.28-.072,2.823.226-2.528,2.272-1.28.614.265,1.86-.4,4.543-.43V64.7c-.106.081-2.1-1.492.447-2.14a1.631,1.631,0,0,1,1.731-1.13c-.086.36-.52.67-.361,1.13.555.265.451.542.446,2.14.251.169.233-.139,0,1.28.318-.01.467.13.457.43,3.976-.49-.561,6.051,3.853,5.98.479-.4.212-.7-.148-1,0-.362.561-.174,1.285-1.13h-1.667c.122-.255-.579-.423.308-1.29.252-.873-.667-1.823.457-3.42-.183-.472.887-1.824,1.359.43h.912V64.47c.6-.37,1.2-.15,2.071-.14-.712.4-1.475.41-1.168,1.22.329.239,1.468.072.456,1.28.011.3-.138.44-.456.43.008.481.286.015,1.369.86,1.1.469-.29.33.9,2.14.723.2.07-2.077,1.816-.86.6.354.029-.328,1.815-.43v-.43c-.457.03-.542-.42-.935-.62.373.254.23-1.435,1.848-.66h.9c.148-.28.307-.57.456-.85-2.385.007-1.1-4.357,1.815-.43.474-.061.071.272,1.816.43V64.32c1.072.29.891,1.02.912,1.66.3.516.92.275.447,3.42.5.16.828-.28,1.38-.37-.011.77-.775,1.34-.468,2.08.828,0,.828,0,1.815.86.34-.07.871.21.9-.43-1.02-.31-.032-1.08-.52-1.46.605-.48,1.242-.08,1.773-.32-.785-.487-.449-1.473-1.231-3.16.308-.41.827-.04,1.274-.31.042-.33.1-.72.149-1.1.329.55.977.93.827,1.64.054.12.107.24.15.36.275-.44,1.125-.09,1.209-.78-.382-.64-.382-.64,0-1.29-.013-.634-.009-1.987,1.817-1.71,1.031-.586.536-1.4,2.006-3.39.536.064,1.044,1.078,1.445-.46.162,1.436.207.711-2.082,3,.224.54-.393.83-.457,1.28h.669c.479.29.075.8.351,1.2.722-.08.679-.81,1.062-1.16.445.31-.054.84.318,1.16.383,0,.616-.6,1.231-.16v2.81c.52-.01,1.19.15.786-1.01.723.49,1.243.68.977,1.45.754-.2,1.5.46,1.868-.44-.085-.52-.636-.69-.891-1.08.138-.4.966.05.891-.63.224-.42.457-.84.691-1.29.457.53.01,1.12.393,1.72h.733c.289-.374-.631-1.146.456-2.14.542-.42,1.094-.84,1.72-1.31.064.5.128.88.181,1.26.361.1,1.2-1.78,1.273.05.881.2.287.86.457,1.28h.9c.095-.4.371-.65.912-.84v1.7c.128.05.255.09.383.14-.417.406-.056.264-1.295.28-.2.9.646,1.344-.9,3h2.952c.517,1.857,1.346,2.483,1.136-1.56-.038-.223,2.116-.215,1.359,1.13.359.174-.3.73.913,1.71-.2-.512.228-1.145,1.359-3.42-1.59-.617.555-1.606-2.7-2.33-.233-.77.849-.87.881-1.52-.747.037.349-.424-1.836-1.57.86-.3,1.742-.6,2.622-.91.3.655-.669.052-1.242,1.63,1.435.351,2.821,5.967,3.174.42-.786-1.4.193-1.279,2.507-1.71.406-.057.052-.546,1.581-.42-.01-.3.139-.44.457-.43-.034-1.18.078-.591-.064-3.47h1.753c-.009.969-.242.512.435,2.19.907,1.04.715.927.043,3.38.69-.13.945-1.14,1.773-.82a1.829,1.829,0,0,1,1.146-1.76c.34.51.171.93.224,1.33h.446c.319-.75,1.094-1.11,1.582-1.73,1.247.831-1.435,2.208.69,3.44.774-.669-.07,1.9,1.8.63l-.361-.34a1.037,1.037,0,0,1,.829-.71c-.308-.91-1.178-.16-1.752-.57V60.04c.669.1.923,1.15,1.752.81.085-.85-.923-1.58-.287-2.53h.574a11.638,11.638,0,0,0,.626,4.24c.786-.336-.14,1.736,1.072.92a2.688,2.688,0,0,1,.744,2.07c.764.14.435.96.9,1.28-.09,2.82.228-2.523,2.272-1.28.624.266,1.85-.4,4.533-.43V64.7c-.1.079-2.11-1.5.457-2.14a1.63,1.63,0,0,1,1.731-1.13c-.1.36-.52.67-.372,1.13.566.259.462.537.457,2.14.24.169.237-.137,0,1.28.318-.01.468.13.457.43,3.978-.487-.567,6.054,3.854,5.98.478-.4.211-.7-.16-1,.006-.363.561-.169,1.295-1.13h-1.667c.123-.255-.579-.423.308-1.29.253-.873-.666-1.823.457-3.42-.178-.473.88-1.816,1.359.43h.913V64.47c.594-.37,1.2-.15,2.07-.14-.711.4-1.476.41-1.167,1.22.32.239,1.474.072.457,1.28.011.3-.138.44-.457.43,0,.481.3.015,1.359.86,1.109.467-.279.325.913,2.14.727.193.068-2.081,1.815-.86.584.354.037-.33,1.815-.43v-.43c-.457.03-.552-.42-.945-.62.384.253.228-1.431,1.858-.66h.9c.149-.28.308-.57.457-.85-2.386.007-1.1-4.358,1.815-.43.474-.061.071.272,1.816.43V64.32c1.072.29.891,1.02.9,1.66.3.517.927.272.457,3.42.5.16.817-.28,1.38-.37-.021.77-.775,1.34-.467,2.08.827,0,.827,0,1.815.86.34-.07.871.21.9-.43-1.019-.31-.043-1.08-.531-1.46.615-.48,1.252-.08,1.783-.32-.795-.486-.433-1.486-1.242-3.16.319-.41.839-.04,1.275-.31.053-.33.105-.72.158-1.1.329.55.977.93.829,1.64.053.12.094.24.148.36.276-.44,1.115-.09,1.21-.78-.382-.64-.382-.64,0-1.29-.014-.634-.01-1.987,1.815-1.71,1.034-.6.534-1.4,2.007-3.39.537.063,1.035,1.078,1.444-.46.158,1.437.206.712-2.081,3,.212.54-.393.83-.457,1.28h.669c.478.29.074.8.35,1.2.722-.08.68-.81,1.062-1.16.446.31-.053.84.318,1.16.383,0,.606-.6,1.232-.16v2.81c.519-.01,1.178.15.786-1.01.722.49,1.242.68.977,1.45.754-.2,1.485.46,1.868-.44-.085-.52-.637-.69-.9-1.08.149-.4.976.05.9-.63.222-.42.457-.84.69-1.29.446.53.011,1.12.393,1.72h.733c.289-.374-.631-1.146.457-2.14.541-.42,1.094-.84,1.709-1.31.075.5.128.88.191,1.26.361.1,1.2-1.78,1.274.05.87.2.286.86.457,1.28h.9c.1-.4.361-.65.913-.84v1.7c.127.05.254.09.382.14-.417.406-.056.264-1.295.28-.2.911.641,1.331-.9,3h2.951c.51,1.86,1.348,2.478,1.136-1.56-.038-.223,2.116-.215,1.359,1.13.353.178-.3.714.9,1.71-.365-.405.638-1.757,1.37-3.42-1.591-.617.555-1.606-2.7-2.33-.234-.77.849-.87.881-1.52-.747.037.348-.424-1.837-1.57.86-.3,1.731-.6,2.623-.91.3.655-.672.054-1.242,1.63,1.432.362,2.822,5.961,3.175.42-.787-1.4.193-1.279,2.505-1.71.406-.057.051-.546,1.582-.42-.011-.3.138-.44.457-.43-.04-1.18.09-.591-.075-3.47h1.763c-.008.969-.241.512.435,2.19.9,1.053.718.923.043,3.38.69-.13.945-1.14,1.773-.82a1.834,1.834,0,0,1,1.137-1.76c.35.51.169.93.233,1.33h.447c.318-.75,1.092-1.11,1.581-1.73,1.007.651-1.114,2.656.69,3.44.774-.669-.069,1.9,1.806.63-.107-.1-.212-.2-.372-.34a1.037,1.037,0,0,1,.839-.71c-.307-.91-1.189-.16-1.752-.57V60.04c.658.1.913,1.15,1.752.81.086-.85-.923-1.58-.286-2.53h.573a12.006,12.006,0,0,0,.615,4.24c.8-.338-.13,1.734,1.083.92a2.64,2.64,0,0,1,.732,2.07c.776.14.447.96.913,1.28-.095,2.823.226-2.532,2.272-1.28.625.266,1.851-.4,4.533-.43V64.7c-.1.079-2.11-1.5.457-2.14-.03-.217.465-1.117,1.731-1.13-.1.36-.521.67-.372,1.13.567.259.463.537.457,2.14.241.169.238-.137,0,1.28.319-.01.468.13.457.43,3.966-.486-.56,6.059,3.854,5.98.466-.4.212-.7-.159-1,0-.361.564-.182,1.3-1.13h-1.667c.125-.254-.583-.426.308-1.29.253-.873-.666-1.823.457-3.42-.178-.473.88-1.816,1.359.43h.9V64.47c.6-.37,1.211-.15,2.081-.14-.712.4-1.476.41-1.168,1.22.32.239,1.473.072.457,1.28.011.3-.138.44-.457.43.007.481.279.01,1.359.86,1.11.467-.279.325.913,2.14.719.192.076-2.081,1.816-.86.584.354.037-.33,1.815-.43v-.43c-.457.03-.552-.42-.944-.62.383.253.225-1.424,1.846-.66h.913c.148-.28.3-.57.457-.85-2.406,0-1.1-4.35,1.816-.43.474-.061.07.272,1.815.43V64.32c1.073.29.892,1.02.9,1.66.3.517.928.272.457,3.42.489.16.818-.28,1.381-.37-.022.77-.776,1.34-.479,2.08.84,0,.84,0,1.827.86.34-.07.86.21.9-.43-1.03-.31-.042-1.08-.53-1.46.616-.48,1.252-.08,1.784-.32-.807-.488-.427-1.488-1.242-3.16.318-.41.839-.04,1.274-.31.053-.33.106-.72.16-1.1.318.55.976.93.827,1.64.053.12.1.24.149.36.276-.44,1.115-.09,1.21-.78-.393-.64-.393-.64,0-1.29-.013-.634-.009-1.987,1.815-1.71,1.035-.6.535-1.4,2.007-3.39.527.063,1.04,1.078,1.444-.46.154,1.44.217.711-2.092,3,.224.54-.382.83-.445,1.28h.669c.467.29.064.8.35,1.2.712-.08.68-.81,1.062-1.16.446.31-.053.84.319,1.16.382,0,.605-.6,1.232-.16v2.81c.52-.01,1.178.15.786-1.01.722.49,1.242.68.977,1.45.754-.2,1.486.46,1.869-.44-.085-.52-.637-.69-.9-1.08.148-.4.977.05.9-.63.223-.42.445-.84.69-1.29.447.53.011,1.12.393,1.72h.733c.289-.374-.631-1.146.457-2.14.542-.42,1.094-.84,1.709-1.31.075.5.128.88.18,1.26.365.108,1.213-1.783,1.285.05.87.2.276.86.457,1.28h.9c.1-.4.361-.65.913-.84v1.7c.128.05.254.09.382.14-.417.406-.055.264-1.3.28-.2.911.641,1.331-.9,3h2.941c.527,1.851,1.357,2.487,1.136-1.56-.03-.222,2.119-.218,1.37,1.13.36.175-.31.725.9,1.71-.362-.405.633-1.752,1.37-3.42-1.6-.616.551-1.6-2.708-2.33-.222-.77.861-.87.881-1.52-.737.039.351-.431-1.825-1.57.859-.3,1.731-.6,2.611-.91.308.655-.66.053-1.231,1.63,1.432.364,2.818,5.961,3.175.42-.8-1.39.185-1.283,2.505-1.71.481-.169.26-.564,1.582-.42-.011-.3.138-.44.456-.43-.04-1.18.091-.591-.075-3.47h1.763c-.009.97-.248.512.436,2.19.9,1.053.711.925.042,3.38.69-.13.945-1.14,1.774-.82a1.835,1.835,0,0,1,1.135-1.76c.351.51.171.93.224,1.33h.457c.318-.75,1.094-1.11,1.582-1.73,1.006.651-1.115,2.656.69,3.44.774-.669-.07,1.9,1.8.63-.106-.1-.212-.2-.372-.34a1.036,1.036,0,0,1,.838-.71c-.307-.91-1.188-.16-1.752-.57V60.04c.659.1.913,1.15,1.752.81.086-.85-.934-1.58-.286-2.53h.573a11.735,11.735,0,0,0,.616,4.24c.8-.338-.13,1.734,1.083.92a2.645,2.645,0,0,1,.733,2.07c.775.14.446.96.913,1.28-.1,2.823.226-2.531,2.272-1.28.619.266,1.847-.4,4.533-.43V64.7c-.108.08-2.107-1.494.457-2.14-.029-.214.457-1.116,1.73-1.13-.095.36-.519.67-.371,1.13.566.259.463.537.457,2.14.241.168.236-.13,0,1.28.318-.01.466.13.456.43,3.959-.489-.549,6.052,3.843,5.98.478-.4.211-.7-.149-1,0-.361.564-.181,1.3-1.13h-1.667c.113-.253-.58-.427.307-1.29.257-.875-.676-1.825.457-3.42-.178-.473.88-1.816,1.359.43h.9V64.47c.595-.37,1.2-.15,2.081-.14-.722.4-1.476.41-1.168,1.22.32.239,1.473.072.457,1.28.01.3-.149.44-.457.43.011.481.282.02,1.359.86,1.109.467-.279.325.912,2.14.72.192.076-2.081,1.816-.86.584.354.036-.33,1.815-.43v-.43c-.456.03-.551-.42-.944-.62.385.252.221-1.423,1.848-.66h.912c.15-.28.3-.57.447-.85-2.393,0-1.1-4.352,1.826-.43.474-.061.07.272,1.815.43V64.32c1.073.29.892,1.02.9,1.66.3.517.927.272.457,3.42.488.16.817-.28,1.369-.37-.01.77-.764,1.34-.467,2.08.838,0,.838,0,1.815.86.35-.07.87.21.912-.43-1.03-.31-.042-1.08-.531-1.46.616-.48,1.242-.08,1.784-.32-.806-.488-.427-1.487-1.242-3.16.319-.41.838-.04,1.274-.31.053-.33.107-.72.16-1.1.318.55.976.93.827,1.64.043.12.1.24.149.36.266-.44,1.116-.09,1.211-.78-.394-.64-.394-.64,0-1.29-.014-.634-.01-1.987,1.815-1.71,1.029-.594.538-1.4,2.006-3.39.522.06,1.047,1.08,1.434-.46.165,1.439.229.711-2.081,3,.222.54-.383.83-.447,1.28h.669c.468.29.064.8.351,1.2.711-.08.679-.81,1.061-1.16.447.31-.053.84.308,1.16.393,0,.616-.6,1.242-.16v2.81c.52-.01,1.178.15.786-1.01.722.49,1.242.68.977,1.45.743-.2,1.486.46,1.868-.44-.085-.52-.637-.69-.9-1.08.149-.4.977.05.9-.63.224-.42.447-.84.691-1.29.446.53.01,1.12.393,1.72h.732c.283-.373-.617-1.142.447-2.14.551-.42,1.094-.84,1.72-1.31.074.5.128.88.18,1.26.364.107,1.211-1.783,1.284.05.871.2.276.86.446,1.28h.912c.1-.4.362-.65.913-.84v1.7c.117.05.245.09.372.14-.4.41-.049.262-1.285.28-.2.907.649,1.339-.912,3h2.951c.528,1.851,1.358,2.487,1.137-1.56-.035-.223,2.106-.215,1.369,1.13.361.175-.31.724.9,1.71-.362-.4.634-1.746,1.36-3.42-1.583-.622.559-1.6-2.7-2.33-.223-.77.86-.87.881-1.52-.738.039.35-.432-1.826-1.57.86-.3,1.731-.6,2.612-.91.314.655-.681.049-1.233,1.63,1.433.364,2.806,5.958,3.175.42-.814-1.39.2-1.282,2.5-1.71.488-.166.266-.564,1.592-.42-.01-.3.139-.44.446-.43-.034-1.18.077-.591-.064-3.47h1.752c.007.97-.239.512.446,2.19.891,1.051.714.928.043,3.38.69-.13.944-1.14,1.773-.82a1.834,1.834,0,0,1,1.136-1.76c.35.51.169.93.222,1.33h.457c.308-.75,1.094-1.11,1.582-1.73,1.257.834-1.462,2.212.69,3.44.761-.669-.064,1.9,1.8.63-.117-.1-.222-.2-.371-.34a1.034,1.034,0,0,1,.839-.71c-.308-.91-1.189-.16-1.752-.57V60.04c.658.1.913,1.15,1.752.81.085-.85-.934-1.58-.287-2.53h.573a11.433,11.433,0,0,0,.616,4.24c.8-.338-.131,1.735,1.083.92a2.639,2.639,0,0,1,.733,2.07c.776.14.446.96.913,1.28-.095,2.821.226-2.525,2.261-1.28.628.265,1.852-.4,4.544-.43V64.7c-.1.08-2.114-1.495.457-2.14-.029-.214.456-1.116,1.73-1.13-.1.36-.531.67-.372,1.13.566.259.462.537.457,2.14.241.168.235-.129,0,1.28.308-.01.467.13.457.43,3.959-.489-.55,6.053,3.843,5.98.477-.4.212-.7-.149-1,0-.361.564-.181,1.3-1.13h-1.667c.112-.253-.58-.427.308-1.29-.441-.941.5-6.554,1.815-2.99h.9V64.47c.594-.37,1.2-.15,2.081-.14-.722.4-1.475.41-1.167,1.22.323.239,1.471.073.446,1.28.021.3-.138.44-.446.43.011.481.28.019,1.359.86,1.1.467-.266.326.9,2.14.732.2.081-2.08,1.815-.86.6.353.032-.326,1.826-.43v-.43c-.457.03-.552-.42-.945-.62.385.252.222-1.423,1.847-.66h.913c.149-.28.3-.57.446-.85-2.395,0-1.088-4.355,1.815-.43.486-.059.064.264,1.816.43V64.32c1.073.29.9,1.02.913,1.66.3.517.927.272.457,3.42.489.16.817-.28,1.369-.37-.01.77-.764,1.34-.467,2.08.839,0,.839,0,1.816.86.35-.07.87.21.913-.43-1.03-.31-.043-1.08-.531-1.46.616-.48,1.242-.08,1.784-.32.064-.58-.53-.21-.807-.68-.3-.469.648-1.1-.435-2.48.307-.41.839-.04,1.273-.31.043-.33.107-.72.16-1.1.319.55.977.93.828,1.64.042.12.1.24.149.36.265-.44,1.115-.09,1.211-.78-.393-.64-.393-.64,0-1.29-.014-.634-.01-1.987,1.815-1.71,1.02-.594.537-1.4,2-3.39.538.064,1.043,1.077,1.444-.46.156,1.437.22.705-2.081,3,.224.54-.382.83-.456,1.28h.68c.467.29.064.8.35,1.2.712-.08.669-.81,1.062-1.16.446.31-.053.84.308,1.16.393,0,.615-.6,1.231-.16v2.81c.531-.01,1.19.15.786-1.01.722.49,1.253.68.987,1.45.744-.2,1.487.46,1.859-.44-.075-.52-.626-.69-.891-1.08.148-.4.966.05.891-.63.233-.42.457-.84.7-1.29.446.53.011,1.12.382,1.72h.744c.33-.361-.7-.489.446-2.14.552-.42,1.094-.84,1.719-1.31.075.5.128.88.181,1.26.364.107,1.211-1.783,1.285.05.87.2.276.86.446,1.28h.913c.095-.4.361-.65.9-.84v1.7c.128.05.254.09.382.14-.4.41-.049.262-1.284.28-.2.907.646,1.343-.913,3h2.951c.526,1.855,1.351,2.485,1.137-1.56-.041-.225,2.127-.209,1.359,1.13.369.177-.306.719.913,1.71-.2-.513.227-1.144,1.359-3.42-1.588-.618.555-1.606-2.7-2.33-.233-.77.86-.87.882-1.52-.744.039.364-.431-1.836-1.57.87-.3,1.74-.6,2.622-.91.311.655-.67.048-1.242,1.63,1.44.354,2.816,5.965,3.185.42-.816-1.391.2-1.281,2.495-1.71.41-.059.049-.547,1.593-.42-.022-.3.138-.44.446-.43-.034-1.18.078-.591-.064-3.47H802.7c.008.97-.239.512.446,2.19.905,1.056.7.933.043,3.38.69-.13.945-1.14,1.773-.82a1.835,1.835,0,0,1,1.137-1.76c.35.51.169.93.222,1.33h.457c.308-.75,1.094-1.11,1.582-1.73,1.258.834-1.46,2.212.69,3.44.763-.669-.067,1.892,1.795.63l-.361-.34a1.035,1.035,0,0,1,.827-.71c-.3-.91-1.177-.16-1.74-.57V60.04c.658.1.913,1.15,1.74.81.086-.85-.923-1.58-.286-2.53h.584a11.323,11.323,0,0,0,.615,4.24c.8-.338-.13,1.735,1.084.92a2.646,2.646,0,0,1,.733,2.07c.775.14.435.96.9,1.28-.073,2.823.228-2.53,2.272-1.28.627.265,1.851-.4,4.543-.43V64.7c-.1.08-2.113-1.495.457-2.14-.03-.219.456-1.118,1.72-1.13-.085.36-.519.67-.361,1.13.56.26.468.538.457,2.14.247.167.226-.121,0,1.28.308-.01.457.13.447.43,3.972-.5-.559,6.052,3.853,5.98.478-.4.212-.7-.149-1,0-.361.563-.181,1.3-1.13h-1.677c.114-.256-.56-.416.307-1.29.253-.873-.666-1.823.457-3.42-.185-.48.906-1.813,1.36.43h.912V64.47c.6-.37,1.2-.15,2.082-.14-.723.4-1.487.41-1.169,1.22.325.24,1.471.075.446,1.28.011.3-.138.44-.446.43,0,.481.279.016,1.359.86,1.1.469-.271.329.9,2.14.725.195.079-2.078,1.817-.86.6.351.03-.32,1.815-.43v-.43c-.457.03-.542-.42-.934-.62.386.254.225-1.434,1.847-.66h.9c.159-.28.308-.57.457-.85-2.395,0-1.085-4.354,1.816-.43.487-.061.064.27,1.815.43V64.32c1.073.29.892,1.02.913,1.66.3.517.927.272.457,3.42.488.16.818-.28,1.37-.37-.011.77-.765,1.34-.468,2.08.839,0,.839,0,1.816.86.34-.07.87.21.913-.43-1.03-.31-.043-1.08-.531-1.46.605-.48,1.242-.08,1.784-.32.064-.58-.531-.21-.808-.68-.3-.468.643-1.1-.435-2.48.307-.41.838-.04,1.274-.31.042-.33.095-.72.159-1.1.319.55.977.93.817,1.64.054.12.107.24.149.36.276-.44,1.126-.09,1.221-.78-.393-.64-.393-.64,0-1.29-.014-.634-.009-1.987,1.815-1.71,1.025-.594.527-1.4,2-3.39.537.064,1.044,1.077,1.444-.46.163,1.436.208.711-2.081,3,.223.54-.393.83-.457,1.28h.68c.467.29.064.8.35,1.2.712-.08.669-.81,1.051-1.16.447.31-.042.84.319,1.16.393,0,.616-.6,1.231-.16v2.81c.531-.01,1.19.15.786-1.01.722.49,1.253.68.977,1.45.754-.2,1.5.46,1.868-.44-.085-.52-.626-.69-.891-1.08.149-.4.966.05.891-.63.234-.42.457-.84.7-1.29.446.53.011,1.12.382,1.72h.733c.289-.374-.631-1.146.457-2.14.552-.42,1.094-.84,1.72-1.31.075.5.128.88.18,1.26.36.107,1.223-1.783,1.274.05.881.2.287.86.457,1.28h.913c.085-.4.361-.65.9-.84v1.7c.128.05.255.09.383.14-.4.4-.056.266-1.285.28-.2.907.646,1.343-.913,3h2.952c.517,1.857,1.346,2.483,1.136-1.56-.041-.225,2.128-.209,1.359,1.13.356.174-.3.727.913,1.71-.2-.512.228-1.145,1.359-3.42-1.587-.617.555-1.606-2.7-2.33-.233-.77.86-.87.881-1.52-.755.039.367-.433-1.836-1.57.87-.3,1.741-.6,2.622-.91.3.655-.668.051-1.242,1.63,1.442.357,2.814,5.965,3.185.42-.813-1.387.191-1.285,2.5-1.71.4-.057.052-.546,1.581-.42-.011-.3.149-.44.457-.43-.034-1.18.078-.591-.064-3.47h1.752c0,.97-.249.512.447,2.19.9,1.047.688.929.042,3.38.68-.13.945-1.14,1.774-.82a1.819,1.819,0,0,1,1.136-1.76c.351.51.169.93.223,1.33h.457c.308-.75,1.094-1.11,1.571-1.73,1.247.831-1.436,2.208.69,3.44.773-.669-.068,1.888,1.8.63l-.361-.34a1.037,1.037,0,0,1,.828-.71c-.308-.91-1.179-.16-1.742-.57V60.04c.659.1.913,1.15,1.742.81.085-.85-.924-1.58-.287-2.53h.584a11.217,11.217,0,0,0,.616,4.24c.8-.337-.138,1.735,1.083.92a2.642,2.642,0,0,1,.733,2.07c.764.14.435.96.9,1.28-.072,2.823.226-2.528,2.272-1.28.615.265,1.859-.4,4.544-.43V64.7c-.107.081-2.1-1.491.446-2.14a1.631,1.631,0,0,1,1.731-1.13c-.086.36-.52.67-.361,1.13.553.262.452.54.446,2.14.251.169.232-.139,0,1.28.318-.01.467.13.457.43,3.97-.5-.557,6.055,3.853,5.98.478-.4.212-.7-.149-1,0-.362.549-.176,1.3-1.13h-1.677c.123-.256-.58-.419.308-1.29.252-.873-.667-1.823.457-3.42-.183-.472.887-1.824,1.359.43h.913V64.47c.594-.37,1.2-.15,2.081-.14-.722.4-1.487.41-1.178,1.22.332.239,1.467.073.457,1.28.01.3-.139.44-.457.43.008.481.286.015,1.37.86,1.1.469-.291.33.9,2.14.725.195.078-2.078,1.815-.86.6.354.029-.328,1.816-.43v-.43c-.457.03-.542-.42-.934-.62.385.254.224-1.433,1.847-.66h.9c.158-.28.308-.57.457-.85-2.386.008-1.1-4.358,1.815-.43.487-.061.063.27,1.816.43V64.32c1.072.29.891,1.02.912,1.66.292.517.934.272.447,3.42.5.16.827-.28,1.38-.37-.011.77-.765,1.34-.467,2.08.839,0,.839,0,1.815.86.34-.07.871.21.9-.43-1.019-.31-.032-1.08-.521-1.46.605-.48,1.242-.08,1.773-.32.075-.58-.519-.21-.8-.68-.3-.468.643-1.1-.436-2.48.308-.41.828-.04,1.274-.31.043-.33.1-.72.149-1.1.329.55.987.93.828,1.64.053.12.106.24.149.36.276-.44,1.126-.09,1.21-.78-.383-.64-.383-.64,0-1.29-.014-.639-.008-1.986,1.826-1.71,1.015-.59.532-1.4,2-3.39.536.064,1.044,1.078,1.445-.46.162,1.436.208.711-2.081,3,.222.54-.394.83-.457,1.28h.669c.477.29.074.8.35,1.2.722-.08.679-.81,1.062-1.16.446.31-.053.84.318,1.16.393,0,.616-.6,1.232-.16v2.81c.53-.01,1.188.15.786-1.01.722.49,1.241.68.976,1.45.754-.2,1.5.46,1.869-.44-.086-.52-.637-.69-.892-1.08.138-.4.966.05.892-.63.233-.42.457-.84.7-1.29.447.53,0,1.12.383,1.72h.733c.289-.374-.632-1.146.457-2.14.541-.42,1.093-.84,1.72-1.31.064.5.127.88.181,1.26.361.111,1.212-1.785,1.274.05.88.2.286.86.456,1.28h.913c.085-.4.362-.65.9-.84v1.7c.127.05.254.09.382.14-.41.4-.052.266-1.285.28-.2.905.646,1.343-.913,3h2.952c.516,1.857,1.347,2.483,1.135-1.56-.037-.224,2.118-.213,1.36,1.13.356.174-.3.727.912,1.71-.2-.512.228-1.145,1.359-3.42-1.587-.617.555-1.606-2.7-2.33-.234-.77.848-.87.88-1.52-.752.035.361-.417-1.836-1.57.871-.3,1.742-.6,2.622-.91.3.655-.667.051-1.241,1.63,1.437.354,2.82,5.968,3.174.42-.787-1.4.2-1.281,2.506-1.71.406-.057.052-.546,1.582-.42-.011-.3.138-.44.457-.43-.034-1.18.078-.591-.064-3.47h1.752c0,.968-.246.512.435,2.19.919,1.041.7.931.053,3.38.68-.13.935-1.14,1.763-.82a1.829,1.829,0,0,1,1.147-1.76c.351.51.17.93.223,1.33h.457c.308-.75,1.083-1.11,1.571-1.73,1.247.831-1.435,2.208.69,3.44.773-.669-.068,1.888,1.805.63l-.361-.34a1.034,1.034,0,0,1,.827-.71c-.308-.91-1.178-.16-1.741-.57V60.04c.658.1.913,1.15,1.741.81.085-.85-.923-1.58-.286-2.53h.572a11.69,11.69,0,0,0,.627,4.24c.8-.337-.146,1.735,1.073.92a2.614,2.614,0,0,1,.743,2.07c.765.14.436.96.9,1.28-.078,2.824.229-2.525,2.272-1.28.618.266,1.861-.4,4.544-.43V64.7c-.107.081-2.1-1.492.446-2.14a1.631,1.631,0,0,1,1.731-1.13c-.085.36-.52.67-.361,1.13.556.265.452.542.446,2.14.251.169.233-.139,0,1.28.319-.01.468.13.457.43,3.98-.487-.566,6.054,3.854,5.98.478-.4.212-.7-.16-1,.006-.363.565-.171,1.3-1.13h-1.667c.122-.255-.579-.423.308-1.29.253-.873-.666-1.823.457-3.42-.182-.472.887-1.824,1.359.43h.913V64.47c.594-.37,1.2-.15,2.071-.14-.712.4-1.476.41-1.168,1.22.33.239,1.468.072.457,1.28.011.3-.139.44-.457.43,0,.481.3.015,1.359.86,1.109.467-.279.325.913,2.14.724.2.071-2.077,1.816-.86.6.354.03-.328,1.815-.43v-.43c-.457.03-.552-.42-.945-.62.384.253.228-1.431,1.858-.66h.9c.148-.28.308-.57.456-.85-2.386.007-1.1-4.357,1.815-.43.474-.061.071.272,1.816.43V64.32c1.073.29.891,1.02.9,1.66.3.517.928.272.457,3.42.5.16.828-.28,1.381-.37-.022.77-.776,1.34-.468,2.08.828,0,.828,0,1.815.86.34-.07.87.21.9-.43-1.019-.31-.043-1.08-.53-1.46.615-.48,1.252-.08,1.784-.32-.786-.487-.449-1.473-1.232-3.16.308-.41.828-.04,1.274-.31.043-.33.1-.72.149-1.1.329.55.977.93.829,1.64.053.12.1.24.148.36.276-.44,1.126-.09,1.21-.78-.382-.64-.382-.64,0-1.29-.014-.634-.009-1.987,1.816-1.71,1.034-.6.534-1.4,2.007-3.39.535.062,1.035,1.079,1.444-.46.159,1.437.206.712-2.081,3,.222.54-.393.83-.457,1.28h.669c.478.29.074.8.35,1.2.722-.08.68-.81,1.062-1.16.446.31-.053.84.318,1.16.383,0,.605-.6,1.232-.16v2.81c.52-.01,1.19.15.786-1.01.722.49,1.242.68.977,1.45.754-.2,1.5.46,1.868-.44-.085-.52-.637-.69-.892-1.08.139-.4.966.05.892-.63.223-.42.457-.84.69-1.29.446.53.011,1.12.393,1.72h.733c.289-.374-.631-1.146.457-2.14.541-.42,1.094-.84,1.709-1.31.075.5.138.88.191,1.26.361.1,1.2-1.78,1.274.05.881.2.286.86.457,1.28h.9c.1-.4.372-.65.913-.84v1.7c.128.05.254.09.382.14-.417.406-.055.264-1.295.28-.2.9.647,1.345-.9,3h2.951c.513,1.861,1.35,2.478,1.137-1.56-.038-.223,2.115-.215,1.359,1.13.358.174-.3.729.913,1.71-.2-.512.228-1.145,1.359-3.42-1.591-.617.555-1.606-2.7-2.33-.233-.77.849-.87.881-1.52-.747.037.348-.424-1.837-1.57.86-.3,1.742-.6,2.623-.91.3.655-.67.052-1.242,1.63,1.438.358,2.819,5.964,3.174.42-.786-1.4.192-1.279,2.505-1.71.406-.057.053-.546,1.582-.42-.011-.3.138-.44.457-.43-.034-1.18.078-.591-.064-3.47h1.752c-.008.969-.241.512.436,2.19.906,1.04.715.927.042,3.38.69-.13.945-1.14,1.774-.82a1.834,1.834,0,0,1,1.136-1.76c.351.51.18.93.233,1.33h.447c.318-.75,1.094-1.11,1.581-1.73,1.254.833-1.456,2.215.69,3.44.775-.669-.069,1.9,1.806.63l-.361-.34a1.022,1.022,0,0,1,.828-.71c-.307-.91-1.189-.16-1.752-.57V60.04c.659.1.924,1.15,1.752.81.086-.85-.923-1.58-.286-2.53h.573a12,12,0,0,0,.616,4.24c.795-.338-.131,1.734,1.083.92a2.646,2.646,0,0,1,.733,2.07c.775.14.446.96.912,1.28-.089,2.82.225-2.521,2.272-1.28.624.266,1.852-.4,4.533-.43V64.7c-.1.079-2.109-1.5.457-2.14a1.631,1.631,0,0,1,1.731-1.13c-.1.36-.52.67-.371,1.13.566.259.463.537.456,2.14.241.169.238-.137,0,1.28.319-.01.468.13.457.43,3.978-.487-.566,6.055,3.854,5.98.468-.4.212-.7-.16-1,.007-.363.561-.169,1.3-1.13h-1.666c.124-.254-.584-.425.307-1.29.253-.873-.666-1.823.457-3.42-.178-.473.879-1.816,1.359.43h.913V64.47c.6-.37,1.2-.15,2.071-.14-.712.4-1.476.41-1.169,1.22.321.239,1.474.072.457,1.28.011.3-.138.44-.457.43,0,.481.3.015,1.359.86,1.11.467-.279.325.913,2.14.719.192.076-2.081,1.815-.86.584.355.037-.33,1.816-.43v-.43c-.457.03-.552-.42-.944-.62.377.253.24-1.43,1.846-.66h.913c.149-.28.3-.57.457-.85-2.412,0-1.093-4.352,1.816-.43.474-.061.071.272,1.816.43V64.32c1.073.29.892,1.02.9,1.66.3.517.928.272.457,3.42.489.16.818-.28,1.381-.37-.022.77-.776,1.34-.468,2.08.828,0,.828,0,1.816.86.34-.07.86.21.9-.43-1.019-.31-.042-1.08-.53-1.46.616-.48,1.253-.08,1.783-.32-.8-.486-.432-1.486-1.242-3.16.318-.41.839-.04,1.274-.31.053-.33.106-.72.159-1.1.318.55.976.93.828,1.64.053.12.1.24.148.36.276-.44,1.115-.09,1.21-.78-.382-.64-.382-.64,0-1.29-.013-.634-.009-1.987,1.816-1.71,1.034-.6.535-1.4,2.007-3.39.527.063,1.041,1.078,1.444-.46.159,1.437.206.712-2.081,3,.212.54-.393.83-.457,1.28h.669c.478.29.075.8.35,1.2.723-.08.68-.81,1.062-1.16.447.31-.053.84.319,1.16.382,0,.605-.6,1.231-.16v2.81c.521-.01,1.178.15.786-1.01.722.49,1.242.68.977,1.45.754-.2,1.486.46,1.868-.44-.085-.52-.637-.69-.9-1.08.149-.4.977.05.9-.63.223-.42.457-.84.69-1.29.447.53.011,1.12.393,1.72h.733c.289-.374-.631-1.146.457-2.14.541-.42,1.094-.84,1.71-1.31.074.5.127.88.191,1.26.361.1,1.2-1.78,1.274.05.87.2.276.86.457,1.28h.9c.1-.4.361-.65.913-.84v1.7c.127.05.255.09.383.14-.418.405-.056.264-1.3.28-.2.911.641,1.331-.9,3h2.952c.505,1.86,1.349,2.478,1.135-1.56-.038-.223,2.116-.215,1.359,1.13.36.175-.31.724.9,1.71-.362-.405.633-1.752,1.37-3.42-1.591-.617.555-1.606-2.7-2.33-.233-.77.849-.87.881-1.52-.747.037.35-.422-1.837-1.57.859-.3,1.731-.6,2.622-.91.3.655-.671.054-1.242,1.63,1.432.364,2.818,5.961,3.175.42-.787-1.4.193-1.279,2.505-1.71.481-.169.26-.564,1.582-.42-.011-.3.139-.44.457-.43-.039-1.18.091-.591-.074-3.47h1.762c-.009.97-.247.512.436,2.19.9,1.053.718.923.042,3.38.691-.13.945-1.14,1.774-.82a1.835,1.835,0,0,1,1.136-1.76c.351.51.171.93.224,1.33h.457c.318-.75,1.094-1.11,1.582-1.73,1.006.651-1.115,2.656.69,3.44.774-.669-.07,1.9,1.8.63-.106-.1-.212-.2-.372-.34a1.036,1.036,0,0,1,.839-.71c-.308-.91-1.189-.16-1.752-.57V60.04c.658.1.912,1.15,1.752.81.085-.85-.934-1.58-.287-2.53h.573a11.894,11.894,0,0,0,.616,4.24c.8-.338-.13,1.734,1.083.92a2.642,2.642,0,0,1,.733,2.07c.775.14.446.96.913,1.28-.1,2.823.225-2.532,2.272-1.28.624.266,1.85-.4,4.533-.43V64.7c-.1.079-2.109-1.5.457-2.14-.031-.217.464-1.117,1.73-1.13-.095.36-.519.67-.371,1.13.567.259.463.537.457,2.14.241.168.236-.13,0,1.28.318-.01.467.13.457.43,3.959-.489-.549,6.052,3.843,5.98.477-.4.222-.7-.149-1,0-.361.563-.181,1.3-1.13h-1.667c.125-.254-.583-.425.308-1.29.252-.873-.667-1.823.457-3.42-.179-.473.879-1.816,1.359.43h.9V64.47c.594-.37,1.21-.15,2.081-.14-.711.4-1.476.41-1.168,1.22.32.239,1.472.072.457,1.28.01.3-.139.44-.457.43.007.481.279.01,1.359.86,1.109.467-.28.325.913,2.14.719.192.075-2.081,1.816-.86.584.355.036-.33,1.816-.43v-.43c-.457.03-.552-.42-.945-.62.385.252.221-1.423,1.847-.66h.913c.149-.28.3-.57.457-.85-2.407,0-1.1-4.35,1.815-.43.474-.061.071.272,1.816.43V64.32c1.072.29.891,1.02.9,1.66.3.517.927.273.457,3.42.488.16.817-.28,1.38-.37-.021.77-.775,1.34-.478,2.08.838,0,.838,0,1.816.86.35-.07.87.21.913-.43-1.03-.31-.043-1.08-.531-1.46.616-.48,1.253-.08,1.784-.32-.807-.488-.427-1.487-1.242-3.16.319-.41.839-.04,1.274-.31.053-.33.107-.72.16-1.1.318.55.977.93.828,1.64.042.12.095.24.149.36.275-.44,1.115-.09,1.21-.78-.393-.64-.393-.64,0-1.29-.014-.634-.01-1.987,1.815-1.71,1.033-.594.536-1.4,2.006-3.39.528.063,1.041,1.078,1.445-.46.153,1.44.216.712-2.092,3,.222.54-.383.83-.447,1.28h.669c.468.29.064.8.351,1.2.711-.08.679-.81,1.062-1.16.446.31-.054.84.318,1.16.382,0,.605-.6,1.232-.16v2.81c.519-.01,1.177.15.785-1.01.723.49,1.242.68.977,1.45.754-.2,1.486.46,1.869-.44-.085-.52-.637-.69-.9-1.08.148-.4.977.05.9-.63.223-.42.447-.84.691-1.29.446.53.01,1.12.393,1.72h.732c.29-.374-.631-1.146.457-2.14.542-.42,1.084-.84,1.71-1.31.074.5.128.88.181,1.26.364.107,1.211-1.783,1.284.05.871.2.276.86.456,1.28h.9c.095-.4.361-.65.912-.84v1.7c.128.05.255.09.383.14-.417.406-.056.264-1.3.28-.2.909.634,1.334-.9,3h2.941c.527,1.851,1.358,2.487,1.137-1.56-.042-.222,2.121-.218,1.369,1.13.361.175-.31.725.9,1.71-.364-.4.636-1.749,1.359-3.42-1.583-.621.559-1.6-2.7-2.33-.223-.77.859-.87.881-1.52-.738.039.35-.431-1.826-1.57.86-.3,1.731-.6,2.612-.91.309.656-.675.059-1.232,1.63,1.439.363,2.8,5.962,3.174.42-.8-1.39.185-1.283,2.506-1.71.48-.169.259-.564,1.581-.42-.01-.3.139-.44.457-.43-.039-1.18.091-.591-.074-3.47h1.752c.008.97-.239.512.446,2.19.9,1.053.711.925.043,3.38.69-.13.944-1.14,1.773-.82a1.835,1.835,0,0,1,1.137-1.76c.35.51.17.93.222,1.33h.457c.319-.75,1.094-1.11,1.582-1.73,1.258.834-1.461,2.212.69,3.44.774-.669-.07,1.9,1.8.63-.106-.1-.211-.2-.371-.34a1.035,1.035,0,0,1,.839-.71c-.308-.91-1.189-.16-1.752-.57V60.04c.658.1.913,1.15,1.752.81.085-.85-.934-1.58-.287-2.53h.574a11.691,11.691,0,0,0,.615,4.24c.8-.338-.13,1.735,1.083.92a2.638,2.638,0,0,1,.733,2.07c.776.14.447.96.913,1.28-.1,2.821.234-2.528,2.261-1.28.629.265,1.852-.4,4.544-.43V64.7c-.108.08-2.107-1.494.457-2.14-.029-.214.457-1.116,1.731-1.13-.1.36-.531.67-.372,1.13.566.259.463.537.457,2.14.241.168.236-.13,0,1.28.308-.01.467.13.456.43,3.96-.489-.549,6.052,3.844,5.98.478-.4.213-.7-.149-1,0-.361.563-.181,1.295-1.13h-1.667c.113-.253-.58-.427.308-1.29-.4-.871.437-6.619,1.816-2.99h.9V64.47c.594-.37,1.2-.15,2.081-.14-.722.4-1.476.41-1.167,1.22.32.239,1.473.072.456,1.28.01.3-.149.44-.456.43.011.481.28.019,1.359.86,1.109.467-.279.325.913,2.14.724.193.064-2.08,1.815-.86.584.354.036-.33,1.816-.43v-.43c-.457.03-.552-.42-.945-.62.385.252.222-1.423,1.848-.66h.913c.148-.28.3-.57.446-.85-2.395,0-1.088-4.354,1.816-.43.485-.059.065.264,1.816.43V64.32c1.073.29.9,1.02.913,1.66.3.517.927.272.457,3.42.489.16.818-.28,1.37-.37-.011.77-.765,1.34-.468,2.08.839,0,.839,0,1.816.86.35-.07.87.21.913-.43-1.03-.31-.043-1.08-.531-1.46.616-.48,1.242-.08,1.784-.32-.806-.488-.426-1.487-1.241-3.16.318-.41.839-.04,1.273-.31.054-.33.107-.72.16-1.1.319.55.977.93.828,1.64.042.12.1.24.149.36.265-.44,1.115-.09,1.21-.78-.393-.64-.393-.64,0-1.29-.013-.634-.01-1.987,1.816-1.71,1.02-.594.537-1.4,2-3.39.537.064,1.043,1.077,1.444-.46.168,1.437.22.7-2.081,3,.223.54-.382.83-.457,1.28h.68c.467.29.064.8.35,1.2.712-.08.68-.81,1.062-1.16.446.31-.053.84.308,1.16.393,0,.615-.6,1.242-.16v2.81c.52-.01,1.178.15.786-1.01.722.49,1.242.68.976,1.45.744-.2,1.487.46,1.869-.44-.085-.52-.637-.69-.9-1.08.149-.4.976.05.9-.63.222-.42.446-.84.69-1.29.446.53.011,1.12.382,1.72h.744c.283-.373-.617-1.142.445-2.14.552-.42,1.094-.84,1.72-1.31.075.5.127.88.18,1.26.364.107,1.211-1.783,1.285.05.87.2.276.86.446,1.28h.913c.1-.4.361-.65.9-.84v1.7c.128.05.255.09.382.14-.4.41-.049.262-1.284.28-.2.907.648,1.339-.913,3h2.952c.526,1.851,1.357,2.487,1.135-1.56-.035-.223,2.106-.215,1.37,1.13.36.175-.31.724.9,1.71-.363-.4.634-1.745,1.359-3.42-1.583-.622.56-1.6-2.7-2.33-.233-.77.86-.87.881-1.52-.744.039.364-.431-1.836-1.57.87-.3,1.741-.6,2.622-.91.315.655-.681.049-1.231,1.63,1.432.364,2.8,5.958,3.175.42-.815-1.391.2-1.282,2.494-1.71.488-.166.267-.564,1.593-.42-.011-.3.138-.44.446-.43-.034-1.18.078-.591-.064-3.47h1.752c.008.97-.239.512.446,2.19.892,1.051.714.928.043,3.38.69-.13.945-1.14,1.773-.82a1.835,1.835,0,0,1,1.136-1.76c.35.51.169.93.223,1.33h.456c.308-.75,1.094-1.11,1.582-1.73,1.258.834-1.461,2.212.69,3.44.762-.669-.064,1.9,1.806.63-.117-.1-.223-.2-.372-.34a1.037,1.037,0,0,1,.828-.71c-.3-.91-1.178-.16-1.742-.57V60.04c.658.1.913,1.15,1.742.81.085-.85-.924-1.58-.276-2.53h.573a11.444,11.444,0,0,0,.615,4.24c.8-.338-.13,1.735,1.084.92a2.642,2.642,0,0,1,.732,2.07c.775.14.436.96.913,1.28-.095,2.821.227-2.525,2.262-1.28.628.265,1.851-.4,4.543-.43V64.7c-.1.08-2.113-1.495.457-2.14-.028-.221.453-1.119,1.731-1.13-.1.36-.53.67-.372,1.13.567.259.464.537.457,2.14.242.168.236-.129,0,1.28.308-.01.468.13.447.43,3.971-.5-.539,6.051,3.853,5.98.477-.4.212-.7-.149-1,0-.361.563-.181,1.3-1.13h-1.667c.113-.253-.579-.427.308-1.29-.441-.941.5-6.554,1.816-2.99h.9V64.47c.6-.37,1.2-.15,2.082-.14-.722.4-1.476.41-1.168,1.22.323.239,1.472.073.447,1.28.01.3-.139.44-.447.43,0,.481.279.016,1.359.86,1.1.467-.266.326.9,2.14.733.2.082-2.08,1.817-.86.6.351.03-.32,1.814-.43v-.43c-.456.03-.541-.42-.934-.62.386.252.222-1.423,1.847-.66h.913c.148-.28.3-.57.446-.85-2.395,0-1.088-4.354,1.816-.43.485-.059.064.264,1.815.43V64.32c1.073.29.892,1.02.913,1.66.3.517.928.272.457,3.42.489.16.818-.28,1.37-.37-.011.77-.765,1.34-.468,2.08.839,0,.839,0,1.815.86.351-.07.871.21.913-.43-1.03-.31-.042-1.08-.53-1.46.615-.48,1.242-.08,1.784-.32.064-.58-.531-.21-.808-.68-.3-.468.643-1.1-.435-2.48.308-.41.838-.04,1.274-.31.042-.33.106-.72.159-1.1.319.55.977.93.818,1.64l.158.36c.265-.44,1.115-.09,1.21-.78-.393-.64-.393-.64,0-1.29-.013-.634-.009-1.987,1.816-1.71,1.021-.594.537-1.4,2-3.39.537.064,1.044,1.077,1.445-.46.156,1.437.22.705-2.082,3,.223.54-.393.83-.457,1.28h.68c.468.29.064.8.35,1.2.712-.08.669-.81,1.052-1.16.446.31-.043.84.318,1.16.393,0,.616-.6,1.231-.16v2.81c.531-.01,1.189.15.786-1.01.723.49,1.253.68.977,1.45.754-.2,1.5.46,1.868-.44-.085-.52-.626-.69-.891-1.08.149-.4.966.05.891-.63.234-.42.457-.84.7-1.29.446.53.011,1.12.383,1.72h.732c.327-.361-.688-.488.457-2.14.552-.42,1.094-.84,1.72-1.31.075.5.128.88.181,1.26.364.107,1.212-1.783,1.285.05.87.2.276.86.446,1.28h.913c.085-.4.361-.65.9-.84v1.7c.128.05.255.09.383.14-.4.41-.05.262-1.285.28-.2.907.646,1.343-.913,3h2.952c.525,1.855,1.35,2.485,1.135-1.56-.041-.225,2.128-.209,1.359,1.13.37.177-.306.719.913,1.71-.2-.513.227-1.144,1.359-3.42-1.587-.617.555-1.606-2.7-2.33-.233-.77.86-.87.881-1.52-.743.039.365-.431-1.837-1.57.87-.3,1.741-.6,2.622-.91.311.655-.67.048-1.242,1.63,1.441.354,2.816,5.965,3.185.42-.817-1.39.2-1.281,2.5-1.71.409-.059.048-.547,1.592-.42-.021-.3.138-.44.446-.43-.034-1.18.078-.591-.064-3.47h1.752c.008.97-.238.512.447,2.19.9,1.051.683.932.042,3.38.691-.13.945-1.14,1.774-.82a1.835,1.835,0,0,1,1.136-1.76c.351.51.17.93.223,1.33h.457c.308-.75,1.094-1.11,1.571-1.73,1.267.833-1.45,2.212.7,3.44.762-.669-.067,1.892,1.794.63l-.361-.34a1.036,1.036,0,0,1,.829-.71c-.308-.91-1.178-.16-1.741-.57V60.04c.658.1.912,1.15,1.741.81.085-.85-.924-1.58-.287-2.53h.584a11.236,11.236,0,0,0,.616,4.24c.8-.337-.138,1.735,1.083.92a2.641,2.641,0,0,1,.733,2.07c.765.14.435.96.9,1.28-.073,2.823.229-2.53,2.272-1.28.628.265,1.852-.4,4.544-.43V64.7c-.1.08-2.114-1.495.456-2.14-.03-.219.455-1.118,1.72-1.13-.085.36-.521.67-.361,1.13.559.26.467.538.457,2.14.246.167.226-.121,0,1.28.307-.01.456.13.446.43,3.97-.5-.557,6.055,3.853,5.98.479-.4.213-.7-.149-1,0-.361.564-.181,1.3-1.13h-1.678c.115-.256-.56-.416.308-1.29.252-.873-.666-1.823.457-3.42-.185-.48.906-1.813,1.359.43h.913V64.47c.594-.37,1.2-.15,2.081-.14-.722.4-1.486.41-1.178,1.22.329.238,1.484.071.457,1.28.01.3-.139.44-.457.43.008.481.286.015,1.37.86,1.1.469-.291.33.9,2.14.725.195.079-2.078,1.816-.86.6.351.03-.32,1.816-.43v-.43c-.457.03-.542-.42-.934-.62.385.254.224-1.433,1.847-.66h.9c.16-.28.308-.57.457-.85-2.392,0-1.093-4.355,1.816-.43.487-.061.064.27,1.815.43V64.32c1.072.29.891,1.02.913,1.66.29.517.936.272.446,3.42.5.16.828-.28,1.38-.37-.01.77-.765,1.34-.466,2.08.838,0,.838,0,1.815.86.339-.07.87.21.913-.43-1.03-.31-.043-1.08-.531-1.46.605-.48,1.242-.08,1.773-.32.075-.58-.519-.21-.8-.68-.3-.468.643-1.1-.436-2.48.308-.41.839-.04,1.274-.31.043-.33.1-.72.159-1.1.318.55.977.93.818,1.64.053.12.106.24.148.36.276-.44,1.126-.09,1.221-.78-.394-.64-.394-.64,0-1.29-.014-.634-.01-1.987,1.815-1.71,1.025-.594.527-1.4,2-3.39.537.064,1.043,1.077,1.444-.46.161,1.436.207.711-2.081,3,.222.54-.393.83-.457,1.28h.679c.468.29.064.8.351,1.2.711-.08.669-.81,1.051-1.16.445.31-.053.84.318,1.16.393,0,.616-.6,1.232-.16v2.81c.531-.01,1.188.15.786-1.01.722.49,1.252.68.976,1.45.754-.2,1.5.46,1.869-.44-.086-.52-.637-.69-.892-1.08.148-.4.966.05.892-.63.233-.42.457-.84.7-1.29.446.53.01,1.12.382,1.72h.733c.289-.374-.631-1.146.457-2.14.551-.42,1.093-.84,1.72-1.31.074.5.127.88.181,1.26.361.111,1.212-1.785,1.274.05.881.2.286.86.457,1.28h.912c.086-.4.362-.65.9-.84v1.7c.127.05.254.09.382.14-.4.4-.055.266-1.285.28-.2.907.646,1.343-.912,3h2.951c.516,1.857,1.347,2.483,1.136-1.56-.041-.225,2.127-.209,1.359,1.13.356.174-.3.727.912,1.71-.2-.512.228-1.145,1.359-3.42-1.587-.617.555-1.606-2.7-2.33-.234-.77.859-.87.88-1.52-.752.035.361-.417-1.836-1.57.87-.3,1.742-.6,2.623-.91.3.655-.668.051-1.242,1.63,1.446.359,2.81,5.966,3.184.42-.812-1.386.193-1.285,2.5-1.71.406-.057.052-.546,1.582-.42-.011-.3.148-.44.457-.43-.034-1.18.078-.591-.064-3.47h1.752c0,.969-.25.512.446,2.19.9,1.047.689.929.043,3.38.679-.13.944-1.14,1.773-.82a1.8,1.8,0,0,1,1.136-1.76c.351.51.171.93.223,1.33h.457c.308-.75,1.094-1.11,1.571-1.73,1.248.831-1.435,2.208.69,3.44.773-.669-.068,1.888,1.806.63l-.361-.34a1.034,1.034,0,0,1,.828-.71c-.308-.91-1.178-.16-1.741-.57V60.04c.658.1.913,1.15,1.741.81.085-.85-.923-1.58-.286-2.53h.583a11.24,11.24,0,0,0,.616,4.24c.8-.334-.153,1.737,1.083.92a2.641,2.641,0,0,1,.733,2.07c.765.14.436.96.9,1.28-.072,2.823.226-2.528,2.272-1.28.615.265,1.86-.4,4.544-.43V64.7c-.107.081-2.1-1.492.446-2.14a1.632,1.632,0,0,1,1.731-1.13c-.085.36-.52.67-.361,1.13.554.262.453.54.446,2.14.251.169.233-.139,0,1.28.319-.01.468.13.457.43,3.977-.489-.561,6.051,3.854,5.98.478-.4.212-.7-.148-1,0-.362.548-.175,1.3-1.13h-1.678c.123-.255-.579-.423.308-1.29.253-.873-.666-1.823.457-3.42-.182-.472.888-1.824,1.359.43h.913V64.47c.594-.37,1.2-.15,2.081-.14-.722.4-1.487.41-1.178,1.22.333.239,1.467.073.457,1.28.011.3-.138.44-.457.43.008.481.287.015,1.37.86,1.1.469-.291.33.9,2.14.724.2.071-2.077,1.816-.86.6.354.03-.328,1.815-.43v-.43c-.456.03-.541-.42-.934-.62.373.254.23-1.435,1.847-.66h.9c.149-.28.308-.57.457-.85-2.386.007-1.1-4.357,1.815-.43.474-.061.071.272,1.816.43V64.32c1.073.29.892,1.02.913,1.66.3.516.92.275.446,3.42.5.16.828-.28,1.381-.37-.011.77-.765,1.34-.468,2.08.838,0,.838,0,1.816.86.34-.07.87.21.9-.43-1.019-.31-.032-1.08-.52-1.46.605-.48,1.242-.08,1.774-.32-.786-.487-.449-1.473-1.232-3.16.308-.41.828-.04,1.274-.31.043-.33.1-.72.148-1.1.329.55.988.93.828,1.64.053.12.107.24.149.36.276-.44,1.125-.09,1.21-.78-.382-.64-.382-.64,0-1.29-.014-.633-.006-1.987,1.815-1.71,1.032-.586.536-1.4,2.007-3.39.536.064,1.043,1.078,1.444-.46.161,1.436.207.711-2.081,3,.222.54-.393.83-.457,1.28h.669c.478.29.074.8.35,1.2.722-.08.68-.81,1.062-1.16.446.31-.053.84.319,1.16.393,0,.615-.6,1.231-.16v2.81c.521-.01,1.189.15.786-1.01.722.49,1.242.68.977,1.45.754-.2,1.5.46,1.868-.44-.085-.52-.637-.69-.892-1.08.139-.4.966.05.892-.63.224-.42.457-.84.69-1.29.457.53.011,1.12.393,1.72h.733c.289-.374-.631-1.146.456-2.14.542-.42,1.094-.84,1.72-1.31.064.5.128.88.18,1.26.361.1,1.2-1.78,1.274.05.881.2.286.86.456,1.28h.913c.085-.4.361-.65.9-.84v1.7c.128.05.255.09.382.14-.411.4-.052.265-1.284.28-.2.905.646,1.343-.913,3h2.951c.516,1.857,1.347,2.483,1.137-1.56-.038-.224,2.118-.213,1.359,1.13.359.174-.3.73.913,1.71-.2-.512.227-1.145,1.359-3.42-1.591-.617.555-1.606-2.7-2.33-.233-.77.849-.87.881-1.52-.747.037.348-.424-1.836-1.57.859-.3,1.741-.6,2.622-.91.3.655-.668.051-1.242,1.63,1.436.354,2.821,5.967,3.175.42-.786-1.4.2-1.281,2.505-1.71.406-.057.053-.546,1.582-.42-.011-.3.138-.44.457-.43-.034-1.18.078-.591-.064-3.47h1.752c0,.968-.246.512.436,2.19.918,1.041.694.931.053,3.38.679-.13.934-1.14,1.763-.82a1.828,1.828,0,0,1,1.147-1.76c.35.51.169.93.222,1.33h.447c.318-.75,1.094-1.11,1.581-1.73,1.248.831-1.435,2.208.691,3.44.773-.669-.068,1.888,1.8.63l-.361-.34a1.036,1.036,0,0,1,.828-.71c-.308-.91-1.179-.16-1.753-.57V60.04c.669.1.924,1.15,1.753.81.085-.85-.924-1.58-.287-2.53h.573a11.682,11.682,0,0,0,.626,4.24c.8-.337-.145,1.735,1.073.92a2.611,2.611,0,0,1,.743,2.07c.765.14.436.96.9,1.28-.091,2.82.228-2.523,2.271-1.28.615.265,1.859-.4,4.534-.43V64.7c-.1.08-2.094-1.494.457-2.14a1.629,1.629,0,0,1,1.73-1.13c-.1.36-.521.67-.361,1.13.556.265.452.542.447,2.14.24.169.237-.137,0,1.28.318-.01.466.13.456.43,3.984-.487-.571,6.053,3.854,5.98.478-.4.212-.7-.16-1,.007-.363.561-.169,1.3-1.13h-1.667c.122-.255-.58-.423.307-1.29.253-.873-.666-1.823.456-3.42-.181-.472.889-1.824,1.36.43h.912V64.47c.6-.37,1.2-.15,2.071-.14-.712.4-1.475.41-1.168,1.22.321.239,1.474.072.457,1.28.011.3-.138.44-.457.43,0,.481.3.015,1.36.86,1.109.467-.28.325.912,2.14.728.193.069-2.081,1.815-.86.584.355.037-.33,1.816-.43v-.43c-.457.03-.551-.42-.944-.62.383.253.227-1.431,1.857-.66h.9c.149-.28.308-.57.457-.85-2.385.007-1.1-4.357,1.816-.43.474-.061.071.272,1.815.43V64.32c1.073.29.892,1.02.9,1.66.3.517.928.272.456,3.42.5.16.829-.28,1.381-.37-.022.77-.776,1.34-.468,2.08.829,0,.829,0,1.816.86.34-.07.871.21.9-.43-1.02-.31-.043-1.08-.531-1.46.616-.48,1.253-.08,1.784-.32-.785-.487-.449-1.473-1.231-3.16.308-.41.828-.04,1.263-.31.053-.33.107-.72.16-1.1.329.55.976.93.828,1.64.054.12.1.24.149.36.276-.44,1.125-.09,1.21-.78-.382-.64-.382-.64,0-1.29-.013-.634-.009-1.987,1.815-1.71,1.035-.6.535-1.4,2.007-3.39.536.063,1.035,1.078,1.444-.46.159,1.437.206.712-2.081,3,.223.54-.393.83-.457,1.28h.669c.478.29.075.8.351,1.2.722-.08.679-.81,1.062-1.16.446.31-.054.84.318,1.16.382,0,.605-.6,1.231-.16v2.81c.52-.01,1.19.15.786-1.01.722.49,1.242.68.977,1.45.754-.2,1.5.46,1.869-.44-.085-.52-.637-.69-.891-1.08.138-.4.966.05.891-.63.223-.42.456-.84.69-1.29.447.53.011,1.12.394,1.72h.732c.289-.374-.631-1.146.457-2.14.541-.42,1.094-.84,1.71-1.31.074.5.127.88.19,1.26.361.1,1.2-1.78,1.274.05.871.2.287.86.457,1.28h.9c.1-.4.361-.65.913-.84v1.7c.128.05.255.09.383.14-.417.406-.056.264-1.3.28-.2.911.647,1.325-.9,3h2.952c.513,1.861,1.349,2.478,1.136-1.56-.038-.223,2.115-.215,1.359,1.13.354.178-.294.714.9,1.71-.207-.513.239-1.145,1.37-3.42-1.591-.617.555-1.606-2.7-2.33-.233-.77.849-.87.881-1.52-.747.037.349-.424-1.836-1.57.859-.3,1.731-.6,2.622-.91.3.655-.669.052-1.242,1.63,1.433.362,2.822,5.961,3.175.42-.787-1.4.193-1.279,2.506-1.71.4-.057.052-.546,1.581-.42-.01-.3.139-.44.457-.43-.039-1.18.091-.591-.074-3.47h1.762c-.008.969-.241.512.436,2.19.9,1.05.719.921.043,3.38.69-.13.944-1.14,1.773-.82a1.835,1.835,0,0,1,1.135-1.76c.351.51.182.93.234,1.33h.446c.319-.75,1.094-1.11,1.582-1.73,1.254.833-1.456,2.215.69,3.44.774-.669-.07,1.9,1.8.63l-.361-.34a1.021,1.021,0,0,1,.828-.71c-.308-.91-1.189-.16-1.752-.57V60.04c.658.1.923,1.15,1.752.81.085-.85-.924-1.58-.287-2.53h.573a12.047,12.047,0,0,0,.616,4.24c.8-.338-.131,1.734,1.083.92a2.642,2.642,0,0,1,.733,2.07c.775.14.446.96.913,1.28-.09,2.824.226-2.533,2.272-1.28.624.266,1.85-.4,4.533-.43V64.7c-.1.079-2.109-1.5.457-2.14a1.63,1.63,0,0,1,1.731-1.13c-.1.36-.52.67-.372,1.13.566.259.463.537.457,2.14.24.169.237-.137,0,1.28.318-.01.467.13.457.43,3.966-.486-.56,6.059,3.853,5.98.468-.4.212-.7-.159-1,.01-.361.559-.182,1.3-1.13H1629.9c.125-.254-.583-.426.308-1.29.252-.873-.666-1.823.457-3.42-.178-.473.879-1.816,1.359.43h.9V64.47c.605-.37,1.21-.15,2.081-.14-.711.4-1.475.41-1.167,1.22.32.239,1.473.072.457,1.28.01.3-.139.44-.457.43,0,.481.3.015,1.359.86,1.109.467-.279.325.913,2.14.719.192.075-2.081,1.816-.86.584.355.037-.33,1.816-.43v-.43c-.457.03-.552-.42-.945-.62.384.253.225-1.424,1.847-.66h.913c.148-.28.3-.57.457-.85-2.413,0-1.093-4.352,1.815-.43.474-.061.07.272,1.816.43V64.32c1.072.29.891,1.02.9,1.66.3.517.927.272.457,3.42.489.16.818-.28,1.38-.37-.021.77-.775,1.34-.467,2.08.828,0,.828,0,1.816.86.339-.07.859.21.9-.43-1.03-.31-.043-1.08-.531-1.46.616-.48,1.253-.08,1.784-.32-.795-.486-.433-1.486-1.242-3.16.319-.41.839-.04,1.274-.31.054-.33.107-.72.16-1.1.318.55.977.93.828,1.64.053.12.095.24.149.36.276-.44,1.115-.09,1.21-.78-.393-.64-.393-.64,0-1.29-.014-.634-.01-1.987,1.816-1.71,1.034-.6.534-1.4,2.006-3.39.528.063,1.041,1.078,1.445-.46.154,1.44.217.711-2.092,3,.222.54-.383.83-.445,1.28h.668c.468.29.075.8.351,1.2.711-.08.679-.81,1.062-1.16.446.31-.053.84.318,1.16.383,0,.605-.6,1.232-.16v2.81c.519-.01,1.178.15.786-1.01.722.49,1.242.68.976,1.45.755-.2,1.486.46,1.869-.44-.086-.52-.637-.69-.9-1.08.149-.4.977.05.9-.63.222-.42.446-.84.69-1.29.446.53.01,1.12.393,1.72h.732c.29-.374-.631-1.146.458-2.14.541-.42,1.093-.84,1.709-1.31.075.5.128.88.192,1.26.357.1,1.2-1.781,1.274.05.87.2.275.86.457,1.28h.9c.1-.4.361-.65.912-.84v1.7c.128.05.255.09.383.14-.417.406-.056.264-1.3.28-.2.911.64,1.331-.9,3h2.94c.527,1.851,1.356,2.486,1.147-1.56-.037-.223,2.116-.215,1.359,1.13.361.175-.31.724.9,1.71-.363-.405.632-1.752,1.369-3.42-1.59-.617.556-1.606-2.7-2.33-.233-.77.851-.87.881-1.52-.747.037.351-.422-1.837-1.57.861-.3,1.731-.6,2.612-.91.307.655-.66.053-1.232,1.63,1.432.364,2.818,5.961,3.175.42-.8-1.39.184-1.282,2.506-1.71.479-.169.259-.564,1.582-.42-.011-.3.138-.44.456-.43-.039-1.18.091-.591-.074-3.47h1.763c-.01.97-.248.512.435,2.19.9,1.053.711.925.043,3.38.69-.13.945-1.14,1.773-.82a1.834,1.834,0,0,1,1.136-1.76c.35.51.17.93.222,1.33h.457c.319-.75,1.094-1.11,1.582-1.73,1.006.651-1.114,2.656.69,3.44.774-.669-.07,1.9,1.806.63-.107-.1-.212-.2-.372-.34a1.035,1.035,0,0,1,.839-.71c-.308-.91-1.189-.16-1.752-.57V60.04c.658.1.913,1.15,1.752.81.085-.85-.934-1.58-.286-2.53h.573a11.741,11.741,0,0,0,.615,4.24c.8-.338-.13,1.734,1.083.92a2.638,2.638,0,0,1,.733,2.07c.776.14.447.96.913,1.28-.095,2.823.226-2.533,2.272-1.28.625.266,1.85-.4,4.533-.43V64.7c-.1.079-2.11-1.5.457-2.14-.029-.214.457-1.116,1.731-1.13-.1.36-.521.67-.372,1.13.566.259.463.537.457,2.14.241.168.236-.13,0,1.28.319-.01.468.13.457.43,3.96-.489-.549,6.052,3.843,5.98.477-.4.212-.7-.149-1,0-.361.563-.181,1.3-1.13h-1.667c.125-.254-.583-.426.308-1.29.257-.875-.676-1.825.456-3.42-.178-.473.879-1.816,1.359.43h.9V64.47c.6-.37,1.21-.15,2.081-.14-.711.4-1.476.41-1.167,1.22.32.239,1.474.072.457,1.28.011.3-.149.44-.457.43.011.481.282.02,1.359.86,1.109.467-.279.325.913,2.14.719.192.075-2.081,1.816-.86.584.355.037-.33,1.815-.43v-.43c-.456.03-.552-.42-.945-.62.386.252.222-1.423,1.847-.66h.913c.149-.28.3-.57.457-.85-2.4.013-1.114-4.357,1.815-.43.474-.061.07.272,1.816.43V64.32c1.073.29.891,1.02.9,1.66.3.517.927.273.457,3.42.489.16.817-.28,1.37-.37-.011.77-.765,1.34-.468,2.08.839,0,.839,0,1.816.86.351-.07.87.21.913-.43-1.03-.31-.043-1.08-.531-1.46.616-.48,1.242-.08,1.785-.32-.807-.488-.427-1.487-1.242-3.16.318-.41.839-.04,1.274-.31.053-.33.106-.72.159-1.1.319.55.977.93.829,1.64.042.12.1.24.148.36.265-.44,1.115-.09,1.21-.78-.393-.64-.393-.64,0-1.29-.013-.634-.009-1.987,1.816-1.71,1.033-.594.535-1.4,2.007-3.39.527.063,1.04,1.078,1.443-.46.154,1.44.217.712-2.092,3,.223.54-.382.83-.446,1.28h.669c.467.29.064.8.35,1.2.712-.08.68-.81,1.062-1.16.446.31-.053.84.308,1.16.393,0,.616-.6,1.242-.16v2.81c.52-.01,1.178.15.786-1.01.722.49,1.242.68.977,1.45.754-.2,1.486.46,1.869-.44-.085-.52-.637-.69-.9-1.08.149-.4.977.05.9-.63.223-.42.446-.84.69-1.29.446.53.011,1.12.393,1.72h.733c.283-.372-.618-1.14.446-2.14.552-.42,1.094-.84,1.72-1.31.075.5.127.88.18,1.26.364.108,1.212-1.783,1.285.05.87.2.276.86.457,1.28h.9c.1-.4.361-.65.913-.84v1.7c.128.05.254.09.372.14-.4.41-.05.262-1.285.28-.2.909.634,1.334-.9,3h2.941c.526,1.851,1.357,2.487,1.136-1.56-.034-.223,2.106-.215,1.37,1.13.36.175-.31.724.9,1.71-.364-.4.636-1.749,1.359-3.42-1.583-.622.56-1.6-2.7-2.33-.222-.77.861-.87.881-1.52-.737.039.351-.431-1.827-1.57.86-.3,1.731-.6,2.612-.91.309.656-.674.059-1.231,1.63,1.438.363,2.8,5.962,3.174.42-.813-1.39.2-1.282,2.495-1.71.489-.166.267-.564,1.593-.42-.011-.3.138-.44.457-.43-.04-1.18.091-.591-.075-3.47h1.752c.008.97-.239.512.447,2.19.89,1.051.714.927.042,3.38.69-.13.945-1.14,1.774-.82a1.833,1.833,0,0,1,1.136-1.76c.35.51.17.93.223,1.33h.457c.307-.75,1.093-1.11,1.581-1.73,1.258.834-1.461,2.212.691,3.44.773-.669-.07,1.9,1.8.63-.107-.1-.224-.2-.372-.34a1.037,1.037,0,0,1,.839-.71c-.307-.91-1.188-.16-1.752-.57V60.04c.659.1.913,1.15,1.752.81.086-.85-.934-1.58-.286-2.53h.573a11.426,11.426,0,0,0,.616,4.24c.795-.338-.131,1.735,1.083.92a2.645,2.645,0,0,1,.733,2.07c.775.14.446.96.912,1.28-.1,2.821.228-2.525,2.262-1.28.628.265,1.851-.4,4.544-.43V64.7c-.1.08-2.114-1.495.456-2.14-.028-.214.458-1.116,1.731-1.13-.1.36-.53.67-.371,1.13.566.259.462.537.455,2.14.242.168.236-.13,0,1.28.308-.01.468.13.457.43,3.96-.489-.548,6.053,3.843,5.98.479-.4.212-.7-.148-1,0-.361.564-.181,1.295-1.13h-1.666c.112-.253-.58-.427.307-1.29-.441-.942.5-6.554,1.816-2.99h.9V64.47c.594-.37,1.2-.15,2.081-.14-.722.4-1.476.41-1.168,1.22.323.24,1.479.074.447,1.28.021.3-.139.44-.447.43.012.481.281.019,1.359.86,1.11.467-.279.325.913,2.14.725.193.064-2.08,1.815-.86.584.355.037-.33,1.816-.43v-.43c-.457.03-.552-.42-.944-.62.385.252.221-1.423,1.847-.66h.912c.149-.28.3-.57.447-.85-2.4,0-1.088-4.354,1.816-.43.484-.059.064.264,1.815.43V64.32c1.072.29.9,1.02.912,1.66.3.517.928.272.457,3.42.488.16.817-.28,1.37-.37-.011.77-.765,1.34-.468,2.08.839,0,.839,0,1.816.86.35-.07.87.21.912-.43-1.03-.31-.042-1.08-.53-1.46.616-.48,1.242-.08,1.784-.32-.807-.488-.427-1.487-1.242-3.16.318-.41.839-.04,1.274-.31.042-.33.106-.72.16-1.1.318.55.976.93.827,1.64.043.12.1.24.148.36.266-.44,1.115-.09,1.21-.78-.393-.64-.393-.64,0-1.29-.013-.634-.009-1.987,1.816-1.71,1.021-.594.537-1.4,2-3.39.539.064,1.044,1.077,1.445-.46.523,1.073-.441,1.341-2.082,3,.223.54-.382.83-.457,1.28h.68c.468.29.064.8.35,1.2.712-.08.669-.81,1.062-1.16.447.31-.053.84.308,1.16.393,0,.616-.6,1.232-.16v2.81c.531-.01,1.189.15.786-1.01.732.49,1.252.68.987,1.45.743-.2,1.487.46,1.868-.44-.085-.52-.637-.69-.9-1.08.148-.4.977.05.9-.63.223-.42.446-.84.69-1.29.447.53.011,1.12.383,1.72h.743c.286-.374-.622-1.142.446-2.14.552-.42,1.094-.84,1.721-1.31.074.5.127.88.181,1.26.363.107,1.211-1.783,1.284.05.87.2.276.86.446,1.28h.913c.1-.4.361-.65.9-.84v1.7c.127.05.255.09.383.14-.4.41-.05.262-1.285.28-.2.907.649,1.339-.913,3h2.952c.525,1.855,1.351,2.485,1.136-1.56-.041-.225,2.127-.209,1.359,1.13.37.177-.306.719.913,1.71-.362-.4.634-1.745,1.359-3.42-1.587-.618.555-1.606-2.7-2.33-.234-.77.859-.87.88-1.52-.743.039.365-.431-1.837-1.57.87-.3,1.741-.6,2.623-.91.31.655-.671.048-1.243,1.63,1.441.354,2.817,5.965,3.186.42-.814-1.391.205-1.282,2.5-1.71.488-.166.266-.564,1.592-.42-.011-.3.139-.44.445-.43-.034-1.18.078-.591-.064-3.47h1.752c.008.97-.238.512.447,2.19.893,1.052.711.927.042,3.38.691-.13.945-1.14,1.773-.82a1.835,1.835,0,0,1,1.136-1.76c.351.51.17.93.223,1.33h.457c.308-.75,1.094-1.11,1.582-1.73,1.257.834-1.462,2.212.69,3.44.762-.669-.067,1.892,1.794.63l-.361-.34a1.036,1.036,0,0,1,.828-.71c-.3-.91-1.178-.16-1.741-.57V60.04c.658.1.912,1.15,1.741.81.085-.85-.923-1.58-.286-2.53h.583a11.446,11.446,0,0,0,.616,4.24c.795-.338-.13,1.735,1.083.92a2.642,2.642,0,0,1,.733,2.07c.775.14.436.96.913,1.28-.1,2.821.226-2.525,2.261-1.28.628.265,1.851-.4,4.544-.43V64.7c-.1.08-2.114-1.495.457-2.14-.03-.219.455-1.118,1.72-1.13-.085.36-.52.67-.361,1.13.566.259.463.537.457,2.14.246.167.226-.121,0,1.28.308-.01.467.13.446.43,3.972-.5-.558,6.052,3.854,5.98.478-.4.213-.7-.148-1,0-.361.563-.181,1.3-1.13h-1.678c.121-.254-.574-.424.319-1.29.256-.875-.674-1.823.445-3.42-.178-.479.891-1.814,1.37.43h.9V64.47c.594-.37,1.2-.15,2.081-.14-.722.4-1.487.41-1.167,1.22.325.24,1.469.075.446,1.28.011.3-.138.44-.446.43,0,.481.279.016,1.359.86,1.091.469-.265.326.9,2.14.733.2.082-2.08,1.816-.86.6.351.03-.32,1.816-.43v-.43c-.457.03-.541-.42-.934-.62.385.254.224-1.434,1.847-.66h.9c.16-.28.308-.57.457-.85-2.4,0-1.086-4.354,1.816-.43.485-.059.064.264,1.815.43V64.32c1.072.29.891,1.02.913,1.66.3.517.927.272.456,3.42.489.16.818-.28,1.369-.37-.01.77-.764,1.34-.466,2.08.838,0,.838,0,1.815.86.35-.07.87.21.913-.43-1.03-.31-.043-1.08-.532-1.46.616-.48,1.242-.08,1.784-.32.064-.58-.531-.21-.807-.68-.3-.468.643-1.1-.436-2.48.308-.41.839-.04,1.274-.31.043-.33.107-.72.16-1.1.318.55.977.93.818,1.64l.159.36c.265-.44,1.115-.09,1.21-.78-.393-.64-.393-.64,0-1.29-.014-.634-.01-1.987,1.815-1.71,1.024-.594.526-1.4,2-3.39.537.064,1.043,1.077,1.444-.46.156,1.437.22.705-2.081,3,.222.54-.393.83-.457,1.28h.679c.468.29.064.8.351,1.2.711-.08.669-.81,1.051-1.16.446.31-.043.84.319,1.16.393,0,.615-.6,1.231-.16v2.81c.53-.01,1.189.15.786-1.01.722.49,1.252.68.977,1.45.754-.2,1.5.46,1.868-.44-.085-.52-.626-.69-.892-1.08.148-.4.966.05.892-.63.233-.42.457-.84.7-1.29.446.53.01,1.12.382,1.72h.733c.289-.374-.631-1.146.457-2.14.552-.42,1.094-.84,1.72-1.31.074.5.128.88.181,1.26.359.107,1.222-1.783,1.274.05.881.2.286.86.457,1.28h.913c.085-.4.361-.65.9-.84v1.7c.127.05.254.09.382.14-.4.41-.049.262-1.284.28-.2.907.646,1.343-.913,3h2.951c.526,1.855,1.351,2.485,1.137-1.56-.041-.225,2.126-.209,1.359,1.13.369.176-.306.721.913,1.71-.2-.512.227-1.145,1.359-3.42-1.588-.617.554-1.606-2.7-2.33-.234-.77.859-.87.881-1.52-.755.039.367-.433-1.837-1.57.871-.3,1.742-.6,2.623-.91.311.655-.67.048-1.242,1.63,1.441.357,2.814,5.965,3.184.42-.813-1.39.2-1.28,2.5-1.71.406-.057.053-.546,1.582-.42-.011-.3.149-.44.457-.43.218-8.055.613-17.752.541-27.93A2.969,2.969,0,0,0,1924.794,30.17Z" transform="translate(1920 11869.311) rotate(180)" fill="#f5f5f5"/>
  </g>
</svg>
