<svg xmlns="http://www.w3.org/2000/svg" width="62" height="60" viewBox="0 0 62 60">
  <g id="Group_381" data-name="Group 381" transform="translate(496.529 -372.176)">
    <path id="Path_4098" data-name="Path 4098" d="M-439.529,430.176h-1v-51a1,1,0,0,0-1-1h-6v-5a1,1,0,0,0-1-1h-22a1,1,0,0,0-1,1v5h-6a1,1,0,0,0-1,1v51h-7V423.1a7,7,0,0,0,5.927-7.929,7,7,0,0,0-2.6-4.5,5,5,0,0,0-1.834-6.829,5,5,0,0,0-6.829,1.835,5,5,0,0,0,0,4.994,7,7,0,0,0-1.166,9.831,7,7,0,0,0,4.5,2.6v2.158l-1.293-1.293a1,1,0,0,0-1.415,0,1,1,0,0,0,0,1.415l2.5,2.5a1,1,0,0,0,.208.157v2.135h-8a1,1,0,0,0-1,1,1,1,0,0,0,1,1h56a1,1,0,0,0,1-1A1,1,0,0,0-439.529,430.176Zm-47-16a1,1,0,0,0-1,1v5.9a5,5,0,0,1-3.9-5.9,5,5,0,0,1,2.478-3.375,1,1,0,0,0,.391-1.359.992.992,0,0,0-.149-.2,3,3,0,0,1,.118-4.241,3,3,0,0,1,4.241.118,3,3,0,0,1,0,4.123,1,1,0,0,0,.039,1.414.952.952,0,0,0,.2.148,5,5,0,0,1,1.953,6.8,5,5,0,0,1-3.374,2.477v-5.9A1,1,0,0,0-486.529,414.176Zm17-40h20v4h-20Zm9,56h-3v-12h3Zm5,0h-3v-12h3Zm13,0h-11v-13a1,1,0,0,0-1-1h-10a1,1,0,0,0-1,1v13h-11v-50h34Z" fill="#fff"/>
    <path id="Path_4099" data-name="Path 4099" d="M-435.529,430.176h-1a1,1,0,0,0-1,1,1,1,0,0,0,1,1h1a1,1,0,0,0,1-1A1,1,0,0,0-435.529,430.176Z" fill="#fff"/>
    <path id="Path_4100" data-name="Path 4100" d="M-455.529,404.176h-8a1,1,0,0,0-1,1v8a1,1,0,0,0,1,1h8a1,1,0,0,0,1-1v-8A1,1,0,0,0-455.529,404.176Zm-1,8h-6v-6h6Z" fill="#fff"/>
    <path id="Path_4101" data-name="Path 4101" d="M-466.529,404.176h-8a1,1,0,0,0-1,1v8a1,1,0,0,0,1,1h8a1,1,0,0,0,1-1v-8A1,1,0,0,0-466.529,404.176Zm-1,8h-6v-6h6Z" fill="#fff"/>
    <path id="Path_4102" data-name="Path 4102" d="M-444.529,404.176h-8a1,1,0,0,0-1,1v8a1,1,0,0,0,1,1h8a1,1,0,0,0,1-1v-8A1,1,0,0,0-444.529,404.176Zm-1,8h-6v-6h6Z" fill="#fff"/>
    <path id="Path_4103" data-name="Path 4103" d="M-455.529,393.176h-8a1,1,0,0,0-1,1v8a1,1,0,0,0,1,1h8a1,1,0,0,0,1-1v-8A1,1,0,0,0-455.529,393.176Zm-1,8h-6v-6h6Z" fill="#fff"/>
    <path id="Path_4104" data-name="Path 4104" d="M-466.529,393.176h-8a1,1,0,0,0-1,1v8a1,1,0,0,0,1,1h8a1,1,0,0,0,1-1v-8A1,1,0,0,0-466.529,393.176Zm-1,8h-6v-6h6Z" fill="#fff"/>
    <path id="Path_4105" data-name="Path 4105" d="M-444.529,393.176h-8a1,1,0,0,0-1,1v8a1,1,0,0,0,1,1h8a1,1,0,0,0,1-1v-8A1,1,0,0,0-444.529,393.176Zm-1,8h-6v-6h6Z" fill="#fff"/>
    <path id="Path_4106" data-name="Path 4106" d="M-455.529,382.176h-8a1,1,0,0,0-1,1v8a1,1,0,0,0,1,1h8a1,1,0,0,0,1-1v-8A1,1,0,0,0-455.529,382.176Zm-1,8h-6v-6h6Z" fill="#fff"/>
    <path id="Path_4107" data-name="Path 4107" d="M-466.529,382.176h-8a1,1,0,0,0-1,1v8a1,1,0,0,0,1,1h8a1,1,0,0,0,1-1v-8A1,1,0,0,0-466.529,382.176Zm-1,8h-6v-6h6Z" fill="#fff"/>
    <path id="Path_4108" data-name="Path 4108" d="M-453.529,383.176v8a1,1,0,0,0,1,1h8a1,1,0,0,0,1-1v-8a1,1,0,0,0-1-1h-8A1,1,0,0,0-453.529,383.176Zm2,1h6v6h-6Z" fill="#fff"/>
    <path id="Path_4109" data-name="Path 4109" d="M-485.529,411.176a1,1,0,0,0-1-1,1,1,0,0,0-1,1v1a1,1,0,0,0,1,1,1,1,0,0,0,1-1Z" fill="#fff"/>
  </g>
</svg>
