<svg xmlns="http://www.w3.org/2000/svg" width="98.824" height="62.5" viewBox="0 0 98.824 62.5">
  <g id="Group_405" data-name="Group 405" transform="translate(1297 -52.868)">
    <path id="Path_4185" data-name="Path 4185" d="M-1265.208,105.993a3.125,3.125,0,0,0,3.125,3.125,3.124,3.124,0,0,0,3.125-3.125,3.124,3.124,0,0,0-3.125-3.125A3.124,3.124,0,0,0-1265.208,105.993Z"/>
    <path id="Path_4186" data-name="Path 4186" d="M-1220.051,105.993a3.124,3.124,0,0,0,3.125,3.125,3.125,3.125,0,0,0,3.125-3.125,3.124,3.124,0,0,0-3.125-3.125A3.124,3.124,0,0,0-1220.051,105.993Z"/>
    <path id="Path_4187" data-name="Path 4187" d="M-1207.551,88.805a1.564,1.564,0,0,0-1.563-1.562,1.563,1.563,0,0,0-1.562,1.562,1.563,1.563,0,0,0,1.562,1.563A1.564,1.564,0,0,0-1207.551,88.805Z"/>
    <path id="Path_4188" data-name="Path 4188" d="M-1198.176,92.15a7.792,7.792,0,0,0-3.48-6.5l-5.7-3.8a1.565,1.565,0,0,1-.616-.806l-5.2-15.6a4.682,4.682,0,0,0-4.448-3.2h-12.747V57.555a4.692,4.692,0,0,0-4.687-4.687h-38.438a4.692,4.692,0,0,0-4.687,4.687v43.75a4.692,4.692,0,0,0,4.687,4.688h2.031a9.386,9.386,0,0,0,9.375,9.375,9.385,9.385,0,0,0,9.375-9.375h26.407a9.386,9.386,0,0,0,9.375,9.375,9.386,9.386,0,0,0,9.375-9.375h4.687a4.693,4.693,0,0,0,4.688-4.688Zm-25,13.843a6.259,6.259,0,0,1,6.25-6.25,6.26,6.26,0,0,1,6.25,6.25,6.257,6.257,0,0,1-6.25,6.25A6.257,6.257,0,0,1-1223.176,105.993Zm-45.157,0a6.259,6.259,0,0,1,6.25-6.25,6.259,6.259,0,0,1,6.25,6.25,6.257,6.257,0,0,1-6.25,6.25A6.257,6.257,0,0,1-1268.333,105.993Zm34.844-3.125h-19.755a9.4,9.4,0,0,0-8.839-6.25,9.408,9.408,0,0,0-8.838,6.25h-2.568a1.564,1.564,0,0,1-1.562-1.563V57.555a1.563,1.563,0,0,1,1.562-1.562h38.438a1.563,1.563,0,0,1,1.562,1.562Zm22.207-21.875h-12.832V73.18h10.228Zm9.981,11.157v4.468h-4.688a1.562,1.562,0,0,0-1.562,1.562,1.562,1.562,0,0,0,1.562,1.563h4.688v1.562a1.565,1.565,0,0,1-1.563,1.563h-5.223a9.407,9.407,0,0,0-8.839-6.25,9.409,9.409,0,0,0-8.839,6.25h-4.6v-37.5h12.747a1.561,1.561,0,0,1,1.483,1.068l1.206,3.619h-10.748a1.563,1.563,0,0,0-1.563,1.563V82.555a1.563,1.563,0,0,0,1.563,1.563h16.151a4.633,4.633,0,0,0,.44.335l5.7,3.8A4.677,4.677,0,0,1-1201.3,92.15Z"/>
    <path id="Path_4189" data-name="Path 4189" d="M-1238.645,85.68a1.562,1.562,0,0,0-1.563-1.562h-1.562a12.521,12.521,0,0,0-8.394-11.8,4.655,4.655,0,0,0,.581-2.258,4.692,4.692,0,0,0-4.687-4.687,4.692,4.692,0,0,0-4.688,4.687,4.661,4.661,0,0,0,.578,2.253,12.5,12.5,0,0,0-8.39,11.81h-1.563a1.562,1.562,0,0,0-1.562,1.562,1.562,1.562,0,0,0,1.562,1.563h28.125A1.563,1.563,0,0,0-1238.645,85.68Zm-15.625-14.062a1.565,1.565,0,0,1-1.563-1.563,1.564,1.564,0,0,1,1.563-1.562,1.563,1.563,0,0,1,1.562,1.562A1.564,1.564,0,0,1-1254.27,71.618Zm9.375,12.5h-18.75a9.37,9.37,0,0,1,9.375-9.375A9.385,9.385,0,0,1-1244.9,84.118Z"/>
    <path id="Path_4190" data-name="Path 4190" d="M-1213.8,88.805a1.562,1.562,0,0,0-1.563-1.562h-10.312a1.562,1.562,0,0,0-1.563,1.562,1.563,1.563,0,0,0,1.563,1.563h10.312A1.563,1.563,0,0,0-1213.8,88.805Z"/>
    <line id="Line_8" data-name="Line 8" x2="11" transform="translate(-1287.5 72.5)" fill="none" stroke="#000" stroke-linecap="round" stroke-miterlimit="10" stroke-width="3"/>
    <line id="Line_9" data-name="Line 9" x2="19" transform="translate(-1295.5 80.5)" fill="none" stroke="#000" stroke-linecap="round" stroke-miterlimit="10" stroke-width="3"/>
    <line id="Line_10" data-name="Line 10" x2="5" transform="translate(-1281.5 89.5)" fill="none" stroke="#000" stroke-linecap="round" stroke-miterlimit="10" stroke-width="3"/>
  </g>
</svg>
