<svg xmlns="http://www.w3.org/2000/svg" width="65" height="53.706" viewBox="0 0 65 53.706">
  <g id="Group_402" data-name="Group 402" transform="translate(1257.824 -184.337)">
    <g id="Group_402-2" data-name="Group 402">
      <path id="Path_4159" data-name="Path 4159" d="M-1194.731,224.5h-4.25v-16.33a4.682,4.682,0,0,0,3.745-4.581,4.679,4.679,0,0,0-4.673-4.674h-4.815a.952.952,0,0,0-.952.952.953.953,0,0,0,.952.953h4.815a2.772,2.772,0,0,1,2.769,2.769,2.772,2.772,0,0,1-2.769,2.769h-8.838a4.459,4.459,0,0,0-4.453,4.453v7.068a2.6,2.6,0,0,1-2.593,2.593,2.6,2.6,0,0,1-2.593-2.593v-7.068a4.458,4.458,0,0,0-4.453-4.453,4.458,4.458,0,0,0-4.452,4.453v2.845a2.351,2.351,0,0,1-2.349,2.348,2.351,2.351,0,0,1-2.349-2.348v-2.845a4.458,4.458,0,0,0-4.452-4.453h-14.3a2.772,2.772,0,0,1-2.769-2.769,2.772,2.772,0,0,1,2.769-2.769h41.631a.953.953,0,0,0,.952-.953.952.952,0,0,0-.952-.952h-4.856l0,0c2.908-2.908,3.935-7.4,2.749-12.026a2.2,2.2,0,0,0-1.584-1.584c-4.622-1.189-9.118-.162-12.027,2.747a10.722,10.722,0,0,0-2,2.766,7.9,7.9,0,0,0-5.186-1.936,7.935,7.935,0,0,0-1.48.14,9.013,9.013,0,0,0-3.667-4.545.953.953,0,0,0-1.31.313.952.952,0,0,0,.313,1.309,7.115,7.115,0,0,1,2.836,3.509,7.93,7.93,0,0,0-4.612,7.193,7.9,7.9,0,0,0,.288,2.117h-11.1a4.679,4.679,0,0,0-4.673,4.674,4.682,4.682,0,0,0,3.745,4.581V224.5h-4.25a1.91,1.91,0,0,0-1.908,1.908v2.568a4.141,4.141,0,0,0,4.137,4.137h1.111v2.6a2.327,2.327,0,0,0,2.324,2.324h49.856a2.326,2.326,0,0,0,2.324-2.324v-2.6h1.111a4.141,4.141,0,0,0,4.137-4.137v-2.568A1.909,1.909,0,0,0-1194.731,224.5Zm-28.744-35.1c2.465-2.464,6.185-3.284,10.207-2.25a.3.3,0,0,1,.213.213c1.033,4.023.212,7.743-2.251,10.206a8.686,8.686,0,0,1-1.721,1.336l-.021.014h-6.43l2.042-2.042a8.874,8.874,0,0,0,2.122.258,9.007,9.007,0,0,0,.995-.055.951.951,0,0,0,.842-1.05.952.952,0,0,0-1.05-.843,7.132,7.132,0,0,1-1.247.028l1.02-1.02a8.88,8.88,0,0,0,2.122.258,9.012,9.012,0,0,0,1-.055.953.953,0,0,0,.842-1.051.952.952,0,0,0-1.05-.842,7.146,7.146,0,0,1-1.248.028l1.3-1.3a.951.951,0,0,0,0-1.346.951.951,0,0,0-1.346,0l-1.3,1.3a7.131,7.131,0,0,1,.028-1.247.953.953,0,0,0-.843-1.051.953.953,0,0,0-1.05.843,8.911,8.911,0,0,0,.2,3.116l-1.021,1.021a7.038,7.038,0,0,1,.027-1.247.951.951,0,0,0-.842-1.05.953.953,0,0,0-1.051.842,8.908,8.908,0,0,0,.2,3.116l-3.149,3.149A10.143,10.143,0,0,1-1223.475,189.4Zm-14.547,7.4a6.022,6.022,0,0,1,3.246-5.337,8.79,8.79,0,0,1,.164,1.4.952.952,0,0,0,.952.95.952.952,0,0,0,.952-.952,10.557,10.557,0,0,0-.239-2,5.965,5.965,0,0,1,.941-.074,6.005,6.005,0,0,1,4.433,1.952,13.475,13.475,0,0,0-.249,6.18h-9.817A5.979,5.979,0,0,1-1238.022,196.8Zm29.275,11.465h7.862v3.8h-10.41v-1.248A2.551,2.551,0,0,1-1208.747,208.267Zm-14.092,0a2.551,2.551,0,0,1,2.549,2.548v1.248h-5.1v-1.248A2.551,2.551,0,0,1-1222.839,208.267Zm-11.054,2.548v1.248h-15.869v-3.8h13.321A2.551,2.551,0,0,1-1233.893,210.815Zm39.165,18.165a2.235,2.235,0,0,1-2.233,2.233h-9.921a.952.952,0,0,0-.952.952.952.952,0,0,0,.952.952h6.906v2.6a.42.42,0,0,1-.42.42h-49.856a.42.42,0,0,1-.419-.42v-2.6h39.406a.952.952,0,0,0,.952-.952.952.952,0,0,0-.952-.952h-42.422a2.235,2.235,0,0,1-2.232-2.233l0-2.572h24.085a.952.952,0,0,0,.952-.952.952.952,0,0,0-.952-.952h-17.931V213.967h15.881a4.259,4.259,0,0,0,4.241,3.946,4.259,4.259,0,0,0,4.241-3.946h5.109v3.916a4.5,4.5,0,0,0,4.5,4.5,4.5,4.5,0,0,0,4.5-4.5v-3.916h10.41V224.5h-26.564a.952.952,0,0,0-.952.952.952.952,0,0,0,.952.952l32.721,0Z"/>
      <path id="Path_4160" data-name="Path 4160" d="M-1245.967,216.008h-.013a.953.953,0,0,0-.952.953.952.952,0,0,0,.952.952h.013a.953.953,0,0,0,.953-.952A.953.953,0,0,0-1245.967,216.008Z"/>
      <path id="Path_4161" data-name="Path 4161" d="M-1243.142,218.283h-.013a.953.953,0,0,0-.952.953.952.952,0,0,0,.952.952h.013a.952.952,0,0,0,.952-.952A.953.953,0,0,0-1243.142,218.283Z"/>
      <path id="Path_4162" data-name="Path 4162" d="M-1206.027,217.335h.014a.952.952,0,0,0,.952-.952.952.952,0,0,0-.952-.952h-.014a.952.952,0,0,0-.952.952A.952.952,0,0,0-1206.027,217.335Z"/>
    </g>
  </g>
</svg>
