<svg xmlns="http://www.w3.org/2000/svg" width="65" height="52" viewBox="0 0 65 52">
  <defs>
    <style>
      .cls-1 {
        fill: #fff;
      }
    </style>
  </defs>
  <g id="Group_408" data-name="Group 408" transform="translate(601.029 -347.027)">
    <g id="Group_401" data-name="Group 401" transform="translate(-589.016 350.441)">
      <g id="Group_400" data-name="Group 400">
        <path id="Path_4155" data-name="Path 4155" class="cls-1" d="M-567.49,350.441a21.451,21.451,0,0,0-21.526,21.375,21.452,21.452,0,0,0,21.526,21.376,21.452,21.452,0,0,0,21.527-21.376,21.451,21.451,0,0,0-21.527-21.375Zm0,37.6a16.276,16.276,0,0,1-16.334-16.219A16.276,16.276,0,0,1-567.492,355.6a16.278,16.278,0,0,1,16.335,16.219h0a16.3,16.3,0,0,1-16.334,16.22Z" transform="translate(589.016 -350.441)"/>
      </g>
    </g>
    <g id="Group_403" data-name="Group 403" transform="translate(-579.445 359.874)">
      <g id="Group_402" data-name="Group 402">
        <path id="Path_4156" data-name="Path 4156" class="cls-1" d="M-567.49,360.012a11.955,11.955,0,0,0-11.955,11.956,11.955,11.955,0,0,0,11.955,11.956,11.956,11.956,0,0,0,11.956-11.956A11.969,11.969,0,0,0-567.49,360.012Z" transform="translate(579.445 -360.012)"/>
      </g>
    </g>
    <g id="Group_405" data-name="Group 405" transform="translate(-543.472 347.027)">
      <g id="Group_404" data-name="Group 404">
        <path id="Path_4157" data-name="Path 4157" class="cls-1" d="M-537.386,373.617V347.61a.588.588,0,0,0-.592-.583.591.591,0,0,0-.464.229,24.525,24.525,0,0,0-5.03,14.874v9.514a1.982,1.982,0,0,0,1.987,1.977h.829c-.817,8.386-1.356,20.116-1.356,21.49,0,2.162,1.339,3.917,2.991,3.917s2.992-1.758,2.992-3.917C-536.029,393.735-536.572,382-537.386,373.617Z" transform="translate(543.472 -347.027)"/>
      </g>
    </g>
    <g id="Group_407" data-name="Group 407" transform="translate(-601.029 349.365)">
      <g id="Group_406" data-name="Group 406">
        <path id="Path_4158" data-name="Path 4158" class="cls-1" d="M-592.344,368.47a5.68,5.68,0,0,0,2.762-4.869l-.819-13.326a.967.967,0,0,0-1.021-.909.967.967,0,0,0-.914,1.016l.536,10.687a1.091,1.091,0,0,1-1.127,1.055,1.091,1.091,0,0,1-1.061-1.055l-.266-10.686a1.046,1.046,0,0,0-1.08-1.009,1.045,1.045,0,0,0-1.015,1.009l-.27,10.686a1.091,1.091,0,0,1-1.127,1.055,1.091,1.091,0,0,1-1.061-1.055l.533-10.689a.966.966,0,0,0-.949-.984.967.967,0,0,0-.985.879l-.821,13.326a5.68,5.68,0,0,0,2.762,4.869,3.211,3.211,0,0,1,1.539,3.106c-.934,8.373-1.57,22.043-1.57,23.533,0,2.162,1.339,3.916,2.991,3.916s2.992-1.757,2.992-3.916c0-1.49-.635-15.16-1.571-23.533A3.214,3.214,0,0,1-592.344,368.47Z" transform="translate(601.029 -349.365)"/>
      </g>
    </g>
  </g>
</svg>
