<svg xmlns="http://www.w3.org/2000/svg" width="16.078" height="12.633" viewBox="0 0 16.078 12.633">
  <g id="mail_4_" data-name="mail (4)" transform="translate(0 -59.013)" opacity="0.8">
    <g id="Group_356" data-name="Group 356" transform="translate(0 59.013)">
      <path id="Path_4076" data-name="Path 4076" d="M31.094,328.437a1.374,1.374,0,0,0,.941-.355l-4.555-4.555-.315.227q-.511.377-.83.588a5.112,5.112,0,0,1-.848.431,2.585,2.585,0,0,1-.987.22h-.018a2.584,2.584,0,0,1-.987-.22,5.1,5.1,0,0,1-.848-.431q-.319-.211-.83-.588l-.314-.228-4.556,4.557a1.375,1.375,0,0,0,.941.355Z" transform="translate(-16.451 -315.804)" fill="#fff"/>
      <path id="Path_4077" data-name="Path 4077" d="M.906,199.336A4.756,4.756,0,0,1,0,198.555v6.931l4.015-4.015Q2.81,200.63.906,199.336Z" transform="translate(0 -194.482)" fill="#fff"/>
      <path id="Path_4078" data-name="Path 4078" d="M416.425,199.336q-1.833,1.241-3.116,2.137l4.013,4.014v-6.931A4.951,4.951,0,0,1,416.425,199.336Z" transform="translate(-401.244 -194.482)" fill="#fff"/>
      <path id="Path_4079" data-name="Path 4079" d="M14.648,59.013H1.441a1.281,1.281,0,0,0-1.063.466,1.81,1.81,0,0,0-.372,1.166A2.1,2.1,0,0,0,.5,61.871a4.451,4.451,0,0,0,1.05,1.036q.3.215,1.839,1.279c.552.383,1.032.716,1.445,1l.906.633.134.1.247.178q.292.211.484.341t.467.292a2.721,2.721,0,0,0,.516.242,1.427,1.427,0,0,0,.449.081h.018a1.428,1.428,0,0,0,.449-.081,2.715,2.715,0,0,0,.516-.242q.274-.162.467-.292T9.97,66.1l.247-.178.134-.1.908-.631,3.291-2.285a4.268,4.268,0,0,0,1.095-1.1,2.374,2.374,0,0,0,.439-1.355,1.447,1.447,0,0,0-1.436-1.436Z" transform="translate(-0.006 -59.013)" fill="#fff"/>
    </g>
  </g>
</svg>
