<svg xmlns="http://www.w3.org/2000/svg" width="80.291" height="60" viewBox="0 0 80.291 60">
  <g id="Group_380" data-name="Group 380" transform="translate(500.675 -374.486)">
    <g id="Group_379" data-name="Group 379">
      <path id="Path_4094" data-name="Path 4094" d="M-421.484,374.6a1.7,1.7,0,0,0-1.875.469,30.492,30.492,0,0,0-6.7,17.516c-.269,6.493-.263,10.6,2.072,12.911a6.376,6.376,0,0,0,4.211,1.707v25.59a1.7,1.7,0,0,0,1.7,1.7,1.7,1.7,0,0,0,1.7-1.7v-56.6A1.7,1.7,0,0,0-421.484,374.6Zm-2.3,29.193a3.021,3.021,0,0,1-1.823-.712c-1.33-1.316-1.276-5.293-1.066-10.356a26.5,26.5,0,0,1,2.889-10.747Z" fill="#fff"/>
      <path id="Path_4095" data-name="Path 4095" d="M-459.812,377.484a27,27,0,0,0-27,27,27,27,0,0,0,27,27,27,27,0,0,0,27-27A27.032,27.032,0,0,0-459.812,377.484Zm0,50.608a23.606,23.606,0,0,1-23.606-23.606,23.606,23.606,0,0,1,23.606-23.606,23.606,23.606,0,0,1,23.606,23.606h0a23.632,23.632,0,0,1-23.606,23.605Z" fill="#fff"/>
      <path id="Path_4096" data-name="Path 4096" d="M-459.812,385.368a19.118,19.118,0,0,0-19.118,19.117A19.117,19.117,0,0,0-459.813,423.6a19.117,19.117,0,0,0,19.119-19.117h0A19.139,19.139,0,0,0-459.812,385.368Zm0,34.84a15.722,15.722,0,0,1-15.722-15.722,15.721,15.721,0,0,1,15.721-15.722,15.723,15.723,0,0,1,15.723,15.721h0a15.74,15.74,0,0,1-15.722,15.722Z" fill="#fff"/>
      <path id="Path_4097" data-name="Path 4097" d="M-488.877,374.908a1.7,1.7,0,0,0-1.7,1.7h0v8.033h-1.655v-8.033a1.7,1.7,0,0,0-1.7-1.7,1.7,1.7,0,0,0-1.7,1.7h0v8.033h-1.653v-8.033a1.7,1.7,0,0,0-1.7-1.7,1.7,1.7,0,0,0-1.7,1.7h0v9.73c0,5.923,2.079,10.611,5.05,11.912v34.117a1.7,1.7,0,0,0,1.7,1.7,1.7,1.7,0,0,0,1.7-1.7V398.249c2.971-1.3,5.05-5.989,5.05-11.911v-9.732a1.7,1.7,0,0,0-1.7-1.7Zm-5.05,20.307c-1.187,0-2.915-2.8-3.283-7.18h6.564c-.366,4.376-2.094,7.179-3.281,7.179Z" fill="#fff"/>
    </g>
  </g>
</svg>
