<svg xmlns="http://www.w3.org/2000/svg" width="65" height="53.764" viewBox="0 0 65 53.764">
  <g id="Group_410" data-name="Group 410" transform="translate(600.029 -345.088)">
    <g id="Group_401" data-name="Group 401">
      <g id="Group_400" data-name="Group 400">
        <path id="Path_4155" data-name="Path 4155" d="M-551.925,356.1a7.076,7.076,0,0,0,.784-7.207,13.079,13.079,0,0,0-1.952-3.414,1.074,1.074,0,0,0-1.514-.136,1.075,1.075,0,0,0-.137,1.514c.053.064,3.736,4.59,1.127,7.916-3.758,4.791.249,11.109.421,11.375a1.074,1.074,0,0,0,1.486.319,1.073,1.073,0,0,0,.319-1.486h0C-551.424,364.925-554.733,359.675-551.925,356.1Z"/>
      </g>
    </g>
    <g id="Group_403" data-name="Group 403">
      <g id="Group_402" data-name="Group 402">
        <path id="Path_4156" data-name="Path 4156" d="M-544.71,356.1a7.076,7.076,0,0,0,.784-7.207,13.053,13.053,0,0,0-1.953-3.414,1.075,1.075,0,0,0-1.515-.123,1.077,1.077,0,0,0-.135,1.5c.038.045,3.741,4.583,1.127,7.916-3.759,4.791.249,11.109.421,11.375a1.074,1.074,0,0,0,1.486.319,1.073,1.073,0,0,0,.319-1.486h0C-544.208,364.925-547.518,359.675-544.71,356.1Z"/>
      </g>
    </g>
    <g id="Group_405" data-name="Group 405">
      <g id="Group_404" data-name="Group 404">
        <path id="Path_4157" data-name="Path 4157" d="M-589.847,356.594a7.08,7.08,0,0,0,.785-7.208,13.064,13.064,0,0,0-1.953-3.413,1.074,1.074,0,0,0-1.515-.123,1.075,1.075,0,0,0-.135,1.5c.038.046,3.741,4.584,1.127,7.917-3.758,4.79.248,11.108.421,11.375a1.075,1.075,0,0,0,1.486.319,1.077,1.077,0,0,0,.319-1.487C-589.345,365.423-592.655,360.172-589.847,356.594Z"/>
      </g>
    </g>
    <g id="Group_407" data-name="Group 407">
      <g id="Group_406" data-name="Group 406">
        <path id="Path_4158" data-name="Path 4158" d="M-582.631,356.594a7.078,7.078,0,0,0,.784-7.208,13.09,13.09,0,0,0-1.952-3.413,1.074,1.074,0,0,0-1.515-.123,1.075,1.075,0,0,0-.136,1.5c.038.046,3.742,4.584,1.127,7.917-3.758,4.79.248,11.108.421,11.375a1.075,1.075,0,0,0,1.475.367,1.074,1.074,0,0,0,.367-1.475c-.012-.02-.025-.04-.038-.06C-582.13,365.423-585.44,360.172-582.631,356.594Z"/>
      </g>
    </g>
    <g id="Group_409" data-name="Group 409">
      <g id="Group_408" data-name="Group 408">
        <path id="Path_4159" data-name="Path 4159" d="M-538.6,390.369h-2.28a26.665,26.665,0,0,0-24.282-25.447v-1.1a4.5,4.5,0,0,0,1.537-6.171,4.5,4.5,0,0,0-3.858-2.18h-.1a4.5,4.5,0,0,0-4.5,4.491,4.5,4.5,0,0,0,2.18,3.86v1.1a26.664,26.664,0,0,0-24.282,25.447h-2.28a3.572,3.572,0,0,0-3.567,3.568v1.344a3.574,3.574,0,0,0,3.567,3.571H-538.6a3.574,3.574,0,0,0,3.568-3.571v-1.344A3.574,3.574,0,0,0-538.6,390.369Zm-31.332-30.392a2.353,2.353,0,0,1,2.351-2.351h.1a2.347,2.347,0,0,1,2.351,2.343,2.349,2.349,0,0,1-1.5,2.192,1.073,1.073,0,0,0-.682,1v1.661h-.441v-1.661a1.073,1.073,0,0,0-.682-1A2.337,2.337,0,0,1-569.929,359.977ZM-538.6,396.7h-57.865a1.422,1.422,0,0,1-1.419-1.421v-1.344a1.422,1.422,0,0,1,1.419-1.418h1.767l.029,0h38.6a1.075,1.075,0,0,0,1.075-1.075,1.075,1.075,0,0,0-1.075-1.075h-35.963a24.5,24.5,0,0,1,24.351-23.4h.3a24.5,24.5,0,0,1,24.351,23.4h-6.081a1.075,1.075,0,0,0-1.075,1.075,1.075,1.075,0,0,0,1.075,1.075l8.3,0h2.213a1.419,1.419,0,0,1,1.418,1.418v1.344h0A1.422,1.422,0,0,1-538.6,396.7Z"/>
      </g>
    </g>
  </g>
</svg>
