<svg xmlns="http://www.w3.org/2000/svg" width="80.001" height="80.001" viewBox="0 0 80.001 80.001">
  <g id="outline" transform="translate(-215.658 -215.657)">
    <path id="Path_4191" data-name="Path 4191" d="M255.715,295.658a40.056,40.056,0,1,0-28.471-11.927l.228.228A39.68,39.68,0,0,0,255.715,295.658Zm-26.361-66.3a37.28,37.28,0,1,1,0,52.722A37.281,37.281,0,0,1,229.354,229.354Z"/>
    <path id="Path_4192" data-name="Path 4192" d="M236.924,284.793a34.721,34.721,0,0,0,3.559,2.016l1.173-2.39a32.092,32.092,0,0,1-3.285-1.862Z"/>
    <path id="Path_4193" data-name="Path 4193" d="M255.715,287.669A31.909,31.909,0,0,1,245.49,286l-.852,2.523a34.644,34.644,0,0,0,45.7-32.807H287.67A31.99,31.99,0,0,1,255.715,287.669Z"/>
    <path id="Path_4194" data-name="Path 4194" d="M230.418,279.681h7.989a1.331,1.331,0,0,0,1.331-1.332h4.931a17.2,17.2,0,0,0,9.189,2.663H255.4a3.987,3.987,0,0,0,2.974,1.332H263.7a3.991,3.991,0,0,0,3.478-5.955,3.986,3.986,0,0,0,1.225-5.5,3.907,3.907,0,0,0-.4-.524,3.984,3.984,0,0,0,0-5.326,3.991,3.991,0,0,0-2.974-6.657h-3.994V251.91a4.184,4.184,0,0,0-8.325-.593l-.288,2.014a8.981,8.981,0,0,1-8.889,7.71h-3.8v-1.332a1.331,1.331,0,0,0-1.331-1.331h-7.989a1.331,1.331,0,0,0-1.331,1.331v18.64A1.331,1.331,0,0,0,230.418,279.681ZM266.367,267.7a1.333,1.333,0,0,1-1.332,1.331H259.71a1.331,1.331,0,1,1,0-2.663h5.325A1.334,1.334,0,0,1,266.367,267.7Zm0,5.326a1.333,1.333,0,0,1-1.332,1.331H259.71a1.332,1.332,0,1,1,0-2.663h5.325A1.334,1.334,0,0,1,266.367,273.024Zm-2.663,6.657h-5.326a1.331,1.331,0,0,1,0-2.663H263.7a1.331,1.331,0,0,1,0,2.663Zm2.663-17.309a1.333,1.333,0,0,1-1.332,1.331H259.71a1.331,1.331,0,1,1,0-2.662h5.325A1.333,1.333,0,0,1,266.367,262.372ZM243.539,263.7a11.642,11.642,0,0,0,11.525-10l.289-2.015a1.52,1.52,0,0,1,3.025.217v6.7a3.99,3.99,0,0,0-1.642,6.428,3.984,3.984,0,0,0,0,5.326,3.983,3.983,0,0,0-.505,4.623,3.994,3.994,0,0,0-1.847,3.365h-.526a14.525,14.525,0,0,1-8.055-2.439,1.332,1.332,0,0,0-.739-.224h-5.326V263.7Zm-11.79-2.662h5.326v15.977h-5.326Z"/>
    <path id="Path_4195" data-name="Path 4195" d="M247.459,233.69l3.2,2.327-1.223,3.766a2,2,0,0,0,3.073,2.233l3.2-2.327,3.2,2.327a2,2,0,0,0,3.074-2.233l-1.224-3.766,3.2-2.327a2,2,0,0,0-1.173-3.613h-3.96l-1.223-3.765h0a2,2,0,0,0-3.8,0l-1.224,3.765h-3.959a2,2,0,0,0-1.174,3.613Zm5.617-.95a1.993,1.993,0,0,0,1.9-1.38l.739-2.277.74,2.277a1.992,1.992,0,0,0,1.9,1.38h2.394l-1.938,1.408a1.991,1.991,0,0,0-.725,2.232l.739,2.277-1.936-1.407a1.993,1.993,0,0,0-2.348,0l-1.937,1.407.74-2.277a1.992,1.992,0,0,0-.726-2.232l-1.937-1.408Z"/>
    <path id="Path_4196" data-name="Path 4196" d="M267.191,244.5l3.2,2.327-1.224,3.766a2,2,0,0,0,3.073,2.233l3.2-2.328,3.2,2.327a2,2,0,0,0,3.073-2.232l-1.223-3.766,3.2-2.327a2,2,0,0,0-1.174-3.613h-3.959l-1.224-3.766a2,2,0,0,0-3.8,0l-1.223,3.766h-3.96a2,2,0,0,0-1.174,3.613Zm5.617-.95a1.994,1.994,0,0,0,1.9-1.38l.74-2.277.74,2.277a1.991,1.991,0,0,0,1.9,1.38h2.394l-1.937,1.407a1.992,1.992,0,0,0-.725,2.233l.74,2.277-1.937-1.407a1.993,1.993,0,0,0-2.348,0l-1.937,1.407.739-2.277a1.99,1.99,0,0,0-.725-2.233l-1.937-1.407Z"/>
    <path id="Path_4197" data-name="Path 4197" d="M229.911,245.833l3.2,2.327-1.223,3.766a2,2,0,0,0,3.073,2.233l3.2-2.327,3.2,2.327a2,2,0,0,0,3.074-2.233l-1.224-3.766,3.2-2.327a2,2,0,0,0-1.174-3.613h-3.96l-1.223-3.765a2,2,0,0,0-3.8,0l-1.223,3.765h-3.96a2,2,0,0,0-1.174,3.613Zm5.617-.95a1.993,1.993,0,0,0,1.9-1.38l.739-2.277.74,2.277a1.992,1.992,0,0,0,1.9,1.38H243.2l-1.937,1.407a1.993,1.993,0,0,0-.726,2.233l.74,2.277-1.937-1.407a1.993,1.993,0,0,0-2.348,0l-1.937,1.408.74-2.277a1.992,1.992,0,0,0-.725-2.233l-1.937-1.408Z"/>
  </g>
</svg>
