<svg xmlns="http://www.w3.org/2000/svg" width="79.736" height="61" viewBox="0 0 79.736 61">
  <g id="Group_389" data-name="Group 389" transform="translate(375.865 -387.011)">
    <path id="Path_4144" data-name="Path 4144" d="M-319.584,421.722a5.626,5.626,0,0,0-5.63,5.616,5.632,5.632,0,0,0,5.538,5.617,5.591,5.591,0,0,0,5.7-5.617A5.586,5.586,0,0,0-319.584,421.722Zm-.053,9.37a3.831,3.831,0,0,1-3.714-3.74,3.819,3.819,0,0,1,3.767-3.767,3.779,3.779,0,0,1,3.739,3.78A3.781,3.781,0,0,1-319.637,431.092Z" fill="#fff" stroke="#fff" stroke-width="1"/>
    <path id="Path_4145" data-name="Path 4145" d="M-304.349,445.671a2.971,2.971,0,0,0-.761-.066c-1.8,0-3.6.013-5.394,0-.183-.013-.538.131-.5-.249.065-.578.21-1.155.328-1.732.065-.289.289-.237.485-.223.7.078,1.378.118,2.061.223a1.657,1.657,0,0,0,1.916-.6c.472-.735.078-1.352-.342-1.968q-2.2-3.228-4.383-6.483c-.144-.21-.42-.381-.1-.709a3.1,3.1,0,0,0,.722-2.3,3.3,3.3,0,0,1,.709-2.2,3.007,3.007,0,0,0-.013-4.068,3.408,3.408,0,0,1-.709-2.139,2.982,2.982,0,0,0-2.375-3.307,3.566,3.566,0,0,1-1.877-1.364,2.934,2.934,0,0,0-3.805-1.247,3.7,3.7,0,0,1-2.323.026c-1.824-.577-2.808-.262-3.924,1.286a3.45,3.45,0,0,1-1.758,1.286,2.978,2.978,0,0,0-2.454,3.32,3.537,3.537,0,0,1-.7,2.139,3,3,0,0,0-.014,4.081,3.44,3.44,0,0,1,.709,2.2,2.95,2.95,0,0,0,.551,2.047c.368.446.236.709-.026,1.1-1.509,2.191-2.992,4.409-4.488,6.613a1.384,1.384,0,0,0-.131,1.706,1.538,1.538,0,0,0,1.614.63c.761-.1,1.522-.17,2.283-.275.381-.04.525.065.6.472.354,1.732.367,1.732-1.417,1.732q-11.4,0-22.768.013c-.578,0-.775-.105-.748-.735.065-1.391.013-2.768.026-4.159,0-.644-.184-1.116-.9-1.182-.617-.039-.971.407-.971,1.208,0,1.43-.014,2.874.013,4.3.013.433-.079.564-.525.564-2.638-.026-5.289-.013-7.926,0-.42,0-.5-.144-.486-.538.026-1.246.013-2.506.013-3.766,0-5.564-.079-11.128.04-16.679a11.291,11.291,0,0,1,10.235-11.259c1.575-.21,3.176-.052,5-.131a14.733,14.733,0,0,1-2.638-1.654.825.825,0,0,0-.577-.183,13.341,13.341,0,0,0-7.152,1.719,12.975,12.975,0,0,0-6.745,11.666c-.092,6.456-.026,12.912-.026,19.369,0,1.338,0,1.338-1.326,1.443a.165.165,0,0,0-.078.013.9.9,0,0,0-.919.932.883.883,0,0,0,.892.945,3.766,3.766,0,0,0,.538.013h61.769a2.958,2.958,0,0,0,.761-.053.846.846,0,0,0,.7-.892A.836.836,0,0,0-304.349,445.671Zm-23.739-17.453a1.253,1.253,0,0,1-.013-1.746,4.875,4.875,0,0,0,1.128-3.49,1.158,1.158,0,0,1,.945-1.3,4.873,4.873,0,0,0,3.019-2.205,1.131,1.131,0,0,1,1.509-.512,4.905,4.905,0,0,0,3.8.013,1.121,1.121,0,0,1,1.522.5,4.87,4.87,0,0,0,3.019,2.205,1.149,1.149,0,0,1,.958,1.286A5.052,5.052,0,0,0-311,426.59a1.366,1.366,0,0,1,.288.748,1.663,1.663,0,0,1-.367.867,4.8,4.8,0,0,0-1.1,3.411,1.251,1.251,0,0,1-1.037,1.4,4.753,4.753,0,0,0-2.9,2.112,1.242,1.242,0,0,1-1.706.538,4.456,4.456,0,0,0-3.5,0,1.252,1.252,0,0,1-1.719-.525,4.7,4.7,0,0,0-2.9-2.112,1.243,1.243,0,0,1-1.024-1.4A4.771,4.771,0,0,0-328.088,428.218Zm1.326,14.487a1.424,1.424,0,0,0-1.707-1.247c-.734.079-1.469.158-2.322.263.512-.788.984-1.483,1.443-2.165.945-1.4,1.916-2.782,2.835-4.2a.537.537,0,0,1,.853-.21,3.31,3.31,0,0,1,1.023,1.024,3.127,3.127,0,0,0,3.255,1.483c-1.693,2.467-3.268,4.763-4.948,7.217C-326.5,444.03-326.631,443.361-326.762,442.7Zm2.2,2.9c1.693-2.48,3.307-4.816,4.974-7.244,1.653,2.415,3.267,4.764,4.96,7.244Zm12.112-2.834-.354,1.889c0,.013-.039.027-.131.079-1.575-2.31-3.163-4.606-4.856-7.073a3.188,3.188,0,0,0,3.307-1.588c.118-.157.25-.328.381-.472.735-.788,1.063-.775,1.666.105q1.793,2.656,3.609,5.341c.131.183.236.38.407.656-.8-.092-1.509-.158-2.205-.237A1.47,1.47,0,0,0-312.446,442.771Z" fill="#fff" stroke="#fff" stroke-width="1"/>
    <path id="Path_4146" data-name="Path 4146" d="M-342.549,387.511a12.656,12.656,0,0,0-12.676,12.7A12.687,12.687,0,0,0-342.654,412.8a12.694,12.694,0,0,0,12.768-12.7A12.7,12.7,0,0,0-342.549,387.511Zm-.039,23.424a10.826,10.826,0,0,1-10.761-10.76A10.789,10.789,0,0,1-342.536,389.4,10.713,10.713,0,0,1-331.8,400.135,10.772,10.772,0,0,1-342.588,410.935Z" fill="#fff" stroke="#fff" stroke-width="1"/>
    <path id="Path_4147" data-name="Path 4147" d="M-347.7,425.323c.226-1.207.5-2.716.791-4.221.392-2.035.813-4.064,1.179-6.1.087-.48.2-.7.719-.53a2.032,2.032,0,0,0,.609.077c.551.007.643.263.542.774-.648,3.261-1.254,6.531-1.909,9.791a1.5,1.5,0,0,0,.448,1.522c.736.714,1.471,1.431,2.16,2.189.47.518.816.451,1.255-.029.64-.7,1.307-1.376,2-2.018a1.586,1.586,0,0,0,.509-1.714c-.763-3.157-1.472-6.326-2.234-9.483-.154-.635-.231-1.078.651-.982a2.193,2.193,0,0,0,.6-.1c.312-.057.457.067.529.384.8,3.464,1.622,6.922,2.394,10.391a2.652,2.652,0,0,1-.8,2.461q-1.3,1.359-2.654,2.674a2.309,2.309,0,0,1-3.315-.016c-.9-.875-1.78-1.772-2.651-2.677A3.1,3.1,0,0,1-347.7,425.323Z" fill="#fff" stroke="#fff" stroke-width="1"/>
    <path id="Path_4148" data-name="Path 4148" d="M-323.141,415.169a2.328,2.328,0,0,0-.661.26c-.876.8-1.547.354-2.348-.213a10.979,10.979,0,0,0-6.276-1.939c-1.193-.022-2.387,0-3.813,0a22.745,22.745,0,0,0,2.729-1.752.768.768,0,0,1,.43-.108A13.585,13.585,0,0,1-323.141,415.169Z" fill="#fff" stroke="#fff" stroke-width="1"/>
    <path id="Path_4149" data-name="Path 4149" d="M-370.95,447.509c-1.1,0-1.629-.309-1.623-.958s.515-.944,1.636-.944c1.141,0,1.631.272,1.656.92C-369.254,447.2-369.774,447.507-370.95,447.509Z" fill="#fff" stroke="#fff" stroke-width="1"/>
    <path id="Path_4150" data-name="Path 4150" d="M-301.09,447.51c-1.122,0-1.629-.3-1.629-.953s.516-.953,1.63-.951c1.163,0,1.7.322,1.666.991C-299.456,447.239-299.955,447.512-301.09,447.51Z" fill="#fff" stroke="#fff" stroke-width="1"/>
    <path id="Path_4151" data-name="Path 4151" d="M-373.506,446.523a.9.9,0,0,1-.911.958.869.869,0,0,1-.947-.9.865.865,0,0,1,.9-.944A.9.9,0,0,1-373.506,446.523Z" fill="#fff" stroke="#fff" stroke-width="1"/>
    <path id="Path_4152" data-name="Path 4152" d="M-298.487,446.538a.9.9,0,0,1,.946-.9.868.868,0,0,1,.912.935.87.87,0,0,1-.937.91A.9.9,0,0,1-298.487,446.538Z" fill="#fff" stroke="#fff" stroke-width="1"/>
    <path id="Path_4153" data-name="Path 4153" d="M-319.584,421.722a5.626,5.626,0,0,0-5.63,5.616,5.632,5.632,0,0,0,5.538,5.617,5.591,5.591,0,0,0,5.7-5.617A5.586,5.586,0,0,0-319.584,421.722Zm-.053,9.37a3.831,3.831,0,0,1-3.714-3.74,3.819,3.819,0,0,1,3.767-3.767,3.779,3.779,0,0,1,3.739,3.78A3.781,3.781,0,0,1-319.637,431.092Z" fill="#fff" stroke="#fff" stroke-width="1"/>
    <path id="Path_4154" data-name="Path 4154" d="M-319.584,421.722a5.626,5.626,0,0,0-5.63,5.616,5.632,5.632,0,0,0,5.538,5.617,5.591,5.591,0,0,0,5.7-5.617A5.586,5.586,0,0,0-319.584,421.722Zm-.053,9.37a3.831,3.831,0,0,1-3.714-3.74,3.819,3.819,0,0,1,3.767-3.767,3.779,3.779,0,0,1,3.739,3.78A3.781,3.781,0,0,1-319.637,431.092Z" fill="#fff" stroke="#fff" stroke-width="1"/>
  </g>
</svg>
