<svg xmlns="http://www.w3.org/2000/svg" width="45" height="39.375" viewBox="0 0 45 39.375">
  <path id="Path_25" data-name="Path 25" d="M-525.009,4673.279a4.076,4.076,0,0,1,1.231,2.989v21.093a13.763,13.763,0,0,1-1.89,7.032,13.975,13.975,0,0,1-5.142,5.141,13.766,13.766,0,0,1-7.031,1.89h-.7a2.037,2.037,0,0,1-1.494-.615,2.036,2.036,0,0,1-.615-1.5V4705.1a2.032,2.032,0,0,1,.615-1.494,2.033,2.033,0,0,1,1.494-.616h.7a5.4,5.4,0,0,0,3.955-1.67,5.4,5.4,0,0,0,1.67-3.955v-5.625h-7.031a4.06,4.06,0,0,1-2.988-1.23,4.06,4.06,0,0,1-1.231-2.988v-11.25a4.068,4.068,0,0,1,1.231-2.989,4.065,4.065,0,0,1,2.988-1.23H-528A4.072,4.072,0,0,1-525.009,4673.279Zm25.313,0a4.078,4.078,0,0,1,1.23,2.989v21.093a13.754,13.754,0,0,1-1.89,7.032,13.965,13.965,0,0,1-5.141,5.141,13.771,13.771,0,0,1-7.031,1.89h-.7a2.039,2.039,0,0,1-1.494-.615,2.04,2.04,0,0,1-.615-1.5V4705.1a2.036,2.036,0,0,1,.615-1.494,2.035,2.035,0,0,1,1.494-.616h.7a5.4,5.4,0,0,0,3.955-1.67,5.405,5.405,0,0,0,1.67-3.955v-5.625h-7.032a4.063,4.063,0,0,1-2.988-1.23,4.063,4.063,0,0,1-1.23-2.988v-11.25a4.07,4.07,0,0,1,1.23-2.989,4.068,4.068,0,0,1,2.988-1.23h11.25A4.074,4.074,0,0,1-499.7,4673.279Z" transform="translate(543.466 -4672.049)" fill="#fff"/>
</svg>
