<svg xmlns="http://www.w3.org/2000/svg" width="80" height="80.153" viewBox="0 0 80 80.153">
  <g id="Group_404" data-name="Group 404" transform="translate(1222.271 -136.453)">
    <path id="Path_4169" data-name="Path 4169" d="M-1179.935,199.092a5.83,5.83,0,0,0-5.828-5.83,5.829,5.829,0,0,0-5.829,5.828,5.827,5.827,0,0,0,5.827,5.829h0A5.835,5.835,0,0,0-1179.935,199.092Zm-9.309,0a3.48,3.48,0,0,1,3.48-3.48,3.48,3.48,0,0,1,3.48,3.48,3.48,3.48,0,0,1-3.48,3.48,3.485,3.485,0,0,1-3.478-3.48Z"/>
    <path id="Path_4170" data-name="Path 4170" d="M-1200.273,185.884a5.828,5.828,0,0,0-5.828,5.829,5.828,5.828,0,0,0,5.828,5.828,5.828,5.828,0,0,0,5.829-5.828h0A5.834,5.834,0,0,0-1200.273,185.884Zm0,9.308a3.48,3.48,0,0,1-3.479-3.48,3.48,3.48,0,0,1,3.479-3.48,3.48,3.48,0,0,1,3.48,3.48A3.485,3.485,0,0,1-1200.273,195.192Z"/>
    <path id="Path_4171" data-name="Path 4171" d="M-1196.443,161.912a5.828,5.828,0,0,0-5.83,5.827,5.83,5.83,0,0,0,5.828,5.83,5.828,5.828,0,0,0,5.829-5.828h0A5.833,5.833,0,0,0-1196.443,161.912Zm0,9.308a3.48,3.48,0,0,1-3.48-3.48,3.48,3.48,0,0,1,3.48-3.48,3.48,3.48,0,0,1,3.479,3.48h0a3.483,3.483,0,0,1-3.479,3.481Z"/>
    <path id="Path_4172" data-name="Path 4172" d="M-1180.84,151.97a5.829,5.829,0,0,0-5.827-5.83,5.83,5.83,0,0,0-5.83,5.828,5.828,5.828,0,0,0,5.826,5.829A5.835,5.835,0,0,0-1180.84,151.97Zm-9.308,0a3.48,3.48,0,0,1,3.48-3.48,3.48,3.48,0,0,1,3.48,3.48,3.48,3.48,0,0,1-3.48,3.48h0a3.484,3.484,0,0,1-3.483-3.48Z"/>
    <path id="Path_4173" data-name="Path 4173" d="M-1160.4,157.73a3.5,3.5,0,0,0-3.5-3.5,3.5,3.5,0,0,0-3.5,3.5,3.5,3.5,0,0,0,3.5,3.5A3.5,3.5,0,0,0-1160.4,157.73Zm-4.654,0a1.152,1.152,0,0,1,1.152-1.154,1.152,1.152,0,0,1,1.154,1.152,1.152,1.152,0,0,1-1.152,1.154h0a1.154,1.154,0,0,1-1.153-1.152Z"/>
    <path id="Path_4174" data-name="Path 4174" d="M-1171.39,166.315a3.5,3.5,0,0,0-3.5,3.5,3.5,3.5,0,0,0,3.5,3.5,3.5,3.5,0,0,0,3.5-3.5A3.5,3.5,0,0,0-1171.39,166.315Zm0,4.654a1.153,1.153,0,0,1-1.153-1.153,1.154,1.154,0,0,1,1.153-1.154,1.154,1.154,0,0,1,1.153,1.154h0A1.154,1.154,0,0,1-1171.39,170.969Z"/>
    <path id="Path_4175" data-name="Path 4175" d="M-1174.119,154.25a3.5,3.5,0,0,0,3.5-3.5,3.5,3.5,0,0,0-3.5-3.5,3.5,3.5,0,0,0-3.5,3.5A3.5,3.5,0,0,0-1174.119,154.25Zm0-4.654a1.153,1.153,0,0,1,1.154,1.152,1.154,1.154,0,0,1-1.152,1.155,1.154,1.154,0,0,1-1.154-1.153h0A1.154,1.154,0,0,1-1174.119,149.6Z"/>
    <path id="Path_4176" data-name="Path 4176" d="M-1185.771,163.625a3.5,3.5,0,0,0,3.5,3.5,3.5,3.5,0,0,0,3.5-3.5,3.5,3.5,0,0,0-3.5-3.5A3.506,3.506,0,0,0-1185.771,163.625Zm4.654,0a1.152,1.152,0,0,1-1.152,1.154,1.152,1.152,0,0,1-1.154-1.152,1.152,1.152,0,0,1,1.152-1.154h0a1.154,1.154,0,0,1,1.152,1.152Z"/>
    <path id="Path_4177" data-name="Path 4177" d="M-1208.345,167.254a3.5,3.5,0,0,0-3.5,3.5,3.5,3.5,0,0,0,3.5,3.5,3.5,3.5,0,0,0,3.5-3.5A3.507,3.507,0,0,0-1208.345,167.254Zm0,4.654a1.154,1.154,0,0,1-1.155-1.152,1.154,1.154,0,0,1,1.153-1.154,1.153,1.153,0,0,1,1.154,1.152h0A1.154,1.154,0,0,1-1208.345,171.908Z"/>
    <path id="Path_4178" data-name="Path 4178" d="M-1194.981,185.295a3.5,3.5,0,0,0,3.5-3.5,3.5,3.5,0,0,0-3.5-3.5,3.5,3.5,0,0,0-3.5,3.5A3.505,3.505,0,0,0-1194.981,185.295Zm0-4.654a1.153,1.153,0,0,1,1.153,1.153,1.153,1.153,0,0,1-1.153,1.153,1.153,1.153,0,0,1-1.153-1.153h0a1.154,1.154,0,0,1,1.153-1.154Z"/>
    <path id="Path_4179" data-name="Path 4179" d="M-1200.277,160.127a3.508,3.508,0,0,0,3.518-3.5,3.507,3.507,0,0,0-3.5-3.517,3.506,3.506,0,0,0-3.517,3.5,3.5,3.5,0,0,0,1.819,3.084A3.5,3.5,0,0,0-1200.277,160.127Zm-.318-4.61a1.155,1.155,0,0,1,.325-.047,1.154,1.154,0,0,1,1.157,1.153,1.154,1.154,0,0,1-1.153,1.157,1.155,1.155,0,0,1-1.157-1.153A1.154,1.154,0,0,1-1200.595,155.517Z"/>
    <path id="Path_4180" data-name="Path 4180" d="M-1204.006,183.511a3.5,3.5,0,0,0-3.5-3.5,3.5,3.5,0,0,0-3.5,3.5,3.5,3.5,0,0,0,3.5,3.5A3.5,3.5,0,0,0-1204.006,183.511Zm-3.5,1.153a1.154,1.154,0,0,1-1.154-1.154,1.154,1.154,0,0,1,1.154-1.153,1.153,1.153,0,0,1,1.153,1.153h0A1.155,1.155,0,0,1-1207.508,184.664Z"/>
    <path id="Path_4181" data-name="Path 4181" d="M-1174.729,204.915a3.5,3.5,0,0,0,3.5-3.5,3.5,3.5,0,0,0-3.5-3.5,3.5,3.5,0,0,0-3.5,3.5A3.5,3.5,0,0,0-1174.729,204.915Zm0-4.653a1.153,1.153,0,0,1,1.152,1.153,1.152,1.152,0,0,1-1.152,1.152,1.152,1.152,0,0,1-1.152-1.152,1.154,1.154,0,0,1,1.152-1.149Z"/>
    <path id="Path_4182" data-name="Path 4182" d="M-1182.27,191.665a3.5,3.5,0,0,0,3.5-3.5,3.5,3.5,0,0,0-3.5-3.5,3.5,3.5,0,0,0-3.5,3.5A3.5,3.5,0,0,0-1182.27,191.665Zm0-4.654a1.154,1.154,0,0,1,1.154,1.153,1.153,1.153,0,0,1-1.152,1.154,1.153,1.153,0,0,1-1.154-1.152h0a1.154,1.154,0,0,1,1.152-1.154Z"/>
    <path id="Path_4183" data-name="Path 4183" d="M-1159.946,162.225a5.828,5.828,0,0,0-5.828,5.828,5.828,5.828,0,0,0,5.828,5.829,5.829,5.829,0,0,0,5.829-5.829A5.834,5.834,0,0,0-1159.946,162.225Zm0,9.308a3.48,3.48,0,0,1-3.479-3.48,3.48,3.48,0,0,1,3.48-3.48,3.48,3.48,0,0,1,3.479,3.48,3.483,3.483,0,0,1-3.48,3.481Z"/>
    <path id="Path_4184" data-name="Path 4184" d="M-1142.277,173.968a40.088,40.088,0,0,0-17.778-30.8,3.515,3.515,0,0,0-2.659-.51,3.5,3.5,0,0,0-1.764-2.049,40.147,40.147,0,0,0-35.585,0,3.506,3.506,0,0,0-1.763,2.049,3.518,3.518,0,0,0-2.66.51,40.088,40.088,0,0,0-17.779,30.8,3.527,3.527,0,0,0,.9,2.562,3.515,3.515,0,0,0-.892,2.561,40.087,40.087,0,0,0,17.777,30.8,3.5,3.5,0,0,0,2.659.51,3.5,3.5,0,0,0,1.764,2.049,40.145,40.145,0,0,0,35.584,0,3.519,3.519,0,0,0,1.568-4.723c-.031-.062-.065-.124-.1-.185l-17.227-29.835h12.6v6.663a4.072,4.072,0,0,0,4.068,4.075h.081a4.178,4.178,0,0,0,4.18-4.165V183.2a.688.688,0,0,1,.688-.688.688.688,0,0,1,.689.688v8.369a3.457,3.457,0,0,0,3.514,3.4,3.455,3.455,0,0,0,3.4-3.4V177.705h5.227a3.524,3.524,0,0,0,3.519-3.529q0-.1-.006-.207Zm-60.5,27c-1.3-1.1-2.192-2.835-3.454-4.336s-2.81-2.666-3.673-4.151c-.85-1.469-1.09-3.4-1.765-5.254-.665-1.827-1.725-3.451-2.024-5.157a19.4,19.4,0,0,1,.1-4.368h29.292l-14.645,25.368a19.116,19.116,0,0,1-3.827-2.1Zm-10.912-29.981c.3-1.706,1.359-3.33,2.024-5.157.676-1.855.915-3.784,1.765-5.253.858-1.485,2.414-2.652,3.673-4.152s2.145-3.236,3.454-4.336a19.062,19.062,0,0,1,3.827-2.1l6.178,10.7a1.175,1.175,0,0,0,1.6.461,1.174,1.174,0,0,0,.46-1.6l-.022-.039-6.179-10.7a18.74,18.74,0,0,1,3.733-2.269c1.586-.577,3.528-.478,5.48-.819,1.907-.334,3.689-1.1,5.434-1.1s3.527.762,5.434,1.1c1.951.341,3.894.242,5.48.819a18.79,18.79,0,0,1,3.733,2.269l-14.648,25.369-5.727-9.92a1.175,1.175,0,0,0-1.612-.4,1.175,1.175,0,0,0-.422,1.574l5.727,9.919h-29.284a19.341,19.341,0,0,1-.1-4.368Zm14.674-28.273a37.8,37.8,0,0,1,33.5,0,1.167,1.167,0,0,1,.511,1.569c-.01.021-.022.042-.033.062l-1.406,2.428a18.811,18.811,0,0,0-4.107-2.437c-1.955-.712-4.034-.6-5.877-.926-1.788-.312-3.7-1.131-5.84-1.131s-4.051.819-5.839,1.131c-1.843.323-3.922.214-5.878.926a18.742,18.742,0,0,0-4.106,2.437l-1.406-2.427h0a1.168,1.168,0,0,1,.417-1.6c.02-.012.04-.023.061-.033Zm-20.9,31.4a37.937,37.937,0,0,1,16.74-28.992,1.168,1.168,0,0,1,1.617.34c.013.02.025.04.037.061l1.405,2.428a19.054,19.054,0,0,0-4.16,2.342c-1.606,1.353-2.553,3.212-3.742,4.624s-2.852,2.66-3.908,4.484c-1.046,1.807-1.3,3.875-1.938,5.621-.63,1.72-1.768,3.464-2.136,5.555a19.292,19.292,0,0,0,.064,4.772h-2.811a1.171,1.171,0,0,1-1.175-1.167c0-.024,0-.049,0-.073Zm16.74,33.819a37.941,37.941,0,0,1-16.74-28.992,1.171,1.171,0,0,1,1.1-1.236c.024,0,.047,0,.071,0h2.811a19.3,19.3,0,0,0-.064,4.773c.368,2.094,1.506,3.838,2.131,5.556.638,1.751.893,3.814,1.938,5.621,1.056,1.825,2.722,3.073,3.909,4.485s2.132,3.273,3.742,4.625a19.04,19.04,0,0,0,4.156,2.341l-1.405,2.427a1.167,1.167,0,0,1-1.591.44c-.022-.012-.043-.025-.063-.038Zm37.66,2.409a37.807,37.807,0,0,1-33.5,0,1.168,1.168,0,0,1-.511-1.57c.01-.021.022-.041.033-.062l1.406-2.427a18.855,18.855,0,0,0,4.1,2.435,1.175,1.175,0,0,0,1.505-.7,1.175,1.175,0,0,0-.7-1.506h0a18.67,18.67,0,0,1-3.733-2.27l14.647-25.364,14.646,25.369a18.745,18.745,0,0,1-3.733,2.27c-1.586.577-3.528.477-5.48.819-1.907.335-3.689,1.1-5.434,1.1-1.862,0-3.689-.85-5.877-1.167a1.174,1.174,0,0,0-1.335.987,1.173,1.173,0,0,0,.987,1.336l.013,0c2.024.292,3.953,1.191,6.214,1.191,2.138,0,4.051-.818,5.84-1.131,1.841-.327,3.919-.214,5.876-.929a18.817,18.817,0,0,0,4.106-2.437l1.406,2.427a1.168,1.168,0,0,1-.417,1.6c-.02.012-.04.023-.061.033Zm13.331-34.99a1.175,1.175,0,0,0-1.174,1.175v15.04a1.107,1.107,0,0,1-1.107,1.107,1.106,1.106,0,0,1-1.107-1.107V183.2a3.038,3.038,0,0,0-3.038-3.037,3.037,3.037,0,0,0-3.037,3.037h0v1.077a1.827,1.827,0,0,1-1.836,1.818l-.071,0a1.725,1.725,0,0,1-1.727-1.723v-6.665h8.879a1.174,1.174,0,0,0,1.174-1.174,1.175,1.175,0,0,0-1.174-1.175h-23.828l14.646-25.366a19.066,19.066,0,0,1,3.827,2.1c1.3,1.1,2.192,2.834,3.454,4.336s2.81,2.666,3.673,4.152c.85,1.468,1.09,3.4,1.765,5.253.665,1.827,1.725,3.451,2.024,5.157a19.334,19.334,0,0,1-.1,4.368Zm6.4,0h-2.81a19.323,19.323,0,0,0,.068-4.775c-.368-2.1-1.506-3.839-2.131-5.557-.637-1.75-.893-3.814-1.938-5.621-1.057-1.825-2.723-3.075-3.91-4.485s-2.132-3.272-3.741-4.624a19.052,19.052,0,0,0-4.16-2.342l1.4-2.428a1.169,1.169,0,0,1,1.593-.439c.021.012.041.024.061.038a37.939,37.939,0,0,1,16.737,28.994,1.171,1.171,0,0,1-1.1,1.238c-.024,0-.049,0-.073,0Z"/>
  </g>
</svg>
