<svg xmlns="http://www.w3.org/2000/svg" width="14" height="14" viewBox="0 0 14 14">
  <g id="time_43_" data-name="time (43)" opacity="0.8">
    <g id="Group_363" data-name="Group 363">
      <path id="Path_4085" data-name="Path 4085" d="M7,0a7,7,0,1,0,7,7A7.008,7.008,0,0,0,7,0ZM7,12.511A5.511,5.511,0,1,1,12.511,7,5.517,5.517,0,0,1,7,12.511Z" fill="#292929"/>
      <path id="Path_4086" data-name="Path 4086" d="M47.869,20.686H45.086V17.34a.51.51,0,1,0-1.02,0V21.2a.51.51,0,0,0,.51.51h3.293a.51.51,0,0,0,0-1.02Z" transform="translate(-37.897 -13.528)" fill="#292929"/>
    </g>
  </g>
</svg>
