<svg xmlns="http://www.w3.org/2000/svg" width="1927.814" height="72.391" viewBox="0 0 1927.814 72.391">
  <path id="Path_43" data-name="Path 43" d="M-934.217-1437.732c-1.216-9.32.621-18.553-.37-30.17H-2861.678c.9,16.346-1.344,34.75.856,51.57-.039,2.429-1.564,2.361.032,8,.9,1.051.721.921.042,3.38.692-.13.946-1.14,1.776-.82a1.835,1.835,0,0,1,1.137-1.76c.352.51.182.93.235,1.33h.447c.319-.75,1.1-1.11,1.584-1.73,1.256.833-1.458,2.215.691,3.44.775-.669-.07,1.9,1.807.63l-.361-.34a1.023,1.023,0,0,1,.83-.71c-.308-.91-1.191-.16-1.754-.57v-2.38c.659.1.924,1.15,1.754.81.085-.85-.926-1.58-.287-2.53h.574a12.032,12.032,0,0,0,.617,4.24c.8-.338-.131,1.734,1.084.92a2.639,2.639,0,0,1,.734,2.07c.776.14.446.96.915,1.28-.09,2.824.227-2.533,2.276-1.28.625.266,1.853-.4,4.54-.43v-.42c-.1.079-2.113-1.5.457-2.14a1.632,1.632,0,0,1,1.733-1.13c-.1.36-.521.67-.373,1.13.567.259.463.537.457,2.14.24.169.239-.137,0,1.28.319-.01.469.13.457.43,3.972-.486-.561,6.059,3.86,5.98.467-.4.212-.7-.16-1,.01-.361.56-.182,1.3-1.13h-1.67c.125-.254-.584-.426.309-1.29.254-.873-.667-1.823.457-3.42-.178-.473.881-1.816,1.361.43h.914v-1.51c.6-.37,1.2-.15,2.073-.14-.712.4-1.478.41-1.169,1.22.321.239,1.475.072.457,1.28.01.3-.139.44-.457.43,0,.481.3.015,1.361.86,1.111.467-.279.325.915,2.14.72.192.076-2.081,1.818-.86.585.355.036-.33,1.818-.43v-.43c-.457.03-.553-.42-.946-.62.384.253.226-1.424,1.85-.66h.915c.149-.28.3-.57.457-.85-2.417,0-1.094-4.352,1.818-.43.474-.061.071.272,1.818.43v-2.09c1.073.29.893,1.02.9,1.66.3.517.928.272.457,3.42.49.16.819-.28,1.382-.37-.021.77-.776,1.34-.467,2.08.828,0,.828,0,1.818.86.339-.07.861.21.9-.43-1.031-.31-.043-1.08-.532-1.46.617-.48,1.255-.08,1.786-.32-.8-.486-.433-1.486-1.244-3.16.319-.41.841-.04,1.276-.31.053-.33.107-.72.16-1.1.318.55.978.93.829,1.64.053.12.1.24.149.36.276-.44,1.116-.09,1.212-.78-.393-.64-.393-.64,0-1.29-.014-.634-.01-1.987,1.818-1.71,1.036-.6.535-1.4,2.009-3.39.529.063,1.043,1.078,1.447-.46.154,1.44.218.712-2.095,3,.223.54-.382.83-.446,1.28h.669c.468.29.075.8.352,1.2.712-.08.68-.81,1.063-1.16.447.31-.054.84.319,1.16.383,0,.606-.6,1.234-.16v2.81c.52-.01,1.18.15.787-1.01.723.49,1.244.68.977,1.45.756-.2,1.489.46,1.872-.44-.085-.52-.638-.69-.9-1.08.15-.4.979.05.9-.63.223-.42.446-.84.691-1.29.447.53.01,1.12.394,1.72h.734c.29-.374-.633-1.146.457-2.14.542-.42,1.094-.84,1.711-1.31.075.5.128.88.191,1.26.356.1,1.2-1.782,1.276.05.872.2.275.86.457,1.28h.9c.1-.4.361-.65.914-.84v1.7c.128.05.256.09.383.14-.417.406-.056.264-1.3.28-.2.911.641,1.331-.9,3h2.944c.527,1.851,1.358,2.486,1.148-1.56-.037-.223,2.119-.215,1.362,1.13.36.175-.312.725.9,1.71-.363-.405.633-1.752,1.371-3.42-1.593-.617.557-1.606-2.7-2.33-.235-.77.851-.87.883-1.52-.749.037.349-.422-1.84-1.57.861-.3,1.733-.6,2.627-.91.3.655-.673.054-1.244,1.63,1.433.364,2.821,5.961,3.179.42-.783-1.4.179-1.277,2.509-1.71.48-.169.26-.564,1.585-.42-.011-.3.138-.44.456-.43-.039-1.18.091-.591-.074-3.47h1.765c-.01.97-.248.512.435,2.19.9,1.053.713.925.043,3.38.691-.13.947-1.14,1.775-.82a1.834,1.834,0,0,1,1.138-1.76c.351.51.17.93.223,1.33h.457c.32-.75,1.1-1.11,1.585-1.73,1.008.651-1.115,2.656.691,3.44.775-.669-.069,1.9,1.808.63-.107-.1-.213-.2-.373-.34a1.038,1.038,0,0,1,.84-.71c-.309-.91-1.191-.16-1.754-.57v-2.38c.659.1.915,1.15,1.754.81.085-.85-.936-1.58-.287-2.53h.574a11.732,11.732,0,0,0,.616,4.24c.8-.338-.131,1.734,1.085.92a2.639,2.639,0,0,1,.733,2.07c.777.14.448.96.915,1.28-.095,2.823.226-2.533,2.275-1.28.626.266,1.853-.4,4.54-.43v-.42c-.1.079-2.112-1.5.458-2.14-.029-.214.457-1.116,1.733-1.13-.1.36-.521.67-.373,1.13.567.259.463.537.458,2.14.241.168.237-.13,0,1.28.319-.01.468.13.457.43,3.966-.489-.55,6.052,3.849,5.98.478-.4.213-.7-.149-1,0-.361.564-.181,1.3-1.13h-1.669c.125-.254-.584-.425.309-1.29.258-.875-.677-1.825.457-3.42-.179-.473.881-1.816,1.361.43h.9v-1.51c.6-.37,1.212-.15,2.084-.14-.712.4-1.478.41-1.169,1.22.321.239,1.475.072.457,1.28.011.3-.149.44-.457.43.008.481.28.01,1.361.86,1.111.467-.28.325.915,2.14.72.192.076-2.081,1.818-.86.585.354.037-.33,1.818-.43v-.43c-.457.03-.553-.42-.947-.62.386.252.223-1.423,1.85-.66h.915c.149-.28.3-.57.457-.85-2.406.013-1.115-4.357,1.818-.43.474-.061.071.272,1.818.43v-2.09c1.074.29.893,1.02.9,1.66.3.517.928.273.457,3.42.489.16.819-.28,1.372-.37-.011.77-.766,1.34-.468,2.08.839,0,.839,0,1.818.86.352-.07.873.21.915-.43-1.031-.31-.042-1.08-.531-1.46.616-.48,1.244-.08,1.786-.32-.808-.488-.427-1.487-1.244-3.16.319-.41.84-.04,1.276-.31.053-.33.106-.72.158-1.1.32.55.979.93.83,1.64.043.12.1.24.149.36.265-.44,1.116-.09,1.212-.78-.394-.64-.394-.64,0-1.29-.013-.634-.009-1.987,1.818-1.71,1.03-.593.539-1.4,2.01-3.39.528.063,1.041,1.078,1.446-.46.154,1.44.218.712-2.094,3,.223.54-.383.83-.447,1.28h.67c.467.29.064.8.351,1.2.713-.08.681-.81,1.063-1.16.446.31-.053.84.309,1.16.394,0,.617-.6,1.244-.16v2.81c.521-.01,1.18.15.787-1.01.723.49,1.244.68.979,1.45.755-.2,1.489.46,1.871-.44-.085-.52-.638-.69-.9-1.08.149-.4.979.05.9-.63.222-.42.446-.84.691-1.29.446.53.011,1.12.393,1.72h.734c.283-.372-.619-1.14.447-2.14.553-.42,1.1-.84,1.722-1.31.075.5.128.88.181,1.26.365.108,1.214-1.783,1.287.05.872.2.277.86.457,1.28h.9c.1-.4.361-.65.914-.84v1.7c.127.05.255.09.383.14-.417.406-.055.264-1.3.28-.2.909.635,1.335-.9,3h2.946c.527,1.851,1.359,2.487,1.137-1.56-.035-.223,2.11-.215,1.372,1.13.36.175-.31.724.9,1.71-.365-.4.637-1.749,1.361-3.42-1.585-.622.561-1.6-2.7-2.33-.223-.77.861-.87.883-1.52-.739.039.352-.432-1.829-1.57.862-.3,1.734-.6,2.616-.91.31.656-.675.059-1.233,1.63,1.441.363,2.808,5.962,3.179.42-.812-1.391.2-1.282,2.5-1.71.488-.166.266-.564,1.594-.42-.011-.3.138-.44.457-.43-.04-1.18.091-.591-.075-3.47h1.754c.008.97-.24.512.448,2.19.891,1.051.715.927.042,3.38.691-.13.946-1.14,1.776-.82a1.832,1.832,0,0,1,1.137-1.76c.35.51.171.93.224,1.33h.457c.307-.75,1.094-1.11,1.583-1.73,1.26.834-1.462,2.212.692,3.44.774-.669-.07,1.9,1.807.63-.107-.1-.224-.2-.372-.34a1.037,1.037,0,0,1,.84-.71c-.307-.91-1.19-.16-1.754-.57v-2.38c.66.1.915,1.15,1.754.81.086-.85-.936-1.58-.287-2.53h.574a11.4,11.4,0,0,0,.617,4.24c.8-.338-.131,1.734,1.084.92a2.637,2.637,0,0,1,.733,2.07c.777.14.447.96.915,1.28-.1,2.821.229-2.525,2.266-1.28.629.265,1.854-.4,4.551-.43v-.42c-.1.08-2.117-1.495.456-2.14-.028-.214.458-1.116,1.733-1.13-.1.36-.531.67-.373,1.13.568.259.464.537.457,2.14.243.168.237-.13,0,1.28.309-.01.468.13.457.43,3.966-.489-.55,6.053,3.849,5.98.479-.4.213-.7-.148-1,0-.361.565-.181,1.3-1.13h-1.671c.113-.253-.58-.427.309-1.29-.441-.942.5-6.554,1.818-2.99h.9v-1.51c.595-.37,1.2-.15,2.083-.14-.722.4-1.478.41-1.17,1.22.323.24,1.481.074.448,1.28.021.3-.139.44-.448.43.012.481.281.019,1.361.86,1.112.467-.279.325.915,2.14.726.193.064-2.08,1.818-.86.586.354.037-.33,1.818-.43v-.43c-.457.03-.552-.42-.946-.62.385.252.221-1.423,1.85-.66h.913c.15-.28.3-.57.448-.85-2.4,0-1.089-4.354,1.818-.43.485-.059.064.264,1.818.43v-2.09c1.073.29.9,1.02.914,1.66.3.517.93.272.458,3.42.489.16.819-.28,1.372-.37-.01.77-.766,1.34-.467,2.08.84,0,.84,0,1.818.86.35-.07.872.21.913-.43-1.031-.31-.042-1.08-.531-1.46.617-.48,1.244-.08,1.786-.32-.808-.488-.427-1.487-1.244-3.16.319-.41.84-.04,1.276-.31.042-.33.106-.72.16-1.1.319.55.977.93.829,1.64.043.12.1.24.148.36.267-.44,1.116-.09,1.212-.78-.393-.64-.393-.64,0-1.29-.013-.634-.009-1.987,1.818-1.71,1.022-.594.538-1.4,2-3.39.539.064,1.045,1.077,1.447-.46.524,1.073-.442,1.341-2.084,3,.223.54-.383.83-.457,1.28h.68c.468.29.064.8.35,1.2.713-.08.67-.81,1.064-1.16.448.31-.053.84.308,1.16.394,0,.617-.6,1.234-.16v2.81c.531-.01,1.19.15.787-1.01.734.49,1.254.68.989,1.45.745-.2,1.489.46,1.871-.44-.085-.52-.638-.69-.9-1.08.149-.4.979.05.9-.63.223-.42.446-.84.691-1.29.448.53.011,1.12.384,1.72h.744c.287-.374-.623-1.142.446-2.14.553-.42,1.1-.84,1.724-1.31.074.5.128.88.181,1.26.364.108,1.213-1.783,1.286.05.872.2.277.86.447,1.28h.914c.1-.4.361-.65.9-.84v1.7c.128.05.256.09.384.14-.4.41-.05.262-1.287.28-.2.907.65,1.339-.914,3h2.955c.526,1.855,1.353,2.485,1.137-1.56-.041-.225,2.131-.209,1.361,1.13.371.177-.306.719.915,1.71-.364-.4.635-1.745,1.361-3.42-1.589-.618.556-1.606-2.7-2.33-.233-.77.862-.87.883-1.52-.744.039.365-.431-1.839-1.57.872-.3,1.744-.6,2.627-.91.311.655-.672.048-1.245,1.63,1.443.354,2.821,5.965,3.19.42-.815-1.391.206-1.282,2.5-1.71.489-.166.267-.564,1.594-.42-.01-.3.139-.44.446-.43-.033-1.18.078-.591-.063-3.47h1.754c.007.97-.24.512.446,2.19.895,1.051.712.927.043,3.38.691-.13.946-1.14,1.775-.82a1.835,1.835,0,0,1,1.137-1.76c.352.51.171.93.224,1.33h.457c.309-.75,1.1-1.11,1.585-1.73,1.259.834-1.464,2.212.691,3.44.763-.669-.067,1.892,1.8.63l-.363-.34a1.038,1.038,0,0,1,.83-.71c-.3-.91-1.18-.16-1.743-.57v-2.38c.659.1.913,1.15,1.743.81.085-.85-.926-1.58-.276-2.53h.574a11.408,11.408,0,0,0,.617,4.24c.8-.338-.13,1.735,1.084.92a2.639,2.639,0,0,1,.734,2.07c.776.14.436.96.915,1.28-.095,2.821.227-2.525,2.264-1.28.629.265,1.854-.4,4.551-.43v-.42c-.1.08-2.116-1.495.458-2.14-.03-.219.455-1.118,1.722-1.13-.085.36-.521.67-.362,1.13.567.259.464.537.458,2.14.247.167.227-.121,0,1.28.309-.01.467.13.446.43,3.979-.5-.559,6.052,3.86,5.98.478-.4.213-.7-.149-1,0-.361.564-.181,1.3-1.13h-1.68c.122-.254-.575-.424.32-1.29.256-.875-.674-1.823.446-3.42-.179-.479.892-1.814,1.372.43h.9v-1.51c.6-.37,1.2-.15,2.084-.14-.723.4-1.489.41-1.169,1.22.326.24,1.473.075.446,1.28.011.3-.138.44-.446.43,0,.481.28.016,1.361.86,1.091.469-.264.326.9,2.14.734.2.082-2.08,1.818-.86.6.351.03-.32,1.818-.43v-.43c-.457.03-.542-.42-.936-.62.385.254.225-1.434,1.85-.66h.9c.16-.28.309-.57.457-.85-2.4,0-1.087-4.354,1.818-.43.487-.059.064.264,1.818.43v-2.09c1.074.29.893,1.02.915,1.66.3.517.928.272.457,3.42.489.16.819-.28,1.371-.37-.01.77-.765,1.34-.468,2.08.84,0,.84,0,1.818.86.351-.07.872.21.915-.43-1.031-.31-.043-1.08-.532-1.46.617-.48,1.244-.08,1.786-.32.064-.58-.531-.21-.808-.68-.3-.468.644-1.1-.436-2.48.308-.41.839-.04,1.276-.31.043-.33.107-.72.16-1.1.319.55.979.93.819,1.64.053.12.106.24.149.36.276-.44,1.127-.09,1.223-.78-.394-.64-.394-.64,0-1.29-.014-.634-.01-1.987,1.818-1.71,1.026-.594.527-1.4,2-3.39.538.064,1.044,1.077,1.446-.46.514,1.073-.441,1.343-2.083,3,.222.54-.394.83-.458,1.28h.68c.468.29.064.8.352,1.2.712-.08.67-.81,1.052-1.16.447.31-.042.84.32,1.16.394,0,.616-.6,1.233-.16v2.81c.531-.01,1.191.15.787-1.01.723.49,1.255.68.979,1.45.755-.2,1.5.46,1.871-.44-.084-.52-.627-.69-.893-1.08.149-.4.968.05.893-.63.234-.42.458-.84.7-1.29.446.53.01,1.12.382,1.72h.734c.29-.374-.632-1.146.458-2.14.553-.42,1.1-.84,1.722-1.31.074.5.128.88.181,1.26.359.107,1.224-1.783,1.276.05.883.2.287.86.458,1.28h.915c.085-.4.361-.65.9-.84v1.7c.128.05.255.09.382.14-.4.41-.049.262-1.286.28-.2.907.647,1.343-.915,3h2.955c.527,1.855,1.353,2.485,1.138-1.56-.041-.225,2.13-.209,1.361,1.13.369.176-.306.721.915,1.71-.2-.512.228-1.145,1.361-3.42-1.591-.617.555-1.606-2.7-2.33-.235-.77.861-.87.883-1.52-.756.039.367-.433-1.84-1.57.873-.3,1.744-.6,2.627-.91.312.655-.671.048-1.244,1.63,1.443.357,2.818,5.965,3.189.42-.817-1.391.2-1.281,2.5-1.71.406-.057.052-.546,1.585-.42-.011-.3.149-.44.457-.43-.034-1.18.078-.591-.064-3.47h1.754c.008.97-.24.512.447,2.19.906,1.051.685.932.043,3.38.691-.13.946-1.14,1.775-.82a1.834,1.834,0,0,1,1.138-1.76c.35.51.169.93.223,1.33h.457c.309-.75,1.1-1.11,1.574-1.73,1.26.832-1.437,2.207.692,3.44.773-.669-.068,1.888,1.807.63l-.362-.34a1.036,1.036,0,0,1,.829-.71c-.308-.91-1.18-.16-1.744-.57v-2.38c.659.1.915,1.15,1.744.81.086-.85-.925-1.58-.287-2.53h.585a11.189,11.189,0,0,0,.616,4.24c.8-.337-.138,1.735,1.085.92a2.638,2.638,0,0,1,.733,2.07c.766.14.437.96.9,1.28-.072,2.823.231-2.53,2.275-1.28.629.265,1.855-.4,4.551-.43v-.42c-.1.08-2.116-1.495.457-2.14-.03-.219.456-1.118,1.722-1.13-.085.36-.521.67-.361,1.13.561.26.468.538.457,2.14.249.168.211-.132,0,1.28.308-.01.457.13.447.43,3.977-.5-.557,6.055,3.86,5.98.479-.4.213-.7-.149-1,0-.362.55-.176,1.3-1.13h-1.68c.115-.256-.56-.416.31-1.29.253-.873-.668-1.823.456-3.42-.183-.472.89-1.824,1.361.43h.915v-1.51c.6-.37,1.2-.15,2.084-.14-.723.4-1.488.41-1.18,1.22.329.238,1.487.071.457,1.28.011.3-.138.44-.457.43.009.481.288.015,1.372.86,1.1.469-.291.33.9,2.14.726.195.079-2.078,1.818-.86.6.351.03-.32,1.818-.43v-.43c-.457.03-.542-.42-.936-.62.386.254.225-1.433,1.85-.66h.9c.159-.28.309-.57.457-.85-2.389.007-1.1-4.358,1.818-.43.488-.061.064.27,1.818.43v-2.09c1.074.29.894,1.02.915,1.66.29.517.938.272.446,3.42.5.16.83-.28,1.383-.37-.011.77-.766,1.34-.468,2.08.841,0,.841,0,1.818.86.341-.07.872.21.9-.43-1.021-.31-.032-1.08-.52-1.46.605-.48,1.243-.08,1.775-.32.074-.58-.521-.21-.8-.68-.3-.468.644-1.1-.435-2.48.308-.41.829-.04,1.276-.31.042-.33.095-.72.159-1.1.32.55.978.93.819,1.64.054.12.107.24.149.36.277-.44,1.127-.09,1.223-.78-.393-.64-.393-.64,0-1.29-.011-.635-.02-1.987,1.818-1.71,1.026-.594.527-1.4,2-3.39.537.063,1.044,1.078,1.446-.46.163,1.436.208.711-2.084,3,.224.54-.393.83-.457,1.28h.681c.467.29.064.8.351,1.2.713-.08.67-.81,1.052-1.16.447.31-.053.84.32,1.16.393,0,.617-.6,1.233-.16v2.81c.532-.01,1.191.15.787-1.01.723.49,1.244.68.978,1.45.755-.2,1.5.46,1.871-.44-.085-.52-.638-.69-.893-1.08.149-.4.968.05.893-.63.234-.42.457-.84.7-1.29.447.53.011,1.12.383,1.72h.734c.289-.374-.632-1.146.457-2.14.542-.42,1.1-.84,1.722-1.31.064.5.128.88.181,1.26.362.111,1.214-1.785,1.276.05.883.2.288.86.457,1.28h.915c.085-.4.361-.65.9-.84v1.7c.128.05.256.09.383.14-.4.4-.055.266-1.286.28-.2.906.647,1.343-.915,3h2.955c.518,1.857,1.349,2.483,1.138-1.56-.038-.224,2.121-.213,1.361,1.13.357.174-.3.727.915,1.71-.2-.512.229-1.145,1.361-3.42-1.589-.617.555-1.606-2.7-2.33-.234-.77.85-.87.883-1.52-.753.035.361-.416-1.839-1.57.872-.3,1.743-.6,2.626-.91.3.655-.669.051-1.244,1.63,1.448.359,2.814,5.966,3.19.42-.814-1.387.192-1.285,2.5-1.71.406-.057.053-.546,1.584-.42-.01-.3.139-.44.457-.43-.034-1.18.078-.591-.064-3.47h1.754c0,.968-.245.512.437,2.19.919,1.041.7.93.053,3.38.681-.13.936-1.14,1.776-.82a1.8,1.8,0,0,1,1.137-1.76c.351.51.17.93.224,1.33h.457c.308-.75,1.084-1.11,1.573-1.73,1.249.831-1.437,2.208.691,3.44.774-.669-.068,1.888,1.807.63l-.361-.34a1.038,1.038,0,0,1,.83-.71c-.309-.91-1.18-.16-1.744-.57v-2.38c.66.1.914,1.15,1.744.81.085-.85-.926-1.58-.288-2.53h.585a11.215,11.215,0,0,0,.616,4.24c.8-.337-.145,1.735,1.074.92a2.614,2.614,0,0,1,.745,2.07c.765.14.435.96.9,1.28-.072,2.823.227-2.528,2.276-1.28.615.265,1.862-.4,4.55-.43v-.42c-.106.081-2.107-1.492.447-2.14a1.633,1.633,0,0,1,1.733-1.13c-.086.36-.521.67-.362,1.13.556.265.451.542.446,2.14.252.169.233-.139,0,1.28.319-.01.467.13.457.43,3.982-.49-.562,6.051,3.859,5.98.479-.4.213-.7-.149-1,0-.362.562-.174,1.287-1.13h-1.67c.122-.255-.58-.423.309-1.29.253-.873-.668-1.823.457-3.42-.183-.472.889-1.824,1.361.43h.913v-1.51c.6-.37,1.2-.15,2.074-.14-.713.4-1.478.41-1.169,1.22.33.239,1.47.072.456,1.28.011.3-.138.44-.456.43.008.481.287.015,1.371.86,1.1.469-.291.33.9,2.14.724.2.07-2.077,1.818-.86.6.354.029-.328,1.818-.43v-.43c-.457.03-.543-.42-.936-.62.373.254.23-1.435,1.85-.66h.9c.149-.28.307-.57.456-.85-2.388.007-1.1-4.357,1.818-.43.475-.061.071.272,1.819.43v-2.09c1.073.29.893,1.02.914,1.66.3.516.922.275.447,3.42.5.16.829-.28,1.382-.37-.011.77-.776,1.34-.468,2.08.83,0,.83,0,1.818.86.34-.07.873.21.9-.43-1.021-.31-.032-1.08-.521-1.46.606-.48,1.244-.08,1.775-.32-.786-.487-.449-1.473-1.233-3.16.308-.41.829-.04,1.276-.31.042-.33.1-.72.149-1.1.329.55.978.93.829,1.64.054.12.107.24.15.36.276-.44,1.127-.09,1.211-.78-.382-.64-.382-.64,0-1.29-.013-.634-.009-1.987,1.819-1.71,1.032-.586.537-1.4,2.009-3.39.537.064,1.046,1.078,1.447-.46.162,1.436.208.711-2.085,3,.224.54-.393.83-.457,1.28h.67c.479.29.075.8.352,1.2.723-.08.68-.81,1.063-1.16.446.31-.054.84.318,1.16.383,0,.617-.6,1.233-.16v2.81c.521-.01,1.191.15.787-1.01.724.49,1.245.68.979,1.45.755-.2,1.5.46,1.871-.44-.085-.52-.637-.69-.893-1.08.138-.4.968.05.893-.63.224-.42.457-.84.692-1.29.457.53.01,1.12.394,1.72h.734c.29-.374-.632-1.146.457-2.14.543-.42,1.095-.84,1.722-1.31.064.5.128.88.181,1.26.362.1,1.2-1.78,1.275.05.883.2.288.86.457,1.28h.9c.095-.4.371-.65.914-.84v1.7c.128.05.255.09.383.14-.417.406-.056.264-1.3.28-.2.9.647,1.344-.9,3h2.957c.517,1.857,1.348,2.483,1.137-1.56-.038-.223,2.119-.215,1.361,1.13.359.174-.3.73.914,1.71-.2-.512.229-1.145,1.361-3.42-1.593-.617.556-1.606-2.7-2.33-.234-.77.851-.87.883-1.52-.748.037.35-.424-1.839-1.57.862-.3,1.744-.6,2.626-.91.3.655-.67.052-1.244,1.63,1.437.351,2.825,5.967,3.179.42-.787-1.4.193-1.279,2.51-1.71.406-.057.052-.546,1.583-.42-.01-.3.139-.44.457-.43-.034-1.18.078-.591-.064-3.47h1.755c-.009.969-.242.512.435,2.19.908,1.04.716.927.043,3.38.691-.13.947-1.14,1.775-.82a1.828,1.828,0,0,1,1.148-1.76c.34.51.171.93.224,1.33h.446c.319-.75,1.1-1.11,1.585-1.73,1.249.831-1.437,2.208.69,3.44.775-.669-.07,1.9,1.808.63l-.362-.34a1.038,1.038,0,0,1,.83-.71c-.309-.91-1.18-.16-1.754-.57v-2.38c.67.1.925,1.15,1.754.81.085-.85-.925-1.58-.288-2.53h.575a11.623,11.623,0,0,0,.627,4.24c.787-.336-.14,1.736,1.073.92a2.685,2.685,0,0,1,.745,2.07c.765.14.435.96.9,1.28-.09,2.82.229-2.523,2.276-1.28.625.266,1.853-.4,4.54-.43v-.42c-.1.079-2.112-1.5.457-2.14a1.632,1.632,0,0,1,1.734-1.13c-.1.36-.521.67-.373,1.13.567.259.463.537.457,2.14.241.169.238-.137,0,1.28.319-.01.468.13.458.43,3.984-.487-.568,6.054,3.86,5.98.479-.4.212-.7-.159-1,.006-.363.562-.169,1.3-1.13h-1.669c.123-.255-.58-.423.309-1.29.254-.873-.667-1.823.457-3.42-.179-.473.881-1.816,1.361.43h.915v-1.51c.595-.37,1.2-.15,2.073-.14-.712.4-1.478.41-1.169,1.22.321.239,1.476.072.457,1.28.011.3-.139.44-.457.43,0,.481.3.015,1.361.86,1.11.467-.28.325.915,2.14.728.193.068-2.081,1.818-.86.585.354.037-.33,1.818-.43v-.43c-.457.03-.553-.42-.947-.62.385.253.229-1.431,1.861-.66h.9c.149-.28.309-.57.457-.85-2.389.007-1.1-4.358,1.818-.43.474-.061.071.272,1.818.43v-2.09c1.073.29.893,1.02.9,1.66.3.517.928.272.457,3.42.5.16.819-.28,1.382-.37-.021.77-.776,1.34-.467,2.08.829,0,.829,0,1.818.86.341-.07.872.21.9-.43-1.021-.31-.043-1.08-.531-1.46.616-.48,1.254-.08,1.785-.32-.8-.486-.434-1.486-1.244-3.16.32-.41.841-.04,1.277-.31.053-.33.106-.72.158-1.1.33.55.979.93.83,1.64.053.12.095.24.149.36.277-.44,1.116-.09,1.212-.78-.383-.64-.383-.64,0-1.29-.014-.634-.01-1.987,1.818-1.71,1.035-.6.535-1.4,2.01-3.39.537.063,1.037,1.078,1.446-.46.159,1.437.207.712-2.084,3,.213.54-.393.83-.457,1.28h.67c.478.29.074.8.35,1.2.723-.08.681-.81,1.063-1.16.446.31-.053.84.319,1.16.384,0,.607-.6,1.234-.16v2.81c.52-.01,1.18.15.787-1.01.723.49,1.244.68.978,1.45.755-.2,1.488.46,1.871-.44-.085-.52-.638-.69-.9-1.08.149-.4.978.05.9-.63.222-.42.457-.84.691-1.29.446.53.011,1.12.393,1.72h.734c.29-.374-.632-1.146.457-2.14.542-.42,1.1-.84,1.711-1.31.075.5.128.88.192,1.26.362.1,1.2-1.78,1.276.05.872.2.287.86.457,1.28h.9c.1-.4.361-.65.914-.84v1.7c.127.05.255.09.383.14-.417.406-.056.264-1.3.28-.2.911.642,1.331-.9,3h2.956c.511,1.86,1.35,2.478,1.138-1.56-.038-.223,2.119-.215,1.361,1.13.354.178-.3.714.9,1.71-.365-.405.639-1.757,1.372-3.42-1.594-.617.556-1.606-2.7-2.33-.235-.77.851-.87.883-1.52-.748.037.348-.424-1.84-1.57.862-.3,1.733-.6,2.627-.91.3.655-.673.054-1.244,1.63,1.434.362,2.826,5.961,3.179.42-.788-1.4.194-1.279,2.509-1.71.406-.057.051-.546,1.584-.42-.011-.3.138-.44.457-.43-.04-1.18.09-.591-.075-3.47h1.765c-.008.969-.242.512.435,2.19.9,1.053.719.923.043,3.38.691-.13.947-1.14,1.775-.82a1.834,1.834,0,0,1,1.138-1.76c.35.51.169.93.233,1.33h.448c.319-.75,1.094-1.11,1.583-1.73,1.009.651-1.115,2.656.691,3.44.775-.669-.069,1.9,1.808.63-.107-.1-.213-.2-.372-.34a1.037,1.037,0,0,1,.84-.71c-.307-.91-1.19-.16-1.754-.57v-2.38c.659.1.915,1.15,1.754.81.086-.85-.925-1.58-.287-2.53h.574a11.988,11.988,0,0,0,.616,4.24c.8-.338-.13,1.734,1.085.92a2.638,2.638,0,0,1,.733,2.07c.777.14.447.96.915,1.28-.095,2.823.227-2.532,2.275-1.28.626.266,1.854-.4,4.54-.43v-.42c-.1.079-2.113-1.5.457-2.14-.03-.217.466-1.117,1.733-1.13-.1.36-.521.67-.372,1.13.568.259.463.537.457,2.14.241.169.239-.137,0,1.28.32-.01.468.13.457.43,3.972-.486-.561,6.059,3.86,5.98.467-.4.213-.7-.16-1,0-.361.565-.182,1.3-1.13h-1.669c.125-.254-.584-.426.309-1.29.254-.873-.667-1.823.457-3.42-.178-.473.882-1.816,1.361.43h.9v-1.51c.6-.37,1.213-.15,2.084-.14-.713.4-1.479.41-1.17,1.22.32.239,1.476.072.457,1.28.011.3-.138.44-.457.43.007.481.28.01,1.361.86,1.111.467-.279.325.915,2.14.72.192.076-2.081,1.818-.86.585.354.037-.33,1.818-.43v-.43c-.457.03-.553-.42-.945-.62.383.253.226-1.424,1.849-.66h.915c.149-.28.3-.57.457-.85-2.409,0-1.106-4.35,1.818-.43.475-.061.071.272,1.818.43v-2.09c1.074.29.894,1.02.9,1.66.3.517.93.272.457,3.42.489.16.819-.28,1.383-.37-.022.77-.777,1.34-.479,2.08.841,0,.841,0,1.829.86.34-.07.862.21.9-.43-1.031-.31-.042-1.08-.531-1.46.617-.48,1.254-.08,1.786-.32-.808-.488-.427-1.488-1.244-3.16.319-.41.84-.04,1.276-.31.053-.33.106-.72.16-1.1.319.55.977.93.829,1.64.053.12.1.24.149.36.277-.44,1.116-.09,1.212-.78-.393-.64-.393-.64,0-1.29-.013-.634-.009-1.987,1.818-1.71,1.037-.6.536-1.4,2.01-3.39.528.063,1.042,1.078,1.446-.46.154,1.44.218.711-2.095,3,.224.54-.382.83-.446,1.28h.67c.467.29.064.8.35,1.2.713-.08.681-.81,1.063-1.16.446.31-.053.84.319,1.16.383,0,.606-.6,1.233-.16v2.81c.521-.01,1.18.15.787-1.01.723.49,1.244.68.979,1.45.755-.2,1.489.46,1.871-.44-.085-.52-.638-.69-.9-1.08.149-.4.978.05.9-.63.223-.42.446-.84.691-1.29.448.53.011,1.12.394,1.72h.734c.29-.374-.632-1.146.457-2.14.542-.42,1.1-.84,1.711-1.31.075.5.128.88.181,1.26.365.108,1.214-1.783,1.287.05.872.2.277.86.457,1.28h.9c.1-.4.362-.65.915-.84v1.7c.128.05.254.09.382.14-.417.406-.055.264-1.3.28-.2.911.642,1.331-.9,3h2.945c.528,1.851,1.359,2.487,1.137-1.56-.03-.222,2.123-.218,1.372,1.13.36.175-.311.725.9,1.71-.362-.405.634-1.752,1.372-3.42-1.6-.616.552-1.6-2.712-2.33-.223-.77.862-.87.883-1.52-.738.039.352-.431-1.828-1.57.86-.3,1.733-.6,2.615-.91.309.655-.661.053-1.233,1.63,1.434.364,2.822,5.961,3.179.42-.8-1.39.186-1.283,2.509-1.71.481-.169.26-.564,1.585-.42-.011-.3.138-.44.457-.43-.04-1.18.091-.591-.075-3.47h1.766c-.009.97-.249.512.436,2.19.9,1.053.712.925.042,3.38.691-.13.947-1.14,1.776-.82a1.835,1.835,0,0,1,1.137-1.76c.352.51.171.93.224,1.33h.457c.319-.75,1.1-1.11,1.585-1.73,1.007.651-1.116,2.656.691,3.44.774-.669-.07,1.9,1.807.63-.106-.1-.213-.2-.373-.34a1.038,1.038,0,0,1,.84-.71c-.308-.91-1.19-.16-1.754-.57v-2.38c.66.1.914,1.15,1.754.81.086-.85-.936-1.58-.286-2.53h.574a11.716,11.716,0,0,0,.617,4.24c.8-.338-.13,1.734,1.084.92a2.643,2.643,0,0,1,.734,2.07c.776.14.446.96.915,1.28-.1,2.823.226-2.531,2.275-1.28.62.266,1.849-.4,4.54-.43v-.42c-.108.08-2.11-1.494.457-2.14-.029-.214.457-1.116,1.732-1.13-.095.36-.52.67-.371,1.13.567.259.463.537.457,2.14.241.168.237-.13,0,1.28.319-.01.467.13.457.43,3.965-.489-.55,6.052,3.849,5.98.478-.4.211-.7-.15-1,0-.361.565-.181,1.3-1.13h-1.67c.113-.253-.581-.427.308-1.29.257-.875-.677-1.825.457-3.42-.179-.473.882-1.816,1.361.43h.9v-1.51c.595-.37,1.2-.15,2.084-.14-.723.4-1.478.41-1.169,1.22.321.239,1.475.072.457,1.28.01.3-.15.44-.457.43.011.481.282.02,1.361.86,1.11.467-.28.325.913,2.14.721.192.076-2.081,1.819-.86.585.354.036-.33,1.817-.43v-.43c-.456.03-.552-.42-.945-.62.385.252.221-1.423,1.85-.66h.913c.15-.28.3-.57.448-.85-2.4,0-1.1-4.352,1.829-.43.474-.061.07.272,1.817.43v-2.09c1.074.29.894,1.02.9,1.66.3.517.928.272.457,3.42.488.16.818-.28,1.371-.37-.01.77-.765,1.34-.467,2.08.84,0,.84,0,1.818.86.35-.07.871.21.914-.43-1.032-.31-.042-1.08-.531-1.46.617-.48,1.244-.08,1.786-.32-.808-.488-.427-1.487-1.244-3.16.319-.41.839-.04,1.276-.31.053-.33.107-.72.16-1.1.319.55.978.93.829,1.64.043.12.1.24.149.36.267-.44,1.117-.09,1.213-.78-.395-.64-.395-.64,0-1.29-.014-.634-.01-1.987,1.818-1.71,1.03-.594.538-1.4,2.009-3.39.523.06,1.048,1.08,1.436-.46.166,1.439.23.711-2.083,3,.222.54-.384.83-.448,1.28h.67c.468.29.064.8.352,1.2.712-.08.68-.81,1.062-1.16.447.31-.053.84.309,1.16.393,0,.617-.6,1.244-.16v2.81c.521-.01,1.18.15.787-1.01.723.49,1.244.68.979,1.45.744-.2,1.489.46,1.871-.44-.084-.52-.638-.69-.9-1.08.149-.4.978.05.9-.63.224-.42.448-.84.692-1.29.446.53.01,1.12.393,1.72h.733c.284-.373-.618-1.142.448-2.14.552-.42,1.1-.84,1.722-1.31.074.5.128.88.181,1.26.365.107,1.213-1.783,1.286.05.873.2.277.86.448,1.28h.913c.1-.4.363-.65.915-.84v1.7c.117.05.245.09.372.14-.4.41-.049.262-1.287.28-.2.907.65,1.339-.913,3h2.955c.528,1.851,1.36,2.487,1.138-1.56-.035-.223,2.109-.215,1.371,1.13.361.175-.311.724.9,1.71-.362-.4.635-1.746,1.362-3.42-1.585-.622.56-1.6-2.7-2.33-.224-.77.861-.87.883-1.52-.739.039.35-.432-1.829-1.57.862-.3,1.734-.6,2.616-.91.314.655-.682.049-1.234,1.63,1.435.364,2.81,5.958,3.179.42-.815-1.39.2-1.282,2.5-1.71.489-.166.267-.564,1.595-.42-.01-.3.139-.44.447-.43-.034-1.18.077-.591-.064-3.47h1.754c.007.97-.24.512.447,2.19.893,1.051.715.928.043,3.38.691-.13.945-1.14,1.775-.82a1.834,1.834,0,0,1,1.138-1.76c.35.51.169.93.223,1.33h.457c.308-.75,1.1-1.11,1.584-1.73,1.259.834-1.464,2.212.691,3.44.762-.669-.064,1.9,1.807.63-.117-.1-.223-.2-.372-.34a1.035,1.035,0,0,1,.84-.71c-.309-.91-1.191-.16-1.754-.57v-2.38c.659.1.915,1.15,1.754.81.085-.85-.935-1.58-.287-2.53h.574a11.419,11.419,0,0,0,.617,4.24c.8-.338-.131,1.735,1.084.92a2.636,2.636,0,0,1,.734,2.07c.777.14.447.96.915,1.28-.095,2.821.227-2.525,2.264-1.28.629.265,1.855-.4,4.551-.43v-.42c-.1.08-2.117-1.495.457-2.14-.029-.214.457-1.116,1.733-1.13-.1.36-.532.67-.372,1.13.567.259.463.537.457,2.14.242.168.236-.129,0,1.28.309-.01.467.13.457.43,3.965-.489-.55,6.053,3.849,5.98.478-.4.212-.7-.149-1,0-.361.564-.181,1.3-1.13h-1.669c.113-.253-.581-.427.308-1.29-.441-.941.5-6.554,1.818-2.99h.9v-1.51c.6-.37,1.2-.15,2.084-.14-.723.4-1.478.41-1.169,1.22.323.239,1.474.073.446,1.28.021.3-.137.44-.446.43.011.481.281.019,1.361.86,1.1.467-.267.326.9,2.14.733.2.081-2.08,1.818-.86.6.353.032-.326,1.829-.43v-.43c-.458.03-.553-.42-.947-.62.385.252.223-1.423,1.85-.66h.915c.148-.28.3-.57.446-.85-2.4,0-1.089-4.355,1.818-.43.486-.059.064.264,1.818.43v-2.09c1.074.29.9,1.02.915,1.66.3.517.928.272.457,3.42.489.16.819-.28,1.371-.37-.01.77-.765,1.34-.467,2.08.84,0,.84,0,1.818.86.35-.07.872.21.915-.43-1.031-.31-.043-1.08-.532-1.46.617-.48,1.244-.08,1.786-.32.064-.58-.531-.21-.808-.68-.3-.469.649-1.1-.435-2.48.308-.41.84-.04,1.275-.31.043-.33.107-.72.16-1.1.32.55.979.93.83,1.64.042.12.1.24.149.36.266-.44,1.116-.09,1.212-.78-.393-.64-.393-.64,0-1.29-.014-.634-.01-1.987,1.818-1.71,1.021-.594.538-1.4,2-3.39.538.064,1.044,1.077,1.446-.46.157,1.437.221.705-2.084,3,.224.54-.382.83-.457,1.28h.681c.467.29.064.8.351,1.2.713-.08.67-.81,1.063-1.16.446.31-.053.84.309,1.16.393,0,.616-.6,1.233-.16v2.81c.532-.01,1.191.15.787-1.01.723.49,1.255.68.988,1.45.745-.2,1.489.46,1.861-.44-.075-.52-.627-.69-.893-1.08.149-.4.968.05.893-.63.234-.42.457-.84.7-1.29.447.53.011,1.12.383,1.72h.745c.33-.361-.7-.489.446-2.14.553-.42,1.1-.84,1.722-1.31.075.5.128.88.181,1.26.365.107,1.213-1.783,1.287.05.872.2.277.86.446,1.28h.915c.095-.4.361-.65.9-.84v1.7c.128.05.255.09.383.14-.4.41-.049.262-1.286.28-.2.907.647,1.343-.915,3h2.956c.527,1.855,1.353,2.485,1.138-1.56-.041-.225,2.13-.209,1.361,1.13.37.177-.307.719.915,1.71-.2-.513.227-1.144,1.361-3.42-1.59-.618.555-1.606-2.7-2.33-.234-.77.861-.87.883-1.52-.745.039.365-.431-1.839-1.57.872-.3,1.743-.6,2.626-.91.312.655-.671.048-1.244,1.63,1.442.354,2.821,5.965,3.19.42-.818-1.391.2-1.281,2.5-1.71.41-.059.049-.547,1.6-.42-.022-.3.138-.44.446-.43-.034-1.18.078-.591-.064-3.47h1.754c.008.97-.24.512.447,2.19.906,1.056.7.933.043,3.38.691-.13.947-1.14,1.775-.82a1.834,1.834,0,0,1,1.138-1.76c.35.51.17.93.222,1.33h.458c.309-.75,1.1-1.11,1.584-1.73,1.26.834-1.462,2.212.691,3.44.764-.669-.067,1.892,1.8.63l-.362-.34a1.037,1.037,0,0,1,.829-.71c-.3-.91-1.179-.16-1.743-.57v-2.38c.659.1.914,1.15,1.743.81.086-.85-.924-1.58-.286-2.53h.585a11.308,11.308,0,0,0,.616,4.24c.8-.338-.13,1.735,1.085.92a2.645,2.645,0,0,1,.734,2.07c.776.14.435.96.9,1.28-.073,2.823.229-2.53,2.276-1.28.628.265,1.854-.4,4.55-.43v-.42c-.1.08-2.116-1.495.457-2.14-.03-.219.457-1.118,1.722-1.13-.085.36-.52.67-.361,1.13.561.26.468.538.457,2.14.248.167.227-.121,0,1.28.309-.01.457.13.447.43,3.978-.5-.56,6.052,3.859,5.98.478-.4.213-.7-.149-1,0-.361.564-.181,1.3-1.13h-1.679c.114-.256-.561-.416.308-1.29.254-.873-.667-1.823.458-3.42-.185-.48.907-1.813,1.362.43h.913v-1.51c.6-.37,1.2-.15,2.085-.14-.724.4-1.489.41-1.17,1.22.325.24,1.473.075.446,1.28.011.3-.138.44-.446.43,0,.481.28.016,1.361.86,1.1.469-.272.329.9,2.14.726.195.079-2.078,1.819-.86.6.351.03-.32,1.817-.43v-.43c-.458.03-.542-.42-.936-.62.386.254.225-1.434,1.85-.66h.9c.16-.28.309-.57.457-.85-2.4,0-1.086-4.354,1.818-.43.488-.061.064.27,1.818.43v-2.09c1.074.29.894,1.02.915,1.66.3.517.928.272.457,3.42.489.16.819-.28,1.372-.37-.011.77-.766,1.34-.469,2.08.84,0,.84,0,1.818.86.34-.07.872.21.915-.43-1.031-.31-.043-1.08-.531-1.46.606-.48,1.244-.08,1.786-.32.064-.58-.532-.21-.809-.68-.3-.468.644-1.1-.435-2.48.308-.41.84-.04,1.276-.31.042-.33.095-.72.159-1.1.319.55.978.93.819,1.64.054.12.107.24.149.36.276-.44,1.127-.09,1.223-.78-.394-.64-.394-.64,0-1.29-.014-.634-.009-1.987,1.818-1.71,1.027-.594.527-1.4,2-3.39.538.064,1.045,1.077,1.446-.46.163,1.436.208.711-2.084,3,.224.54-.393.83-.457,1.28h.681c.467.29.064.8.351,1.2.713-.08.67-.81,1.052-1.16.447.31-.042.84.319,1.16.393,0,.617-.6,1.233-.16v2.81c.532-.01,1.191.15.787-1.01.723.49,1.255.68.979,1.45.755-.2,1.5.46,1.871-.44-.085-.52-.627-.69-.893-1.08.149-.4.968.05.893-.63.235-.42.457-.84.7-1.29.447.53.011,1.12.383,1.72h.734c.29-.374-.632-1.146.457-2.14.553-.42,1.1-.84,1.722-1.31.075.5.128.88.181,1.26.36.107,1.225-1.783,1.276.05.883.2.288.86.457,1.28h.915c.085-.4.362-.65.9-.84v1.7c.128.05.256.09.383.14-.4.4-.056.266-1.287.28-.2.907.647,1.343-.915,3h2.957c.517,1.857,1.348,2.483,1.137-1.56-.041-.225,2.131-.209,1.361,1.13.356.174-.3.727.914,1.71-.2-.512.229-1.145,1.361-3.42-1.59-.617.556-1.606-2.7-2.33-.234-.77.862-.87.883-1.52-.756.039.367-.433-1.839-1.57.872-.3,1.743-.6,2.626-.91.3.655-.669.051-1.244,1.63,1.444.357,2.819,5.965,3.19.42-.814-1.387.192-1.285,2.5-1.71.405-.057.052-.546,1.583-.42-.011-.3.149-.44.457-.43-.034-1.18.078-.591-.064-3.47h1.754c0,.97-.25.512.447,2.19.9,1.047.689.929.042,3.38.681-.13.947-1.14,1.776-.82a1.819,1.819,0,0,1,1.137-1.76c.352.51.17.93.224,1.33h.457c.309-.75,1.1-1.11,1.574-1.73,1.249.831-1.438,2.208.691,3.44.774-.669-.068,1.888,1.807.63l-.362-.34a1.038,1.038,0,0,1,.83-.71c-.309-.91-1.18-.16-1.744-.57v-2.38c.66.1.915,1.15,1.744.81.085-.85-.926-1.58-.288-2.53h.585a11.2,11.2,0,0,0,.617,4.24c.8-.337-.138,1.735,1.084.92a2.639,2.639,0,0,1,.734,2.07c.765.14.435.96.9,1.28-.072,2.823.227-2.528,2.275-1.28.616.265,1.862-.4,4.551-.43v-.42c-.107.081-2.108-1.491.446-2.14a1.633,1.633,0,0,1,1.733-1.13c-.086.36-.521.67-.361,1.13.554.262.452.54.446,2.14.251.169.232-.139,0,1.28.318-.01.467.13.457.43,3.976-.5-.558,6.055,3.859,5.98.479-.4.213-.7-.149-1,0-.362.55-.176,1.3-1.13h-1.679c.123-.256-.581-.419.309-1.29.253-.873-.668-1.823.457-3.42-.183-.472.889-1.824,1.361.43h.914v-1.51c.6-.37,1.2-.15,2.084-.14-.723.4-1.489.41-1.18,1.22.333.239,1.469.073.457,1.28.01.3-.139.44-.457.43.008.481.287.015,1.372.86,1.1.469-.292.33.9,2.14.726.195.078-2.078,1.818-.86.6.354.029-.328,1.818-.43v-.43c-.457.03-.543-.42-.936-.62.385.254.225-1.433,1.849-.66h.9c.159-.28.308-.57.457-.85-2.389.008-1.1-4.358,1.818-.43.487-.061.063.27,1.818.43v-2.09c1.073.29.893,1.02.914,1.66.292.517.936.272.447,3.42.5.16.829-.28,1.382-.37-.011.77-.766,1.34-.467,2.08.84,0,.84,0,1.817.86.341-.07.873.21.9-.43-1.021-.31-.032-1.08-.521-1.46.606-.48,1.244-.08,1.775-.32.075-.58-.52-.21-.8-.68-.3-.468.644-1.1-.437-2.48.309-.41.83-.04,1.276-.31.043-.33.1-.72.149-1.1.33.55.989.93.83,1.64.053.12.106.24.149.36.277-.44,1.127-.09,1.212-.78-.384-.64-.384-.64,0-1.29-.014-.639-.008-1.986,1.828-1.71,1.016-.59.533-1.4,2-3.39.537.064,1.045,1.078,1.447-.46.162,1.436.208.711-2.083,3,.222.54-.395.83-.457,1.28h.67c.478.29.074.8.351,1.2.723-.08.68-.81,1.063-1.16.446.31-.053.84.319,1.16.393,0,.617-.6,1.234-.16v2.81c.531-.01,1.19.15.787-1.01.723.49,1.243.68.977,1.45.755-.2,1.5.46,1.872-.44-.086-.52-.638-.69-.894-1.08.138-.4.968.05.894-.63.234-.42.457-.84.7-1.29.447.53,0,1.12.384,1.72h.734c.289-.374-.633-1.146.457-2.14.542-.42,1.094-.84,1.722-1.31.064.5.127.88.181,1.26.362.111,1.214-1.785,1.276.05.882.2.287.86.456,1.28h.915c.085-.4.362-.65.9-.84v1.7c.127.05.255.09.383.14-.411.4-.052.266-1.287.28-.2.905.647,1.343-.915,3h2.956c.517,1.857,1.349,2.483,1.137-1.56-.037-.224,2.121-.213,1.362,1.13.356.174-.3.727.914,1.71-.2-.512.229-1.145,1.361-3.42-1.59-.617.556-1.606-2.7-2.33-.235-.77.85-.87.882-1.52-.753.035.361-.417-1.839-1.57.872-.3,1.744-.6,2.626-.91.3.655-.668.051-1.243,1.63,1.439.354,2.825,5.968,3.179.42-.788-1.4.2-1.281,2.509-1.71.406-.057.052-.546,1.584-.42-.011-.3.138-.44.457-.43-.034-1.18.078-.591-.064-3.47h1.754c0,.968-.247.512.435,2.19.921,1.041.7.931.053,3.38.681-.13.937-1.14,1.765-.82a1.829,1.829,0,0,1,1.148-1.76c.351.51.171.93.224,1.33h.457c.309-.75,1.084-1.11,1.573-1.73,1.249.831-1.437,2.208.691,3.44.774-.669-.068,1.888,1.808.63l-.362-.34a1.035,1.035,0,0,1,.829-.71c-.308-.91-1.18-.16-1.743-.57v-2.38c.659.1.915,1.15,1.743.81.085-.85-.924-1.58-.286-2.53h.573a11.681,11.681,0,0,0,.628,4.24c.8-.337-.146,1.735,1.074.92a2.613,2.613,0,0,1,.744,2.07c.766.14.436.96.9,1.28-.078,2.824.229-2.525,2.275-1.28.619.266,1.864-.4,4.551-.43v-.42c-.107.081-2.108-1.492.446-2.14a1.633,1.633,0,0,1,1.733-1.13c-.085.36-.521.67-.362,1.13.557.265.452.542.446,2.14.252.169.234-.139,0,1.28.32-.01.468.13.457.43,3.986-.487-.567,6.054,3.86,5.98.479-.4.213-.7-.16-1,.006-.363.566-.171,1.3-1.13h-1.669c.123-.255-.58-.423.308-1.29.254-.873-.667-1.823.457-3.42-.183-.472.889-1.824,1.361.43h.915v-1.51c.6-.37,1.2-.15,2.074-.14-.713.4-1.479.41-1.17,1.22.331.239,1.47.072.457,1.28.011.3-.139.44-.457.43,0,.481.3.015,1.361.86,1.11.467-.28.325.915,2.14.725.2.071-2.077,1.818-.86.6.354.03-.328,1.818-.43v-.43c-.457.03-.553-.42-.946-.62.384.253.229-1.431,1.861-.66h.9c.149-.28.309-.57.457-.85-2.389.007-1.1-4.357,1.818-.43.474-.061.071.272,1.818.43v-2.09c1.074.29.893,1.02.9,1.66.3.517.929.272.457,3.42.5.16.83-.28,1.383-.37-.022.77-.777,1.34-.468,2.08.83,0,.83,0,1.818.86.341-.07.872.21.9-.43-1.021-.31-.043-1.08-.531-1.46.616-.48,1.254-.08,1.786-.32-.787-.487-.449-1.473-1.234-3.16.309-.41.83-.04,1.276-.31.043-.33.1-.72.149-1.1.329.55.978.93.83,1.64.053.12.1.24.148.36.277-.44,1.127-.09,1.212-.78-.382-.64-.382-.64,0-1.29-.014-.634-.009-1.987,1.818-1.71,1.035-.6.535-1.4,2.01-3.39.536.062,1.036,1.079,1.446-.46.159,1.437.207.712-2.084,3,.223.54-.394.83-.457,1.28h.67c.478.29.074.8.351,1.2.723-.08.681-.81,1.063-1.16.446.31-.053.84.319,1.16.383,0,.606-.6,1.234-.16v2.81c.521-.01,1.191.15.787-1.01.723.49,1.244.68.979,1.45.755-.2,1.5.46,1.871-.44-.085-.52-.638-.69-.894-1.08.139-.4.968.05.894-.63.224-.42.457-.84.691-1.29.446.53.011,1.12.393,1.72h.734c.29-.374-.632-1.146.457-2.14.542-.42,1.1-.84,1.711-1.31.075.5.139.88.192,1.26.361.1,1.2-1.78,1.276.05.883.2.287.86.457,1.28h.9c.1-.4.372-.65.915-.84v1.7c.128.05.255.09.382.14-.417.406-.055.264-1.3.28-.2.9.648,1.345-.9,3h2.956c.514,1.861,1.352,2.478,1.138-1.56-.038-.223,2.118-.215,1.361,1.13.359.174-.3.729.915,1.71-.2-.512.228-1.145,1.361-3.42-1.594-.617.556-1.606-2.7-2.33-.234-.77.851-.87.883-1.52-.748.037.348-.424-1.84-1.57.862-.3,1.744-.6,2.627-.91.3.655-.671.052-1.244,1.63,1.44.358,2.824,5.964,3.179.42-.788-1.4.193-1.279,2.509-1.71.406-.057.053-.546,1.584-.42-.011-.3.138-.44.457-.43-.034-1.18.078-.591-.064-3.47h1.755c-.008.969-.242.512.436,2.19.908,1.04.716.927.042,3.38.691-.13.947-1.14,1.776-.82a1.833,1.833,0,0,1,1.137-1.76c.351.51.181.93.234,1.33h.447c.318-.75,1.1-1.11,1.584-1.73,1.256.833-1.458,2.215.691,3.44.776-.669-.069,1.9,1.808.63l-.361-.34a1.022,1.022,0,0,1,.829-.71c-.307-.91-1.19-.16-1.754-.57v-2.38c.66.1.926,1.15,1.754.81.086-.85-.925-1.58-.286-2.53h.574a11.983,11.983,0,0,0,.617,4.24c.8-.338-.131,1.734,1.084.92a2.643,2.643,0,0,1,.734,2.07c.776.14.446.96.914,1.28-.089,2.82.226-2.521,2.275-1.28.625.266,1.854-.4,4.54-.43v-.42c-.1.079-2.113-1.5.457-2.14a1.633,1.633,0,0,1,1.734-1.13c-.1.36-.521.67-.372,1.13.567.259.463.537.456,2.14.242.169.239-.137,0,1.28.32-.01.468.13.457.43,3.984-.487-.567,6.055,3.86,5.98.468-.4.213-.7-.16-1,.007-.363.562-.169,1.3-1.13h-1.668c.124-.254-.585-.425.307-1.29.254-.873-.667-1.823.457-3.42-.179-.473.881-1.816,1.361.43h.915v-1.51c.6-.37,1.2-.15,2.074-.14-.713.4-1.478.41-1.17,1.22.322.239,1.476.072.457,1.28.011.3-.138.44-.457.43,0,.481.3.015,1.361.86,1.111.467-.28.325.915,2.14.72.192.076-2.081,1.818-.86.585.355.037-.33,1.818-.43v-.43c-.457.03-.553-.42-.946-.62.377.253.241-1.43,1.849-.66h.915c.149-.28.3-.57.457-.85-2.415,0-1.094-4.352,1.818-.43.475-.061.071.272,1.818.43v-2.09c1.074.29.894,1.02.9,1.66.3.517.93.272.457,3.42.489.16.819-.28,1.383-.37-.022.77-.777,1.34-.468,2.08.83,0,.83,0,1.818.86.341-.07.862.21.9-.43-1.02-.31-.042-1.08-.531-1.46.617-.48,1.255-.08,1.786-.32-.8-.486-.433-1.486-1.244-3.16.319-.41.84-.04,1.276-.31.053-.33.106-.72.16-1.1.318.55.978.93.829,1.64.053.12.1.24.149.36.277-.44,1.116-.09,1.212-.78-.382-.64-.382-.64,0-1.29-.013-.634-.009-1.987,1.818-1.71,1.035-.6.536-1.4,2.01-3.39.528.063,1.042,1.078,1.446-.46.16,1.437.206.712-2.084,3,.213.54-.393.83-.457,1.28h.67c.478.29.075.8.35,1.2.724-.08.681-.81,1.063-1.16.447.31-.053.84.319,1.16.383,0,.606-.6,1.233-.16v2.81c.521-.01,1.18.15.787-1.01.723.49,1.244.68.979,1.45.755-.2,1.489.46,1.871-.44-.085-.52-.638-.69-.9-1.08.149-.4.979.05.9-.63.224-.42.457-.84.691-1.29.447.53.011,1.12.393,1.72h.734c.29-.374-.632-1.146.457-2.14.542-.42,1.1-.84,1.712-1.31.074.5.127.88.191,1.26.361.1,1.2-1.78,1.276.05.872.2.277.86.457,1.28h.9c.1-.4.361-.65.914-.84v1.7c.128.05.256.09.384.14-.418.405-.056.264-1.3.28-.2.911.642,1.331-.9,3h2.957c.506,1.86,1.351,2.478,1.137-1.56-.038-.223,2.119-.215,1.361,1.13.36.175-.311.724.9,1.71-.362-.405.634-1.752,1.372-3.42-1.594-.617.556-1.606-2.7-2.33-.234-.77.851-.87.883-1.52-.748.037.35-.422-1.839-1.57.861-.3,1.733-.6,2.626-.91.3.655-.672.054-1.244,1.63,1.434.364,2.822,5.961,3.179.42-.788-1.4.194-1.279,2.509-1.71.481-.169.261-.564,1.585-.42-.011-.3.139-.44.457-.43-.039-1.18.091-.591-.074-3.47h1.764c-.009.97-.248.512.436,2.19.9,1.053.719.923.042,3.38.692-.13.947-1.14,1.776-.82a1.835,1.835,0,0,1,1.137-1.76c.352.51.171.93.224,1.33h.457c.319-.75,1.1-1.11,1.585-1.73,1.007.651-1.116,2.656.691,3.44.775-.669-.07,1.9,1.807.63-.106-.1-.213-.2-.372-.34a1.037,1.037,0,0,1,.841-.71c-.309-.91-1.191-.16-1.754-.57v-2.38c.659.1.913,1.15,1.754.81.085-.85-.936-1.58-.288-2.53h.574a11.878,11.878,0,0,0,.617,4.24c.8-.338-.131,1.734,1.084.92a2.638,2.638,0,0,1,.734,2.07c.776.14.446.96.915,1.28-.1,2.823.226-2.532,2.276-1.28.625.266,1.853-.4,4.54-.43v-.42c-.1.079-2.113-1.5.457-2.14-.031-.217.465-1.117,1.732-1.13-.095.36-.52.67-.372,1.13.567.259.464.537.457,2.14.242.168.237-.13,0,1.28.319-.01.467.13.457.43,3.965-.489-.55,6.052,3.849,5.98.478-.4.223-.7-.149-1,0-.361.564-.181,1.3-1.13h-1.67c.125-.254-.584-.425.309-1.29.252-.873-.668-1.823.457-3.42-.179-.473.881-1.816,1.361.43h.9v-1.51c.595-.37,1.212-.15,2.084-.14-.712.4-1.478.41-1.169,1.22.32.239,1.475.072.457,1.28.01.3-.139.44-.457.43.007.481.28.01,1.361.86,1.11.467-.281.325.914,2.14.72.192.075-2.081,1.818-.86.585.355.036-.33,1.818-.43v-.43c-.457.03-.553-.42-.947-.62.385.252.222-1.423,1.85-.66h.915c.149-.28.3-.57.457-.85-2.41,0-1.106-4.35,1.817-.43.475-.061.071.272,1.819.43v-2.09c1.073.29.893,1.02.9,1.66.3.517.929.273.457,3.42.488.16.818-.28,1.382-.37-.021.77-.776,1.34-.478,2.08.84,0,.84,0,1.818.86.35-.07.872.21.915-.43-1.031-.31-.043-1.08-.532-1.46.617-.48,1.255-.08,1.786-.32-.808-.488-.427-1.487-1.244-3.16.32-.41.841-.04,1.276-.31.053-.33.107-.72.16-1.1.319.55.979.93.83,1.64.042.12.095.24.149.36.276-.44,1.116-.09,1.212-.78-.394-.64-.394-.64,0-1.29-.014-.634-.01-1.987,1.818-1.71,1.034-.594.536-1.4,2.009-3.39.529.063,1.042,1.078,1.447-.46.154,1.44.217.712-2.095,3,.223.54-.383.83-.447,1.28h.67c.468.29.064.8.351,1.2.712-.08.68-.81,1.063-1.16.446.31-.054.84.318,1.16.382,0,.606-.6,1.234-.16v2.81c.52-.01,1.179.15.786-1.01.724.49,1.244.68.979,1.45.755-.2,1.489.46,1.871-.44-.085-.52-.638-.69-.9-1.08.149-.4.978.05.9-.63.224-.42.447-.84.692-1.29.446.53.01,1.12.393,1.72h.733c.291-.374-.632-1.146.457-2.14.543-.42,1.085-.84,1.712-1.31.074.5.128.88.181,1.26.364.107,1.213-1.783,1.286.05.873.2.277.86.457,1.28h.9c.1-.4.362-.65.914-.84v1.7c.128.05.255.09.383.14-.417.406-.056.264-1.3.28-.2.909.635,1.334-.9,3h2.945c.528,1.851,1.36,2.487,1.138-1.56-.042-.222,2.125-.218,1.371,1.13.361.175-.311.725.9,1.71-.364-.4.637-1.749,1.361-3.42-1.585-.621.56-1.6-2.7-2.33-.224-.77.861-.87.882-1.52-.739.039.351-.431-1.829-1.57.862-.3,1.733-.6,2.616-.91.309.656-.676.059-1.234,1.63,1.441.363,2.808,5.962,3.179.42-.8-1.39.186-1.283,2.51-1.71.48-.169.26-.564,1.584-.42-.01-.3.139-.44.457-.43-.039-1.18.091-.591-.074-3.47h1.754c.008.97-.24.512.446,2.19.9,1.053.712.925.043,3.38.691-.13.946-1.14,1.775-.82a1.835,1.835,0,0,1,1.138-1.76c.351.51.17.93.223,1.33h.457c.319-.75,1.1-1.11,1.585-1.73,1.26.834-1.463,2.212.691,3.44.775-.669-.07,1.9,1.807.63-.106-.1-.212-.2-.371-.34a1.036,1.036,0,0,1,.84-.71c-.308-.91-1.191-.16-1.754-.57v-2.38c.659.1.915,1.15,1.754.81.085-.85-.936-1.58-.287-2.53h.575a11.674,11.674,0,0,0,.616,4.24c.8-.338-.13,1.735,1.084.92a2.636,2.636,0,0,1,.734,2.07c.777.14.447.96.915,1.28-.1,2.821.235-2.528,2.265-1.28.63.265,1.855-.4,4.551-.43v-.42c-.108.08-2.11-1.494.457-2.14-.029-.214.457-1.116,1.733-1.13-.1.36-.532.67-.372,1.13.567.259.463.537.457,2.14.242.168.237-.13,0,1.28.309-.01.468.13.457.43,3.966-.489-.55,6.052,3.849,5.98.478-.4.213-.7-.149-1,0-.361.564-.181,1.3-1.13h-1.669c.113-.253-.581-.427.309-1.29-.4-.871.437-6.619,1.818-2.99h.9v-1.51c.595-.37,1.2-.15,2.084-.14-.723.4-1.478.41-1.169,1.22.321.239,1.475.072.457,1.28.01.3-.149.44-.457.43.011.481.281.019,1.361.86,1.11.467-.28.325.915,2.14.725.193.064-2.08,1.818-.86.585.354.036-.33,1.818-.43v-.43c-.457.03-.553-.42-.947-.62.385.252.223-1.423,1.85-.66h.914c.149-.28.3-.57.446-.85-2.4,0-1.089-4.354,1.818-.43.486-.059.065.264,1.818.43v-2.09c1.074.29.9,1.02.914,1.66.3.517.929.272.457,3.42.489.16.819-.28,1.372-.37-.011.77-.766,1.34-.468,2.08.84,0,.84,0,1.818.86.35-.07.871.21.915-.43-1.031-.31-.043-1.08-.532-1.46.617-.48,1.244-.08,1.786-.32-.807-.488-.426-1.487-1.243-3.16.318-.41.84-.04,1.275-.31.054-.33.107-.72.16-1.1.319.55.979.93.83,1.64.042.12.1.24.149.36.266-.44,1.116-.09,1.212-.78-.393-.64-.393-.64,0-1.29-.013-.634-.01-1.987,1.818-1.71,1.021-.594.538-1.4,2-3.39.538.064,1.044,1.077,1.446-.46.168,1.437.221.7-2.084,3,.224.54-.382.83-.457,1.28h.681c.467.29.064.8.351,1.2.713-.08.681-.81,1.063-1.16.446.31-.053.84.309,1.16.393,0,.616-.6,1.244-.16v2.81c.521-.01,1.18.15.787-1.01.723.49,1.244.68.977,1.45.745-.2,1.489.46,1.872-.44-.085-.52-.638-.69-.9-1.08.149-.4.977.05.9-.63.223-.42.446-.84.691-1.29.446.53.011,1.12.382,1.72h.745c.283-.373-.618-1.142.446-2.14.553-.42,1.1-.84,1.722-1.31.075.5.128.88.181,1.26.364.107,1.213-1.783,1.287.05.871.2.276.86.446,1.28h.915c.1-.4.361-.65.9-.84v1.7c.128.05.256.09.382.14-.4.41-.049.262-1.286.28-.2.907.649,1.339-.915,3h2.956c.527,1.851,1.359,2.487,1.137-1.56-.035-.223,2.109-.215,1.372,1.13.36.175-.311.724.9,1.71-.363-.4.635-1.745,1.361-3.42-1.585-.622.561-1.6-2.7-2.33-.234-.77.861-.87.883-1.52-.745.039.365-.431-1.839-1.57.872-.3,1.743-.6,2.626-.91.315.655-.682.049-1.233,1.63,1.434.364,2.809,5.958,3.179.42-.816-1.391.2-1.282,2.5-1.71.489-.166.268-.564,1.6-.42-.011-.3.138-.44.446-.43-.034-1.18.078-.591-.064-3.47h1.754c.008.97-.24.512.446,2.19.894,1.051.715.928.043,3.38.691-.13.947-1.14,1.775-.82a1.834,1.834,0,0,1,1.138-1.76c.35.51.17.93.224,1.33h.456c.308-.75,1.1-1.11,1.584-1.73,1.26.834-1.463,2.212.691,3.44.763-.669-.064,1.9,1.808.63-.117-.1-.224-.2-.372-.34a1.037,1.037,0,0,1,.83-.71c-.3-.91-1.18-.16-1.744-.57v-2.38c.659.1.915,1.15,1.744.81.085-.85-.926-1.58-.276-2.53h.574a11.421,11.421,0,0,0,.616,4.24c.8-.338-.13,1.735,1.085.92a2.639,2.639,0,0,1,.733,2.07c.777.14.436.96.915,1.28-.095,2.821.228-2.525,2.265-1.28.629.265,1.854-.4,4.55-.43v-.42c-.1.08-2.116-1.495.457-2.14-.028-.221.453-1.119,1.733-1.13-.1.36-.531.67-.372,1.13.568.259.464.537.457,2.14.243.168.237-.129,0,1.28.308-.01.468.13.447.43,3.977-.5-.539,6.051,3.859,5.98.478-.4.213-.7-.149-1,0-.361.564-.181,1.3-1.13h-1.669c.113-.253-.58-.427.308-1.29-.441-.941.5-6.554,1.818-2.99h.9v-1.51c.6-.37,1.2-.15,2.085-.14-.723.4-1.479.41-1.17,1.22.324.239,1.474.073.447,1.28.01.3-.139.44-.447.43,0,.481.28.016,1.361.86,1.1.467-.266.326.9,2.14.734.2.082-2.08,1.819-.86.6.351.03-.32,1.817-.43v-.43c-.456.03-.542-.42-.936-.62.386.252.223-1.423,1.85-.66h.915c.149-.28.3-.57.446-.85-2.4,0-1.089-4.354,1.819-.43.485-.059.064.264,1.817.43v-2.09c1.074.29.894,1.02.915,1.66.3.517.93.272.457,3.42.489.16.819-.28,1.372-.37-.011.77-.766,1.34-.468,2.08.841,0,.841,0,1.818.86.351-.07.873.21.915-.43-1.031-.31-.042-1.08-.531-1.46.616-.48,1.244-.08,1.786-.32.064-.58-.532-.21-.809-.68-.3-.468.644-1.1-.435-2.48.308-.41.84-.04,1.276-.31.042-.33.106-.72.159-1.1.319.55.978.93.82,1.64l.159.36c.266-.44,1.116-.09,1.212-.78-.393-.64-.393-.64,0-1.29-.013-.634-.009-1.987,1.818-1.71,1.022-.594.538-1.4,2-3.39.538.064,1.045,1.077,1.447-.46.157,1.437.221.705-2.085,3,.224.54-.393.83-.457,1.28h.681c.468.29.064.8.35,1.2.713-.08.67-.81,1.053-1.16.446.31-.043.84.318,1.16.393,0,.617-.6,1.233-.16v2.81c.532-.01,1.191.15.787-1.01.724.49,1.255.68.978,1.45.755-.2,1.5.46,1.871-.44-.085-.52-.627-.69-.893-1.08.149-.4.968.05.893-.63.235-.42.457-.84.7-1.29.446.53.011,1.12.383,1.72h.733c.328-.361-.689-.488.457-2.14.553-.42,1.1-.84,1.722-1.31.075.5.128.88.181,1.26.365.107,1.214-1.783,1.287.05.872.2.277.86.446,1.28h.915c.085-.4.361-.65.9-.84v1.7c.128.05.256.09.383.14-.4.41-.05.262-1.287.28-.2.907.647,1.343-.915,3h2.956c.526,1.855,1.352,2.485,1.137-1.56-.041-.225,2.131-.209,1.361,1.13.37.177-.307.719.915,1.71-.2-.513.228-1.144,1.361-3.42-1.589-.617.556-1.606-2.7-2.33-.234-.77.862-.87.883-1.52-.744.039.365-.431-1.839-1.57.872-.3,1.743-.6,2.626-.91.312.655-.671.048-1.244,1.63,1.443.354,2.821,5.965,3.19.42-.818-1.39.2-1.281,2.5-1.71.409-.059.048-.547,1.594-.42-.021-.3.138-.44.446-.43-.034-1.18.078-.591-.064-3.47h1.754c.008.97-.239.512.447,2.19.9,1.051.684.932.042,3.38.692-.13.947-1.14,1.776-.82a1.835,1.835,0,0,1,1.137-1.76c.351.51.171.93.224,1.33h.457c.308-.75,1.1-1.11,1.573-1.73,1.269.833-1.452,2.212.7,3.44.763-.669-.067,1.892,1.8.63l-.362-.34a1.038,1.038,0,0,1,.83-.71c-.309-.91-1.18-.16-1.744-.57v-2.38c.659.1.914,1.15,1.744.81.085-.85-.926-1.58-.288-2.53h.585a11.227,11.227,0,0,0,.617,4.24c.8-.337-.138,1.735,1.084.92a2.639,2.639,0,0,1,.734,2.07c.766.14.435.96.9,1.28-.073,2.823.23-2.53,2.275-1.28.629.265,1.854-.4,4.551-.43v-.42c-.1.08-2.117-1.495.457-2.14-.03-.219.455-1.118,1.722-1.13-.085.36-.521.67-.361,1.13.56.26.467.538.457,2.14.247.167.227-.121,0,1.28.307-.01.456.13.446.43,3.976-.5-.558,6.055,3.859,5.98.479-.4.214-.7-.149-1,0-.361.565-.181,1.3-1.13h-1.681c.115-.256-.561-.416.309-1.29.253-.873-.667-1.823.457-3.42-.186-.48.908-1.813,1.361.43h.915v-1.51c.595-.37,1.2-.15,2.084-.14-.723.4-1.489.41-1.18,1.22.329.238,1.486.071.457,1.28.01.3-.139.44-.457.43.008.481.287.015,1.372.86,1.1.469-.292.33.9,2.14.726.195.079-2.078,1.818-.86.6.351.03-.32,1.818-.43v-.43c-.457.03-.542-.42-.936-.62.385.254.225-1.433,1.85-.66h.9c.16-.28.308-.57.457-.85-2.4,0-1.094-4.355,1.818-.43.488-.061.064.27,1.818.43v-2.09c1.073.29.893,1.02.915,1.66.291.517.938.272.446,3.42.5.16.83-.28,1.382-.37-.01.77-.766,1.34-.467,2.08.84,0,.84,0,1.818.86.339-.07.872.21.915-.43-1.031-.31-.043-1.08-.532-1.46.606-.48,1.244-.08,1.775-.32.075-.58-.52-.21-.8-.68-.3-.468.644-1.1-.436-2.48.308-.41.84-.04,1.276-.31.043-.33.1-.72.16-1.1.319.55.979.93.819,1.64.053.12.106.24.149.36.277-.44,1.127-.09,1.223-.78-.394-.64-.394-.64,0-1.29-.014-.634-.01-1.987,1.817-1.71,1.026-.594.528-1.4,2-3.39.538.064,1.044,1.077,1.446-.46.162,1.436.208.711-2.084,3,.223.54-.393.83-.457,1.28h.68c.468.29.064.8.351,1.2.712-.08.67-.81,1.052-1.16.446.31-.053.84.318,1.16.393,0,.617-.6,1.234-.16v2.81c.531-.01,1.19.15.787-1.01.723.49,1.254.68.977,1.45.755-.2,1.5.46,1.872-.44-.086-.52-.638-.69-.893-1.08.149-.4.967.05.893-.63.234-.42.457-.84.7-1.29.446.53.01,1.12.382,1.72h.734c.29-.374-.632-1.146.457-2.14.552-.42,1.094-.84,1.722-1.31.074.5.127.88.181,1.26.361.111,1.214-1.785,1.276.05.883.2.286.86.457,1.28h.914c.086-.4.362-.65.9-.84v1.7c.127.05.255.09.382.14-.4.4-.055.266-1.287.28-.2.907.647,1.343-.914,3h2.955c.517,1.857,1.349,2.483,1.138-1.56-.041-.225,2.13-.209,1.361,1.13.357.174-.3.727.914,1.71-.2-.512.229-1.145,1.361-3.42-1.589-.617.556-1.606-2.7-2.33-.235-.77.861-.87.882-1.52-.753.035.361-.417-1.839-1.57.872-.3,1.744-.6,2.627-.91.3.655-.669.051-1.244,1.63,1.448.359,2.815,5.966,3.189.42-.814-1.386.193-1.285,2.5-1.71.406-.057.052-.546,1.585-.42-.011-.3.149-.44.457-.43-.034-1.18.078-.591-.064-3.47h1.754c0,.969-.251.512.446,2.19.9,1.047.69.929.043,3.38.68-.13.946-1.14,1.775-.82a1.8,1.8,0,0,1,1.137-1.76c.351.51.171.93.224,1.33h.457c.308-.75,1.1-1.11,1.573-1.73,1.25.831-1.437,2.208.691,3.44.774-.669-.068,1.888,1.808.63l-.361-.34a1.035,1.035,0,0,1,.829-.71c-.309-.91-1.18-.16-1.743-.57v-2.38c.659.1.915,1.15,1.743.81.085-.85-.925-1.58-.286-2.53h.584a11.226,11.226,0,0,0,.617,4.24c.8-.334-.153,1.737,1.084.92a2.639,2.639,0,0,1,.734,2.07c.766.14.436.96.9,1.28-.072,2.823.227-2.528,2.276-1.28.616.265,1.863-.4,4.551-.43v-.42c-.107.081-2.108-1.492.446-2.14a1.634,1.634,0,0,1,1.733-1.13c-.085.36-.521.67-.361,1.13.555.262.453.54.446,2.14.252.169.234-.139,0,1.28.32-.01.468.13.457.43,3.983-.489-.562,6.051,3.86,5.98.478-.4.213-.7-.149-1,0-.362.549-.175,1.3-1.13h-1.68c.123-.255-.58-.423.308-1.29.254-.873-.667-1.823.457-3.42-.183-.472.89-1.824,1.361.43h.915v-1.51c.6-.37,1.2-.15,2.084-.14-.723.4-1.489.41-1.18,1.22.333.239,1.469.073.457,1.28.011.3-.138.44-.457.43.008.481.288.015,1.372.86,1.1.469-.292.33.9,2.14.725.2.071-2.077,1.818-.86.6.354.03-.328,1.818-.43v-.43c-.457.03-.542-.42-.935-.62.373.254.231-1.435,1.85-.66h.9c.149-.28.309-.57.457-.85-2.389.007-1.1-4.357,1.818-.43.474-.061.071.272,1.818.43v-2.09c1.074.29.894,1.02.915,1.66.3.516.922.275.446,3.42.5.16.83-.28,1.383-.37-.011.77-.766,1.34-.468,2.08.84,0,.84,0,1.818.86.34-.07.871.21.9-.43-1.02-.31-.032-1.08-.521-1.46.606-.48,1.244-.08,1.776-.32-.787-.487-.449-1.473-1.234-3.16.309-.41.83-.04,1.276-.31.043-.33.1-.72.149-1.1.33.55.99.93.83,1.64.053.12.107.24.149.36.277-.44,1.127-.09,1.212-.78-.382-.64-.382-.64,0-1.29-.014-.633-.006-1.987,1.818-1.71,1.033-.586.537-1.4,2.01-3.39.537.064,1.044,1.078,1.446-.46.162,1.436.208.711-2.084,3,.223.54-.393.83-.457,1.28h.67c.478.29.074.8.35,1.2.723-.08.681-.81,1.063-1.16.446.31-.053.84.319,1.16.393,0,.616-.6,1.233-.16v2.81c.521-.01,1.191.15.787-1.01.723.49,1.244.68.978,1.45.755-.2,1.5.46,1.871-.44-.085-.52-.638-.69-.894-1.08.139-.4.968.05.894-.63.224-.42.457-.84.691-1.29.457.53.011,1.12.393,1.72h.734c.29-.374-.632-1.146.457-2.14.542-.42,1.1-.84,1.722-1.31.064.5.128.88.181,1.26.362.1,1.2-1.78,1.276.05.883.2.287.86.457,1.28h.915c.085-.4.361-.65.9-.84v1.7c.128.05.256.09.383.14-.411.4-.052.265-1.286.28-.2.905.647,1.343-.915,3h2.955c.517,1.857,1.349,2.483,1.138-1.56-.038-.224,2.121-.213,1.361,1.13.359.174-.3.73.915,1.71-.2-.512.228-1.145,1.361-3.42-1.594-.617.556-1.606-2.7-2.33-.234-.77.851-.87.883-1.52-.748.037.349-.424-1.839-1.57.861-.3,1.743-.6,2.626-.91.3.655-.669.051-1.244,1.63,1.438.354,2.825,5.967,3.179.42-.787-1.4.2-1.281,2.509-1.71.406-.057.053-.546,1.585-.42-.011-.3.138-.44.457-.43-.034-1.18.078-.591-.064-3.47H-1335c0,.968-.247.512.436,2.19.919,1.041.695.931.053,3.38.68-.13.936-1.14,1.765-.82a1.828,1.828,0,0,1,1.148-1.76c.35.51.17.93.223,1.33h.447c.318-.75,1.1-1.11,1.583-1.73,1.25.831-1.437,2.208.692,3.44.774-.669-.068,1.888,1.807.63l-.361-.34a1.037,1.037,0,0,1,.83-.71c-.308-.91-1.181-.16-1.755-.57v-2.38c.67.1.926,1.15,1.755.81.085-.85-.926-1.58-.287-2.53h.574a11.659,11.659,0,0,0,.627,4.24c.8-.337-.145,1.735,1.074.92a2.609,2.609,0,0,1,.744,2.07c.766.14.436.96.9,1.28-.091,2.82.229-2.523,2.275-1.28.616.265,1.861-.4,4.541-.43v-.42c-.1.08-2.1-1.494.457-2.14a1.632,1.632,0,0,1,1.732-1.13c-.1.36-.521.67-.361,1.13.557.265.452.542.447,2.14.241.169.238-.137,0,1.28.319-.01.467.13.456.43,3.99-.487-.572,6.053,3.86,5.98.478-.4.213-.7-.16-1,.007-.363.562-.169,1.3-1.13h-1.669c.122-.255-.581-.423.308-1.29.254-.873-.667-1.823.457-3.42-.182-.472.89-1.824,1.362.43h.914v-1.51c.6-.37,1.2-.15,2.074-.14-.713.4-1.478.41-1.17,1.22.322.239,1.476.072.457,1.28.011.3-.138.44-.457.43,0,.481.3.015,1.362.86,1.11.467-.281.325.914,2.14.729.193.069-2.081,1.818-.86.585.355.037-.33,1.818-.43v-.43c-.457.03-.552-.42-.946-.62.383.253.228-1.431,1.86-.66h.9c.149-.28.309-.57.457-.85-2.388.007-1.1-4.357,1.818-.43.475-.061.071.272,1.818.43v-2.09c1.074.29.894,1.02.9,1.66.3.517.93.272.457,3.42.5.16.83-.28,1.383-.37-.022.77-.777,1.34-.468,2.08.83,0,.83,0,1.818.86.34-.07.873.21.9-.43-1.021-.31-.043-1.08-.532-1.46.617-.48,1.255-.08,1.786-.32-.786-.487-.449-1.473-1.233-3.16.308-.41.829-.04,1.265-.31.053-.33.107-.72.16-1.1.33.55.977.93.829,1.64.054.12.1.24.149.36.277-.44,1.127-.09,1.212-.78-.382-.64-.382-.64,0-1.29-.013-.634-.009-1.987,1.818-1.71,1.036-.6.536-1.4,2.01-3.39.537.063,1.036,1.078,1.446-.46.16,1.437.207.712-2.084,3,.224.54-.393.83-.457,1.28h.67c.478.29.075.8.351,1.2.723-.08.68-.81,1.063-1.16.446.31-.054.84.318,1.16.382,0,.606-.6,1.233-.16v2.81c.521-.01,1.191.15.787-1.01.723.49,1.244.68.979,1.45.755-.2,1.5.46,1.871-.44-.085-.52-.638-.69-.893-1.08.138-.4.968.05.893-.63.224-.42.457-.84.691-1.29.447.53.011,1.12.394,1.72h.733c.29-.374-.632-1.146.457-2.14.542-.42,1.1-.84,1.712-1.31.074.5.127.88.191,1.26.361.1,1.2-1.78,1.276.05.873.2.288.86.457,1.28h.9c.1-.4.361-.65.915-.84v1.7c.128.05.256.09.383.14-.417.406-.056.264-1.3.28-.2.911.648,1.325-.9,3h2.956c.514,1.861,1.351,2.478,1.137-1.56-.038-.223,2.119-.215,1.361,1.13.354.178-.294.714.9,1.71-.208-.513.24-1.145,1.372-3.42-1.594-.617.556-1.606-2.7-2.33-.234-.77.851-.87.883-1.52-.748.037.349-.424-1.839-1.57.861-.3,1.733-.6,2.626-.91.3.655-.67.052-1.244,1.63,1.435.362,2.826,5.961,3.179.42-.788-1.4.194-1.279,2.51-1.71.405-.057.052-.546,1.583-.42-.01-.3.139-.44.457-.43-.039-1.18.091-.591-.074-3.47h1.764c-.008.969-.242.512.436,2.19.9,1.05.72.921.043,3.38.691-.13.946-1.14,1.775-.82a1.835,1.835,0,0,1,1.137-1.76c.352.51.182.93.235,1.33h.446c.32-.75,1.1-1.11,1.585-1.73,1.256.833-1.458,2.215.691,3.44.775-.669-.07,1.9,1.807.63l-.361-.34a1.022,1.022,0,0,1,.83-.71c-.308-.91-1.191-.16-1.754-.57v-2.38c.659.1.925,1.15,1.754.81.085-.85-.926-1.58-.287-2.53h.574a12.039,12.039,0,0,0,.617,4.24c.8-.338-.131,1.734,1.084.92a2.639,2.639,0,0,1,.734,2.07c.776.14.446.96.915,1.28-.09,2.824.227-2.533,2.275-1.28.625.266,1.853-.4,4.54-.43v-.42c-.1.079-2.113-1.5.457-2.14a1.632,1.632,0,0,1,1.733-1.13c-.1.36-.521.67-.372,1.13.567.259.463.537.457,2.14.24.169.237-.137,0,1.28.318-.01.467.13.457.43,3.972-.486-.561,6.059,3.859,5.98.468-.4.213-.7-.159-1,.01-.361.56-.182,1.3-1.13h-1.67c.125-.254-.584-.426.309-1.29.252-.873-.667-1.823.457-3.42-.179-.473.881-1.816,1.361.43h.9v-1.51c.606-.37,1.212-.15,2.084-.14-.712.4-1.478.41-1.169,1.22.321.239,1.475.072.457,1.28.01.3-.139.44-.457.43,0,.481.3.015,1.361.86,1.11.467-.28.325.915,2.14.72.192.075-2.081,1.818-.86.585.355.037-.33,1.818-.43v-.43c-.457.03-.553-.42-.947-.62.385.253.226-1.424,1.85-.66h.915c.149-.28.3-.57.457-.85-2.416,0-1.094-4.352,1.818-.43.474-.061.07.272,1.818.43v-2.09c1.073.29.893,1.02.9,1.66.3.517.928.272.457,3.42.489.16.819-.28,1.382-.37-.021.77-.776,1.34-.467,2.08.829,0,.829,0,1.818.86.339-.07.861.21.9-.43-1.031-.31-.043-1.08-.532-1.46.617-.48,1.255-.08,1.786-.32-.8-.486-.433-1.486-1.244-3.16.319-.41.841-.04,1.276-.31.054-.33.107-.72.16-1.1.319.55.979.93.83,1.64.053.12.1.24.149.36.277-.44,1.116-.09,1.212-.78-.393-.64-.393-.64,0-1.29-.014-.634-.01-1.987,1.818-1.71,1.035-.6.535-1.4,2.009-3.39.529.063,1.042,1.078,1.447-.46.154,1.44.218.711-2.095,3,.223.54-.383.83-.446,1.28h.669c.468.29.075.8.352,1.2.712-.08.68-.81,1.063-1.16.446.31-.053.84.319,1.16.383,0,.606-.6,1.234-.16v2.81c.52-.01,1.18.15.787-1.01.723.49,1.244.68.977,1.45.756-.2,1.489.46,1.872-.44-.086-.52-.638-.69-.9-1.08.149-.4.978.05.9-.63.223-.42.446-.84.691-1.29.446.53.01,1.12.393,1.72h.733c.291-.374-.632-1.146.458-2.14.542-.42,1.094-.84,1.711-1.31.075.5.128.88.192,1.26.358.1,1.2-1.781,1.276.05.872.2.276.86.457,1.28h.9c.1-.4.361-.65.914-.84v1.7c.128.05.256.09.383.14-.417.406-.056.264-1.3.28-.2.911.641,1.331-.9,3h2.944c.527,1.851,1.358,2.486,1.148-1.56-.037-.223,2.119-.215,1.361,1.13.361.175-.311.724.9,1.71-.363-.405.633-1.752,1.371-3.42-1.593-.617.557-1.606-2.7-2.33-.234-.77.852-.87.883-1.52-.748.037.351-.422-1.839-1.57.862-.3,1.733-.6,2.616-.91.307.655-.661.053-1.234,1.63,1.434.364,2.821,5.961,3.18.42-.8-1.39.185-1.282,2.509-1.71.48-.169.26-.564,1.584-.42-.011-.3.138-.44.456-.43-.039-1.18.091-.591-.074-3.47h1.765c-.01.97-.248.512.435,2.19.9,1.053.712.925.043,3.38.691-.13.947-1.14,1.775-.82a1.834,1.834,0,0,1,1.138-1.76c.35.51.17.93.223,1.33h.457c.32-.75,1.1-1.11,1.584-1.73,1.008.651-1.115,2.656.691,3.44.775-.669-.07,1.9,1.808.63-.107-.1-.213-.2-.372-.34a1.036,1.036,0,0,1,.84-.71c-.309-.91-1.191-.16-1.754-.57v-2.38c.659.1.915,1.15,1.754.81.085-.85-.935-1.58-.286-2.53h.574a11.723,11.723,0,0,0,.616,4.24c.8-.338-.13,1.734,1.084.92a2.636,2.636,0,0,1,.734,2.07c.777.14.447.96.915,1.28-.095,2.823.226-2.533,2.275-1.28.626.266,1.853-.4,4.54-.43v-.42c-.1.079-2.113-1.5.457-2.14-.029-.214.457-1.116,1.733-1.13-.1.36-.521.67-.372,1.13.567.259.463.537.457,2.14.242.168.237-.13,0,1.28.319-.01.468.13.457.43,3.966-.489-.55,6.052,3.849,5.98.478-.4.213-.7-.149-1,0-.361.564-.181,1.3-1.13h-1.669c.125-.254-.584-.426.308-1.29.258-.875-.677-1.825.457-3.42-.179-.473.881-1.816,1.361.43h.9v-1.51c.6-.37,1.212-.15,2.084-.14-.712.4-1.478.41-1.169,1.22.321.239,1.476.072.457,1.28.011.3-.149.44-.457.43.011.481.283.02,1.361.86,1.11.467-.28.325.915,2.14.72.192.075-2.081,1.818-.86.585.355.037-.33,1.818-.43v-.43c-.457.03-.553-.42-.946-.62.386.252.223-1.423,1.85-.66h.915c.149-.28.3-.57.457-.85-2.406.013-1.115-4.357,1.818-.43.474-.061.07.272,1.818.43v-2.09c1.074.29.893,1.02.9,1.66.3.517.928.273.457,3.42.489.16.819-.28,1.372-.37-.011.77-.766,1.34-.468,2.08.84,0,.84,0,1.818.86.351-.07.872.21.914-.43-1.031-.31-.043-1.08-.532-1.46.617-.48,1.244-.08,1.787-.32-.808-.488-.427-1.487-1.244-3.16.318-.41.84-.04,1.276-.31.053-.33.106-.72.159-1.1.319.55.978.93.83,1.64.042.12.1.24.149.36.266-.44,1.116-.09,1.212-.78-.393-.64-.393-.64,0-1.29-.013-.634-.009-1.987,1.818-1.71,1.034-.594.536-1.4,2.01-3.39.528.063,1.042,1.078,1.446-.46.154,1.44.218.712-2.095,3,.224.54-.383.83-.446,1.28h.67c.467.29.064.8.35,1.2.713-.08.681-.81,1.063-1.16.446.31-.053.84.309,1.16.393,0,.617-.6,1.244-.16v2.81c.521-.01,1.18.15.787-1.01.723.49,1.244.68.979,1.45.755-.2,1.488.46,1.871-.44-.085-.52-.638-.69-.9-1.08.149-.4.978.05.9-.63.224-.42.446-.84.691-1.29.446.53.011,1.12.393,1.72h.734c.283-.372-.619-1.14.446-2.14.553-.42,1.1-.84,1.722-1.31.075.5.128.88.181,1.26.365.108,1.214-1.783,1.287.05.872.2.276.86.457,1.28h.9c.1-.4.361-.65.915-.84v1.7c.128.05.255.09.372.14-.4.41-.05.262-1.287.28-.2.909.635,1.334-.9,3h2.945c.527,1.851,1.359,2.487,1.137-1.56-.034-.223,2.109-.215,1.372,1.13.36.175-.311.724.9,1.71-.365-.4.637-1.749,1.361-3.42-1.585-.622.561-1.6-2.7-2.33-.223-.77.862-.87.883-1.52-.738.039.351-.431-1.829-1.57.862-.3,1.733-.6,2.616-.91.31.656-.675.059-1.233,1.63,1.441.363,2.808,5.962,3.179.42-.815-1.39.2-1.282,2.5-1.71.489-.166.267-.564,1.6-.42-.011-.3.138-.44.457-.43-.04-1.18.091-.591-.075-3.47h1.754c.008.97-.24.512.447,2.19.892,1.051.715.927.042,3.38.691-.13.947-1.14,1.776-.82a1.833,1.833,0,0,1,1.137-1.76c.35.51.171.93.224,1.33h.457c.307-.75,1.094-1.11,1.583-1.73,1.26.834-1.463,2.212.692,3.44.774-.669-.07,1.9,1.807.63-.107-.1-.224-.2-.373-.34a1.038,1.038,0,0,1,.84-.71c-.308-.91-1.19-.16-1.754-.57v-2.38c.66.1.915,1.15,1.754.81.086-.85-.936-1.58-.286-2.53h.574a11.409,11.409,0,0,0,.617,4.24c.8-.338-.131,1.735,1.084.92a2.643,2.643,0,0,1,.734,2.07c.776.14.446.96.914,1.28-.1,2.821.229-2.525,2.266-1.28.629.265,1.854-.4,4.551-.43v-.42c-.1.08-2.117-1.495.456-2.14-.028-.214.458-1.116,1.733-1.13-.1.36-.531.67-.371,1.13.567.259.463.537.456,2.14.243.168.237-.13,0,1.28.308-.01.468.13.457.43,3.966-.489-.549,6.053,3.849,5.98.479-.4.213-.7-.149-1,0-.361.565-.181,1.3-1.13h-1.668c.112-.253-.581-.427.307-1.29-.441-.942.5-6.554,1.818-2.99h.9v-1.51c.595-.37,1.2-.15,2.084-.14-.723.4-1.478.41-1.17,1.22.323.24,1.481.074.447,1.28.021.3-.139.44-.447.43.012.481.281.019,1.361.86,1.111.467-.28.325.914,2.14.726.193.064-2.08,1.818-.86.585.355.037-.33,1.818-.43v-.43c-.457.03-.552-.42-.945-.62.385.252.221-1.423,1.85-.66h.914c.149-.28.3-.57.447-.85-2.4,0-1.089-4.354,1.818-.43.485-.059.064.264,1.818.43v-2.09c1.073.29.9,1.02.914,1.66.3.517.93.272.457,3.42.489.16.819-.28,1.372-.37-.011.77-.766,1.34-.468,2.08.841,0,.841,0,1.819.86.351-.07.872.21.914-.43-1.031-.31-.042-1.08-.531-1.46.617-.48,1.244-.08,1.786-.32-.808-.488-.427-1.487-1.244-3.16.318-.41.84-.04,1.276-.31.042-.33.106-.72.16-1.1.319.55.977.93.829,1.64.043.12.1.24.149.36.267-.44,1.116-.09,1.212-.78-.393-.64-.393-.64,0-1.29-.013-.634-.009-1.987,1.818-1.71,1.023-.594.538-1.4,2-3.39.539.064,1.045,1.077,1.447-.46.524,1.073-.441,1.341-2.085,3,.224.54-.382.83-.457,1.28h.681c.468.29.064.8.35,1.2.713-.08.67-.81,1.063-1.16.447.31-.053.84.309,1.16.393,0,.617-.6,1.234-.16v2.81c.531-.01,1.19.15.787-1.01.733.49,1.254.68.989,1.45.744-.2,1.489.46,1.871-.44-.085-.52-.638-.69-.9-1.08.149-.4.979.05.9-.63.224-.42.446-.84.691-1.29.447.53.011,1.12.383,1.72h.744c.287-.374-.623-1.142.446-2.14.553-.42,1.1-.84,1.723-1.31.074.5.127.88.181,1.26.363.107,1.213-1.783,1.286.05.872.2.277.86.446,1.28h.915c.1-.4.361-.65.9-.84v1.7c.128.05.255.09.383.14-.4.41-.05.262-1.287.28-.2.907.65,1.339-.915,3h2.956c.526,1.855,1.353,2.485,1.137-1.56-.041-.225,2.13-.209,1.361,1.13.37.177-.307.719.915,1.71-.363-.4.635-1.745,1.361-3.42-1.589-.618.556-1.606-2.7-2.33-.235-.77.861-.87.882-1.52-.744.039.365-.431-1.839-1.57.872-.3,1.743-.6,2.627-.91.311.655-.672.048-1.245,1.63,1.443.354,2.821,5.965,3.19.42-.815-1.391.206-1.282,2.5-1.71.489-.166.267-.564,1.595-.42-.011-.3.139-.44.446-.43-.034-1.18.078-.591-.064-3.47h1.754c.008.97-.239.512.447,2.19.895,1.052.712.927.042,3.38.692-.13.947-1.14,1.776-.82a1.835,1.835,0,0,1,1.137-1.76c.351.51.171.93.224,1.33h.457c.308-.75,1.1-1.11,1.584-1.73,1.259.834-1.464,2.212.691,3.44.763-.669-.067,1.892,1.8.63l-.361-.34a1.037,1.037,0,0,1,.83-.71c-.3-.91-1.18-.16-1.743-.57v-2.38c.659.1.914,1.15,1.743.81.085-.85-.925-1.58-.286-2.53h.584a11.432,11.432,0,0,0,.617,4.24c.8-.338-.131,1.735,1.084.92a2.638,2.638,0,0,1,.734,2.07c.776.14.436.96.915,1.28-.1,2.821.227-2.525,2.264-1.28.629.265,1.854-.4,4.551-.43v-.42c-.1.08-2.117-1.495.457-2.14-.03-.219.455-1.118,1.722-1.13-.085.36-.521.67-.361,1.13.567.259.463.537.457,2.14.247.167.227-.121,0,1.28.308-.01.467.13.446.43,3.978-.5-.559,6.052,3.86,5.98.478-.4.213-.7-.149-1,0-.361.564-.181,1.3-1.13h-1.68c.121-.254-.575-.424.319-1.29.257-.875-.675-1.823.446-3.42-.179-.479.893-1.814,1.372.43h.9v-1.51c.6-.37,1.2-.15,2.084-.14-.723.4-1.489.41-1.169,1.22.325.24,1.472.075.446,1.28.011.3-.138.44-.446.43,0,.481.28.016,1.361.86,1.092.469-.266.326.9,2.14.734.2.082-2.08,1.818-.86.6.351.03-.32,1.818-.43v-.43c-.457.03-.542-.42-.936-.62.385.254.225-1.434,1.85-.66h.9c.16-.28.308-.57.457-.85-2.4,0-1.087-4.354,1.818-.43.486-.059.064.264,1.818.43v-2.09c1.073.29.892,1.02.915,1.66.3.517.929.272.457,3.42.489.16.819-.28,1.371-.37-.01.77-.765,1.34-.467,2.08.84,0,.84,0,1.818.86.35-.07.872.21.914-.43-1.031-.31-.043-1.08-.532-1.46.617-.48,1.244-.08,1.786-.32.064-.58-.531-.21-.807-.68-.3-.468.644-1.1-.437-2.48.309-.41.841-.04,1.276-.31.043-.33.107-.72.16-1.1.318.55.978.93.819,1.64l.16.36c.266-.44,1.116-.09,1.212-.78-.393-.64-.393-.64,0-1.29-.014-.634-.01-1.987,1.818-1.71,1.025-.594.527-1.4,2-3.39.538.064,1.044,1.077,1.446-.46.157,1.437.221.705-2.084,3,.223.54-.393.83-.457,1.28h.68c.468.29.064.8.352,1.2.712-.08.67-.81,1.052-1.16.446.31-.043.84.319,1.16.393,0,.616-.6,1.233-.16v2.81c.531-.01,1.191.15.787-1.01.723.49,1.254.68.978,1.45.755-.2,1.5.46,1.871-.44-.085-.52-.627-.69-.894-1.08.149-.4.967.05.894-.63.234-.42.457-.84.7-1.29.446.53.01,1.12.382,1.72h.734c.29-.374-.632-1.146.457-2.14.553-.42,1.1-.84,1.722-1.31.074.5.128.88.181,1.26.359.107,1.224-1.783,1.276.05.883.2.286.86.457,1.28h.915c.085-.4.361-.65.9-.84v1.7c.127.05.255.09.382.14-.4.41-.049.262-1.286.28-.2.907.647,1.343-.915,3h2.955c.527,1.855,1.353,2.485,1.138-1.56-.041-.225,2.13-.209,1.361,1.13.37.176-.307.721.915,1.71-.2-.512.228-1.145,1.361-3.42-1.591-.617.555-1.606-2.7-2.33-.235-.77.861-.87.883-1.52-.756.039.367-.433-1.84-1.57.873-.3,1.744-.6,2.627-.91.312.655-.671.048-1.244,1.63,1.443.357,2.819,5.965,3.189.42-.815-1.39.2-1.28,2.5-1.71.406-.057.053-.546,1.584-.42-.011-.3.149-.44.457-.43.219-8.055.614-17.752.542-27.93A2.965,2.965,0,0,0-934.217-1437.732Z" transform="translate(2861.824 1467.902)" fill="#fff"/>
</svg>
