<svg xmlns="http://www.w3.org/2000/svg" width="54" height="59.147" viewBox="0 0 54 59.147">
  <g id="Group_403" data-name="Group 403" transform="translate(1231.466 -217.445)">
    <g id="Group_403-2" data-name="Group 403" transform="translate(-1231.466 217.445)">
      <path id="Path_4163" data-name="Path 4163" d="M-1224.108,254.884a6.9,6.9,0,0,0,5.3,8.094,6.9,6.9,0,0,0,8.205-5.283l1.132-10.386c-3.72-2.019-2.357,6.35-8.783,4.963C-1222.671,251.316-1223.875,254.14-1224.108,254.884Z" transform="translate(1230.244 -222.445)"/>
      <path id="Path_4164" data-name="Path 4164" d="M-1177.552,263.177a1.666,1.666,0,0,0-2.109-1.058l-4.634,1.541-2.915-8.766a12.151,12.151,0,0,0,5.572-5.474,12.257,12.257,0,0,0,.621-9.511l-7.615-17.6-20.248,6.737,1.352,5.5-17.3-3.741-5.707,18.46a12.2,12.2,0,0,0,1.682,9.248,12.133,12.133,0,0,0,6.13,4.837l-1.953,9.03-4.767-1.028a1.679,1.679,0,0,0-1.981,1.279,1.666,1.666,0,0,0,1.278,1.981l6.381,1.379c.005,0,.008,0,.011,0s.016,0,.023,0l6.383,1.378a1.67,1.67,0,0,0,.354.037,1.667,1.667,0,0,0,1.627-1.316,1.667,1.667,0,0,0-1.278-1.981l-4.77-1.032,1.947-8.993c.319.026.638.052.958.052a12.359,12.359,0,0,0,12-9.816l1.353-10.141.888,3.612a12.258,12.258,0,0,0,11.645,8.4,12.119,12.119,0,0,0,2.258-.233l2.907,8.742-4.626,1.537a1.667,1.667,0,0,0-1.058,2.108,1.67,1.67,0,0,0,1.583,1.141,1.635,1.635,0,0,0,.526-.085l12.424-4.131A1.668,1.668,0,0,0-1177.552,263.177Zm-32.24-9.419a9.06,9.06,0,0,1-10.632,6.846h0a8.873,8.873,0,0,1-5.628-3.894,8.841,8.841,0,0,1-1.261-6.6l4.766-15.4,14.863,3.213Zm8.724-6.881-3.84-15.639,14.431-4.8,6.347,14.66a8.894,8.894,0,0,1-.489,6.83,8.888,8.888,0,0,1-5.177,4.482,8.871,8.871,0,0,1-2.829.462A8.9,8.9,0,0,1-1201.068,246.876Z" transform="translate(1231.466 -218.268)"/>
      <path id="Path_4165" data-name="Path 4165" d="M-1179.846,244.755c-.322-.712-1.815-3.392-6.1-1.967-6.243,2.076-5.791-6.392-9.268-3.984l2.244,10.2a6.911,6.911,0,0,0,8.726,4.371A6.906,6.906,0,0,0-1179.846,244.755Z" transform="translate(1225.331 -220.986)"/>
      <path id="Path_4166" data-name="Path 4166" d="M-1211.7,221.215a1.888,1.888,0,0,0,1.781-1.985,1.887,1.887,0,0,0-1.985-1.783,1.887,1.887,0,0,0-1.784,1.986A1.889,1.889,0,0,0-1211.7,221.215Z" transform="translate(1228.458 -217.445)"/>
      <path id="Path_4167" data-name="Path 4167" d="M-1202.926,225.18a1.887,1.887,0,0,0,1.78-1.986,1.887,1.887,0,0,0-1.985-1.781,1.888,1.888,0,0,0-1.784,1.985A1.888,1.888,0,0,0-1202.926,225.18Z" transform="translate(1226.973 -218.116)"/>
      <path id="Path_4168" data-name="Path 4168" d="M-1212.56,227.449a1.886,1.886,0,0,0,1.984,1.782,1.888,1.888,0,0,0,1.785-1.986,1.889,1.889,0,0,0-1.989-1.781A1.888,1.888,0,0,0-1212.56,227.449Z" transform="translate(1228.267 -218.801)"/>
    </g>
  </g>
</svg>
